<?xml version="1.0" encoding="UTF-8"?>
<svg width="58px" height="64px" viewBox="0 0 58 64" version="1.1" xmlns="http://www.w3.org/2000/svg" xmlns:xlink="http://www.w3.org/1999/xlink">
    <!-- Generator: Sketch 43.1 (39012) - http://www.bohemiancoding.com/sketch -->
    <title>fancyIcon</title>
    <desc>Created with Sketch.</desc>
    <defs></defs>
    <g id="INTERNALS" stroke="none" stroke-width="1" fill="none" fill-rule="evenodd">
        <g id="HomepageV9-V2" transform="translate(-132.000000, -2155.000000)" fill-rule="nonzero">
            <g id="Section---Full-Service-Dev" transform="translate(126.000000, 1823.000000)">
                <g id="FancyList" transform="translate(0.000000, 111.000000)">
                    <g id="btmRow" transform="translate(0.000000, 212.000000)">
                        <g id="topRow" transform="translate(0.000000, 4.000000)">
                            <g id="fancyIcon">
                                <g id="2ndgenericIcon">
                                    <g id="Layer_2">
                                        <g>
                                            <g id="Layer_1-2">
                                                <circle id="Oval" cx="34.5" cy="34.5" r="34.5"></circle>
                                                <path d="M50.9575781,18.4197656 L18.1448438,18.4197656 C18.1448438,18.4197656 16.2904688,27.5838281 19.3146094,37.0174219 C21.5625,44.1007031 25.4383594,48.7096875 30.1335938,50.45625 L30.0958594,50.45625 C30.0958594,50.45625 32.7480469,53.3132812 32.9259375,56.5638281 C33.1038281,59.814375 30.6403125,64.385625 30.6403125,64.385625 L38.8933594,64.385625 C38.8933594,64.385625 36.4352344,59.814375 36.6077344,56.5638281 C36.7802344,53.3132812 39.4378125,50.45625 39.4378125,50.45625 L38.9688281,50.45625 C43.6640625,48.7096875 47.5183594,44.1007031 49.7878125,37.0174219 C52.828125,27.5676562 50.9575781,18.4197656 50.9575781,18.4197656 Z" id="Shape" fill="#59EAA0"></path>
                                                <path d="M34.5539062,46.5103125 C27.4921875,46.5103125 21.5625,41.4539062 18.155625,32.1874219 C18.4277746,33.8302632 18.8168892,35.4515738 19.32,37.0389844 C22.2686719,46.2192187 27.8695312,51.2594531 34.5539062,51.2594531 C41.2382812,51.2594531 46.8391406,46.2246094 49.7878125,37.0174219 C50.2915279,35.4301795 50.680653,33.8088252 50.9521875,32.1658594 C47.5614844,41.4539062 41.5994531,46.5103125 34.5539062,46.5103125 Z" id="Shape" fill="#32AD9C"></path>
                                                <rect id="Rectangle-path" fill="#59EAA0" x="16.7109375" y="16.6570313" width="35.578125" height="4.36640625" rx="2.18320312"></rect>
                                                <path d="M18.5491406,43.0225781 C18.0624924,43.0215883 17.6253711,42.7247049 17.4450432,42.272699 C17.2647154,41.820693 17.3774394,41.3044488 17.7297656,40.96875 C18.1071094,40.6129688 18.1232812,40.365 17.7782812,39.890625 C17.4332812,39.41625 17.0128125,39.3515625 15.9724219,39.1089844 C13.9505071,38.7020885 12.0276949,37.9036636 10.3122656,36.7586719 C7.54019799,34.873309 6.1309411,31.5379271 6.71132812,28.2360938 C7.11023437,25.9342969 8.44710937,24.2955469 10.2853125,23.8535156 C14.4953906,22.8508594 17.3254687,27.5083594 17.4440625,27.7024219 C17.7819701,28.2680823 17.59734,29.0005689 17.0316797,29.3384765 C16.4660193,29.6763842 15.7335327,29.4917541 15.395625,28.9260938 L15.395625,28.9260938 C15.395625,28.89375 13.3417969,25.573125 10.8351562,26.1714844 C9.95109375,26.3817188 9.28804687,27.3035156 9.06164062,28.635 C8.72742187,30.5648438 9.38507812,33.3032813 11.6114062,34.7479688 C13.09367,35.7391501 14.7570348,36.4279443 16.5060937,36.7748438 C17.6866406,37.044375 18.8078906,37.3139063 19.6703906,38.4351563 C20.1962955,39.0366778 20.4597415,39.8235698 20.4020235,40.6204843 C20.3443054,41.4173988 19.9702193,42.1581162 19.363125,42.6775781 C19.1464051,42.8931931 18.8547937,43.01679 18.5491406,43.0225781 Z" id="Shape" fill="#59EAA0"></path>
                                                <path d="M50.6449219,43.0225781 C51.1305886,43.0194025 51.5657056,42.7217228 51.7446504,42.2702131 C51.9235952,41.8187034 51.8105381,41.3037684 51.4589062,40.96875 C51.0815625,40.6129688 51.0707812,40.365 51.4103906,39.890625 C51.75,39.41625 52.1758594,39.3515625 53.21625,39.1089844 C55.2381648,38.7020885 57.160977,37.9036636 58.8764062,36.7586719 C61.6484739,34.873309 63.0577308,31.5379271 62.4773437,28.2360938 C62.0784375,25.9342969 60.7415625,24.2955469 58.9033594,23.8535156 C54.6932812,22.8508594 51.8632031,27.5083594 51.7446094,27.7024219 C51.5260214,28.06834 51.5192529,28.5230775 51.7268533,28.8953393 C51.9344537,29.2676011 52.3248837,29.5008316 52.751072,29.5071752 C53.1772604,29.5135189 53.5744589,29.2920119 53.7930469,28.9260938 L53.7930469,28.9260938 C53.7930469,28.89375 55.846875,25.573125 58.3535156,26.1714844 C59.2375781,26.3817188 59.900625,27.3035156 60.1270312,28.635 C60.46125,30.5648438 59.8035937,33.3032813 57.5772656,34.7479688 C56.0948679,35.7388996 54.4315547,36.4276724 52.6825781,36.7748438 C51.4966406,37.044375 50.3807812,37.3139063 49.5182812,38.4351563 C48.9923764,39.0366778 48.7289303,39.8235698 48.7866484,40.6204843 C48.8443665,41.4173988 49.2184526,42.1581162 49.8255469,42.6775781 C50.0436031,42.8944753 50.3373938,43.0181767 50.6449219,43.0225781 Z" id="Shape" fill="#59EAA0"></path>
                                                <polyline id="Shape" fill="#59EAA0" points="23.1689063 68.4609375 23.1689063 64.1214844 45.8203125 64.1214844 45.8203125 68.4609375"></polyline>
                                                <path d="M42.4188281,42.5859375 C42.1867992,42.5859375 41.9808025,42.4374635 41.9074285,42.2173415 C41.8340546,41.9972196 41.9097675,41.7548423 42.0953906,41.615625 C45.5022656,39.0766406 46.9469531,34.6886719 47.566875,31.4542969 C47.6025039,31.2617084 47.738171,31.1027571 47.922772,31.0373183 C48.1073729,30.9718796 48.3128624,31.0098952 48.4618345,31.1370449 C48.6108066,31.2641946 48.6806289,31.4611615 48.645,31.65375 C47.7124219,36.5592187 45.6747656,40.27875 42.7584375,42.478125 C42.6607272,42.5515179 42.5409792,42.5895331 42.4188281,42.5859375 Z" id="Shape" fill="#FFFFFF"></path>
                                                <path d="M48.5533594,28.6296094 L48.515625,28.6296094 C48.2020271,28.612204 47.9612647,28.3449578 47.9765625,28.03125 C48.0711311,26.9227946 48.0711311,25.8082991 47.9765625,24.6998437 C47.9765625,24.4033594 48.3,24.1607812 48.5964844,24.1284375 C48.8929688,24.0960937 49.0385156,24.3386719 49.0546875,24.6351562 C49.171496,25.7911975 49.171496,26.9560681 49.0546875,28.1121094 C49.0575746,28.2474279 49.0062052,28.3782773 48.9120298,28.4754906 C48.8178545,28.5727039 48.6887013,28.6282003 48.5533594,28.6296094 Z" id="Shape" fill="#FFFFFF"></path>
                                                <path d="M22.1015625,36.65625 C21.894207,36.655663 21.7055686,36.536192 21.6164062,36.3489844 C19.4601562,31.8154687 19.9992187,24.538125 20.0315625,24.2308594 C20.038454,24.0858397 20.1035503,23.9497306 20.2121176,23.8533391 C20.320685,23.7569475 20.4635438,23.7084235 20.6083594,23.71875 C20.7515042,23.7297407 20.8843513,23.7973779 20.9774491,23.9066666 C21.0705469,24.0159553 21.1162035,24.157866 21.1042969,24.3009375 C21.1042969,24.3710156 20.5652344,31.5944531 22.5867187,35.8638281 C22.676508,36.0323837 22.6704106,36.2358659 22.5706901,36.3987428 C22.4709695,36.5616197 22.2925128,36.6595758 22.1015625,36.65625 Z" id="Shape" fill="#FFFFFF"></path>
                                                <path d="M49.59375,19.40625 L26.4140625,19.40625 C26.1163465,19.40625 25.875,19.1649035 25.875,18.8671875 C25.875,18.5694715 26.1163465,18.328125 26.4140625,18.328125 L49.59375,18.328125 C49.891466,18.328125 50.1328125,18.5694715 50.1328125,18.8671875 C50.1328125,19.1649035 49.891466,19.40625 49.59375,19.40625 Z" id="Shape" fill="#FFFFFF"></path>
                                                <path d="M43.125,66.84375 L31.265625,66.84375 C30.967909,66.84375 30.7265625,66.6024035 30.7265625,66.3046875 C30.7265625,66.0069715 30.967909,65.765625 31.265625,65.765625 L43.125,65.765625 C43.422716,65.765625 43.6640625,66.0069715 43.6640625,66.3046875 C43.6640625,66.6024035 43.422716,66.84375 43.125,66.84375 Z" id="Shape" fill="#FFFFFF"></path>
                                                <polygon id="Shape" stroke="#60FFE9" fill="#FFFFFF" points="34.7695312 26.4140625 36.6832031 30.316875 40.96875 30.9475781 37.8691406 33.9825 38.6022656 38.2734375 34.7695312 36.2465625 30.9367969 38.2734375 31.6699219 33.9825 28.5703125 30.9475781 32.8558594 30.316875"></polygon>
                                                <path d="M42.046875,8.53335937 C42.046875,8.323125 41.8042969,8.11289062 41.5078125,8.06976562 L40.5051562,7.91882812 C40.1948169,7.85723825 39.9522149,7.61463626 39.890625,7.30429687 L39.7396875,6.30164062 C39.6965625,6.01054687 39.4863281,5.76257812 39.2760937,5.76257812 C39.0658594,5.76257812 38.855625,5.99976562 38.8125,6.30164062 L38.6615625,7.30429687 C38.5999726,7.61463626 38.3573706,7.85723825 38.0470312,7.91882812 L37.0389844,8.0859375 C36.7478906,8.1290625 36.4999219,8.33929687 36.4999219,8.54953125 C36.4999219,8.75976562 36.7425,8.97 37.0389844,9.013125 L38.0416406,9.1640625 C38.35198,9.22565238 38.594582,9.46825437 38.6561719,9.77859375 L38.8125,10.78125 C38.855625,11.0723437 39.0658594,11.3203125 39.2760937,11.3203125 C39.4863281,11.3203125 39.6911719,11.0777344 39.7342969,10.78125 L39.8960156,9.62226562 C39.9494356,9.31453789 40.2000553,9.07930707 40.5105469,9.04546875 L41.5078125,8.95382812 C41.7935156,8.93226562 42.046875,8.74359375 42.046875,8.53335937 Z" id="Shape" fill="#FFFFFF"></path>
                                                <path d="M23.3791406,50.0357813 C23.3791406,49.8255469 23.1419531,49.6153125 22.8400781,49.5721875 L21.8374219,49.42125 C21.5270825,49.3596601 21.2844805,49.1170581 21.2228906,48.8067188 L21.0719531,47.8040625 C21.0288281,47.5129688 20.8185937,47.265 20.6083594,47.265 C20.398125,47.265 20.1878906,47.5075781 20.1447656,47.8040625 L19.9938281,48.8067188 C19.9343472,49.1074105 19.7046038,49.3455849 19.40625,49.4158594 L18.3820312,49.59375 C18.0909375,49.636875 17.8429687,49.8471094 17.8429687,50.0573438 C17.8429687,50.2675781 18.0801562,50.4778125 18.3820312,50.5209375 L19.40625,50.671875 C19.7028509,50.7365774 19.9345163,50.9682428 19.9992187,51.2648438 L20.1501562,52.2890625 C20.1932812,52.5801563 20.4035156,52.828125 20.61375,52.828125 C20.8239844,52.828125 21.0288281,52.5855469 21.0719531,52.2890625 L21.2336719,51.1300781 C21.2870918,50.8223504 21.5377116,50.5871196 21.8482031,50.5532813 L22.8400781,50.4778125 C23.1365625,50.4346875 23.3791406,50.2460156 23.3791406,50.0357813 Z" id="Shape" fill="#FFFFFF"></path>
                                                <path d="M63.0110156,28.160625 C62.574375,25.6378125 61.0865625,23.848125 59.0273437,23.3467969 C58.5983065,23.2437102 58.1586692,23.1912432 57.7174219,23.1904688 C55.0598437,23.1904688 53.0707031,25.1041406 52.0464844,26.3709375 C52.0943206,24.5863684 52.0331129,22.8005435 51.8632031,21.0234375 L51.75,21.0234375 C52.4385511,20.498572 52.8383386,19.6790075 52.828125,18.8132813 C52.8238845,18.1046687 52.5368186,17.4270952 52.0307093,16.9311081 C51.5246001,16.4351211 50.8413661,16.1618007 50.1328125,16.171875 L18.8671875,16.171875 C17.707043,16.171875 16.6770594,16.9142452 16.3101895,18.0148548 C15.9433197,19.1154645 16.3218844,20.3273508 17.25,21.0234375 L17.25,21.0234375 C17.0805443,22.7663471 17.0157405,24.5178491 17.0559375,26.2685156 C15.999375,25.0071094 14.0479687,23.1796875 11.47125,23.1796875 C11.0300027,23.1804619 10.5903654,23.2329289 10.1613281,23.3360156 C8.10210937,23.8265625 6.61429687,25.6270313 6.17765625,28.1498438 C5.6709375,31.093125 6.65742187,35.0390625 10.0157812,37.216875 C11.7831659,38.3981677 13.7646063,39.2222418 15.8484375,39.6426563 C16.861875,39.8744531 17.1421875,39.9660938 17.3470312,40.2302344 C17.4386719,40.3542188 17.4710156,40.4189063 17.4817969,40.4242969 C17.4462303,40.4758119 17.4046039,40.5228678 17.3578125,40.5644531 C16.6611571,41.2209169 16.6285753,42.3178368 17.2850391,43.0144922 C17.9415028,43.7111476 19.0384227,43.7437294 19.7350781,43.0872656 C20.132668,42.7193651 20.4501359,42.2734419 20.6676562,41.7773438 C22.9371094,46.3054688 26.0582812,49.3996875 29.7185156,50.8335938 C29.8694531,51.0007031 32.2305469,53.6475 32.4138281,56.5853906 C32.5485937,59.0273438 31.0661719,62.3425781 30.4570312,63.5932031 L23.1796875,63.5932031 C22.8819715,63.5932031 22.640625,63.8345496 22.640625,64.1322656 L22.640625,67.9057031 L12.6086719,67.9057031 C12.3109559,67.9057031 12.0696094,68.1470496 12.0696094,68.4447656 C12.0696094,68.7424816 12.3109559,68.9838281 12.6086719,68.9838281 L50.3430469,68.9838281 C50.6407629,68.9838281 50.8821094,68.7424816 50.8821094,68.4447656 C50.8821094,68.1470496 50.6407629,67.9057031 50.3430469,67.9057031 L46.359375,67.9057031 L46.359375,64.1322656 C46.359375,63.8345496 46.1180285,63.5932031 45.8203125,63.5932031 L39.1035937,63.5932031 C38.4890625,62.3317969 37.0120312,59.0219531 37.1467969,56.5853906 C37.3085156,53.5720313 39.9283594,50.6557031 39.9499219,50.5964063 C43.3945312,49.0546875 46.3216406,46.0305469 48.4832812,41.6910938 C48.7013762,42.22441 49.0345415,42.70299 49.4589844,43.0926563 C50.1556398,43.74912 51.2525596,43.7165382 51.9090234,43.0198828 C52.5654872,42.3232274 52.5329054,41.2263075 51.83625,40.5698438 C51.7607812,40.494375 51.7230469,40.45125 51.7122656,40.4458594 C51.7475594,40.3700565 51.7928875,40.2993446 51.8470312,40.235625 C52.0464844,39.9714844 52.3267969,39.8852344 53.345625,39.6480469 C55.4294154,39.2274989 57.4108307,38.4034353 59.1782812,37.2222656 C62.53125,35.0390625 63.5177344,31.1039063 63.0110156,28.160625 Z M51.8308594,29.7778125 L51.8847656,29.8155469 C52.7040915,30.3026716 53.7629412,30.0379592 54.2566406,29.2225781 C54.2566406,29.2225781 55.8738281,26.6566406 57.744375,26.6566406 C57.9078523,26.6574272 58.0706768,26.677328 58.2295312,26.7159375 C58.8871875,26.8722656 59.4100781,27.6485156 59.59875,28.7482031 C59.9670536,30.8951177 59.0670181,33.0623359 57.2861719,34.3167187 C55.8543922,35.2736504 54.2478409,35.9386197 52.5585937,36.2735156 C51.7865093,36.4129298 51.0396918,36.6673202 50.3430469,37.0282031 C51.0784572,34.6686313 51.576858,32.2416357 51.8308594,29.7832031 L51.8308594,29.7778125 Z M17.25,18.8132812 C17.25,17.9201333 17.9740395,17.1960937 18.8671875,17.1960937 L50.1328125,17.1960937 C51.0408463,17.1960937 51.7769531,17.9322006 51.7769531,18.8402344 C51.7769531,19.7482682 51.0408463,20.484375 50.1328125,20.484375 L18.8671875,20.484375 C18.4287774,20.4846186 18.0090542,20.3068571 17.7041744,19.9918146 C17.3992946,19.6767721 17.2353863,19.2514478 17.25,18.8132812 Z M17.2823438,29.8317187 C17.5348526,32.2528101 18.0241466,34.6433092 18.7432031,36.9689062 C18.0719617,36.6406075 17.3592944,36.4048651 16.6246875,36.268125 C14.939506,35.9337962 13.3367138,35.2706982 11.9078906,34.3167187 C10.1270444,33.0623359 9.22700891,30.8951177 9.5953125,28.7482031 C9.78398438,27.6700781 10.306875,26.8722656 10.9645313,26.7159375 C11.1233679,26.6772303 11.286204,26.6573281 11.4496875,26.6566406 C13.3417969,26.6566406 14.92125,29.2010156 14.9374219,29.2225781 C15.4228279,30.0302237 16.4652282,30.3010082 17.2823438,29.8317187 L17.2823438,29.8317187 Z M18.9965625,42.305625 C18.7305378,42.5474331 18.3209037,42.5355252 18.069375,42.2786719 C17.8217602,42.0148217 17.8338043,41.6005049 18.0963281,41.3514844 C18.3671846,41.1443228 18.5347007,40.8297251 18.5553918,40.4893562 C18.5760829,40.1489873 18.4479085,39.8164145 18.2041406,39.5779688 C17.7459375,38.9742188 17.1260156,38.8340625 16.0910156,38.596875 C14.1324207,38.2014477 12.2700527,37.4268344 10.60875,36.3166406 C8.01647179,34.5498864 6.70018931,31.4279344 7.245,28.3385156 C7.60617187,26.2523438 8.79210937,24.7753125 10.4146875,24.3925781 C10.767891,24.3087378 11.1297977,24.2671185 11.4928125,24.2685938 C14.7271875,24.2685938 16.9157812,27.8479688 17.0074219,27.9989063 C17.1891064,28.3089484 17.0882883,28.70742 16.7810156,28.89375 C16.4689164,29.0729182 16.0709887,28.9728406 15.8807812,28.6673438 C15.8053125,28.5433594 13.9725,25.5839063 11.47125,25.5839063 C11.224347,25.5839557 10.9782981,25.6129027 10.738125,25.6701563 C9.66,25.9289063 8.82445312,27.0124219 8.581875,28.5649219 C8.22070312,30.6672656 8.93765625,33.6428906 11.3688281,35.2223438 C12.9045308,36.250729 14.6284688,36.9652198 16.4414062,37.3246875 C17.5734375,37.5834375 18.5491406,37.8098438 19.2930469,38.7855469 C19.3992119,38.9255312 19.4947148,39.0732904 19.57875,39.2275781 C19.6596094,39.4270313 19.7350781,39.631875 19.8213281,39.8259375 C20.057405,40.7427517 19.7347399,41.7128562 18.9965625,42.305625 Z M45.28125,67.921875 L23.71875,67.921875 L23.71875,64.6875 L45.28125,64.6875 L45.28125,67.921875 Z M36.0740625,56.536875 C35.9392969,58.9734375 37.1953125,62.0353125 37.9122656,63.609375 L31.6267969,63.609375 C32.3599219,62.0353125 33.5997656,58.9734375 33.465,56.536875 C33.282682,54.6831041 32.6090449,52.9115502 31.5135937,51.405 C33.6950632,51.9152591 35.9699943,51.8670536 38.1278906,51.2648438 C36.978165,52.8035913 36.268255,54.6258799 36.0740625,56.536875 Z M34.5539062,50.671875 C28.6942969,50.671875 23.7726562,46.6289063 20.78625,39.4378125 C20.721435,39.2357075 20.6403088,39.0392019 20.5436719,38.8502344 C20.2903125,38.2033594 20.0477344,37.5457031 19.8267187,36.8557031 C18.3315489,31.8847258 17.8098988,26.6718853 18.2903906,21.5032031 C18.4799646,21.5436523 18.673349,21.5635329 18.8671875,21.5625 L50.1328125,21.5625 C50.3606529,21.5591775 50.5871199,21.5265662 50.8066406,21.4654688 C51.29202,26.6448407 50.7703163,31.8692006 49.2703125,36.8503125 C46.4510156,45.6639844 41.0819531,50.671875 34.5539062,50.671875 Z M58.5853125,36.3220312 C56.9217733,37.4305994 55.0576143,38.2033647 53.0976562,38.596875 C52.0680469,38.8340625 51.448125,38.9742187 50.9845312,39.5779687 C50.7407634,39.8164145 50.6125889,40.1489873 50.6332801,40.4893562 C50.6539712,40.8297251 50.8214873,41.1443228 51.0923437,41.3514844 C51.3548675,41.6005049 51.3669116,42.0148217 51.1192969,42.2786719 C50.8684141,42.532107 50.4627622,42.5439681 50.1975,42.305625 C49.696318,41.8787595 49.3873053,41.2686972 49.3396812,40.6120926 C49.2920571,39.9554881 49.509802,39.3072196 49.9441406,38.8125 C50.6880469,37.8367969 51.6691406,37.6103906 52.8065625,37.34625 C54.6153508,36.987075 56.3354775,36.2744773 57.8683594,35.2492969 C60.2995312,33.6698437 61.0164844,30.6888281 60.6553125,28.591875 C60.3857812,27.039375 59.5771875,25.9558594 58.4990625,25.6971094 C58.2571181,25.639535 58.0092471,25.6105866 57.7605469,25.6108594 C55.2592969,25.6108594 53.4480469,28.5703125 53.3510156,28.6996875 C53.1593687,28.9996819 52.7674298,29.0988472 52.4561719,28.9260937 C52.3059142,28.8375142 52.1973938,28.6924438 52.1548515,28.5232875 C52.1123092,28.3541312 52.1392895,28.1749827 52.2297656,28.0258594 C52.2297656,27.988125 54.4722656,24.2955469 57.744375,24.2955469 C58.1073898,24.2940716 58.4692965,24.3356909 58.8225,24.4195312 C60.4396875,24.8076562 61.6310156,26.2846875 61.9921875,28.3654687 C62.5189121,31.4567182 61.185916,34.5698545 58.5853125,36.3220312 L58.5853125,36.3220312 Z" id="Shape" fill="#59EAA0"></path>
                                            </g>
                                        </g>
                                    </g>
                                </g>
                            </g>
                        </g>
                    </g>
                </g>
            </g>
        </g>
    </g>
</svg>