<?xml version="1.0" encoding="UTF-8"?>
<svg width="56px" height="55px" viewBox="0 0 56 55" version="1.1" xmlns="http://www.w3.org/2000/svg" xmlns:xlink="http://www.w3.org/1999/xlink">
    <!-- Generator: Sketch 43.1 (39012) - http://www.bohemiancoding.com/sketch -->
    <title>fancyIcon</title>
    <desc>Created with Sketch.</desc>
    <defs></defs>
    <g id="INTERNALS" stroke="none" stroke-width="1" fill="none" fill-rule="evenodd">
        <g id="HomepageV9-V2" transform="translate(-474.000000, -2165.000000)" fill-rule="nonzero">
            <g id="Section---Full-Service-Dev" transform="translate(126.000000, 1823.000000)">
                <g id="FancyList" transform="translate(0.000000, 111.000000)">
                    <g id="btmRow" transform="translate(0.000000, 212.000000)">
                        <g transform="translate(329.000000, 0.000000)" id="fancyIcon">
                            <g>
                                <g id="techldrshipIcon" transform="translate(47.275554, 47.002472) rotate(-42.000000) translate(-47.275554, -47.002472) translate(14.275554, 14.002472)">
                                    <g transform="translate(0.000000, -0.000000)" id="Layer_2">
                                        <g transform="translate(0.000000, -0.000000)">
                                            <g id="Layer_1-2" transform="translate(0.000000, -0.000000)">
                                                <rect id="Rectangle-path" fill="#59EAA0" x="13.4242966" y="13.4388555" width="38.5521709" height="38.5521709" rx="8"></rect>
                                                <rect id="Rectangle-path" fill="#EFFEFC" x="21.6020298" y="21.9028094" width="22.1967045" height="22.1967045" rx="6"></rect>
                                                <rect id="Rectangle-path" fill="#FFFFFF" x="28.2201525" y="28.2347114" width="8.95461788" height="8.95461788" rx="2"></rect>
                                                <path d="M20.2118151,13.9236783 C19.8892125,13.9236783 19.6276913,13.6621571 19.6276913,13.3395545 L19.6276913,9.05208575 C19.6276913,8.72948309 19.8892125,8.46796195 20.2118151,8.46796195 C20.5344178,8.46796195 20.795939,8.72948309 20.795939,9.05208575 L20.795939,13.3337132 C20.7974983,13.4896421 20.736646,13.6397213 20.626932,13.7505324 C20.5172181,13.8613434 20.3677518,13.9236861 20.2118151,13.9236783 L20.2118151,13.9236783 Z" id="Shape" fill="#32AD9C"></path>
                                                <path d="M26.637177,13.9236783 C26.3145743,13.9236783 26.0530532,13.6621571 26.0530532,13.3395545 L26.0530532,5.74594504 C26.0530532,5.42334237 26.3145743,5.16182123 26.637177,5.16182123 C26.9597796,5.16182123 27.2213008,5.42334237 27.2213008,5.74594504 L27.2213008,13.3395545 C27.2213008,13.6621571 26.9597796,13.9236783 26.637177,13.9236783 Z" id="Shape" fill="#32AD9C"></path>
                                                <path d="M33.0625388,13.9236783 C32.7399361,13.9236783 32.478415,13.6621571 32.478415,13.3395545 L32.478415,9.05208575 C32.478415,8.72948309 32.7399361,8.46796195 33.0625388,8.46796195 C33.3851415,8.46796195 33.6466626,8.72948309 33.6466626,9.05208575 L33.6466626,13.3337132 C33.648222,13.4896421 33.5873696,13.6397213 33.4776557,13.7505324 C33.3679417,13.8613434 33.2184754,13.9236861 33.0625388,13.9236783 L33.0625388,13.9236783 Z" id="Shape" fill="#32AD9C"></path>
                                                <path d="M38.9037768,13.9236783 C38.5811741,13.9236783 38.319653,13.6621571 38.319653,13.3395545 L38.319653,9.05208575 C38.319653,8.72948309 38.5811741,8.46796195 38.9037768,8.46796195 C39.2263795,8.46796195 39.4879006,8.72948309 39.4879006,9.05208575 L39.4879006,13.3337132 C39.48946,13.4896421 39.4286076,13.6397213 39.3188937,13.7505324 C39.2091798,13.8613434 39.0597135,13.9236861 38.9037768,13.9236783 L38.9037768,13.9236783 Z" id="Shape" fill="#32AD9C"></path>
                                                <path d="M45.3291386,13.9236783 C45.006536,13.9236783 44.7450148,13.6621571 44.7450148,13.3395545 L44.7450148,9.05208575 C44.7450148,8.72948309 45.006536,8.46796195 45.3291386,8.46796195 C45.6517413,8.46796195 45.9132624,8.72948309 45.9132624,9.05208575 L45.9132624,13.3337132 C45.9148218,13.4896421 45.8539694,13.6397213 45.7442555,13.7505324 C45.6345416,13.8613434 45.4850753,13.9236861 45.3291386,13.9236783 L45.3291386,13.9236783 Z" id="Shape" fill="#32AD9C"></path>
                                                <path d="M20.2118151,56.9502375 C19.8892125,56.9502375 19.6276913,56.6887164 19.6276913,56.3661137 L19.6276913,52.2772471 C19.6276913,51.9546444 19.8892125,51.6931233 20.2118151,51.6931233 C20.5344178,51.6931233 20.795939,51.9546444 20.795939,52.2772471 L20.795939,56.3661137 C20.795939,56.6887164 20.5344178,56.9502375 20.2118151,56.9502375 Z" id="Shape" fill="#32AD9C"></path>
                                                <path d="M26.0530532,56.9502375 C25.7304505,56.9502375 25.4689294,56.6887164 25.4689294,56.3661137 L25.4689294,52.2772471 C25.4689294,51.9546444 25.7304505,51.6931233 26.0530532,51.6931233 C26.3756558,51.6931233 26.637177,51.9546444 26.637177,52.2772471 L26.637177,56.3661137 C26.637177,56.6887164 26.3756558,56.9502375 26.0530532,56.9502375 Z" id="Shape" fill="#32AD9C"></path>
                                                <path d="M32.478415,56.9502375 C32.1558123,56.9502375 31.8942912,56.6887164 31.8942912,56.3661137 L31.8942912,52.2772471 C31.8942912,51.9546444 32.1558123,51.6931233 32.478415,51.6931233 C32.8010177,51.6931233 33.0625388,51.9546444 33.0625388,52.2772471 L33.0625388,56.3661137 C33.0625388,56.6887164 32.8010177,56.9502375 32.478415,56.9502375 Z" id="Shape" fill="#32AD9C"></path>
                                                <path d="M38.9037768,60.4549803 C38.5811741,60.4549803 38.319653,60.1934592 38.319653,59.8708565 L38.319653,52.2772471 C38.319653,51.9546444 38.5811741,51.6931233 38.9037768,51.6931233 C39.2263795,51.6931233 39.4879006,51.9546444 39.4879006,52.2772471 L39.4879006,59.8708565 C39.4879006,60.1934592 39.2263795,60.4549803 38.9037768,60.4549803 Z" id="Shape" fill="#32AD9C"></path>
                                                <path d="M45.3291386,56.9502375 C45.006536,56.9502375 44.7450148,56.6887164 44.7450148,56.3661137 L44.7450148,52.2772471 C44.7450148,51.9546444 45.006536,51.6931233 45.3291386,51.6931233 C45.6517413,51.6931233 45.9132624,51.9546444 45.9132624,52.2772471 L45.9132624,56.3661137 C45.9132624,56.6887164 45.6517413,56.9502375 45.3291386,56.9502375 Z" id="Shape" fill="#32AD9C"></path>
                                                <path d="M56.4274909,20.7345618 L52.0465623,20.7345618 C51.7239597,20.7345618 51.4624385,20.4730407 51.4624385,20.150438 C51.4624385,19.8278353 51.7239597,19.5663142 52.0465623,19.5663142 L56.4274909,19.5663142 C56.7500935,19.5663142 57.0116147,19.8278353 57.0116147,20.150438 C57.0116147,20.4730407 56.7500935,20.7345618 56.4274909,20.7345618 Z" id="Shape" fill="#32AD9C"></path>
                                                <path d="M59.6284893,26.5757998 L52.0348799,26.5757998 C51.7122772,26.5757998 51.4507561,26.3142787 51.4507561,25.991676 C51.4507561,25.6690733 51.7122772,25.4075522 52.0348799,25.4075522 L59.6284893,25.4075522 C59.951092,25.4075522 60.2126131,25.6690733 60.2126131,25.991676 C60.2126131,26.3142787 59.951092,26.5757998 59.6284893,26.5757998 Z" id="Shape" fill="#32AD9C"></path>
                                                <path d="M56.4274909,33.0011616 L52.0465623,33.0011616 C51.7239597,33.0011616 51.4624385,32.7396405 51.4624385,32.4170378 C51.4624385,32.0944352 51.7239597,31.832914 52.0465623,31.832914 L56.4274909,31.832914 C56.7500935,31.832914 57.0116147,32.0944352 57.0116147,32.4170378 C57.0116147,32.7396405 56.7500935,33.0011616 56.4274909,33.0011616 Z" id="Shape" fill="#32AD9C"></path>
                                                <path d="M56.4274909,39.4265235 L52.0465623,39.4265235 C51.7239597,39.4265235 51.4624385,39.1650023 51.4624385,38.8423996 C51.4624385,38.519797 51.7239597,38.2582758 52.0465623,38.2582758 L56.4274909,38.2582758 C56.7500935,38.2582758 57.0116147,38.519797 57.0116147,38.8423996 C57.0116147,39.1650023 56.7500935,39.4265235 56.4274909,39.4265235 Z" id="Shape" fill="#32AD9C"></path>
                                                <path d="M56.4274909,45.8518853 L52.0465623,45.8518853 C51.7239597,45.8518853 51.4624385,45.5903641 51.4624385,45.2677615 C51.4624385,44.9451588 51.7239597,44.6836377 52.0465623,44.6836377 L56.4274909,44.6836377 C56.7500935,44.6836377 57.0116147,44.9451588 57.0116147,45.2677615 C57.0116147,45.5903641 56.7500935,45.8518853 56.4274909,45.8518853 Z" id="Shape" fill="#32AD9C"></path>
                                                <path d="M13.2023295,20.7345618 L8.96743196,20.7345618 C8.6448293,20.7345618 8.38330816,20.4730407 8.38330816,20.150438 C8.38330816,19.8278353 8.6448293,19.5663142 8.96743196,19.5663142 L13.2023295,19.5663142 C13.5249322,19.5663142 13.7864533,19.8278353 13.7864533,20.150438 C13.7864533,20.4730407 13.5249322,20.7345618 13.2023295,20.7345618 Z" id="Shape" fill="#32AD9C"></path>
                                                <path d="M13.1205522,27.1599236 L8.87981339,27.1599236 C8.55721073,27.1599236 8.29568959,26.8984025 8.29568959,26.5757998 C8.29568959,26.2531971 8.55721073,25.991676 8.87981339,25.991676 L13.1205522,25.991676 C13.4431549,25.991676 13.704676,26.2531971 13.704676,26.5757998 C13.704676,26.8984025 13.4431549,27.1599236 13.1205522,27.1599236 Z" id="Shape" fill="#32AD9C"></path>
                                                <path d="M13.2023295,33.0011616 L5.69049743,33.0011616 C5.36789477,33.0011616 5.10637363,32.7396405 5.10637363,32.4170378 C5.10637363,32.0944352 5.36789477,31.832914 5.69049743,31.832914 L13.2023295,31.832914 C13.5249322,31.832914 13.7864533,32.0944352 13.7864533,32.4170378 C13.7864533,32.7396405 13.5249322,33.0011616 13.2023295,33.0011616 Z" id="Shape" fill="#32AD9C"></path>
                                                <path d="M13.2023295,39.4265235 L8.96743196,39.4265235 C8.6448293,39.4265235 8.38330816,39.1650023 8.38330816,38.8423996 C8.38330816,38.519797 8.6448293,38.2582758 8.96743196,38.2582758 L13.2023295,38.2582758 C13.5249322,38.2582758 13.7864533,38.519797 13.7864533,38.8423996 C13.7864533,39.1650023 13.5249322,39.4265235 13.2023295,39.4265235 Z" id="Shape" fill="#32AD9C"></path>
                                                <path d="M13.2023295,45.8518853 L8.96743196,45.8518853 C8.6448293,45.8518853 8.38330816,45.5903641 8.38330816,45.2677615 C8.38330816,44.9451588 8.6448293,44.6836377 8.96743196,44.6836377 L13.2023295,44.6836377 C13.5249322,44.6836377 13.7864533,44.9451588 13.7864533,45.2677615 C13.7864533,45.5903641 13.5249322,45.8518853 13.2023295,45.8518853 Z" id="Shape" fill="#32AD9C"></path>
                                                <path d="M37.9282901,17.229819 C37.9282901,17.8750243 37.4052478,18.3980666 36.7600425,18.3980666 L28.5823092,18.3980666 C27.9371039,18.3980666 27.4140616,17.8750243 27.4140616,17.229819 L27.4140616,17.229819 C27.4140616,16.5846136 27.9371039,16.0615714 28.5823092,16.0615714 L36.7600425,16.0615714 C37.4052478,16.0615714 37.9282901,16.5846136 37.9282901,17.229819 Z" id="Shape" fill="#60FFE9"></path>
                                                <path d="M37.9282901,48.1883805 C37.9282901,48.8335858 37.4052478,49.3566281 36.7600425,49.3566281 L28.5823092,49.3566281 C27.9371039,49.3566281 27.4140616,48.8335858 27.4140616,48.1883805 L27.4140616,48.1883805 C27.4140616,47.5431751 27.9371039,47.0201329 28.5823092,47.0201329 L36.7600425,47.0201329 C37.4052478,47.0201329 37.9282901,47.5431751 37.9282901,48.1883805 Z" id="Shape" fill="#60FFE9"></path>
                                                <path d="M47.6656338,37.674152 C47.0204285,37.674152 46.4973862,37.1511098 46.4973862,36.5059044 L46.4973862,28.3281712 C46.4973862,27.6829659 47.0204285,27.1599236 47.6656338,27.1599236 L47.6656338,27.1599236 C48.3108392,27.1599236 48.8338814,27.6829659 48.8338814,28.3281712 L48.8338814,36.5059044 C48.8338814,37.1511098 48.3108392,37.674152 47.6656338,37.674152 Z" id="Shape" fill="#60FFE9"></path>
                                                <path d="M17.2911961,37.9662139 C16.6459908,37.9662139 16.1229485,37.4431717 16.1229485,36.7979663 L16.1229485,28.6202331 C16.1229485,27.9750278 16.6459908,27.4519855 17.2911961,27.4519855 L17.2911961,27.4519855 C17.9364015,27.4519855 18.4594437,27.9750278 18.4594437,28.6202331 L18.4594437,36.7979663 C18.4594437,37.4431717 17.9364015,37.9662139 17.2911961,37.9662139 Z" id="Shape" fill="#60FFE9"></path>
                                                <path d="M37.7997828,25.991676 L35.3347804,25.991676 C35.0121777,25.991676 34.7506566,25.7301549 34.7506566,25.4075522 C34.7506566,25.0849495 35.0121777,24.8234284 35.3347804,24.8234284 L37.7997828,24.8234284 C38.1223855,24.8234284 38.3839066,25.0849495 38.3839066,25.4075522 C38.3839066,25.7301549 38.1223855,25.991676 37.7997828,25.991676 Z" id="Shape" fill="#32AD9C"></path>
                                                <path d="M32.4375263,25.991676 L24.9256942,25.991676 C24.6030916,25.991676 24.3415704,25.7301549 24.3415704,25.4075522 C24.3415704,25.0849495 24.6030916,24.8234284 24.9256942,24.8234284 L32.4375263,24.8234284 C32.760129,24.8234284 33.0216501,25.0849495 33.0216501,25.4075522 C33.0216501,25.7301549 32.760129,25.991676 32.4375263,25.991676 Z" id="Shape" fill="#59EAA0"></path>
                                                <path d="M24.3006818,39.4265235 C23.9780791,39.4265235 23.716558,39.1650023 23.716558,38.8423996 L23.716558,33.0011616 C23.716558,32.678559 23.9780791,32.4170378 24.3006818,32.4170378 C24.6232844,32.4170378 24.8848056,32.678559 24.8848056,33.0011616 L24.8848056,38.8423996 C24.8848056,39.1650023 24.6232844,39.4265235 24.3006818,39.4265235 Z" id="Shape" fill="#32AD9C"></path>
                                                <path d="M34.2307864,41.1788949 L28.9736722,41.1788949 C28.6510695,41.1788949 28.3895484,40.9173737 28.3895484,40.5947711 C28.3895484,40.2721684 28.6510695,40.0106473 28.9736722,40.0106473 L34.2307864,40.0106473 C34.5533891,40.0106473 34.8149102,40.2721684 34.8149102,40.5947711 C34.8149102,40.9173737 34.5533891,41.1788949 34.2307864,41.1788949 Z" id="Shape" fill="#32AD9C"></path>
                                                <path d="M40.0720244,38.8423996 C39.7494217,38.8423996 39.4879006,38.5808785 39.4879006,38.2582758 L39.4879006,35.3376568 C39.4879006,35.0150542 39.7494217,34.753533 40.0720244,34.753533 C40.3946271,34.753533 40.6561482,35.0150542 40.6561482,35.3376568 L40.6561482,38.2582758 C40.6561482,38.5808785 40.3946271,38.8423996 40.0720244,38.8423996 Z" id="Shape" fill="#59EAA0"></path>
                                                <path d="M40.0720244,33.5852854 C39.9075512,33.585953 39.750418,33.517249 39.6392281,33.3960521 C39.5280383,33.2748551 39.4730965,33.1123975 39.4879006,32.9485905 L39.4879006,30.7172376 C39.4879006,30.3946349 39.7494217,30.1331138 40.0720244,30.1331138 C40.3946271,30.1331138 40.6561482,30.3946349 40.6561482,30.7172376 L40.6561482,32.9485905 C40.6709523,33.1123975 40.6160106,33.2748551 40.5048207,33.3960521 C40.3936308,33.517249 40.2364976,33.585953 40.0720244,33.5852854 L40.0720244,33.5852854 Z" id="Shape" fill="#32AD9C"></path>
                                                <ellipse id="Oval" fill="#F4F8FF" cx="26.3451151" cy="3.29846631" rx="2.33649521" ry="2.33649521"></ellipse>
                                                <ellipse id="Oval" fill="#F4F8FF" cx="38.9037768" cy="62.2015105" rx="2.33649521" ry="2.33649521"></ellipse>
                                                <ellipse id="Oval" fill="#F4F8FF" cx="3.17292385" cy="32.4170378" rx="2.33649521" ry="2.33649521"></ellipse>
                                                <ellipse id="Oval" fill="#F4F8FF" cx="62.1168567" cy="26.2837379" rx="2.33649521" ry="2.33649521"></ellipse>
                                                <path d="M47.08151,52.8613709 L17.8753199,52.8613709 C14.9718959,52.8613709 12.6182057,50.5076807 12.6182057,47.6042567 L12.6182057,18.3980666 C12.6182057,15.4946426 14.9718959,13.1409524 17.8753199,13.1409524 L47.08151,13.1409524 C49.984934,13.1409524 52.3386243,15.4946426 52.3386243,18.3980666 L52.3386243,47.6042567 C52.3386243,50.5076807 49.984934,52.8613709 47.08151,52.8613709 L47.08151,52.8613709 Z M17.8753199,14.3092 C15.6171013,14.3092 13.7864533,16.1398479 13.7864533,18.3980666 L13.7864533,47.6042567 C13.7864533,49.8624754 15.6171013,51.6931233 17.8753199,51.6931233 L47.08151,51.6931233 C49.3397287,51.6931233 51.1703766,49.8624754 51.1703766,47.6042567 L51.1703766,18.3980666 C51.1703766,16.1398479 49.3397287,14.3092 47.08151,14.3092 L17.8753199,14.3092 Z" id="Shape" fill="#59EAA0"></path>
                                                <path d="M40.0720244,44.0995139 L24.8848056,44.0995139 C22.6265869,44.0995139 20.795939,42.2688659 20.795939,40.0106473 L20.795939,24.8234284 C20.795939,22.5652097 22.6265869,20.7345618 24.8848056,20.7345618 L40.0720244,20.7345618 C42.3302431,20.7345618 44.160891,22.5652097 44.160891,24.8234284 L44.160891,40.0106473 C44.160891,42.2688659 42.3302431,44.0995139 40.0720244,44.0995139 L40.0720244,44.0995139 Z M24.8848056,21.9028094 C23.2717922,21.9028094 21.9641866,23.2104151 21.9641866,24.8234284 L21.9641866,40.0106473 C21.9641866,41.6236606 23.2717922,42.9312663 24.8848056,42.9312663 L40.0720244,42.9312663 C41.6850378,42.9312663 42.9926434,41.6236606 42.9926434,40.0106473 L42.9926434,24.8234284 C42.9926434,23.2104151 41.6850378,21.9028094 40.0720244,21.9028094 L24.8848056,21.9028094 Z" id="Shape" fill="#32AD9C"></path>
                                                <path d="M26.637177,6.13146675 C25.0241636,6.13146675 23.716558,4.82386107 23.716558,3.21084774 C23.716558,1.5978344 25.0241636,0.290228727 26.637177,0.290228727 C28.2501903,0.290228727 29.557796,1.5978344 29.557796,3.21084774 C29.557796,4.82386107 28.2501903,6.13146675 26.637177,6.13146675 L26.637177,6.13146675 Z M26.637177,1.45847633 C25.669369,1.45847633 24.8848056,2.24303973 24.8848056,3.21084774 C24.8848056,4.17865574 25.669369,4.96321914 26.637177,4.96321914 C27.604985,4.96321914 28.3895484,4.17865574 28.3895484,3.21084774 C28.3895484,2.24303973 27.604985,1.45847633 26.637177,1.45847633 L26.637177,1.45847633 Z" id="Shape" fill="#32AD9C"></path>
                                                <path d="M38.9037768,65.1279707 C37.2907635,65.1279707 35.9831578,63.8203651 35.9831578,62.2073517 C35.9831578,60.5943384 37.2907635,59.2867327 38.9037768,59.2867327 C40.5167901,59.2867327 41.8243958,60.5943384 41.8243958,62.2073517 C41.8243958,63.8203651 40.5167901,65.1279707 38.9037768,65.1279707 Z M38.9037768,60.4549803 C37.9359688,60.4549803 37.1514054,61.2395437 37.1514054,62.2073517 C37.1514054,63.1751597 37.9359688,63.9597231 38.9037768,63.9597231 C39.8715848,63.9597231 40.6561482,63.1751597 40.6561482,62.2073517 C40.6561482,61.2395437 39.8715848,60.4549803 38.9037768,60.4549803 Z" id="Shape" fill="#32AD9C"></path>
                                                <path d="M3.2722249,35.3376568 C1.65921156,35.3376568 0.351605886,34.0300512 0.351605886,32.4170378 C0.351605886,30.8040245 1.65921156,29.4964188 3.2722249,29.4964188 C4.88523823,29.4964188 6.1928439,30.8040245 6.1928439,32.4170378 C6.1928439,34.0300512 4.88523823,35.3376568 3.2722249,35.3376568 Z M3.2722249,30.6646664 C2.30441689,30.6646664 1.51985349,31.4492298 1.51985349,32.4170378 C1.51985349,33.3848458 2.30441689,34.1694092 3.2722249,34.1694092 C4.2400329,34.1694092 5.0245963,33.3848458 5.0245963,32.4170378 C5.0245963,31.4492298 4.2400329,30.6646664 3.2722249,30.6646664 Z" id="Shape" fill="#32AD9C"></path>
                                                <path d="M62.2687289,28.912295 C60.6557155,28.912295 59.3481099,27.6046893 59.3481099,25.991676 C59.3481099,24.3786627 60.6557155,23.071057 62.2687289,23.071057 C63.8817422,23.071057 65.1893479,24.3786627 65.1893479,25.991676 C65.1893479,27.6046893 63.8817422,28.912295 62.2687289,28.912295 Z M62.2687289,24.2393046 C61.3009209,24.2393046 60.5163575,25.023868 60.5163575,25.991676 C60.5163575,26.959484 61.3009209,27.7440474 62.2687289,27.7440474 C63.2365369,27.7440474 64.0211003,26.959484 64.0211003,25.991676 C64.0211003,25.023868 63.2365369,24.2393046 62.2687289,24.2393046 Z" id="Shape" fill="#32AD9C"></path>
                                                <path d="M49.4180052,46.4360091 C49.0954026,46.4360091 48.8338814,46.1744879 48.8338814,45.8518853 L48.8338814,41.1788949 C48.8338814,40.8562922 49.0954026,40.5947711 49.4180052,40.5947711 C49.7406079,40.5947711 50.002129,40.8562922 50.002129,41.1788949 L50.002129,45.8518853 C50.002129,46.1744879 49.7406079,46.4360091 49.4180052,46.4360091 Z" id="Shape" fill="#F4F8FF"></path>
                                                <path d="M49.4180052,25.647043 C49.0954026,25.647043 48.8338814,25.3855218 48.8338814,25.0629192 L48.8338814,19.5663142 C48.8338814,17.9533008 47.5262758,16.6456952 45.9132624,16.6456952 L40.2647853,16.6456952 C39.9421826,16.6456952 39.6806615,16.384174 39.6806615,16.0615714 C39.6806615,15.7389687 39.9421826,15.4774476 40.2647853,15.4774476 L45.9132624,15.4774476 C48.1714811,15.4774476 50.002129,17.3080955 50.002129,19.5663142 L50.002129,25.0629192 C50.002129,25.3855218 49.7406079,25.647043 49.4180052,25.647043 Z" id="Shape" fill="#60FFE9"></path>
                                                <path d="M24.5927437,16.6456952 L19.5050253,16.6456952 C19.1824227,16.6456952 18.9209015,16.384174 18.9209015,16.0615714 C18.9209015,15.7389687 19.1824227,15.4774476 19.5050253,15.4774476 L24.5927437,15.4774476 C24.9153463,15.4774476 25.1768675,15.7389687 25.1768675,16.0615714 C25.1768675,16.384174 24.9153463,16.6456952 24.5927437,16.6456952 Z" id="Shape" fill="#60FFE9"></path>
                                                <path d="M35.9831578,37.674152 L29.557796,37.674152 C28.589988,37.674152 27.8054246,36.8895886 27.8054246,35.9217806 L27.8054246,29.4964188 C27.8054246,28.5286108 28.589988,27.7440474 29.557796,27.7440474 L35.9831578,27.7440474 C36.9509658,27.7440474 37.7355292,28.5286108 37.7355292,29.4964188 L37.7355292,35.9217806 C37.7355292,36.8895886 36.9509658,37.674152 35.9831578,37.674152 Z M29.557796,28.912295 C29.2351933,28.912295 28.9736722,29.1738162 28.9736722,29.4964188 L28.9736722,35.9217806 C28.9736722,36.2443833 29.2351933,36.5059044 29.557796,36.5059044 L35.9831578,36.5059044 C36.3057605,36.5059044 36.5672816,36.2443833 36.5672816,35.9217806 L36.5672816,29.4964188 C36.5672816,29.1738162 36.3057605,28.912295 35.9831578,28.912295 L29.557796,28.912295 Z" id="Shape" fill="#59EAA0"></path>
                                            </g>
                                        </g>
                                    </g>
                                </g>
                            </g>
                        </g>
                    </g>
                </g>
            </g>
        </g>
    </g>
</svg>