<?xml version="1.0" encoding="UTF-8"?>
<svg width="69px" height="71px" viewBox="0 0 69 71" version="1.1" xmlns="http://www.w3.org/2000/svg" xmlns:xlink="http://www.w3.org/1999/xlink">
    <!-- Generator: Sketch 43.1 (39012) - http://www.bohemiancoding.com/sketch -->
    <title>fancyIcon</title>
    <desc>Created with Sketch.</desc>
    <defs></defs>
    <g id="INTERNALS" stroke="none" stroke-width="1" fill="none" fill-rule="evenodd">
        <g id="HomepageV9-V2" transform="translate(-485.000000, -1937.000000)" fill-rule="nonzero">
            <g id="Section---Full-Service-Dev" transform="translate(126.000000, 1823.000000)">
                <g id="FancyList" transform="translate(0.000000, 111.000000)">
                    <g id="topRow" transform="translate(5.000000, 0.000000)">
                        <g id="rtCol" transform="translate(344.000000, 0.000000)">
                            <g id="fancyIcon">
                                <g id="genericIcon_1">
                                    <g id="Layer_2">
                                        <g>
                                            <g id="Layer_1-2">
                                                <circle id="Oval" cx="41" cy="41" r="41"></circle>
                                                <path d="M72.749375,24.7473437 C71.9485938,23.9465625 70.4751563,24.1067187 69.4757813,25.0996875 L66.2021875,28.5975 C65.2028125,29.596875 63.8126563,29.8275 63.1015625,29.1228125 C62.3904688,28.418125 62.6275,27.0215625 63.626875,26.0221875 L72.10875,17.5403125 C73.108125,16.5409375 73.261875,15.0739062 72.4610938,14.2667187 C71.6603125,13.4595312 70.186875,13.6260937 69.1875,14.6190625 C69.1875,14.6190625 47.0282813,36.823125 46.17625,37.6303125 C45.3242188,38.4375 43.7867188,39.00125 42.6079688,38.053125 C41.4292188,37.105 42.0378125,35.9454687 42.6528125,35.3304687 L67.6371875,10.3460937 C68.6365625,9.353125 68.7903125,7.8796875 67.9895313,7.0725 C67.18875,6.2653125 65.7153125,6.431875 64.7159375,7.42484375 L46.1378125,26.0029687 C45.1384375,27.0023437 43.7482813,27.2329687 43.0371875,26.5282812 C42.3260938,25.8235937 42.563125,24.4270312 43.5625,23.4276562 L56.2340625,10.7496875 C57.2334375,9.7503125 57.3871875,8.276875 56.5864063,7.47609375 C55.785625,6.6753125 54.3121875,6.83546875 53.3128125,7.8284375 C53.3128125,7.8284375 35.3753125,25.9453125 31.954375,29.186875 C28.5334375,32.4284375 21.704375,41.5317187 18.1425,42.58875 C14.580625,43.6457812 13.2609375,46.8425 15.93875,49.45625 C18.6165625,52.07 20.2885938,57.2142187 19.654375,60.8978125 C19.0201563,64.5814062 21.2110938,66.1701562 24.523125,64.4340625 C27.8351563,62.6979687 33.2484375,62.6979687 36.5540625,64.4340625 C39.8596875,66.1701562 41.4548438,64.2098437 42.0698438,60.52625 C42.5567188,57.605 50.763125,49.891875 52.1020313,48.5529687 C53.4409375,47.2140625 72.4034375,28.0529687 72.4034375,28.0529687 C73.3964063,27.0215625 73.5565625,25.5545312 72.749375,24.7473437 Z M59.1809375,35.92625 L58.9823438,36.1248438 C57.8740625,37.233125 56.3301563,37.4957813 55.5421875,36.7078125 C54.7542188,35.9198438 55.016875,34.3759375 56.1251563,33.2676563 L56.32375,33.0690625 C57.4320313,31.9607813 58.9759375,31.698125 59.7639063,32.4860938 C60.551875,33.2740625 60.2892188,34.8179688 59.1809375,35.92625 Z" id="Shape" fill="#59EAA0"></path>
                                                <path d="M28.7064062,40.2120313 C29.6417187,38.2901563 31.1728125,38.2901563 32.108125,40.2120313 L32.876875,41.7623438 C34.0473001,43.827494 36.0540156,45.2852244 38.3798437,45.7598438 L40.0903125,46.0096875 C42.1851562,46.3107813 42.6528125,47.7714063 41.1409375,49.2448438 L39.9045312,50.4492188 C38.2976895,52.2013192 37.5289106,54.5637369 37.796875,56.9259375 L38.0915625,58.63 C38.4503125,60.7120313 37.2139062,61.6153125 35.336875,60.62875 L33.8057812,59.8215625 C31.644596,58.8380777 29.163529,58.8380777 27.0023437,59.8215625 L25.47125,60.62875 C23.600625,61.6153125 22.3642187,60.7120313 22.7165625,58.63 L23.01125,56.9259375 C23.2790165,54.5668304 22.5127462,52.2072785 20.91,50.455625 L19.6735937,49.25125 C18.1617187,47.7778125 18.6357812,46.3171875 20.7242187,46.0160938 L22.421875,45.7598438 C24.7477032,45.2852244 26.7544186,43.827494 27.9248437,41.7623438 L28.7064062,40.2120313 Z" id="Shape" fill="#FFFFFF"></path>
                                                <path d="M33.05625,19.4814062 C32.415625,18.8407812 32.6142187,17.5210937 33.543125,16.5857812 L36.4451562,13.68375 C37.3740625,12.7548437 38.6809375,12.530625 39.3407812,13.196875 C40.000625,13.863125 39.7828125,15.1635937 38.8539062,16.0925 L35.9582812,18.9945312 C35.0165625,19.9170312 33.7160937,20.14125 33.05625,19.4814062 Z" id="Shape" fill="#32AD9C"></path>
                                                <path d="M36.515625,59.1873438 L34.9845313,58.3801563 C32.823346,57.3966715 30.342279,57.3966715 28.1810938,58.3801563 L26.65,59.1873438 C24.779375,60.1739063 23.5429688,59.270625 23.8953125,57.1885938 L24.19,55.4845313 C24.4577665,53.1254241 23.6914962,50.7658723 22.08875,49.0142188 L20.8523438,47.8098438 C20.3692722,47.4013584 20.0543786,46.8286171 19.9682813,46.201875 C18.5460938,46.714375 18.3667188,47.9764063 19.6735938,49.25125 L20.91,50.455625 C22.5127462,52.2072785 23.2790165,54.5668304 23.01125,56.9259375 L22.7165625,58.63 C22.3578125,60.7120313 23.5942188,61.6153125 25.47125,60.62875 L27.0023438,59.8215625 C29.163529,58.8380777 31.644596,58.8380777 33.8057813,59.8215625 L35.336875,60.62875 C36.8935938,61.44875 38.0146875,60.9554688 38.1364063,59.5653125 C37.5700022,59.610718 37.0035161,59.4786126 36.515625,59.1873438 L36.515625,59.1873438 Z" id="Shape" fill="#32AD9C"></path>
                                                <path d="M45.894375,61.09 C45.1832813,60.3789062 45.4203125,58.9823437 46.4196875,57.9829687 L49.0142188,55.3884375 C50.0135938,54.3890625 51.4101563,54.1520312 52.12125,54.863125 C52.8323438,55.5742187 52.5953125,56.9707812 51.5959375,57.9701562 L49.0334375,60.5326562 C48.0020313,61.5640625 46.6054688,61.8010937 45.894375,61.09 Z" id="Shape" fill="#32AD9C"></path>
                                                <path d="M74.7160937,22.6589062 C74.0178125,21.960625 74.2484375,20.576875 75.235,19.5903125 L75.3246875,19.500625 C76.31125,18.5140625 77.695,18.2834375 78.3932812,18.9817187 C79.0915625,19.68 78.8609375,21.06375 77.874375,22.0503125 L77.7846875,22.1335937 C76.798125,23.1265625 75.4207812,23.3571875 74.7160937,22.6589062 Z" id="Shape" fill="#32AD9C"></path>
                                                <path d="M36.8615625,61.5 C36.2632692,61.481531 35.6775577,61.3235863 35.1510937,61.03875 L33.594375,60.21875 C31.5761041,59.3506635 29.2896772,59.3506635 27.2714062,60.21875 L25.7082812,61.0067187 C24.34375,61.7178125 23.1265625,61.628125 22.421875,60.859375 C21.8918984,60.1716238 21.7162981,59.2746386 21.9478125,58.4378125 L22.2425,56.7657812 C22.4666909,54.6505355 21.7525722,52.5433002 20.2885937,51.0001562 L19.0073437,49.815 C17.7260937,48.63625 17.835,47.6432812 18.0015625,47.1564062 C18.168125,46.6695312 18.6998437,45.8175 20.4423437,45.5740625 L22.1848437,45.330625 C24.3217609,44.9131071 26.1829877,43.6125749 27.3098437,41.7495312 L28.0914062,40.23125 C28.8921875,38.6617187 29.8979687,38.4375 30.4296875,38.4375 C30.9614062,38.4375 31.9671875,38.6617187 32.74875,40.18 L33.5303125,41.6982813 C34.6571685,43.5613249 36.5183954,44.8618571 38.6553125,45.279375 L40.3978125,45.5228125 C42.1403125,45.76625 42.6720312,46.6182812 42.8385937,47.1051562 C43.0051562,47.5920312 43.0884375,48.585 41.8328125,49.76375 L40.5515625,50.9489062 C39.087584,52.4920502 38.3734654,54.5992855 38.5976562,56.7145312 L38.89875,58.3865625 C39.1512056,59.2370676 38.9795976,60.1570768 38.4375,60.859375 C38.0327757,61.2954664 37.4557646,61.5300238 36.8615625,61.5 Z M30.4553125,58.3417187 C31.7550551,58.3161177 33.0434654,58.5878233 34.2221875,59.1360937 L35.7853125,59.9240625 C36.5348438,60.3020312 37.1690625,60.3532812 37.4573438,60.0265625 C37.7130941,59.6079466 37.7805428,59.1009181 37.643125,58.63 L37.3484375,56.9579687 C37.0362638,54.4232014 37.8944161,51.8841078 39.6803125,50.0584375 L40.9615625,48.8732812 C41.5060938,48.3671875 41.7559375,47.8482812 41.640625,47.5023437 C41.5253125,47.1564062 41,46.8617187 40.256875,46.7720312 L38.4375,46.5221875 C35.891954,46.056867 33.673741,44.5094939 32.3579688,42.28125 L31.5764063,40.7629687 C31.2432813,40.1223437 30.8140625,39.71875 30.4296875,39.71875 C30.0453125,39.71875 29.6160938,40.1095312 29.2829688,40.7629687 L28.5014063,42.28125 C27.1862711,44.5100844 24.9677552,46.0576688 22.421875,46.5221875 L20.6601563,46.765625 C19.910625,46.868125 19.3789063,47.1435938 19.2764063,47.4959375 C19.1739063,47.8482812 19.4109375,48.3607812 19.9554688,48.866875 L21.2367188,50.0520312 C23.0133124,51.8823312 23.8618357,54.42083 23.5429688,56.9515625 L23.2482813,58.6235937 C23.1108634,59.0945119 23.1783122,59.6015403 23.4340625,60.0201563 C23.7223438,60.346875 24.3565625,60.3020313 25.1060938,59.9176563 L26.6692188,59.1296875 C27.84658,58.584793 29.1326167,58.3153168 30.4296875,58.3417188 L30.4553125,58.3417187 Z" id="Shape" fill="#32AD9C"></path>
                                                <path d="M37.15625,48.6875 L37.079375,48.6875 C31.3521875,47.9635937 30.1734375,43.3190625 30.109375,43.1204687 C30.0608692,42.943665 30.085915,42.7547602 30.1788177,42.5967049 C30.2717204,42.4386496 30.4245854,42.3248752 30.6026563,42.28125 C30.7710532,42.2391869 30.9493108,42.2672546 31.0966341,42.3590298 C31.2439574,42.450805 31.3477356,42.5984317 31.3842188,42.768125 L31.3842188,42.768125 C31.4226563,42.9282812 32.4220313,46.714375 37.2267188,47.3229687 C37.4088463,47.3392386 37.5753413,47.43256 37.6842681,47.5794276 C37.7931949,47.7262951 37.8341708,47.9127099 37.796875,48.0917187 C37.7732853,48.427903 37.4932599,48.6883266 37.15625,48.6875 Z" id="Shape" fill="#32AD9C"></path>
                                                <path d="M47.40625,71.75 C45.9910203,71.75 44.84375,70.6027297 44.84375,69.1875 C44.84375,67.7722703 45.9910203,66.625 47.40625,66.625 C48.8214797,66.625 49.96875,67.7722703 49.96875,69.1875 C49.96875,70.6027297 48.8214797,71.75 47.40625,71.75 Z M47.40625,67.8229688 C46.6526402,67.8229688 46.0417187,68.4338902 46.0417187,69.1875 C46.0417187,69.9411098 46.6526402,70.5520313 47.40625,70.5520313 C48.1598598,70.5520313 48.7707812,69.9411098 48.7707812,69.1875 C48.7707812,68.4338902 48.1598598,67.8229688 47.40625,67.8229688 Z" id="Shape" fill="#FFFFFF" opacity="0.5"></path>
                                                <path d="M19.859375,24.984375 C18.4441453,24.984375 17.296875,23.8371047 17.296875,22.421875 C17.296875,21.0066453 18.4441453,19.859375 19.859375,19.859375 C21.2746047,19.859375 22.421875,21.0066453 22.421875,22.421875 C22.421875,23.8371047 21.2746047,24.984375 19.859375,24.984375 Z M19.859375,21.0573438 C19.1057652,21.0573438 18.4948437,21.6682652 18.4948437,22.421875 C18.4948437,23.1754848 19.1057652,23.7864063 19.859375,23.7864063 C20.6129848,23.7864063 21.2239062,23.1754848 21.2239062,22.421875 C21.2239062,22.0599788 21.0801435,21.7129049 20.8242443,21.4570057 C20.5683451,21.2011065 20.2212712,21.0573438 19.859375,21.0573438 L19.859375,21.0573438 Z" id="Shape" fill="#FFFFFF" opacity="0.5"></path>
                                                <path d="M71.75,45.484375 C70.3347703,45.484375 69.1875,44.3371047 69.1875,42.921875 C69.1875,41.5066453 70.3347703,40.359375 71.75,40.359375 C73.1652297,40.359375 74.3125,41.5066453 74.3125,42.921875 C74.3125,44.3371047 73.1652297,45.484375 71.75,45.484375 Z M71.75,41.5573438 C70.9963902,41.5573438 70.3854687,42.1682652 70.3854687,42.921875 C70.3854687,43.6754848 70.9963902,44.2864063 71.75,44.2864063 C72.5036098,44.2864063 73.1145312,43.6754848 73.1145312,42.921875 C73.1145312,42.1682652 72.5036098,41.5573438 71.75,41.5573438 L71.75,41.5573438 Z" id="Shape" fill="#FFFFFF" opacity="0.5"></path>
                                                <path d="M68.3739062,56.0546875 C68.3739062,55.8048438 68.085625,55.555 67.7332812,55.50375 L66.5417187,55.324375 C66.1729096,55.2511812 65.8846,54.9628716 65.8114062,54.5940625 L65.6320312,53.4025 C65.5807812,53.0565625 65.3309375,52.761875 65.0810937,52.761875 C64.83125,52.761875 64.5814062,53.0501563 64.5301562,53.4025 L64.3507812,54.5940625 C64.2775875,54.9628716 63.9892779,55.2511812 63.6204687,55.324375 L62.4289062,55.50375 C62.0829687,55.555 61.7882812,55.8048438 61.7882812,56.0546875 C61.7882812,56.3045313 62.0765625,56.554375 62.4289062,56.605625 L63.6204687,56.785 C63.9892779,56.8581938 64.2775875,57.1465034 64.3507812,57.5153125 L64.5301562,58.706875 C64.5814062,59.0528125 64.83125,59.3475 65.0810937,59.3475 C65.3309375,59.3475 65.574375,59.0592188 65.625625,58.706875 L65.8178125,57.3295313 C65.8812971,56.9638258 66.179135,56.6842762 66.548125,56.6440625 L67.726875,56.554375 C68.085625,56.5351563 68.3739062,56.3045313 68.3739062,56.0546875 Z" id="Shape" fill="#FFFFFF" opacity="0.5"></path>
                                                <path d="M17.296875,34.9140625 C17.296875,34.6642188 17.0085938,34.414375 16.65625,34.363125 L15.4646875,34.18375 C15.0958784,34.1105562 14.8075688,33.8222466 14.734375,33.4534375 L14.555,32.261875 C14.50375,31.9159375 14.2539063,31.62125 14.0040625,31.62125 C13.7542188,31.62125 13.504375,31.9095313 13.453125,32.261875 L13.27375,33.4534375 C13.2005562,33.8222466 12.9122466,34.1105562 12.5434375,34.18375 L11.351875,34.363125 C11.0059375,34.414375 10.71125,34.6642188 10.71125,34.9140625 C10.71125,35.1639063 10.9995313,35.41375 11.351875,35.465 L12.5434375,35.644375 C12.9122466,35.7175688 13.2005562,36.0058784 13.27375,36.3746875 L13.453125,37.56625 C13.504375,37.9121875 13.7542188,38.206875 14.0040625,38.206875 C14.2539063,38.206875 14.4973438,37.9185938 14.5485938,37.56625 L14.7407813,36.1889063 C14.8042658,35.8232008 15.1021038,35.5436512 15.4710938,35.5034375 L16.65625,35.4201563 C17.0085938,35.3945313 17.296875,35.1639063 17.296875,34.9140625 Z" id="Shape" fill="#FFFFFF" opacity="0.5"></path>
                                                <path d="M46.0673438,7.175 C46.0673438,6.92515625 45.7790625,6.6753125 45.4267188,6.6240625 L44.2351563,6.4446875 C43.8663471,6.37149373 43.5780375,6.08318412 43.5048438,5.714375 L43.3254688,4.5228125 C43.2742188,4.176875 43.024375,3.8821875 42.7745313,3.8821875 C42.5246875,3.8821875 42.2748438,4.17046875 42.2235938,4.5228125 L42.0442188,5.714375 C41.971025,6.08318412 41.6827154,6.37149373 41.3139063,6.4446875 L40.1223438,6.6240625 C39.7764063,6.6753125 39.4817188,6.92515625 39.4817188,7.175 C39.4817188,7.42484375 39.77,7.6746875 40.1223438,7.7259375 L41.3139063,7.9053125 C41.6827154,7.97850627 41.971025,8.26681588 42.0442188,8.635625 L42.2235938,9.8271875 C42.2748438,10.173125 42.5246875,10.4678125 42.7745313,10.4678125 C43.024375,10.4678125 43.2678125,10.1795313 43.3190625,9.8271875 L43.51125,8.44984375 C43.5747346,8.08413832 43.8725725,7.80458866 44.2415625,7.764375 L45.4267188,7.6875 C45.7790625,7.65546875 46.0673438,7.42484375 46.0673438,7.175 Z" id="Shape" fill="#FFFFFF" opacity="0.5"></path>
                                                <path d="M32.9153125,70.5007812 C32.9153125,70.2509375 32.6270312,70.0010937 32.2746875,69.9498437 L31.083125,69.7704687 C30.7143159,69.697275 30.4260063,69.4089654 30.3528125,69.0401562 L30.1734375,67.8485937 C30.1221875,67.5026562 29.8723437,67.2079687 29.6225,67.2079687 C29.3726562,67.2079687 29.1228125,67.49625 29.0715625,67.8485937 L28.8921875,69.0401562 C28.8227824,69.4017362 28.5463714,69.6881984 28.1875,69.7704687 L26.9959375,69.9498437 C26.65,70.0010937 26.3553125,70.2509375 26.3553125,70.5007812 C26.3553125,70.750625 26.6435937,71.0004687 26.9959375,71.0517187 L28.1875,71.2310937 C28.5563091,71.3042875 28.8446187,71.5925971 28.9178125,71.9614062 L29.0971875,73.1529687 C29.1484375,73.4989062 29.3982812,73.7935937 29.648125,73.7935937 C29.8979687,73.7935937 30.1414062,73.5053125 30.1926562,73.1529687 L30.3848437,71.775625 C30.4536547,71.4235752 30.7401573,71.1551403 31.0959375,71.109375 L32.2746875,71.0196875 C32.6270312,70.98125 32.9153125,70.750625 32.9153125,70.5007812 Z" id="Shape" fill="#FFFFFF" opacity="0.5"></path>
                                            </g>
                                        </g>
                                    </g>
                                </g>
                            </g>
                        </g>
                    </g>
                </g>
            </g>
        </g>
    </g>
</svg>