<?xml version="1.0" encoding="UTF-8"?>
<svg width="52px" height="55px" viewBox="0 0 52 55" version="1.1" xmlns="http://www.w3.org/2000/svg" xmlns:xlink="http://www.w3.org/1999/xlink">
    <!-- Generator: Sketch 43.1 (39012) - http://www.bohemiancoding.com/sketch -->
    <title>3rdgenericIcon</title>
    <desc>Created with Sketch.</desc>
    <defs></defs>
    <g id="INTERNALS" stroke="none" stroke-width="1" fill="none" fill-rule="evenodd">
        <g id="HomepageV9-V2" transform="translate(-727.000000, -2828.000000)">
            <g id="Section---Technology-Leadership" transform="translate(0.000000, 2604.000000)">
                <g id="Group-2">
                    <g id="Content" transform="translate(723.000000, 96.000000)">
                        <g id="r1" transform="translate(4.000000, 112.000000)">
                            <g id="1" transform="translate(0.000000, 16.000000)">
                                <g id="3rdgenericIcon">
                                    <g id="Layer_2">
                                        <g fill-rule="nonzero">
                                            <g>
                                                <g id="Layer_1-2">
                                                    <path d="M4.47311828,21.2255102 L10.6236559,13.5423469 C13.0391398,10.4668367 12.9552688,10.4668367 15.2197849,10.4668367 L36.6292473,10.4668367 C38.8658065,10.4668367 38.8098925,10.4668367 41.2197849,13.5423469 L47.3423656,21.2255102 C51.4744086,25.8387755 51.3905376,25.8387755 47.3423656,30.4464286 L30.5066667,47.344898 C29.0249462,48.8826531 27.2972043,50.4204082 25.916129,50.4204082 C24.5350538,50.4204082 22.8017204,48.8826531 21.3144086,47.344898 L4.47311828,30.4464286 C0.396989247,25.8163265 0.31311828,25.8163265 4.47311828,21.2255102 Z" id="Shape" fill="#47C6FF"></path>
                                                    <polygon id="Shape" fill="#47C6FF" points="13.8778495 28.5214286 25.972043 50.4204082 38.1445161 28.9086735"></polygon>
                                                    <polygon id="Shape" fill="#47C6FF" points="13.2516129 10.1806122 13.8778495 29.0321429 0.531182796 25.1765306"></polygon>
                                                    <polygon id="Shape" fill="#47C6FF" points="38.7707527 10.1806122 38.1445161 29.0321429 51.4911828 25.1765306"></polygon>
                                                    <polygon id="Shape" fill="#47C6FF" points="13.8778495 29.1836735 25.972043 10.7923469 38.1445161 29.1836735"></polygon>
                                                    <path d="M48.1922581,20.5015306 L42.092043,12.8408163 C40.0008602,10.175 39.5032258,9.54081633 37.3058065,9.54081633 L14.504086,9.54081633 C12.3737634,9.54081633 11.8929032,10.0627551 9.70666667,12.8464286 L3.60086022,20.5015306 C1.45376344,22.8923469 0,24.2336735 0,25.8163265 C0,27.5 1.33634409,28.622449 3.49462366,31.052551 L3.61204301,31.1872449 L3.66236559,31.2377551 L20.5260215,48.1418367 C22.1139785,49.7806122 23.7802151,51.6326531 25.7204301,51.6326531 C27.1965591,51.6326531 29.008172,50.5102041 31.311828,48.125 L48.1307527,31.2377551 L48.1810753,31.1872449 L48.2984946,31.052551 C50.4567742,28.622449 51.4408602,27.3877551 51.4408602,25.8163265 C51.4408602,24.244898 50.3225806,22.8923469 48.1922581,20.5015306 Z M41.2197849,13.5423469 L47.3423656,21.2255102 C49.0533333,23.1336735 50.0262366,24.2561224 50.3113978,25.2382653 L38.7372043,27.9096939 L39.3410753,11.3142857 C40.016708,12.0135488 40.6443809,12.7579393 41.2197849,13.5423469 L41.2197849,13.5423469 Z M25.8937634,49.7188776 L14.4425806,29.1836735 L37.3673118,29.1836735 L25.8937634,49.7188776 Z M14.8787097,28.0612245 L25.8993548,11.2244898 L37.1604301,28.0612245 L14.8787097,28.0612245 Z M38.2451613,10.6632653 L37.6860215,26.7928571 L26.8890323,10.6632653 L38.2451613,10.6632653 Z M24.9096774,10.6632653 L14.1574194,27.1127551 L13.7212903,10.6632653 L24.9096774,10.6632653 Z M4.47311828,21.2255102 L10.6236559,13.5423469 C11.229186,12.697734 11.9084261,11.9089062 12.6533333,11.1852041 L13.0950538,27.8984694 L1.53204301,25.0586735 C1.87870968,24.1326531 2.84043011,23.0102041 4.47311828,21.2255102 Z M21.32,47.344898 L4.47311828,30.4464286 C2.64473118,28.3755102 1.63268817,27.2362245 1.44258065,26.1867347 L13.1341935,29.0714286 C13.145034,29.110351 13.1600314,29.1479842 13.1789247,29.1836735 L24.9208602,50.1903061 C23.6963441,49.7020408 22.4606452,48.5290816 21.32,47.344898 Z M47.3423656,30.4408163 L30.5066667,47.344898 C29.3883871,48.5290816 28.0744086,49.7132653 26.9113978,50.1903061 L38.6309677,29.1836735 C38.6434069,29.1509494 38.6527667,29.1171284 38.6589247,29.0826531 L50.3225806,26.377551 C50.0430108,27.3821429 49.0477419,28.5045918 47.3423656,30.4464286 L47.3423656,30.4408163 Z" id="Shape" fill="#239DDA"></path>
                                                    <path d="M32.9612903,26.4168367 C32.7711872,26.4165189 32.5942685,26.3192736 32.4916129,26.1586735 L28.5217204,19.9852041 C28.4008269,19.8167607 28.3824474,19.595091 28.4739372,19.4089065 C28.5654271,19.2227219 28.7518405,19.102438 28.9585753,19.0961918 C29.1653102,19.0899456 29.358594,19.1987576 29.4610753,19.3790816 L33.4309677,25.552551 C33.5412795,25.7251276 33.5490463,25.944351 33.4512262,26.1243566 C33.353406,26.3043621 33.1655705,26.4164955 32.9612903,26.4168367 Z" id="Shape" fill="#FFFFFF"></path>
                                                    <path d="M27.7053763,18.2117347 C27.5152732,18.2114168 27.3383545,18.1141715 27.2356989,17.9535714 L25.6589247,15.4954082 C25.5380312,15.3269648 25.5196517,15.1052951 25.6111415,14.9191105 C25.7026314,14.732926 25.8890448,14.6126421 26.0957796,14.6063959 C26.3025145,14.6001497 26.4957983,14.7089617 26.5982796,14.8892857 L28.1750538,17.347449 C28.2853655,17.5200256 28.2931324,17.7392489 28.1953122,17.9192545 C28.0974921,18.0992601 27.9096565,18.2113935 27.7053763,18.2117347 L27.7053763,18.2117347 Z" id="Shape" fill="#FFFFFF"></path>
                                                    <path d="M26.3187097,46.2897959 C26.1209659,46.2903385 25.9376429,46.1860038 25.8365805,46.0154016 C25.7355182,45.8447993 25.7317485,45.6333051 25.8266667,45.4591837 L32.6034409,32.5510204 C32.7509641,32.2845731 33.0834076,32.1850371 33.3522519,32.3268209 C33.6210962,32.4686048 33.7280316,32.7998616 33.5931183,33.0729592 L26.8387097,45.9923469 C26.7372859,46.1841043 26.5347716,46.299946 26.3187097,46.2897959 Z" id="Shape" fill="#FFFFFF"></path>
                                                    <path d="M4.1655914,24.8454082 C3.95172476,24.8444221 3.75715358,24.7210722 3.66437391,24.5276575 C3.57159424,24.3342429 3.59686139,24.1046503 3.72946237,23.9362245 L10.7522581,15.0744898 C10.8747428,14.9108377 11.0762785,14.8270959 11.2781663,14.8559652 C11.4800541,14.8848345 11.6502725,15.021736 11.7223519,15.2132102 C11.7944313,15.4046843 11.7569392,15.6203614 11.6245161,15.7760204 L4.60172043,24.6321429 C4.49624017,24.7661281 4.33572196,24.8446209 4.1655914,24.8454082 Z" id="Shape" fill="#FFFFFF"></path>
                                                    <path d="M6.70967742,48.8265306 C5.47445991,48.8265306 4.47311828,47.8214556 4.47311828,46.5816327 C4.47311828,45.3418097 5.47445991,44.3367347 6.70967742,44.3367347 C7.94489492,44.3367347 8.94623656,45.3418097 8.94623656,46.5816327 C8.94623656,47.8214556 7.94489492,48.8265306 6.70967742,48.8265306 Z M6.70967742,45.3862245 C6.0519241,45.3862245 5.51870968,45.921427 5.51870968,46.5816327 C5.51870968,47.2418384 6.0519241,47.7770408 6.70967742,47.7770408 C7.36743074,47.7770408 7.90064516,47.2418384 7.90064516,46.5816327 C7.90064516,46.2645907 7.77516856,45.960534 7.55181879,45.7363514 C7.32846901,45.5121689 7.0255417,45.3862245 6.70967742,45.3862245 L6.70967742,45.3862245 Z" id="Shape" fill="#FFFFFF"></path>
                                                    <path d="M19.5698925,4.48979592 C18.334675,4.48979592 17.3333333,3.48472087 17.3333333,2.24489796 C17.3333333,1.00507505 18.334675,0 19.5698925,0 C20.80511,0 21.8064516,1.00507505 21.8064516,2.24489796 C21.8064516,3.48472087 20.80511,4.48979592 19.5698925,4.48979592 Z M19.5698925,1.0494898 C19.088191,1.0494898 18.6539209,1.34074164 18.4695818,1.78743506 C18.2852426,2.23412848 18.3871367,2.74829484 18.7277511,3.09017918 C19.0683655,3.43206352 19.580622,3.53433757 20.0256561,3.34931109 C20.4706902,3.16428462 20.7608602,2.72839543 20.7608602,2.24489796 C20.7608602,1.58469226 20.2276458,1.0494898 19.5698925,1.0494898 L19.5698925,1.0494898 Z" id="Shape" fill="#FFFFFF"></path>
                                                    <path d="M49.7634409,42.0918367 C48.5282234,42.0918367 47.5268817,41.0867617 47.5268817,39.8469388 C47.5268817,38.6071159 48.5282234,37.6020408 49.7634409,37.6020408 C50.9986584,37.6020408 52,38.6071159 52,39.8469388 C52,41.0867617 50.9986584,42.0918367 49.7634409,42.0918367 Z M49.7634409,38.6515306 C49.2817394,38.6515306 48.8474693,38.9427825 48.6631301,39.3894759 C48.478791,39.8361693 48.5806851,40.3503357 48.9212995,40.69222 C49.2619139,41.0341043 49.7741703,41.1363784 50.2192045,40.9513519 C50.6642386,40.7663254 50.9544086,40.3304362 50.9544086,39.8469388 C50.9544086,39.1867331 50.4211942,38.6515306 49.7634409,38.6515306 Z" id="Shape" fill="#FFFFFF"></path>
                                                    <path d="M42.4946237,51.6663265 C42.4946237,51.447449 42.2430108,51.2285714 41.9354839,51.1836735 L40.8954839,51.0265306 C40.573586,50.9624086 40.3219483,50.7098328 40.2580645,50.3867347 L40.1015054,49.3428571 C40.0567742,49.0397959 39.8387097,48.7816327 39.6206452,48.7816327 C39.4025806,48.7816327 39.1845161,49.0341837 39.1397849,49.3428571 L38.9832258,50.3867347 C38.919342,50.7098328 38.6677044,50.9624086 38.3458065,51.0265306 L37.3058065,51.1836735 C37.003871,51.2285714 36.7466667,51.447449 36.7466667,51.6663265 C36.7466667,51.8852041 36.9982796,52.1040816 37.3058065,52.1489796 L38.3458065,52.3061224 C38.6677044,52.3702444 38.919342,52.6228203 38.9832258,52.9459184 L39.1397849,53.9897959 C39.1845161,54.2928571 39.4025806,54.5510204 39.6206452,54.5510204 C39.8387097,54.5510204 40.0511828,54.2984694 40.095914,53.9897959 L40.2636559,52.7831633 C40.3228639,52.4689902 40.57898,52.2301189 40.8954839,52.1938776 L41.9243011,52.1153061 C42.231828,52.0816327 42.4946237,51.8852041 42.4946237,51.6663265 Z" id="Shape" fill="#FFFFFF"></path>
                                                </g>
                                            </g>
                                        </g>
                                    </g>
                                </g>
                            </g>
                        </g>
                    </g>
                </g>
            </g>
        </g>
    </g>
</svg>