<?xml version="1.0" encoding="UTF-8"?>
<svg width="22px" height="24px" viewBox="0 0 22 24" version="1.1" xmlns="http://www.w3.org/2000/svg" xmlns:xlink="http://www.w3.org/1999/xlink">
    <!-- Generator: Sketch 43.1 (39012) - http://www.bohemiancoding.com/sketch -->
    <title>arrow</title>
    <desc>Created with Sketch.</desc>
    <defs>
        <filter x="-0.6%" y="-2.1%" width="101.1%" height="108.3%" filterUnits="objectBoundingBox" id="filter-1">
            <feOffset dx="0" dy="2" in="SourceAlpha" result="shadowOffsetOuter1"></feOffset>
            <feColorMatrix values="0 0 0 0 0.23961962   0 0 0 0 0.530293367   0 0 0 0 0.395372961  0 0 0 0.124462183 0" type="matrix" in="shadowOffsetOuter1" result="shadowMatrixOuter1"></feColorMatrix>
            <feMerge>
                <feMergeNode in="shadowMatrixOuter1"></feMergeNode>
                <feMergeNode in="SourceGraphic"></feMergeNode>
            </feMerge>
        </filter>
    </defs>
    <g id="INTERNALS" stroke="none" stroke-width="1" fill="none" fill-rule="evenodd">
        <g id="Technologies-V2-Copy" transform="translate(-427.000000, -2908.000000)" stroke="#FBC131" stroke-width="0.7" fill="#FBC131">
            <g id="FeatureBtn" filter="url(#filter-1)" transform="translate(299.000000, 2894.000000)">
                <path d="M139.002174,15 C144.516417,15 149,19.4835834 149,24.9978256 C149,30.5120678 144.516417,35 139.002174,35 C133.483583,35 129,30.5120678 129,24.9978256 C129,19.4835834 133.483583,15 139.002174,15 L139.002174,15 Z M139.002174,34.3520331 C144.159817,34.3520331 148.356382,30.1554686 148.356382,24.9978256 C148.356382,19.8401826 144.159817,15.6436182 139.002174,15.6436182 C133.948902,15.6436182 129.821918,19.6662318 129.652316,24.6760165 L140.119809,24.6542727 L138.302022,22.840835 L138.758643,22.384214 L141.350511,24.9760818 L138.710807,27.615786 L138.254186,27.159165 L140.11546,25.3022396 L129.652316,25.3196347 C129.821918,30.3294194 133.948902,34.3520331 139.002174,34.3520331 L139.002174,34.3520331 Z" id="arrow"></path>
            </g>
        </g>
    </g>
</svg>