<?xml version="1.0" encoding="UTF-8"?>
<svg width="135px" height="99px" viewBox="0 0 135 99" version="1.1" xmlns="http://www.w3.org/2000/svg" xmlns:xlink="http://www.w3.org/1999/xlink">
    <!-- Generator: Sketch 43.1 (39012) - http://www.bohemiancoding.com/sketch -->
    <title>Artboard Copy</title>
    <desc>Created with Sketch.</desc>
    <defs></defs>
    <g id="Homepage" stroke="none" stroke-width="1" fill="none" fill-rule="evenodd">
        <g id="Artboard-Copy">
            <g id="Page-1" transform="translate(34.000000, 9.000000)">
                <polygon id="Fill-3" fill="#429BD2" points="54.3489362 44 13.6510638 44 4 32.7978015 4 7 64 7 64 32.7978015"></polygon>
                <path d="M12.9830724,43 L53.7170871,43 L57,39.2331571 C51.5100225,32.3876855 43.0855263,28 33.6345875,28 C24.0269139,28 16.9525518,30.5737677 10,39.575985 L12.9830724,43 Z" id="Fill-5" fill="#EFFDFB"></path>
                <path d="M4,14.0438628 C4.41361702,14.2465639 4.86893617,15 5.34808511,15 L63.2204255,15 C63.4893617,15 63.7480851,14.7275009 64,14.6605713 L64,7 L4,7 L4,14.0438628 Z" id="Fill-7" fill="#EFFDFB"></path>
                <polygon id="Fill-9" fill="#93E1FF" points="29 36 38 36 38 9 29 9"></polygon>
                <polygon id="Fill-11" fill="#93E1FF" points="12 42 21 42 21 9 12 9"></polygon>
                <path d="M12,43 L12,43 L21,43 L21,31 C18.1695,32.416 14.2437,35.7262857 12,37.8571429 L12,43 Z" id="Fill-12" fill="#93E1FF"></path>
                <polygon id="Fill-13" fill="#93E1FF" points="46 42 55 42 55 9 46 9"></polygon>
                <path d="M55,42.892 L55,37 C52.6762,34.9557143 48.8944,32.3405714 46,31 L46,43 L55,43 L55,42.892 Z" id="Fill-14" fill="#93E1FF"></path>
                <path d="M33.5687273,28 C32.0886364,28 30.4187273,28.1356558 29,28.3728289 L29,37 L38,37 L38,28.4204432 C36.4847273,28.1491316 35.1535455,28 33.5687273,28" id="Fill-15" fill="#93E1FF"></path>
                <path d="M51,58.5 C51,68.1642683 43.1642683,76 33.5,76 C23.8357317,76 16,68.1642683 16,58.5 C16,48.8357317 23.8357317,41 33.5,41 C43.1642683,41 51,48.8357317 51,58.5" id="Fill-16" fill="#FBD000"></path>
                <polygon id="Fill-17" fill="#93E1FF" points="12 13 21 13 21 9 12 9"></polygon>
                <polygon id="Fill-18" fill="#93E1FF" points="29 13 38 13 38 9 29 9"></polygon>
                <path d="M34.2493679,49.621725 C34.6618125,48.7927583 35.3381875,48.7927583 35.7514807,49.621725 L37.2849936,52.6957048 C37.6974381,53.5246714 38.7921983,54.310804 39.7155309,54.4435058 L43.1440822,54.9365184 C44.0682634,55.0692203 44.2770317,55.7050134 43.6082944,56.3508851 L41.126838,58.743718 C40.4581008,59.3895897 40.0405644,60.6620157 40.1984135,61.5724513 L40.7848316,64.9513093 C40.9426807,65.8625848 40.3953006,66.255651 39.5695629,65.8256298 L36.5025371,64.2306878 C35.6767994,63.8006666 34.3240492,63.8006666 33.4974629,64.2306878 L30.4312857,65.8256298 C29.6046994,66.255651 29.0581679,65.8625848 29.2151684,64.9513093 L29.8024351,61.5724513 C29.9594356,60.6620157 29.5418992,59.3895897 28.873162,58.743718 L26.3917056,56.3508851 C25.7229683,55.7050134 25.9317366,55.0692203 26.8559178,54.9365184 L30.2844691,54.4435058 C31.2086503,54.310804 32.3025619,53.5246714 32.7150064,52.6957048 L34.2493679,49.621725 Z" id="Fill-19" fill="#FBD000"></path>
                <polygon id="Fill-20" fill="#93E1FF" points="46 13 55 13 55 9 46 9"></polygon>
                <path d="M14.0413973,43.2642752 L54.5383151,43.2642752 L64.2739726,32.5140638 L64.2739726,7.73572478 L4.7260274,7.73572478 L4.7260274,32.5244782 L14.0413973,43.2642752 Z M54.9189041,45 L13.649589,45 C13.4001781,45 13.1628493,44.8915172 12.9988767,44.7023232 L3.21316438,33.4201122 C3.07508219,33.2630291 3,33.0599493 3,32.8499266 L3,6.86786239 C3,6.38880235 3.38663014,6 3.8630137,6 L65.1369863,6 C65.6142329,6 66,6.38880235 66,6.86786239 L66,32.8499266 C66,33.0660243 65.9197397,33.2743113 65.7747534,33.433998 L55.5566712,44.716209 C55.3935616,44.8975922 55.161411,45 54.9189041,45 L54.9189041,45 Z" id="Fill-25" fill="#429BD2"></path>
                <path d="M60,58.5 C60,72.5820508 48.3580667,84 34,84 C19.6419333,84 8,72.5820508 8,58.5 C8,44.4179492 19.6419333,33 34,33 C48.3580667,33 60,44.4179492 60,58.5" id="Fill-26" fill="#429BD2"></path>
                <path d="M33.5,43.890206 C42.6785366,43.890206 50.1932927,50.9825574 50.927439,60 C50.9658537,59.523009 51,59.0425925 51,58.5553252 C51,48.8605039 43.1642683,41 33.5,41 C23.8357317,41 16,48.8605039 16,58.5553252 C16,59.0425925 16.0341463,59.523009 16.072561,60 C16.8067073,50.9825574 24.3214634,43.890206 33.5,43.890206" id="Fill-27" fill="#50E3C2"></path>
                <path d="M34.5,81.0208327 C20.5479672,81.0208327 9.12168852,70.4341668 8.08514754,57 C8.03388525,57.6575092 8,58.3192824 8,58.9895837 C8,73.3541559 19.8650492,85 34.5,85 C49.1349508,85 61,73.3541559 61,58.9895837 C61,58.3192824 60.9661148,57.6575092 60.9148525,57 C59.8783115,70.4341668 48.4520328,81.0208327 34.5,81.0208327" id="Fill-28" fill="#429BD2"></path>
                <path d="M34.0722903,34.6776393 C20.0897742,34.6776393 8.71493548,45.6445246 8.71493548,59.1261639 C8.71493548,72.6939016 19.852871,83.3223607 34.0722903,83.3223607 C48.2098387,83.3223607 59.2850645,72.6939016 59.2850645,59.1261639 C59.2850645,45.4160656 48.2098387,34.6776393 34.0722903,34.6776393 M34.0722903,85 C18.8913226,85 7,73.6350164 7,59.1261639 C7,44.7196066 19.1439032,33 34.0722903,33 C49.1713871,33 61,44.4758033 61,59.1261639 C61,73.6350164 49.1713871,85 34.0722903,85" id="Fill-29" fill="#429BD2"></path>
                <path d="M33.5722791,42.674 C24.1235116,42.674 16.7209302,49.7162857 16.7209302,58.706 C16.7209302,67.7145714 24.4384419,75.326 33.5722791,75.326 C42.7844186,75.326 50.2790698,67.8705714 50.2790698,58.706 C50.2790698,49.7162857 42.9410233,42.674 33.5722791,42.674 M33.5722791,77 C23.3318837,77 15,68.7937143 15,58.706 C15,48.9422857 23.3318837,41 33.5722791,41 C43.9056047,41 52,48.7777143 52,58.706 C52,68.7937143 43.7335116,77 33.5722791,77" id="Fill-30" fill="#93E0FF"></path>
                <path d="M34.9999907,64.1645862 C35.7147583,64.1645862 36.3990918,64.3157225 36.9260373,64.5903588 L40.0198854,66.2019037 L39.4285935,62.786223 C39.2190326,61.5745415 39.7303263,60.0122238 40.6190033,59.1546332 L43.122429,56.7347249 L39.6642407,56.2364068 C38.4347013,56.0602251 37.0947294,55.0946799 36.5460453,53.990953 L34.9999907,50.8861812 L33.4530667,53.9918166 C32.9052521,55.0946799 31.5644107,56.0602251 30.3357408,56.2364068 L26.8775525,56.7347249 L29.3801087,59.1546332 C30.2696552,60.0122238 30.7800793,61.5745415 30.571388,62.786223 L29.9800961,66.2019037 L33.0730747,64.5903588 C33.6008897,64.3157225 34.2852231,64.1645862 34.9999907,64.1645862 M40.2581413,67.9999941 C39.9320611,68.0008577 39.5877205,67.907585 39.2381627,67.7253578 L36.1251845,66.1025856 C35.5634572,65.8089493 34.4356548,65.8106766 33.8756665,66.1025856 L30.7618188,67.7253578 C29.9270537,68.1606304 29.08968,68.0561304 28.6131682,67.4973579 C28.3836078,67.2270398 28.1392651,66.7373581 28.2775231,65.9359038 L28.8731628,62.4977685 C28.9853344,61.8491778 28.6531674,60.8378599 28.1775252,60.3775419 L25.6584476,57.9429517 C25.0906335,57.3945428 24.8758554,56.7416339 25.0697643,56.1526341 C25.2628038,55.5636343 25.822792,55.1603163 26.6079929,55.0480436 L30.0887895,54.546271 C30.746167,54.451271 31.6131053,53.8268621 31.9070122,53.2369987 L33.4652403,50.1097724 C33.8147982,49.4041817 34.3739169,49 34.9999907,49 C35.625195,49 36.1843137,49.4041817 36.5356107,50.110636 L38.0929693,53.236135 C38.3860066,53.8268621 39.2538145,54.451271 39.911192,54.546271 L43.3919885,55.0480436 C44.1771895,55.1603163 44.7371777,55.5636343 44.9310867,56.1526341 C45.1232566,56.7416339 44.909348,57.3945428 44.3415338,57.9429517 L41.8224563,60.3775419 C41.3459445,60.8378599 41.0146471,61.8491778 41.1268187,62.4977685 L41.7215888,65.9359038 C41.8615859,66.7373581 41.6155041,67.2270398 41.3868132,67.4956306 C41.1102973,67.8212214 40.7085666,67.9999941 40.2581413,67.9999941" id="Fill-31" fill="#F2F2F2"></path>
                <path d="M57.8418814,59 C57.2018158,59 56.6847629,58.6192351 56.6847629,58.1487788 C56.6847629,55.0324294 55.8156739,52.0210018 54.1014983,49.1982645 C53.8394714,48.7692693 54.1024984,48.2666596 54.6865582,48.0745848 C55.270618,47.8816639 55.953688,48.0762771 56.2147147,48.5052723 C58.062904,51.5463149 59,54.7912783 59,58.1487788 C59,58.6192351 58.482947,59 57.8418814,59" id="Fill-32" fill="#FFFFFF"></path>
                <path d="M52.1571399,46 C51.8907983,46 51.6278714,45.8781538 51.4639689,45.6513846 C47.386894,39.9990769 40.6942082,36.6246154 33.5610345,36.6246154 C28.3639592,36.6246154 23.3307863,38.4167692 19.3920042,41.6710769 C19.0377357,41.9621538 18.5050526,41.9232308 18.203711,41.5822308 C17.8998084,41.2420769 17.940784,40.7293077 18.2941988,40.4373846 C22.5394445,36.9309231 27.9610322,35 33.5610345,35 C41.2473792,35 48.4573822,38.6350769 52.8494572,44.724 C53.1149452,45.0929231 53.020189,45.5980769 52.6368962,45.8544615 C52.4909205,45.9526154 52.3236034,46 52.1571399,46" id="Fill-33" fill="#FFFFFF"></path>
                <path d="M34.6226765,74 C29.0769308,74 24.0327838,71.1406748 21.1296713,66.3535325 C20.876232,65.9341288 21.0055916,65.387824 21.4191906,65.1313218 C21.8336695,64.8748195 22.3739881,65.0053207 22.6274274,65.4247244 C25.2093408,69.6808619 29.6929292,72.2215843 34.6226765,72.2215843 C37.1051501,72.2215843 39.5453838,71.5582785 41.6802582,70.3054674 C42.0947372,70.0570652 42.6359358,70.2001665 42.8805751,70.6267702 C43.1252145,71.051574 42.9817749,71.5951788 42.562016,71.841781 C40.1605022,73.2538934 37.4149093,74 34.6226765,74" id="Fill-34" fill="#FFFFFF"></path>
                <path d="M66,7.50892164 C66,9.42901474 64.4605263,11 62.5789474,11 L4.42105263,11 C2.53947368,11 1,9.42901474 1,7.50892164 L1,5.49020559 C1,3.57011249 2.53947368,2 4.42105263,2 L62.5789474,2 C64.4605263,2 66,3.57011249 66,5.49020559 L66,7.50892164 Z" id="Fill-35" fill="#429BD2"></path>
                <path d="M4.30379747,1.69230769 C2.88010127,1.69230769 1.72151899,2.83123077 1.72151899,4.23076923 L1.72151899,6.76923077 C1.72151899,8.16876923 2.88010127,9.30769231 4.30379747,9.30769231 L63.6962025,9.30769231 C65.1198987,9.30769231 66.278481,8.16876923 66.278481,6.76923077 L66.278481,4.23076923 C66.278481,2.83123077 65.1198987,1.69230769 63.6962025,1.69230769 L4.30379747,1.69230769 Z M63.6962025,11 L4.30379747,11 C1.93068354,11 0,9.10207692 0,6.76923077 L0,4.23076923 C0,1.89792308 1.93068354,0 4.30379747,0 L63.6962025,0 C66.0693165,0 68,1.89792308 68,4.23076923 L68,6.76923077 C68,9.10207692 66.0693165,11 63.6962025,11 L63.6962025,11 Z" id="Fill-36" fill="#429BD2"></path>
                <path d="M62.1333333,6 L50.8666667,6 C50.3874,6 50,5.552 50,5 C50,4.448 50.3874,4 50.8666667,4 L62.1333333,4 C62.6126,4 63,4.448 63,5 C63,5.552 62.6126,6 62.1333333,6" id="Fill-37" fill="#FFFFFF"></path>
                <path d="M47.1145745,6 L7.88455319,6 C7.39604255,6 7,5.552 7,5 C7,4.448 7.39604255,4 7.88455319,4 L47.1145745,4 C47.6039574,4 48,4.448 48,5 C48,5.552 47.6039574,6 47.1145745,6" id="Fill-38" fill="#FFFFFF"></path>
            </g>
        </g>
    </g>
</svg>