<?xml version="1.0" encoding="UTF-8"?>
<svg width="260px" height="243px" viewBox="0 0 260 243" version="1.1" xmlns="http://www.w3.org/2000/svg" xmlns:xlink="http://www.w3.org/1999/xlink">
    <!-- Generator: Sketch 43.1 (39012) - http://www.bohemiancoding.com/sketch -->
    <title>stats-lines@1x</title>
    <desc>Created with Sketch.</desc>
    <defs>
        <linearGradient x1="30.1509797%" y1="92.2033884%" x2="100%" y2="9.73676108%" id="linearGradient-1">
            <stop stop-color="#429BD2" offset="0%"></stop>
            <stop stop-color="#A1B555" offset="41.6701275%"></stop>
            <stop stop-color="#FBC131" offset="100%"></stop>
        </linearGradient>
        <path d="M948,91.5172414 C948,81.9814532 940.226,74.226601 930.666667,74.226601 C921.107333,74.226601 913.333333,81.9814532 913.333333,91.5172414 C913.333333,94.7160099 914.265,97.6727094 915.790333,100.244692 L870.082333,145.840111 C867.504,144.318534 864.54,143.389163 861.333333,143.389163 C858.139667,143.389163 855.18,144.314212 852.606,145.827143 L832.889333,126.159039 C834.406,123.591379 835.333333,120.639002 835.333333,117.453202 C835.333333,107.917414 827.559333,100.162562 818,100.162562 C808.440667,100.162562 800.666667,107.917414 800.666667,117.453202 C800.666667,119.493498 801.087,121.421404 801.741333,123.236921 L716.6,208.168547 C713.562333,205.549015 709.653667,203.906404 705.333333,203.906404 L705.333333,52.6133005 C705.333333,45.4636207 711.166,39.6453202 718.333333,39.6453202 L917.666667,39.6453202 C924.834,39.6453202 930.666667,45.4636207 930.666667,52.6133005 L930.666667,61.2586207 C930.666667,63.6447291 932.608,65.5812808 935,65.5812808 C937.392,65.5812808 939.333333,63.6447291 939.333333,61.2586207 L939.333333,52.6133005 C939.333333,40.6957266 929.613667,31 917.666667,31 L718.333333,31 C706.386333,31 696.666667,40.6957266 696.666667,52.6133005 L696.666667,206.314126 C691.51,209.314052 688,214.825443 688,221.197044 C688,230.732833 695.774,238.487685 705.333333,238.487685 C714.892667,238.487685 722.666667,230.732833 722.666667,221.197044 C722.666667,219.156749 722.246333,217.228842 721.592,215.413325 L806.733333,130.4817 C809.771,133.101232 813.679667,134.743842 818,134.743842 C821.215333,134.743842 824.188,133.810148 826.770667,132.284249 L846.465667,151.930739 C844.936,154.507044 844,157.472389 844,160.679803 C844,170.215591 851.774,177.970443 861.333333,177.970443 C870.892667,177.970443 878.666667,170.215591 878.666667,160.679803 C878.666667,157.481034 877.735,154.524335 876.209667,151.952352 L921.917667,106.356933 C924.496,107.87851 927.46,108.807882 930.666667,108.807882 L930.666667,251.455665 C930.666667,258.605345 924.834,264.423645 917.666667,264.423645 L904.666667,264.423645 L904.666667,147.711823 C904.666667,145.325714 902.725333,143.389163 900.333333,143.389163 C897.941333,143.389163 896,145.325714 896,147.711823 L896,264.423645 L870,264.423645 L870,190.938424 C870,188.552315 868.058667,186.615764 865.666667,186.615764 C863.274667,186.615764 861.333333,188.552315 861.333333,190.938424 L861.333333,264.423645 L835.333333,264.423645 L835.333333,156.357143 C835.333333,153.971034 833.392,152.034483 831,152.034483 C828.608,152.034483 826.666667,153.971034 826.666667,156.357143 L826.666667,264.423645 L800.666667,264.423645 L800.666667,156.357143 C800.666667,153.971034 798.725333,152.034483 796.333333,152.034483 C793.941333,152.034483 792,153.971034 792,156.357143 L792,264.423645 L766,264.423645 L766,190.938424 C766,188.552315 764.058667,186.615764 761.666667,186.615764 C759.274667,186.615764 757.333333,188.552315 757.333333,190.938424 L757.333333,264.423645 L731.333333,264.423645 L731.333333,247.133005 C731.333333,244.746897 729.392,242.810345 727,242.810345 C724.608,242.810345 722.666667,244.746897 722.666667,247.133005 L722.666667,264.423645 L718.333333,264.423645 C711.166,264.423645 705.333333,258.605345 705.333333,251.455665 C705.333333,249.069557 703.392,247.133005 701,247.133005 C698.608,247.133005 696.666667,249.069557 696.666667,251.455665 C696.666667,263.373239 706.386333,273.068966 718.333333,273.068966 L917.666667,273.068966 C929.613667,273.068966 939.333333,263.373239 939.333333,251.455665 L939.333333,106.40016 C944.49,103.400234 948,97.8888424 948,91.5172414 L948,91.5172414 Z M705.931034,229.522167 C700.986552,229.522167 696.965517,225.78835 696.965517,221.197044 C696.965517,216.605739 700.986552,212.871921 705.931034,212.871921 C710.875517,212.871921 714.896552,216.605739 714.896552,221.197044 C714.896552,225.78835 710.875517,229.522167 705.931034,229.522167 L705.931034,229.522167 Z M809.674877,118.093596 C809.674877,113.149113 813.695911,109.128079 818.640394,109.128079 C823.584877,109.128079 827.605911,113.149113 827.605911,118.093596 C827.605911,123.038079 823.584877,127.059113 818.640394,127.059113 C813.695911,127.059113 809.674877,123.038079 809.674877,118.093596 L809.674877,118.093596 Z M862.187192,170.605911 C857.242709,170.605911 853.221675,166.584877 853.221675,161.640394 C853.221675,156.695911 857.242709,152.674877 862.187192,152.674877 C867.131675,152.674877 871.152709,156.695911 871.152709,161.640394 C871.152709,166.584877 867.131675,170.605911 862.187192,170.605911 L862.187192,170.605911 Z M931.349754,101.44335 C928.90665,101.44335 926.687685,100.45266 925.069409,98.8612808 C925.051478,98.8433498 925.046995,98.8164532 925.029064,98.7985222 C925.011133,98.7805911 924.984236,98.7761084 924.966305,98.7581773 C923.374926,97.1399015 922.384236,94.920936 922.384236,92.4778325 C922.384236,87.5333498 926.405271,83.5123153 931.349754,83.5123153 C936.294236,83.5123153 940.315271,87.5333498 940.315271,92.4778325 C940.315271,97.4223153 936.294236,101.44335 931.349754,101.44335 L931.349754,101.44335 Z" id="path-2"></path>
    </defs>
    <g id="Page-11" stroke="none" stroke-width="1" fill="none" fill-rule="evenodd">
        <g id="Technologies-V1-Copy" transform="translate(-924.000000, -1819.000000)">
            <g id="Group-6" transform="translate(236.000000, 1788.000000)">
                <g id="stats-lines">
                    <use fill="#93E1FF" xlink:href="#path-2"></use>
                    <use fill-opacity="0.6" fill="url(#linearGradient-1)" xlink:href="#path-2"></use>
                </g>
            </g>
        </g>
    </g>
</svg>