<?xml version="1.0" encoding="UTF-8"?>
<svg width="56px" height="55px" viewBox="0 0 56 55" version="1.1" xmlns="http://www.w3.org/2000/svg" xmlns:xlink="http://www.w3.org/1999/xlink">
    <!-- Generator: Sketch 43.1 (39012) - http://www.bohemiancoding.com/sketch -->
    <title>Chip</title>
    <desc>Created with Sketch.</desc>
    <defs></defs>
    <g id="INTERNALS" stroke="none" stroke-width="1" fill="none" fill-rule="evenodd">
        <g id="HomepageV9-V2" transform="translate(-1071.000000, -3043.000000)">
            <g id="Section---Technology-Leadership" transform="translate(0.000000, 2604.000000)">
                <g id="Group-2">
                    <g id="Content" transform="translate(723.000000, 96.000000)">
                        <g id="r2" transform="translate(0.000000, 325.000000)">
                            <g id="Group-12">
                                <g id="Group-20" transform="translate(330.000000, 0.000000)">
                                    <g id="Chip">
                                        <g id="techldrshipIcon" transform="translate(46.016504, 45.945436) rotate(-42.000000) translate(-46.016504, -45.945436) translate(13.516504, 13.445436)">
                                            <g transform="translate(0.000000, -0.000000)" id="Layer_2" fill-rule="nonzero">
                                                <g transform="translate(0.000000, 0.000000)">
                                                    <g id="Layer_1-2" transform="translate(0.000000, 0.000000)">
                                                        <rect id="Rectangle-path" fill="#239DDA" x="13.0786435" y="13.1545796" width="38.5521709" height="38.5521709" rx="8"></rect>
                                                        <rect id="Rectangle-path" fill="#EFFEFC" x="21.2563768" y="21.6185335" width="22.1967045" height="22.1967045" rx="6"></rect>
                                                        <rect id="Rectangle-path" fill="#FFFFFF" x="27.8744994" y="27.9504355" width="8.95461788" height="8.95461788" rx="2"></rect>
                                                        <path d="M19.8661621,13.6394024 C19.5435594,13.6394024 19.2820383,13.3778813 19.2820383,13.0552786 L19.2820383,8.76780988 C19.2820383,8.44520721 19.5435594,8.18368608 19.8661621,8.18368608 C20.1887648,8.18368608 20.4502859,8.44520721 20.4502859,8.76780988 L20.4502859,13.0494373 C20.4518453,13.2053662 20.3909929,13.3554454 20.281279,13.4662565 C20.1715651,13.5770676 20.0220988,13.6394102 19.8661621,13.6394024 L19.8661621,13.6394024 Z" id="Shape" fill="#239DDA"></path>
                                                        <path d="M26.2915239,13.6394024 C25.9689213,13.6394024 25.7074001,13.3778813 25.7074001,13.0552786 L25.7074001,5.46166916 C25.7074001,5.1390665 25.9689213,4.87754536 26.2915239,4.87754536 C26.6141266,4.87754536 26.8756477,5.1390665 26.8756477,5.46166916 L26.8756477,13.0552786 C26.8756477,13.3778813 26.6141266,13.6394024 26.2915239,13.6394024 Z" id="Shape" fill="#239DDA"></path>
                                                        <path d="M32.7168858,13.6394024 C32.3942831,13.6394024 32.132762,13.3778813 32.132762,13.0552786 L32.132762,8.76780988 C32.132762,8.44520721 32.3942831,8.18368608 32.7168858,8.18368608 C33.0394884,8.18368608 33.3010096,8.44520721 33.3010096,8.76780988 L33.3010096,13.0494373 C33.3025689,13.2053662 33.2417166,13.3554454 33.1320026,13.4662565 C33.0222887,13.5770676 32.8728224,13.6394102 32.7168858,13.6394024 L32.7168858,13.6394024 Z" id="Shape" fill="#239DDA"></path>
                                                        <path d="M38.5581238,13.6394024 C38.2355211,13.6394024 37.974,13.3778813 37.974,13.0552786 L37.974,8.76780988 C37.974,8.44520721 38.2355211,8.18368608 38.5581238,8.18368608 C38.8807264,8.18368608 39.1422476,8.44520721 39.1422476,8.76780988 L39.1422476,13.0494373 C39.1438069,13.2053662 39.0829546,13.3554454 38.9732407,13.4662565 C38.8635267,13.5770676 38.7140604,13.6394102 38.5581238,13.6394024 L38.5581238,13.6394024 Z" id="Shape" fill="#239DDA"></path>
                                                        <path d="M44.9834856,13.6394024 C44.6608829,13.6394024 44.3993618,13.3778813 44.3993618,13.0552786 L44.3993618,8.76780988 C44.3993618,8.44520721 44.6608829,8.18368608 44.9834856,8.18368608 C45.3060883,8.18368608 45.5676094,8.44520721 45.5676094,8.76780988 L45.5676094,13.0494373 C45.5691688,13.2053662 45.5083164,13.3554454 45.3986025,13.4662565 C45.2888886,13.5770676 45.1394223,13.6394102 44.9834856,13.6394024 L44.9834856,13.6394024 Z" id="Shape" fill="#239DDA"></path>
                                                        <path d="M19.8661621,56.6659616 C19.5435594,56.6659616 19.2820383,56.4044405 19.2820383,56.0818378 L19.2820383,51.9929712 C19.2820383,51.6703686 19.5435594,51.4088474 19.8661621,51.4088474 C20.1887648,51.4088474 20.4502859,51.6703686 20.4502859,51.9929712 L20.4502859,56.0818378 C20.4502859,56.4044405 20.1887648,56.6659616 19.8661621,56.6659616 Z" id="Shape" fill="#239DDA"></path>
                                                        <path d="M25.7074001,56.6659616 C25.3847975,56.6659616 25.1232763,56.4044405 25.1232763,56.0818378 L25.1232763,51.9929712 C25.1232763,51.6703686 25.3847975,51.4088474 25.7074001,51.4088474 C26.0300028,51.4088474 26.2915239,51.6703686 26.2915239,51.9929712 L26.2915239,56.0818378 C26.2915239,56.4044405 26.0300028,56.6659616 25.7074001,56.6659616 Z" id="Shape" fill="#239DDA"></path>
                                                        <path d="M32.132762,56.6659616 C31.8101593,56.6659616 31.5486382,56.4044405 31.5486382,56.0818378 L31.5486382,51.9929712 C31.5486382,51.6703686 31.8101593,51.4088474 32.132762,51.4088474 C32.4553646,51.4088474 32.7168858,51.6703686 32.7168858,51.9929712 L32.7168858,56.0818378 C32.7168858,56.4044405 32.4553646,56.6659616 32.132762,56.6659616 Z" id="Shape" fill="#239DDA"></path>
                                                        <path d="M38.5581238,60.1707044 C38.2355211,60.1707044 37.974,59.9091833 37.974,59.5865806 L37.974,51.9929712 C37.974,51.6703686 38.2355211,51.4088474 38.5581238,51.4088474 C38.8807264,51.4088474 39.1422476,51.6703686 39.1422476,51.9929712 L39.1422476,59.5865806 C39.1422476,59.9091833 38.8807264,60.1707044 38.5581238,60.1707044 Z" id="Shape" fill="#239DDA"></path>
                                                        <path d="M44.9834856,56.6659616 C44.6608829,56.6659616 44.3993618,56.4044405 44.3993618,56.0818378 L44.3993618,51.9929712 C44.3993618,51.6703686 44.6608829,51.4088474 44.9834856,51.4088474 C45.3060883,51.4088474 45.5676094,51.6703686 45.5676094,51.9929712 L45.5676094,56.0818378 C45.5676094,56.4044405 45.3060883,56.6659616 44.9834856,56.6659616 Z" id="Shape" fill="#239DDA"></path>
                                                        <path d="M56.0818378,20.4502859 L51.7009093,20.4502859 C51.3783066,20.4502859 51.1167855,20.1887648 51.1167855,19.8661621 C51.1167855,19.5435594 51.3783066,19.2820383 51.7009093,19.2820383 L56.0818378,19.2820383 C56.4044405,19.2820383 56.6659616,19.5435594 56.6659616,19.8661621 C56.6659616,20.1887648 56.4044405,20.4502859 56.0818378,20.4502859 Z" id="Shape" fill="#5EA7C8"></path>
                                                        <path d="M59.2828363,26.2915239 L51.6892268,26.2915239 C51.3666242,26.2915239 51.105103,26.0300028 51.105103,25.7074001 C51.105103,25.3847975 51.3666242,25.1232763 51.6892268,25.1232763 L59.2828363,25.1232763 C59.6054389,25.1232763 59.8669601,25.3847975 59.8669601,25.7074001 C59.8669601,26.0300028 59.6054389,26.2915239 59.2828363,26.2915239 Z" id="Shape" fill="#239DDA"></path>
                                                        <path d="M56.0818378,32.7168858 L51.7009093,32.7168858 C51.3783066,32.7168858 51.1167855,32.4553646 51.1167855,32.132762 C51.1167855,31.8101593 51.3783066,31.5486382 51.7009093,31.5486382 L56.0818378,31.5486382 C56.4044405,31.5486382 56.6659616,31.8101593 56.6659616,32.132762 C56.6659616,32.4553646 56.4044405,32.7168858 56.0818378,32.7168858 Z" id="Shape" fill="#239DDA"></path>
                                                        <path d="M56.0818378,39.1422476 L51.7009093,39.1422476 C51.3783066,39.1422476 51.1167855,38.8807264 51.1167855,38.5581238 C51.1167855,38.2355211 51.3783066,37.974 51.7009093,37.974 L56.0818378,37.974 C56.4044405,37.974 56.6659616,38.2355211 56.6659616,38.5581238 C56.6659616,38.8807264 56.4044405,39.1422476 56.0818378,39.1422476 Z" id="Shape" fill="#239DDA"></path>
                                                        <path d="M56.0818378,45.5676094 L51.7009093,45.5676094 C51.3783066,45.5676094 51.1167855,45.3060883 51.1167855,44.9834856 C51.1167855,44.6608829 51.3783066,44.3993618 51.7009093,44.3993618 L56.0818378,44.3993618 C56.4044405,44.3993618 56.6659616,44.6608829 56.6659616,44.9834856 C56.6659616,45.3060883 56.4044405,45.5676094 56.0818378,45.5676094 Z" id="Shape" fill="#239DDA"></path>
                                                        <path d="M12.8566765,20.4502859 L8.62177893,20.4502859 C8.29917626,20.4502859 8.03765513,20.1887648 8.03765513,19.8661621 C8.03765513,19.5435594 8.29917626,19.2820383 8.62177893,19.2820383 L12.8566765,19.2820383 C13.1792792,19.2820383 13.4408003,19.5435594 13.4408003,19.8661621 C13.4408003,20.1887648 13.1792792,20.4502859 12.8566765,20.4502859 Z" id="Shape" fill="#239DDA"></path>
                                                        <path d="M12.7748992,26.8756477 L8.53416036,26.8756477 C8.21155769,26.8756477 7.95003656,26.6141266 7.95003656,26.2915239 C7.95003656,25.9689213 8.21155769,25.7074001 8.53416036,25.7074001 L12.7748992,25.7074001 C13.0975018,25.7074001 13.359023,25.9689213 13.359023,26.2915239 C13.359023,26.6141266 13.0975018,26.8756477 12.7748992,26.8756477 Z" id="Shape" fill="#239DDA"></path>
                                                        <path d="M12.8566765,32.7168858 L5.3448444,32.7168858 C5.02224174,32.7168858 4.7607206,32.4553646 4.7607206,32.132762 C4.7607206,31.8101593 5.02224174,31.5486382 5.3448444,31.5486382 L12.8566765,31.5486382 C13.1792792,31.5486382 13.4408003,31.8101593 13.4408003,32.132762 C13.4408003,32.4553646 13.1792792,32.7168858 12.8566765,32.7168858 Z" id="Shape" fill="#239DDA"></path>
                                                        <path d="M12.8566765,39.1422476 L8.62177893,39.1422476 C8.29917626,39.1422476 8.03765513,38.8807264 8.03765513,38.5581238 C8.03765513,38.2355211 8.29917626,37.974 8.62177893,37.974 L12.8566765,37.974 C13.1792792,37.974 13.4408003,38.2355211 13.4408003,38.5581238 C13.4408003,38.8807264 13.1792792,39.1422476 12.8566765,39.1422476 Z" id="Shape" fill="#239DDA"></path>
                                                        <path d="M12.8566765,45.5676094 L8.62177893,45.5676094 C8.29917626,45.5676094 8.03765513,45.3060883 8.03765513,44.9834856 C8.03765513,44.6608829 8.29917626,44.3993618 8.62177893,44.3993618 L12.8566765,44.3993618 C13.1792792,44.3993618 13.4408003,44.6608829 13.4408003,44.9834856 C13.4408003,45.3060883 13.1792792,45.5676094 12.8566765,45.5676094 Z" id="Shape" fill="#239DDA"></path>
                                                        <path d="M37.582637,16.9455431 C37.582637,17.5907484 37.0595948,18.1137907 36.4143894,18.1137907 L28.2366562,18.1137907 C27.5914509,18.1137907 27.0684086,17.5907484 27.0684086,16.9455431 L27.0684086,16.9455431 C27.0684086,16.3003378 27.5914509,15.7772955 28.2366562,15.7772955 L36.4143894,15.7772955 C37.0595948,15.7772955 37.582637,16.3003378 37.582637,16.9455431 Z" id="Shape" fill="#60FFE9"></path>
                                                        <path d="M37.582637,47.9041046 C37.582637,48.5493099 37.0595948,49.0723522 36.4143894,49.0723522 L28.2366562,49.0723522 C27.5914509,49.0723522 27.0684086,48.5493099 27.0684086,47.9041046 L27.0684086,47.9041046 C27.0684086,47.2588993 27.5914509,46.735857 28.2366562,46.735857 L36.4143894,46.735857 C37.0595948,46.735857 37.582637,47.2588993 37.582637,47.9041046 Z" id="Shape" fill="#60FFE9"></path>
                                                        <path d="M47.3199808,37.3898762 C46.6747755,37.3898762 46.1517332,36.8668339 46.1517332,36.2216286 L46.1517332,28.0438953 C46.1517332,27.39869 46.6747755,26.8756477 47.3199808,26.8756477 L47.3199808,26.8756477 C47.9651861,26.8756477 48.4882284,27.39869 48.4882284,28.0438953 L48.4882284,36.2216286 C48.4882284,36.8668339 47.9651861,37.3898762 47.3199808,37.3898762 Z" id="Shape" fill="#60FFE9"></path>
                                                        <path d="M16.9455431,37.6819381 C16.3003378,37.6819381 15.7772955,37.1588958 15.7772955,36.5136905 L15.7772955,28.3359572 C15.7772955,27.6907519 16.3003378,27.1677096 16.9455431,27.1677096 L16.9455431,27.1677096 C17.5907484,27.1677096 18.1137907,27.6907519 18.1137907,28.3359572 L18.1137907,36.5136905 C18.1137907,37.1588958 17.5907484,37.6819381 16.9455431,37.6819381 Z" id="Shape" fill="#60FFE9"></path>
                                                        <path d="M37.4541298,25.7074001 L34.9891273,25.7074001 C34.6665247,25.7074001 34.4050035,25.445879 34.4050035,25.1232763 C34.4050035,24.8006737 34.6665247,24.5391525 34.9891273,24.5391525 L37.4541298,24.5391525 C37.7767325,24.5391525 38.0382536,24.8006737 38.0382536,25.1232763 C38.0382536,25.445879 37.7767325,25.7074001 37.4541298,25.7074001 Z" id="Shape" fill="#239DDA"></path>
                                                        <path d="M32.0918733,25.7074001 L24.5800412,25.7074001 C24.2574385,25.7074001 23.9959174,25.445879 23.9959174,25.1232763 C23.9959174,24.8006737 24.2574385,24.5391525 24.5800412,24.5391525 L32.0918733,24.5391525 C32.414476,24.5391525 32.6759971,24.8006737 32.6759971,25.1232763 C32.6759971,25.445879 32.414476,25.7074001 32.0918733,25.7074001 Z" id="Shape" fill="#239DDA"></path>
                                                        <path d="M23.9550287,39.1422476 C23.6324261,39.1422476 23.3709049,38.8807264 23.3709049,38.5581238 L23.3709049,32.7168858 C23.3709049,32.3942831 23.6324261,32.132762 23.9550287,32.132762 C24.2776314,32.132762 24.5391525,32.3942831 24.5391525,32.7168858 L24.5391525,38.5581238 C24.5391525,38.8807264 24.2776314,39.1422476 23.9550287,39.1422476 Z" id="Shape" fill="#239DDA"></path>
                                                        <path d="M33.8851334,40.894619 L28.6280191,40.894619 C28.3054165,40.894619 28.0438953,40.6330978 28.0438953,40.3104952 C28.0438953,39.9878925 28.3054165,39.7263714 28.6280191,39.7263714 L33.8851334,39.7263714 C34.207736,39.7263714 34.4692572,39.9878925 34.4692572,40.3104952 C34.4692572,40.6330978 34.207736,40.894619 33.8851334,40.894619 Z" id="Shape" fill="#239DDA"></path>
                                                        <path d="M39.7263714,38.5581238 C39.4037687,38.5581238 39.1422476,38.2966026 39.1422476,37.974 L39.1422476,35.053381 C39.1422476,34.7307783 39.4037687,34.4692572 39.7263714,34.4692572 C40.048974,34.4692572 40.3104952,34.7307783 40.3104952,35.053381 L40.3104952,37.974 C40.3104952,38.2966026 40.048974,38.5581238 39.7263714,38.5581238 Z" id="Shape" fill="#239DDA"></path>
                                                        <path d="M39.7263714,33.3010096 C39.5618981,33.3016772 39.404765,33.2329731 39.2935751,33.1117762 C39.1823852,32.9905792 39.1274435,32.8281216 39.1422476,32.6643146 L39.1422476,30.4329617 C39.1422476,30.110359 39.4037687,29.8488379 39.7263714,29.8488379 C40.048974,29.8488379 40.3104952,30.110359 40.3104952,30.4329617 L40.3104952,32.6643146 C40.3252992,32.8281216 40.2703575,32.9905792 40.1591677,33.1117762 C40.0479778,33.2329731 39.8908446,33.3016772 39.7263714,33.3010096 L39.7263714,33.3010096 Z" id="Shape" fill="#239DDA"></path>
                                                        <ellipse id="Oval" fill="#F4F8FF" cx="25.999462" cy="3.01419043" rx="2.33649521" ry="2.33649521"></ellipse>
                                                        <ellipse id="Oval" fill="#F4F8FF" cx="38.5581238" cy="61.9172346" rx="2.33649521" ry="2.33649521"></ellipse>
                                                        <ellipse id="Oval" fill="#F4F8FF" cx="2.82727082" cy="32.132762" rx="2.33649521" ry="2.33649521"></ellipse>
                                                        <ellipse id="Oval" fill="#F4F8FF" cx="61.7712037" cy="25.999462" rx="2.33649521" ry="2.33649521"></ellipse>
                                                        <path d="M46.735857,52.577095 L17.5296669,52.577095 C14.6262429,52.577095 12.2725527,50.2234048 12.2725527,47.3199808 L12.2725527,18.1137907 C12.2725527,15.2103667 14.6262429,12.8566765 17.5296669,12.8566765 L46.735857,12.8566765 C49.639281,12.8566765 51.9929712,15.2103667 51.9929712,18.1137907 L51.9929712,47.3199808 C51.9929712,50.2234048 49.639281,52.577095 46.735857,52.577095 L46.735857,52.577095 Z M17.5296669,14.0249241 C15.2714482,14.0249241 13.4408003,15.855572 13.4408003,18.1137907 L13.4408003,47.3199808 C13.4408003,49.5781995 15.2714482,51.4088474 17.5296669,51.4088474 L46.735857,51.4088474 C48.9940757,51.4088474 50.8247236,49.5781995 50.8247236,47.3199808 L50.8247236,18.1137907 C50.8247236,15.855572 48.9940757,14.0249241 46.735857,14.0249241 L17.5296669,14.0249241 Z" id="Shape" fill="#239DDA"></path>
                                                        <path d="M39.7263714,43.815238 L24.5391525,43.815238 C22.2809339,43.815238 20.4502859,41.9845901 20.4502859,39.7263714 L20.4502859,24.5391525 C20.4502859,22.2809339 22.2809339,20.4502859 24.5391525,20.4502859 L39.7263714,20.4502859 C41.9845901,20.4502859 43.815238,22.2809339 43.815238,24.5391525 L43.815238,39.7263714 C43.815238,41.9845901 41.9845901,43.815238 39.7263714,43.815238 L39.7263714,43.815238 Z M24.5391525,21.6185335 C22.9261392,21.6185335 21.6185335,22.9261392 21.6185335,24.5391525 L21.6185335,39.7263714 C21.6185335,41.3393847 22.9261392,42.6469904 24.5391525,42.6469904 L39.7263714,42.6469904 C41.3393847,42.6469904 42.6469904,41.3393847 42.6469904,39.7263714 L42.6469904,24.5391525 C42.6469904,22.9261392 41.3393847,21.6185335 39.7263714,21.6185335 L24.5391525,21.6185335 Z" id="Shape" fill="#239DDA"></path>
                                                        <path d="M26.2915239,5.84719087 C24.6785106,5.84719087 23.3709049,4.5395852 23.3709049,2.92657186 C23.3709049,1.31355852 24.6785106,0.00595285403 26.2915239,0.00595285403 C27.9045373,0.00595285403 29.2121429,1.31355852 29.2121429,2.92657186 C29.2121429,4.5395852 27.9045373,5.84719087 26.2915239,5.84719087 L26.2915239,5.84719087 Z M26.2915239,1.17420046 C25.3237159,1.17420046 24.5391525,1.95876386 24.5391525,2.92657186 C24.5391525,3.89437987 25.3237159,4.67894327 26.2915239,4.67894327 C27.2593319,4.67894327 28.0438953,3.89437987 28.0438953,2.92657186 C28.0438953,1.95876386 27.2593319,1.17420046 26.2915239,1.17420046 L26.2915239,1.17420046 Z" id="Shape" fill="#239DDA"></path>
                                                        <path d="M38.5581238,64.8436949 C36.9451104,64.8436949 35.6375048,63.5360892 35.6375048,61.9230759 C35.6375048,60.3100625 36.9451104,59.0024568 38.5581238,59.0024568 C40.1711371,59.0024568 41.4787428,60.3100625 41.4787428,61.9230759 C41.4787428,63.5360892 40.1711371,64.8436949 38.5581238,64.8436949 Z M38.5581238,60.1707044 C37.5903158,60.1707044 36.8057524,60.9552678 36.8057524,61.9230759 C36.8057524,62.8908839 37.5903158,63.6754473 38.5581238,63.6754473 C39.5259318,63.6754473 40.3104952,62.8908839 40.3104952,61.9230759 C40.3104952,60.9552678 39.5259318,60.1707044 38.5581238,60.1707044 Z" id="Shape" fill="#239DDA"></path>
                                                        <path d="M2.92657186,35.053381 C1.31355852,35.053381 0.00595285403,33.7457753 0.00595285403,32.132762 C0.00595285403,30.5197486 1.31355852,29.2121429 2.92657186,29.2121429 C4.5395852,29.2121429 5.84719087,30.5197486 5.84719087,32.132762 C5.84719087,33.7457753 4.5395852,35.053381 2.92657186,35.053381 Z M2.92657186,30.3803906 C1.95876386,30.3803906 1.17420046,31.164954 1.17420046,32.132762 C1.17420046,33.10057 1.95876386,33.8851334 2.92657186,33.8851334 C3.89437987,33.8851334 4.67894327,33.10057 4.67894327,32.132762 C4.67894327,31.164954 3.89437987,30.3803906 2.92657186,30.3803906 Z" id="Shape" fill="#239DDA"></path>
                                                        <path d="M61.9230759,28.6280191 C60.3100625,28.6280191 59.0024568,27.3204135 59.0024568,25.7074001 C59.0024568,24.0943868 60.3100625,22.7867811 61.9230759,22.7867811 C63.5360892,22.7867811 64.8436949,24.0943868 64.8436949,25.7074001 C64.8436949,27.3204135 63.5360892,28.6280191 61.9230759,28.6280191 Z M61.9230759,23.9550287 C60.9552678,23.9550287 60.1707044,24.7395921 60.1707044,25.7074001 C60.1707044,26.6752081 60.9552678,27.4597715 61.9230759,27.4597715 C62.8908839,27.4597715 63.6754473,26.6752081 63.6754473,25.7074001 C63.6754473,24.7395921 62.8908839,23.9550287 61.9230759,23.9550287 Z" id="Shape" fill="#239DDA"></path>
                                                        <path d="M49.0723522,46.1517332 C48.7497495,46.1517332 48.4882284,45.8902121 48.4882284,45.5676094 L48.4882284,40.894619 C48.4882284,40.5720163 48.7497495,40.3104952 49.0723522,40.3104952 C49.3949549,40.3104952 49.656476,40.5720163 49.656476,40.894619 L49.656476,45.5676094 C49.656476,45.8902121 49.3949549,46.1517332 49.0723522,46.1517332 Z" id="Shape" fill="#60FFE9"></path>
                                                        <path d="M49.0723522,25.3627671 C48.7497495,25.3627671 48.4882284,25.101246 48.4882284,24.7786433 L48.4882284,19.2820383 C48.4882284,17.669025 47.1806227,16.3614193 45.5676094,16.3614193 L39.9191322,16.3614193 C39.5965296,16.3614193 39.3350084,16.0998982 39.3350084,15.7772955 C39.3350084,15.4546928 39.5965296,15.1931717 39.9191322,15.1931717 L45.5676094,15.1931717 C47.8258281,15.1931717 49.656476,17.0238196 49.656476,19.2820383 L49.656476,24.7786433 C49.656476,25.101246 49.3949549,25.3627671 49.0723522,25.3627671 Z" id="Shape" fill="#60FFE9"></path>
                                                        <path d="M24.2470906,16.3614193 L19.1593723,16.3614193 C18.8367696,16.3614193 18.5752485,16.0998982 18.5752485,15.7772955 C18.5752485,15.4546928 18.8367696,15.1931717 19.1593723,15.1931717 L24.2470906,15.1931717 C24.5696933,15.1931717 24.8312144,15.4546928 24.8312144,15.7772955 C24.8312144,16.0998982 24.5696933,16.3614193 24.2470906,16.3614193 Z" id="Shape" fill="#60FFE9"></path>
                                                        <path d="M35.6375048,37.3898762 L29.2121429,37.3898762 C28.2443349,37.3898762 27.4597715,36.6053128 27.4597715,35.6375048 L27.4597715,29.2121429 C27.4597715,28.2443349 28.2443349,27.4597715 29.2121429,27.4597715 L35.6375048,27.4597715 C36.6053128,27.4597715 37.3898762,28.2443349 37.3898762,29.2121429 L37.3898762,35.6375048 C37.3898762,36.6053128 36.6053128,37.3898762 35.6375048,37.3898762 Z M29.2121429,28.6280191 C28.8895403,28.6280191 28.6280191,28.8895403 28.6280191,29.2121429 L28.6280191,35.6375048 C28.6280191,35.9601074 28.8895403,36.2216286 29.2121429,36.2216286 L35.6375048,36.2216286 C35.9601074,36.2216286 36.2216286,35.9601074 36.2216286,35.6375048 L36.2216286,29.2121429 C36.2216286,28.8895403 35.9601074,28.6280191 35.6375048,28.6280191 L29.2121429,28.6280191 Z" id="Shape" fill="#239DDA"></path>
                                                    </g>
                                                </g>
                                            </g>
                                        </g>
                                    </g>
                                </g>
                            </g>
                        </g>
                    </g>
                </g>
            </g>
        </g>
    </g>
</svg>