<?xml version="1.0" encoding="UTF-8"?>
<svg width="103px" height="96px" viewBox="0 0 103 96" version="1.1" xmlns="http://www.w3.org/2000/svg" xmlns:xlink="http://www.w3.org/1999/xlink">
    <!-- Generator: Sketch 43.1 (39012) - http://www.bohemiancoding.com/sketch -->
    <title>cloud-share@1x</title>
    <desc>Created with Sketch.</desc>
    <defs>
        <linearGradient x1="30.1509797%" y1="92.2033884%" x2="100%" y2="9.73676108%" id="linearGradient-1">
            <stop stop-color="#429BD2" offset="0%"></stop>
            <stop stop-color="#A1B555" offset="41.6701275%"></stop>
            <stop stop-color="#FBC131" offset="100%"></stop>
        </linearGradient>
        <path d="M775.753488,100.888372 L741.52093,100.888372 C734.914047,100.888372 729.539535,95.4958855 729.539535,88.8669052 C729.539535,84.0531664 732.32093,79.82161 736.6,77.9033274 C736.457935,76.9690877 736.386047,76.04 736.386047,75.1280859 C736.386047,64.7123435 744.83293,56.2372093 755.213953,56.2372093 C761.60346,56.2372093 767.505153,59.4486583 770.998586,64.8256887 C771.513786,65.6191055 771.291274,66.683864 770.498791,67.2025045 C769.706307,67.7211449 768.646809,67.4961717 768.129898,66.7010376 C765.269767,62.2994633 760.442977,59.6719141 755.213953,59.6719141 C746.720856,59.6719141 739.809302,66.6065832 739.809302,75.1280859 C739.809302,76.2615385 739.947944,77.4344902 740.220093,78.6160286 C740.422065,79.4987478 739.910288,80.386619 739.047628,80.6476565 C735.463479,81.7330233 732.962791,85.1110555 732.962791,88.8669052 C732.962791,93.6016458 736.801972,97.4536673 741.52093,97.4536673 L775.753488,97.4536673 C782.360372,97.4536673 787.734884,92.0611807 787.734884,85.4322004 C787.734884,78.80322 782.360372,73.4107335 775.753488,73.4107335 C772.975516,73.4107335 770.269433,74.3861896 768.129898,76.15678 C767.404167,76.761288 766.32413,76.6582469 765.721637,75.92322 C765.119144,75.1933453 765.223553,74.1096959 765.952707,73.5069052 C768.703293,71.2296959 772.184744,69.9760286 775.753488,69.9760286 C784.246586,69.9760286 791.15814,76.9106977 791.15814,85.4322004 C791.15814,93.953703 784.246586,100.888372 775.753488,100.888372 L775.753488,100.888372 Z M787.809302,121.427907 C785.962419,121.427907 784.460465,119.925953 784.460465,118.07907 C784.460465,116.232186 785.962419,114.730233 787.809302,114.730233 C789.656186,114.730233 791.15814,116.232186 791.15814,118.07907 C791.15814,119.925953 789.656186,121.427907 787.809302,121.427907 L787.809302,121.427907 Z M787.464383,111.23685 C786.516495,111.23685 785.614637,111.434695 784.792907,111.789096 L778.548098,104.188396 C777.946292,103.457229 776.872246,103.359166 776.147691,103.961304 C775.423136,104.568603 775.320846,105.654172 775.922653,106.385339 L782.106088,113.912062 C781.205935,115.078489 780.645045,116.527061 780.645045,118.118425 C780.645045,121.913614 783.703518,125 787.464383,125 C791.225248,125 794.283721,121.913614 794.283721,118.118425 C794.283721,114.323236 791.225248,111.23685 787.464383,111.23685 L787.464383,111.23685 Z M732.888372,121.427907 C731.041488,121.427907 729.539535,119.925953 729.539535,118.07907 C729.539535,116.232186 731.041488,114.730233 732.888372,114.730233 C734.735256,114.730233 736.237209,116.232186 736.237209,118.07907 C736.237209,119.925953 734.735256,121.427907 732.888372,121.427907 L732.888372,121.427907 Z M743.600688,104.05573 L735.6279,111.862309 C734.766948,111.468367 733.818704,111.237851 732.813975,111.237851 C729.038112,111.237851 725.967442,114.324013 725.967442,118.118926 C725.967442,121.913838 729.038112,125 732.813975,125 C736.589838,125 739.660508,121.913838 739.660508,118.118926 C739.660508,116.589607 739.145306,115.189308 738.301471,114.04533 L745.990128,106.520875 C746.666223,105.858571 746.681628,104.767921 746.020937,104.088415 C745.36367,103.407188 744.278494,103.391706 743.600688,104.05573 L743.600688,104.05573 Z M804.776744,70.0790698 C802.92986,70.0790698 801.427907,68.5771163 801.427907,66.7302326 C801.427907,64.8833488 802.92986,63.3813953 804.776744,63.3813953 C806.623628,63.3813953 808.125581,64.8833488 808.125581,66.7302326 C808.125581,68.5771163 806.623628,70.0790698 804.776744,70.0790698 L804.776744,70.0790698 Z M804.828522,59.8093023 C801.040184,59.8093023 797.959369,62.9133395 797.959369,66.7302326 C797.959369,66.9465116 798.004018,67.1524093 798.022909,67.3652279 L790.470275,70.3066233 C789.585872,70.6526698 789.146246,71.6544744 789.487986,72.5455442 C789.752449,73.2307163 790.401584,73.6511628 791.090216,73.6511628 C791.296291,73.6511628 791.5058,73.6148279 791.710157,73.5352372 L799.161471,70.6301767 C800.401353,72.4521116 802.477554,73.6511628 804.828522,73.6511628 C808.616859,73.6511628 811.697674,70.5471256 811.697674,66.7302326 C811.697674,62.9133395 808.616859,59.8093023 804.828522,59.8093023 L804.828522,59.8093023 Z M715.92093,70.0790698 C714.074047,70.0790698 712.572093,68.5771163 712.572093,66.7302326 C712.572093,64.8833488 714.074047,63.3813953 715.92093,63.3813953 C717.767814,63.3813953 719.269767,64.8833488 719.269767,66.7302326 C719.269767,68.5771163 717.767814,70.0790698 715.92093,70.0790698 L715.92093,70.0790698 Z M731.669048,74.4280154 C731.873089,74.5083098 732.082273,74.544186 732.289742,74.544186 C732.975592,74.544186 733.62372,74.1307551 733.887772,73.4542317 C734.230697,72.5761181 733.793468,71.5852506 732.910436,71.2435721 L722.653554,67.27156 C722.672414,67.0614277 722.716995,66.858129 722.716995,66.6428716 C722.716995,62.8741581 719.640959,59.8093023 715.858497,59.8093023 C712.076036,59.8093023 709,62.8741581 709,66.6428716 C709,70.411585 712.076036,73.4764408 715.858497,73.4764408 C718.205818,73.4764408 720.277084,72.292525 721.515043,70.4970047 L731.669048,74.4280154 Z M760.125581,32.572093 C761.972465,32.572093 763.474419,34.0740465 763.474419,35.9209302 C763.474419,37.767814 761.972465,39.2697674 760.125581,39.2697674 C758.278698,39.2697674 756.776744,37.767814 756.776744,35.9209302 C756.776744,34.0740465 758.278698,32.572093 760.125581,32.572093 L760.125581,32.572093 Z M758.84186,42.4736713 L758.84186,52.2900073 C758.84186,53.2382054 759.617005,54.0046512 760.572093,54.0046512 C761.527181,54.0046512 762.302326,53.2382054 762.302326,52.2900073 L762.302326,42.4736713 C765.278326,41.7072255 767.493023,39.0443836 767.493023,35.8585754 C767.493023,32.0760711 764.388986,29 760.572093,29 C756.7552,29 753.651163,32.0760711 753.651163,35.8585754 C753.651163,39.0443836 755.86586,41.7072255 758.84186,42.4736713 L758.84186,42.4736713 Z" id="path-2"></path>
    </defs>
    <g id="INTERNALS" stroke="none" stroke-width="1" fill="none" fill-rule="evenodd">
        <g id="Vector-Chip-Overlay" transform="translate(-906.000000, -1081.000000)">
            <g id="Section---Blog-Posts" transform="translate(-22.000000, 977.000000)">
                <g id="Group-43" transform="translate(219.000000, 75.000000)">
                    <g id="Group-28">
                        <g id="cloud-share">
                            <use fill="#93E1FF" xlink:href="#path-2"></use>
                            <use fill-opacity="0.6" fill="url(#linearGradient-1)" xlink:href="#path-2"></use>
                        </g>
                    </g>
                </g>
            </g>
        </g>
    </g>
</svg>