<?xml version="1.0" encoding="UTF-8"?>
<svg width="90px" height="90px" viewBox="0 0 90 90" version="1.1" xmlns="http://www.w3.org/2000/svg" xmlns:xlink="http://www.w3.org/1999/xlink">
    <!-- Generator: Sketch 43.1 (39012) - http://www.bohemiancoding.com/sketch -->
    <title>web-development@1x</title>
    <desc>Created with Sketch.</desc>
    <defs>
        <linearGradient x1="32.6555582%" y1="92.2033884%" x2="93.6909266%" y2="9.73676108%" id="linearGradient-1">
            <stop stop-color="#429BD2" offset="0%"></stop>
            <stop stop-color="#A1B555" offset="41.6701275%"></stop>
            <stop stop-color="#FBC131" offset="100%"></stop>
        </linearGradient>
    </defs>
    <g id="Technologies" stroke="none" stroke-width="1" fill="none" fill-rule="evenodd" fill-opacity="0.6">
        <path d="M12,6 C13.653,6 15,7.3455 15,9 C15,10.6545 13.653,12 12,12 C10.3455,12 9,10.6545 9,9 C9,7.3455 10.3455,6 12,6 L12,6 Z M18,9 C18,10.6545 19.3455,12 21,12 C22.653,12 24,10.6545 24,9 C24,7.3455 22.653,6 21,6 C19.3455,6 18,7.3455 18,9 L18,9 Z M27,9 C27,10.6545 28.3455,12 30,12 C31.653,12 33,10.6545 33,9 C33,7.3455 31.653,6 30,6 C28.3455,6 27,7.3455 27,9 L27,9 Z M12.5,30 L15.5,30 C16.3295,30 17,29.328 17,28.5 C17,27.672 16.3295,27 15.5,27 L12.5,27 C11.6705,27 11,27.672 11,28.5 C11,29.328 11.6705,30 12.5,30 L12.5,30 Z M12.5,36 L15.5,36 C16.3295,36 17,35.328 17,34.5 C17,33.672 16.3295,33 15.5,33 L12.5,33 C11.6705,33 11,33.672 11,34.5 C11,35.328 11.6705,36 12.5,36 L12.5,36 Z M12.5,42 L15.5,42 C16.3295,42 17,41.328 17,40.5 C17,39.672 16.3295,39 15.5,39 L12.5,39 C11.6705,39 11,39.672 11,40.5 C11,41.328 11.6705,42 12.5,42 L12.5,42 Z M12.5,48 L15.5,48 C16.3295,48 17,47.328 17,46.5 C17,45.672 16.3295,45 15.5,45 L12.5,45 C11.6705,45 11,45.672 11,46.5 C11,47.328 11.6705,48 12.5,48 L12.5,48 Z M12.5,54 L15.5,54 C16.3295,54 17,53.328 17,52.5 C17,51.672 16.3295,51 15.5,51 L12.5,51 C11.6705,51 11,51.672 11,52.5 C11,53.328 11.6705,54 12.5,54 L12.5,54 Z M12.5,60 L15.5,60 C16.3295,60 17,59.328 17,58.5 C17,57.672 16.3295,57 15.5,57 L12.5,57 C11.6705,57 11,57.672 11,58.5 C11,59.328 11.6705,60 12.5,60 L12.5,60 Z M12.5,66 L15.5,66 C16.3295,66 17,65.328 17,64.5 C17,63.672 16.3295,63 15.5,63 L12.5,63 C11.6705,63 11,63.672 11,64.5 C11,65.328 11.6705,66 12.5,66 L12.5,66 Z M12.5,72 L15.5,72 C16.3295,72 17,71.328 17,70.5 C17,69.672 16.3295,69 15.5,69 L12.5,69 C11.6705,69 11,69.672 11,70.5 C11,71.328 11.6705,72 12.5,72 L12.5,72 Z M12.5,77 L15.5,77 C16.3295,77 17,76.328 17,75.5 C17,74.672 16.3295,74 15.5,74 L12.5,74 C11.6705,74 11,74.672 11,75.5 C11,76.328 11.6705,77 12.5,77 L12.5,77 Z M64.5,30 C65.3295,30 66,29.328 66,28.5 C66,27.672 65.3295,27 64.5,27 L58.5,27 C57.6705,27 57,27.672 57,28.5 C57,29.328 57.6705,30 58.5,30 L64.5,30 L64.5,30 Z M51,34.5 C51,35.328 51.6705,36 52.5,36 L67.5,36 C68.3295,36 69,35.328 69,34.5 C69,33.672 68.3295,33 67.5,33 L52.5,33 C51.6705,33 51,33.672 51,34.5 L51,34.5 Z M22.5,36 L46.5,36 C47.3295,36 48,35.328 48,34.5 C48,33.672 47.3295,33 46.5,33 L22.5,33 C21.6705,33 21,33.672 21,34.5 C21,35.328 21.6705,36 22.5,36 L22.5,36 Z M22.5,30 L37.5,30 C38.3295,30 39,29.328 39,28.5 C39,27.672 38.3295,27 37.5,27 L22.5,27 C21.6705,27 21,27.672 21,28.5 C21,29.328 21.6705,30 22.5,30 L22.5,30 Z M52.625,27 L44.375,27 C43.614625,27 43,27.672 43,28.5 C43,29.328 43.614625,30 44.375,30 L52.625,30 C53.385375,30 54,29.328 54,28.5 C54,27.672 53.385375,27 52.625,27 L52.625,27 Z M74,40.5 C74,39.672 73.3295,39 72.5,39 L48.5,39 C47.6705,39 47,39.672 47,40.5 C47,41.328 47.6705,42 48.5,42 L72.5,42 C73.3295,42 74,41.328 74,40.5 L74,40.5 Z M65.4,48 C66.2848,48 67,47.328 67,46.5 C67,45.672 66.2848,45 65.4,45 L52.6,45 C51.7152,45 51,45.672 51,46.5 C51,47.328 51.7152,48 52.6,48 L65.4,48 L65.4,48 Z M22.5,48 L46.5,48 C47.3295,48 48,47.328 48,46.5 C48,45.672 47.3295,45 46.5,45 L22.5,45 C21.6705,45 21,45.672 21,46.5 C21,47.328 21.6705,48 22.5,48 L22.5,48 Z M22.5,42 L28.5,42 C29.3295,42 30,41.328 30,40.5 C30,39.672 29.3295,39 28.5,39 L22.5,39 C21.6705,39 21,39.672 21,40.5 C21,41.328 21.6705,42 22.5,42 L22.5,42 Z M34.375,39 C33.614625,39 33,39.672 33,40.5 C33,41.328 33.614625,42 34.375,42 L42.625,42 C43.385375,42 44,41.328 44,40.5 C44,39.672 43.385375,39 42.625,39 L34.375,39 L34.375,39 Z M54,64.5 C54,63.672 53.3742,63 52.6,63 L48.4,63 C47.6258,63 47,63.672 47,64.5 C47,65.328 47.6258,66 48.4,66 L52.6,66 C53.3742,66 54,65.328 54,64.5 L54,64.5 Z M22.5,66 L28.5,66 C29.3295,66 30,65.328 30,64.5 C30,63.672 29.3295,63 28.5,63 L22.5,63 C21.6705,63 21,63.672 21,64.5 C21,65.328 21.6705,66 22.5,66 L22.5,66 Z M42.625,63 L34.375,63 C33.614625,63 33,63.672 33,64.5 C33,65.328 33.614625,66 34.375,66 L42.625,66 C43.385375,66 44,65.328 44,64.5 C44,63.672 43.385375,63 42.625,63 L42.625,63 Z M22.5,72 L40.5,72 C41.3295,72 42,71.328 42,70.5 C42,69.672 41.3295,69 40.5,69 L22.5,69 C21.6705,69 21,69.672 21,70.5 C21,71.328 21.6705,72 22.5,72 L22.5,72 Z M46.5,72 L49.5,72 C50.3295,72 51,71.328 51,70.5 C51,69.672 50.3295,69 49.5,69 L46.5,69 C45.6705,69 45,69.672 45,70.5 C45,71.328 45.6705,72 46.5,72 L46.5,72 Z M22.375,77 L30.625,77 C31.385375,77 32,76.328 32,75.5 C32,74.672 31.385375,74 30.625,74 L22.375,74 C21.614625,74 21,74.672 21,75.5 C21,76.328 21.614625,77 22.375,77 L22.375,77 Z M36,75.5 C36,76.328 36.6705,77 37.5,77 L52.5,77 C53.3295,77 54,76.328 54,75.5 C54,74.672 53.3295,74 52.5,74 L37.5,74 C36.6705,74 36,74.672 36,75.5 L36,75.5 Z M70,52.5 C70,51.672 69.3295,51 68.5,51 L44.5,51 C43.6705,51 43,51.672 43,52.5 C43,53.328 43.6705,54 44.5,54 L68.5,54 C69.3295,54 70,53.328 70,52.5 L70,52.5 Z M59,58.5 C59,57.672 58.3046667,57 57.4444444,57 L46.5555556,57 C45.6953333,57 45,57.672 45,58.5 C45,59.328 45.6953333,60 46.5555556,60 L57.4444444,60 C58.3046667,60 59,59.328 59,58.5 L59,58.5 Z M22.5,60 L40.5,60 C41.3295,60 42,59.328 42,58.5 C42,57.672 41.3295,57 40.5,57 L22.5,57 C21.6705,57 21,57.672 21,58.5 C21,59.328 21.6705,60 22.5,60 L22.5,60 Z M22.5,54 L37.5,54 C38.3295,54 39,53.328 39,52.5 C39,51.672 38.3295,51 37.5,51 L22.5,51 C21.6705,51 21,51.672 21,52.5 C21,53.328 21.6705,54 22.5,54 L22.5,54 Z M90,70.5 L90,76.5 C90,77.328 89.3295,78 88.5,78 L86.2155,78 C86.058,78.447 85.8765,78.885 85.6725,79.3125 L87.2865,80.9265 C87.873,81.513 87.873,82.4625 87.2865,83.0475 L83.0445,87.2895 C82.764,87.5715 82.383,87.729 81.984,87.729 C81.5865,87.729 81.2055,87.5715 80.9235,87.2895 L79.308,85.674 C78.882,85.8765 78.4455,86.058 77.9985,86.2155 L77.9985,88.5 C77.9985,89.328 77.328,90 76.4985,90 L70.4985,90 C69.669,90 68.9985,89.328 68.9985,88.5 L68.9985,86.2155 C68.553,86.058 68.1165,85.8765 67.689,85.6725 L66.075,87.2865 C65.5125,87.849 64.5165,87.849 63.954,87.2865 L59.712,83.0445 C59.1255,82.4595 59.1255,81.51 59.712,80.9235 L61.326,79.3095 C61.1235,78.882 60.942,78.4455 60.7845,78 L58.5,78 C57.6705,78 57,77.328 57,76.5 L57,70.5 C57,69.672 57.6705,69 58.5,69 L60.7845,69 C60.942,68.553 61.1235,68.115 61.3275,67.6875 L59.7135,66.0735 C59.127,65.487 59.127,64.5375 59.7135,63.9525 L63.954,59.7105 C64.5165,59.148 65.5125,59.148 66.075,59.7105 L67.6905,61.326 C68.1165,61.122 68.5545,60.9405 69.0015,60.783 L69.0015,58.5 C69.0015,57.672 69.672,57 70.5015,57 L76.5,57 C77.3295,57 78,57.672 78,58.5 L78,60.783 C78.447,60.9405 78.885,61.122 79.3095,61.3245 L80.925,59.7105 C81.5115,59.127 82.461,59.1255 83.046,59.712 L87.288,63.954 C87.8745,64.539 87.8745,65.4885 87.288,66.075 L85.674,67.689 C85.878,68.1165 86.058,68.5545 86.2155,69 L88.5,69 C89.3295,69 90,69.672 90,70.5 L90,70.5 Z M88,73 L86.1055,73 C85.4215,73 84.8245,72.5365 84.6535,71.8735 C84.409,70.924 84.034,70.0165 83.536,69.1765 C83.1895,68.587 83.284,67.837 83.7685,67.3525 L85.1065,66.0145 L82.9855,63.8935 L81.6475,65.2315 C81.1615,65.7145 80.41,65.809 79.8235,65.461 C78.9865,64.9675 78.079,64.5925 77.125,64.345 C76.4635,64.174 76,63.577 76,62.893 L76,61 L73.0015,61 L73.0015,62.893 C73.0015,63.577 72.538,64.174 71.8765,64.345 C70.9225,64.5925 70.0135,64.9675 69.175,65.4625 C68.5885,65.8105 67.8385,65.716 67.3525,65.23 L66.0145,63.892 L63.895,66.013 L65.2315,67.351 C65.716,67.8355 65.8105,68.5855 65.464,69.175 C64.966,70.0135 64.591,70.9225 64.3465,71.8735 C64.1755,72.5365 63.5785,73 62.8945,73 L61,73 L61,76 L62.8945,76 C63.5785,76 64.1755,76.4635 64.3465,77.125 C64.591,78.0745 64.966,78.982 65.464,79.822 C65.8105,80.4115 65.716,81.1615 65.2315,81.646 L63.8935,82.984 L66.0145,85.105 L67.3525,83.767 C67.8385,83.2825 68.59,83.188 69.1765,83.536 C70.021,84.034 70.927,84.409 71.8705,84.652 C72.535,84.8215 72.9985,85.42 72.9985,86.104 L72.9985,88 L75.9985,88 L75.9985,86.1055 C75.9985,85.4215 76.462,84.823 77.125,84.6535 C78.0745,84.409 78.982,84.0325 79.822,83.5375 C80.41,83.1895 81.163,83.284 81.646,83.7685 L82.984,85.108 L85.105,82.987 L83.767,81.649 C83.281,81.1645 83.188,80.413 83.536,79.8235 C84.034,78.9835 84.409,78.076 84.6535,77.1265 C84.8245,76.4635 85.4215,76 86.1055,76 L88,76 L88,73 L88,73 Z M78,73.5 C78,75.981 75.981,78 73.5,78 C71.019,78 69,75.981 69,73.5 C69,71.019 71.019,69 73.5,69 C75.981,69 78,71.019 78,73.5 L78,73.5 Z M75,73.5 C75,72.6735 74.328,72 73.5,72 C72.672,72 72,72.6735 72,73.5 C72,74.3265 72.672,75 73.5,75 C74.328,75 75,74.3265 75,73.5 L75,73.5 Z M59.475,87 L7.625,87 C5.10265,87 3.05,84.981 3.05,82.5 L3.05,22.5 C3.05,21.672 2.368325,21 1.525,21 C0.681675,21 0,21.672 0,22.5 L0,82.5 C0,86.6355 3.420575,90 7.625,90 L59.475,90 C60.318325,90 61,89.328 61,88.5 C61,87.672 60.318325,87 59.475,87 L59.475,87 Z M82.5,0 L7.5,0 C3.3645,0 0,3.420575 0,7.625 L0,16.775 C0,17.6168 0.6705,18.3 1.5,18.3 L82.5,18.3 C83.3295,18.3 84,17.6168 84,16.775 C84,15.9332 83.3295,15.25 82.5,15.25 L3,15.25 L3,7.625 C3,5.10265 5.019,3.05 7.5,3.05 L82.5,3.05 C84.981,3.05 87,5.10265 87,7.625 L87,59.475 C87,60.3168 87.6705,61 88.5,61 C89.3295,61 90,60.3168 90,59.475 L90,7.625 C90,3.420575 86.6355,0 82.5,0 L82.5,0 Z" id="web-development" fill="url(#linearGradient-1)"></path>
    </g>
</svg>