<?xml version="1.0" encoding="UTF-8"?>
<svg width="290px" height="386px" viewBox="0 0 290 386" version="1.1" xmlns="http://www.w3.org/2000/svg" xmlns:xlink="http://www.w3.org/1999/xlink">
    <!-- Generator: Sketch 43.1 (39012) - http://www.bohemiancoding.com/sketch -->
    <title>Group 33</title>
    <desc>Created with Sketch.</desc>
    <defs>
        <linearGradient x1="30.1509797%" y1="92.2033884%" x2="100%" y2="9.73676108%" id="linearGradient-1">
            <stop stop-color="#429BD2" offset="0%"></stop>
            <stop stop-color="#A1B555" offset="41.6701275%"></stop>
            <stop stop-color="#FBC131" offset="100%"></stop>
        </linearGradient>
        <path d="M144.5,232 C149.73925,232 154,227.73925 154,222.5 C154,217.26075 149.73925,213 144.5,213 C139.26075,213 135,217.26075 135,222.5 C135,227.73925 139.26075,232 144.5,232 L144.5,232 Z M144.5,243 C133.74575,243 125,234.25425 125,223.5 C125,212.74575 133.74575,204 144.5,204 C155.25425,204 164,212.74575 164,223.5 C164,234.25425 155.25425,243 144.5,243 L144.5,243 Z M144.5,261 C165.727937,261 183,243.727937 183,222.5 C183,201.272063 165.727937,184 144.5,184 C123.272062,184 106,201.272063 106,222.5 C106,243.727937 123.272062,261 144.5,261 L144.5,261 Z M145.5,271 C118.7571,271 97,249.2429 97,222.5 C97,195.7571 118.7571,174 145.5,174 C172.2429,174 194,195.7571 194,222.5 C194,249.2429 172.2429,271 145.5,271 L145.5,271 Z M265.833333,0 L24.1666667,0 C10.8411667,0 0,10.8411667 0,24.1666667 L0,53.1666667 C0,55.8346667 2.16533333,58 4.83333333,58 L265.833333,58 C268.501333,58 270.666667,55.8346667 270.666667,53.1666667 C270.666667,50.4986667 268.501333,48.3333333 265.833333,48.3333333 L9.66666667,48.3333333 L9.66666667,24.1666667 C9.66666667,16.1723333 16.1723333,9.66666667 24.1666667,9.66666667 L265.833333,9.66666667 C273.827667,9.66666667 280.333333,16.1723333 280.333333,24.1666667 L280.333333,265.833333 C280.333333,274.098333 274.098333,280.333333 265.833333,280.333333 L229.583333,280.333333 L218.795333,265.9445 C223.271,259.927 226.461,252.831667 228.297667,247.046167 C235.0015,245.605833 241.202667,244.276667 242.643,243.981833 C248.090167,242.8605 251.338167,238.38 251.338167,231.995167 C251.333333,228.370167 251.333333,216.190167 251.338167,212.657 C251.3285,206.325333 248.095,201.849667 242.6865,200.684833 L228.3315,197.610833 C226.606,191.786667 224.281167,186.18 221.4005,180.868167 C225.117333,175.121333 228.549,169.819167 229.356167,168.596333 C232.410833,163.9515 231.540833,158.489833 227.0265,153.9755 L213.353,140.302 C208.867667,135.826333 203.4205,134.946667 198.761167,137.953 L186.450667,145.923167 C181.138833,143.0425 175.527333,140.717667 169.703167,138.997 C168.267667,132.3125 166.948167,126.130667 166.6485,124.690333 C165.532,119.248 161.046667,116 154.666667,116 L135.333333,116 C128.996833,116 124.521167,119.2335 123.356333,124.651667 L120.282333,139.001833 C114.458167,140.727333 108.846667,143.047333 103.534833,145.932833 C97.7928333,142.220833 92.4906667,138.789167 91.263,137.977167 C86.6278333,134.932167 81.1613333,135.797333 76.647,140.311667 L62.9735,153.980333 C58.4978333,158.456 57.6181667,163.908 60.6245,168.567333 L68.5946667,180.877833 C65.7091667,186.184833 63.3891667,191.801167 61.6636667,197.625333 C54.9791667,199.060833 48.7925,200.385167 47.3521667,200.684833 C41.9146667,201.811 38.6666667,206.2915 38.6666667,212.6715 L38.6666667,232 C38.6666667,238.331667 41.9001667,242.807333 47.3183333,243.977 L61.7023333,247.055833 C64.2833333,255.233833 68.8411667,263.6245 73.7421667,269.066833 C75.5256667,271.053333 78.5803333,271.208 80.5668333,269.4245 C82.5533333,267.641 82.7128333,264.586333 80.9245,262.599833 C75.7866667,256.886833 71.8475,247.998333 70.2235,241.724667 C69.7643333,239.955667 68.3433333,238.592667 66.555,238.210833 L49.3483333,234.523 C48.9955,234.445667 48.3333333,234.3055 48.3333333,232 L48.3333333,212.666667 C48.3333333,210.3515 49.0438333,210.201667 49.3048333,210.1485 C50.953,209.810167 58.812,208.128167 66.555,206.460667 C68.3433333,206.078833 69.7643333,204.715833 70.2186667,202.946833 C72.0215,195.972333 74.7765,189.316833 78.4063333,183.164 C79.3343333,181.588333 79.2956667,179.626 78.3,178.089 L68.7445,163.318333 C68.5463333,163.013833 68.179,162.4435 69.8078333,160.814667 L83.4813333,147.141167 C85.1101667,145.512333 85.7191667,145.903833 85.9511667,146.053667 C87.3528333,146.976833 94.1001667,151.341333 100.746,155.638167 C102.283,156.629 104.255,156.677333 105.825833,155.7445 C111.978667,152.114667 118.634167,149.359667 125.603833,147.556833 C127.377667,147.097667 128.735833,145.676667 129.1225,143.888333 L132.810333,126.676833 C132.887667,126.324 133.027833,125.666667 135.333333,125.666667 L154.666667,125.666667 C156.981833,125.666667 157.126833,126.372333 157.184833,126.638167 C157.518333,128.286333 159.205167,136.145333 160.867833,143.888333 C161.249667,145.676667 162.612667,147.097667 164.381667,147.552 C171.356167,149.354833 178.011667,152.109833 184.1645,155.734833 C185.740167,156.667667 187.707333,156.624167 189.244333,155.6285 L204.005333,146.073 C204.309833,145.879667 204.889833,145.502667 206.518667,147.136333 L220.197,160.809833 C221.830667,162.448333 221.4295,163.0525 221.279667,163.2845 C220.3565,164.686167 215.992,171.4335 211.690333,178.079333 C210.6995,179.616333 210.656,181.578667 211.588833,183.159167 C215.218667,189.307167 217.973667,195.962667 219.7765,202.932333 C220.235667,204.706167 221.651833,206.064333 223.440167,206.451 L240.651667,210.138833 C241.0045,210.216167 241.666667,210.356333 241.6715,212.657 C241.666667,216.1805 241.666667,228.379833 241.6715,232 C241.6715,234.310333 240.961,234.460167 240.690333,234.513333 C239.047,234.851667 231.188,236.5385 223.445,238.201167 C221.656667,238.583 220.235667,239.946 219.781333,241.715 C217.823833,249.274333 213.614,257.481333 209.051333,262.624 C207.528833,264.344667 207.4225,266.896667 208.8,268.733333 L223.3,288.066667 C224.2135,289.284667 225.644167,290 227.166667,290 L265.833333,290 C279.386,290 290,279.386 290,265.833333 L290,24.1666667 C290,10.8411667 279.158833,0 265.833333,0 L265.833333,0 Z M178.333333,86 C180.909333,86 183,83.984 183,81.5 C183,79.016 180.909333,77 178.333333,77 L159.666667,77 C157.090667,77 155,79.016 155,81.5 C155,83.984 157.090667,86 159.666667,86 L178.333333,86 Z M255.333333,86 C257.909333,86 260,83.984 260,81.5 C260,79.016 257.909333,77 255.333333,77 L236.666667,77 C234.090667,77 232,79.016 232,81.5 C232,83.984 234.090667,86 236.666667,86 L255.333333,86 Z M216.333333,86 C218.909333,86 221,83.984 221,81.5 C221,79.016 218.909333,77 216.333333,77 L197.666667,77 C195.090667,77 193,79.016 193,81.5 C193,83.984 195.090667,86 197.666667,86 L216.333333,86 Z M71.2,86 C73.8496,86 76,83.984 76,81.5 C76,79.016 73.8496,77 71.2,77 L32.8,77 C30.1504,77 28,79.016 28,81.5 C28,83.984 30.1504,86 32.8,86 L71.2,86 Z M86,28.5 C86,33.73925 90.26075,38 95.5,38 C100.73925,38 105,33.73925 105,28.5 C105,23.26075 100.73925,19 95.5,19 C90.26075,19 86,23.26075 86,28.5 L86,28.5 Z M58,28.5 C58,33.73925 62.26075,38 67.5,38 C72.73925,38 77,33.73925 77,28.5 C77,23.26075 72.73925,19 67.5,19 C62.26075,19 58,23.26075 58,28.5 L58,28.5 Z M28,28.5 C28,33.73925 32.26075,38 37.5,38 C42.73925,38 47,33.73925 47,28.5 C47,23.26075 42.73925,19 37.5,19 C32.26075,19 28,23.26075 28,28.5 L28,28.5 Z M208,285.152174 C208,287.828174 205.83293,290 203.162791,290 L24.1860465,290 C10.6225116,290 0,279.354174 0,265.76087 L0,71.8478261 C0,69.1718261 2.16706977,67 4.8372093,67 C7.50734884,67 9.6744186,69.1718261 9.6744186,71.8478261 L9.6744186,265.76087 C9.6744186,274.050652 15.9144186,280.304348 24.1860465,280.304348 L203.162791,280.304348 C205.83293,280.304348 208,282.476174 208,285.152174 L208,285.152174 Z" id="path-2"></path>
        <path d="M105.915029,325.089175 C107.361657,326.541409 107.361657,328.888754 105.915029,330.340988 L87.4159542,348.911753 C86.6944903,349.636013 85.7473376,350 84.800185,350 C83.8530323,350 82.9058797,349.636013 82.1844158,348.911753 L71.0849708,337.769294 C69.6383431,336.31706 69.6383431,333.969715 71.0849708,332.517482 C72.5315984,331.065248 74.8698815,331.065248 76.3165092,332.517482 L84.800185,341.034034 L100.683491,325.089175 C102.130118,323.636942 104.468402,323.636942 105.915029,325.089175 L105.915029,325.089175 Z M88.5,364 C72.2344375,364 59,350.765562 59,334.5 C59,318.234438 72.2344375,305 88.5,305 C104.765563,305 118,318.234438 118,334.5 C118,350.765562 104.765563,364 88.5,364 L88.5,364 Z M212,334.5 C212,332.43 210.326349,330.75 208.255814,330.75 L125.692767,330.75 C123.805698,311.8275 107.821767,297 88.4418605,297 C67.7964186,297 51,313.8225 51,334.5 C51,355.1775 67.7964186,372 88.4418605,372 C107.821767,372 123.805698,357.1725 125.692767,338.25 L208.255814,338.25 C210.326349,338.25 212,336.57 212,334.5 L212,334.5 Z M36,334 C36,319.462286 41.7082667,305.485429 51.6688,295.65 C60.2666667,287.159143 71.4928,282.404857 83.3909333,282.193143 C83.7530667,282.070571 84.1376,282 84.5333333,282 L207.733333,282 C236.554667,282 260,305.325714 260,334 C260,362.674286 236.554667,386 207.733333,386 C205.6688,386 204,384.336 204,382.285714 C204,380.235429 205.6688,378.571429 207.733333,378.571429 C232.4368,378.571429 252.533333,358.577429 252.533333,334 C252.533333,309.422571 232.4368,289.428571 207.733333,289.428571 L85.6122667,289.428571 C85.2538667,289.551143 84.8021333,289.584571 84.5072,289.618 C84.4064,289.618 84.3056,289.614286 84.2085333,289.614286 C73.8485333,289.614286 64.4218667,293.521714 56.9290667,300.920571 C48.3722667,309.370571 43.4666667,321.427143 43.4666667,334 C43.4666667,358.577429 61.8906667,378.571429 84.5333333,378.571429 L192.8,378.571429 C194.864533,378.571429 196.533333,380.235429 196.533333,382.285714 C196.533333,384.336 194.864533,386 192.8,386 L84.5333333,386 C57.7728,386 36,362.674286 36,334 L36,334 Z" id="path-3"></path>
    </defs>
    <g id="Page-11" stroke="none" stroke-width="1" fill="none" fill-rule="evenodd">
        <g id="Technologies-V1-Copy" transform="translate(-899.000000, -5739.000000)">
            <g id="Group-27" transform="translate(211.000000, 5694.000000)">
                <g id="Group-23" transform="translate(688.000000, 45.000000)">
                    <g id="Group-33">
                        <g id="website-fix">
                            <use fill="#93E1FF" xlink:href="#path-2"></use>
                            <use fill-opacity="0.6" fill="url(#linearGradient-1)" xlink:href="#path-2"></use>
                        </g>
                        <g id="sliders">
                            <use fill="#93E1FF" xlink:href="#path-3"></use>
                            <use fill-opacity="0.6" fill="url(#linearGradient-1)" xlink:href="#path-3"></use>
                        </g>
                    </g>
                </g>
            </g>
        </g>
    </g>
</svg>