<?xml version="1.0" encoding="UTF-8"?>
<svg width="288px" height="289px" viewBox="0 0 288 289" version="1.1" xmlns="http://www.w3.org/2000/svg" xmlns:xlink="http://www.w3.org/1999/xlink">
    <!-- Generator: Sketch 43.1 (39012) - http://www.bohemiancoding.com/sketch -->
    <title>imac@1x</title>
    <desc>Created with Sketch.</desc>
    <defs>
        <linearGradient x1="30.1509797%" y1="92.2033884%" x2="100%" y2="9.73676108%" id="linearGradient-1">
            <stop stop-color="#429BD2" offset="0%"></stop>
            <stop stop-color="#A1B555" offset="41.6701275%"></stop>
            <stop stop-color="#FBC131" offset="100%"></stop>
        </linearGradient>
        <path d="M301,24.0217391 L301,196.978261 C301,209.325435 289.336,221 277,221 L37,221 C24.664,221 13,209.325435 13,196.978261 L13,168.152174 C13,165.500174 15.1504,163.347826 17.8,163.347826 L277,163.347826 C279.6496,163.347826 281.8,165.500174 281.8,168.152174 C281.8,170.804174 279.6496,172.956522 277,172.956522 L22.6,172.956522 L22.6,196.978261 C22.6,203.983 30.0016,211.391304 37,211.391304 L277,211.391304 C283.9984,211.391304 291.4,203.983 291.4,196.978261 L291.4,24.0217391 C291.4,17.017 283.9984,9.60869565 277,9.60869565 L37,9.60869565 C30.0016,9.60869565 22.6,17.017 22.6,24.0217391 L22.6,148.934783 C22.6,151.586783 20.4496,153.73913 17.8,153.73913 C15.1504,153.73913 13,151.586783 13,148.934783 L13,24.0217391 C13,11.6745652 24.664,0 37,0 L277,0 C289.336,0 301,11.6745652 301,24.0217391 L301,24.0217391 Z M147,191.5 C147,196.73925 151.26075,201 156.5,201 C161.73925,201 166,196.73925 166,191.5 C166,186.26075 161.73925,182 156.5,182 C151.26075,182 147,186.26075 147,191.5 L147,191.5 Z M137,148.5 C137,146.016 134.993516,144 132.511222,144 L132.466334,144 C129.988529,144 128,146.016 128,148.5 C128,150.984 130.033416,153 132.511222,153 C134.993516,153 137,150.984 137,148.5 L137,148.5 Z M156,148.5 C156,146.016 153.993516,144 151.511222,144 L151.466334,144 C148.988529,144 147,146.016 147,148.5 C147,150.984 149.033416,153 151.511222,153 C153.993516,153 156,150.984 156,148.5 L156,148.5 Z M176,148.5 C176,146.016 173.993516,144 171.511222,144 L171.466334,144 C168.988529,144 167,146.016 167,148.5 C167,150.984 169.033416,153 171.511222,153 C173.993516,153 176,150.984 176,148.5 L176,148.5 Z M118,148.5 C118,146.016 115.993516,144 113.511222,144 L113.466334,144 C110.988529,144 109,146.016 109,148.5 C109,150.984 111.033416,153 113.511222,153 C115.993516,153 118,150.984 118,148.5 L118,148.5 Z M98,148.5 C98,146.016 95.9935162,144 93.5112219,144 L93.4663342,144 C90.9885287,144 89,146.016 89,148.5 C89,150.984 91.0334165,153 93.5112219,153 C95.9935162,153 98,150.984 98,148.5 L98,148.5 Z M224,148.5 C224,146.016 221.993516,144 219.511222,144 L219.466334,144 C216.988529,144 215,146.016 215,148.5 C215,150.984 217.033416,153 219.511222,153 C221.993516,153 224,150.984 224,148.5 L224,148.5 Z M204,148.5 C204,146.016 201.993516,144 199.511222,144 L199.466334,144 C196.988529,144 195,146.016 195,148.5 C195,150.984 197.033416,153 199.511222,153 C201.993516,153 204,150.984 204,148.5 L204,148.5 Z M209.210526,278.5 L204.421053,278.5 L204.421053,273.75 C204.421053,271.128 202.275368,269 199.631579,269 C196.987789,269 194.842105,271.128 194.842105,273.75 L194.842105,278.5 L185.263158,278.5 L185.263158,273.75 C185.263158,271.128 183.117474,269 180.473684,269 C177.829895,269 175.684211,271.128 175.684211,273.75 L175.684211,278.5 L166.105263,278.5 L166.105263,273.75 C166.105263,271.128 163.959579,269 161.315789,269 C158.672,269 156.526316,271.128 156.526316,273.75 L156.526316,278.5 L146.947368,278.5 L146.947368,273.75 C146.947368,271.128 144.801684,269 142.157895,269 C139.514105,269 137.368421,271.128 137.368421,273.75 L137.368421,278.5 L127.789474,278.5 L127.789474,273.75 C127.789474,271.128 125.643789,269 123,269 C120.356211,269 118.210526,271.128 118.210526,273.75 L118.210526,278.5 L108.631579,278.5 L108.631579,273.75 C108.631579,271.128 106.485895,269 103.842105,269 C101.198316,269 99.0526316,271.128 99.0526316,273.75 L99.0526316,278.5 L89.4736842,278.5 L89.4736842,273.75 C89.4736842,271.128 87.328,269 84.6842105,269 C82.0404211,269 79.8947368,271.128 79.8947368,273.75 L79.8947368,278.5 L70.3157895,278.5 L70.3157895,273.75 C70.3157895,271.128 68.1701053,269 65.5263158,269 C62.8825263,269 60.7368421,271.128 60.7368421,273.75 L60.7368421,278.5 L51.1578947,278.5 L51.1578947,273.75 C51.1578947,271.128 49.0122105,269 46.3684211,269 C43.7246316,269 41.5789474,271.128 41.5789474,273.75 L41.5789474,278.5 L36.7894737,278.5 C34.1456842,278.5 32,280.628 32,283.25 C32,285.872 34.1456842,288 36.7894737,288 L209.210526,288 C211.854316,288 214,285.872 214,283.25 C214,280.628 211.854316,278.5 209.210526,278.5 L209.210526,278.5 Z M137,254.166667 L137,234.833333 C137,232.165333 134.984,230 132.5,230 C130.016,230 128,232.165333 128,234.833333 L128,254.166667 C128,256.834667 130.016,259 132.5,259 C134.984,259 137,256.834667 137,254.166667 L137,254.166667 Z M180.5,259 C182.984,259 185,256.834667 185,254.166667 L185,234.833333 C185,232.165333 182.984,230 180.5,230 C178.016,230 176,232.165333 176,234.833333 L176,254.166667 C176,256.834667 178.016,259 180.5,259 L180.5,259 Z M282,279.333333 L282,284.166667 C282,286.834667 279.8496,289 277.2,289 L238.8,289 C236.1504,289 234,286.834667 234,284.166667 L234,279.333333 C234,268.671 242.6112,260 253.2,260 L262.8,260 C273.3888,260 282,268.671 282,279.333333 L282,279.333333 Z M272,278 C272,273.0365 267.6645,269 262.333333,269 L252.666667,269 C247.3355,269 243,273.0365 243,278 L272,278 L272,278 Z" id="path-2"></path>
    </defs>
    <g id="Page-11" stroke="none" stroke-width="1" fill="none" fill-rule="evenodd">
        <g id="Technologies-V1-Copy" transform="translate(-280.000000, -3740.000000)">
            <g id="Group-16" transform="translate(267.000000, 3740.000000)">
                <g id="Group-18">
                    <g id="imac">
                        <use fill="#93E1FF" xlink:href="#path-2"></use>
                        <use fill-opacity="0.6" fill="url(#linearGradient-1)" xlink:href="#path-2"></use>
                    </g>
                </g>
            </g>
        </g>
    </g>
</svg>