<?xml version="1.0" encoding="UTF-8"?>
<svg width="83px" height="84px" viewBox="0 0 83 84" version="1.1" xmlns="http://www.w3.org/2000/svg" xmlns:xlink="http://www.w3.org/1999/xlink">
    <!-- Generator: Sketch 43.1 (39012) - http://www.bohemiancoding.com/sketch -->
    <title>Layer_1-2</title>
    <desc>Created with Sketch.</desc>
    <defs></defs>
    <g id="Working-Homepage-Layouts" stroke="none" stroke-width="1" fill="none" fill-rule="evenodd">
        <g id="HomepageV9-Copy" transform="translate(-272.000000, -1365.000000)" fill-rule="nonzero">
            <g id="SectionAnchors" transform="translate(-4.000000, 1243.000000)">
                <g id="FeaturedHighlight" transform="translate(149.000000, 122.000000)">
                    <g id="developmentIcon" transform="translate(127.000000, 0.000000)">
                        <g id="Layer_2">
                            <g>
                                <g>
                                    <g id="Layer_1-2">
                                        <path d="M36.859375,83.390625 C35.2370385,83.390625 33.921875,82.0754615 33.921875,80.453125 C33.921875,78.8307885 35.2370385,77.515625 36.859375,77.515625 C38.4817115,77.515625 39.796875,78.8307885 39.796875,80.453125 C39.796875,82.0754615 38.4817115,83.390625 36.859375,83.390625 Z M36.859375,78.8889062 C35.9954808,78.8889062 35.2951563,79.5892308 35.2951563,80.453125 C35.2951563,81.3170192 35.9954808,82.0173437 36.859375,82.0173437 C37.7232692,82.0173437 38.4235938,81.3170192 38.4235938,80.453125 C38.4235938,79.5892308 37.7232692,78.8889062 36.859375,78.8889062 Z" id="Shape" fill="#FFFFFF"></path>
                                        <path d="M36.3159375,4.078125 C36.3159375,3.79171875 35.9854687,3.5053125 35.5815625,3.4465625 L34.215625,3.2409375 C33.7928438,3.15703245 33.4623425,2.82653119 33.3784375,2.40375 L33.1875,1.0525 C33.12875,0.6559375 32.8423437,0.318125 32.5559375,0.318125 C32.2695312,0.318125 31.983125,0.64859375 31.924375,1.0525 L31.71875,2.4184375 C31.634845,2.84121869 31.3043437,3.17171995 30.8815625,3.255625 L29.515625,3.46125 C29.1190625,3.52 28.78125,3.80640625 28.78125,4.0928125 C28.78125,4.37921875 29.1117187,4.665625 29.515625,4.724375 L30.8815625,4.93 C31.3043437,5.01390505 31.634845,5.34440631 31.71875,5.7671875 L31.924375,7.133125 C31.983125,7.5296875 32.2695313,7.8675 32.5559375,7.8675 C32.8423438,7.8675 33.1214063,7.53703125 33.1801563,7.133125 L33.4004688,5.55421875 C33.4732437,5.13499545 33.8146677,4.81453609 34.2376563,4.7684375 L35.5889063,4.665625 C35.9854687,4.64359375 36.3159375,4.37921875 36.3159375,4.078125 Z" id="Shape" fill="#FFFFFF"></path>
                                        <path d="M82.0895313,69.4375 C82.0895313,71.0598365 80.7743677,72.375 79.1520313,72.375 L4.546875,72.2721875 C2.92453855,72.2721875 1.609375,70.957024 1.609375,69.3346875 L1.609375,13.625 C1.609375,12.0026635 2.92453855,10.6875 4.546875,10.6875 L78.71875,10.6875 C80.3410865,10.6875 81.65625,12.0026635 81.65625,13.625 L82.0895313,69.4375 Z" id="Shape" fill="#4D69CD"></path>
                                        <path d="M82.390625,21.703125 L1.609375,21.703125 L1.609375,13.625 C1.609375,12.0026635 2.92453855,10.6875 4.546875,10.6875 L79.453125,10.6875 C79.7982813,10.6875 82.390625,11.9726562 82.390625,13.536875 L82.390625,21.703125 Z" id="Shape" fill="#F4F8FF"></path>
                                        <path d="M78.71875,73.109375 L4.546875,73.109375 C2.51895443,73.109375 0.875,71.4654206 0.875,69.4375 L0.875,13.625 C0.875,11.5970794 2.51895443,9.953125 4.546875,9.953125 L78.71875,9.953125 C80.7466706,9.953125 82.390625,11.5970794 82.390625,13.625 L82.390625,69.4375 C82.390625,71.4654206 80.7466706,73.109375 78.71875,73.109375 Z M2.34375,13.625 L2.34375,69.4375 C2.34375,70.6542523 3.33012266,71.640625 4.546875,71.640625 L78.71875,71.640625 C79.9355023,71.640625 80.921875,70.6542523 80.921875,69.4375 L80.921875,13.6690625 C80.9315528,13.3049668 80.8508108,12.9441514 80.686875,12.6189062 C80.3082991,11.881384 79.5477551,11.4188143 78.71875,11.421875 L4.546875,11.421875 C3.33012266,11.421875 2.34375,12.4082477 2.34375,13.625 Z" id="Shape" fill="#239DDA"></path>
                                        <rect id="Rectangle-path" fill="#A9F5EB" x="28.046875" y="14.359375" width="49.203125" height="3.671875"></rect>
                                        <path d="M81.3478125,22.4375 L1.609375,22.4375 C1.20379089,22.4375 0.875,22.1087091 0.875,21.703125 C0.875,21.2975409 1.20379089,20.96875 1.609375,20.96875 L81.3478125,20.96875 C81.7533966,20.96875 82.0821875,21.2975409 82.0821875,21.703125 C82.0821875,22.1087091 81.7533966,22.4375 81.3478125,22.4375 Z" id="Shape" fill="#5EA7C8"></path>
                                        <path d="M28.78125,29.046875 L9.6875,29.046875 C8.87633177,29.046875 8.21875,28.3892932 8.21875,27.578125 C8.21875,26.7669568 8.87633177,26.109375 9.6875,26.109375 L28.78125,26.109375 C29.5924182,26.109375 30.25,26.7669568 30.25,27.578125 C30.25,28.3892932 29.5924182,29.046875 28.78125,29.046875 Z" id="Shape" fill="#86E6F4"></path>
                                        <path d="M55.21875,29.046875 L36.125,29.046875 C35.3138318,29.046875 34.65625,28.3892932 34.65625,27.578125 C34.65625,26.7669568 35.3138318,26.109375 36.125,26.109375 L55.21875,26.109375 C56.0299182,26.109375 56.6875,26.7669568 56.6875,27.578125 C56.6875,28.3892932 56.0299182,29.046875 55.21875,29.046875 Z" id="Shape" fill="#86E6F4"></path>
                                        <path d="M51.546875,35.65625 L9.6875,35.65625 C8.87633177,35.65625 8.21875,34.9986682 8.21875,34.1875 C8.21875,33.3763318 8.87633177,32.71875 9.6875,32.71875 L51.546875,32.71875 C52.3580432,32.71875 53.015625,33.3763318 53.015625,34.1875 C53.015625,34.9986682 52.3580432,35.65625 51.546875,35.65625 Z" id="Shape" fill="#F4F8FF"></path>
                                        <path d="M73.578125,42.265625 L66.96875,42.265625 C66.1575818,42.265625 65.5,41.6080432 65.5,40.796875 C65.5,39.9857068 66.1575818,39.328125 66.96875,39.328125 L73.578125,39.328125 C74.3892932,39.328125 75.046875,39.9857068 75.046875,40.796875 C75.046875,41.6080432 74.3892932,42.265625 73.578125,42.265625 Z" id="Shape" fill="#FFFFFF"></path>
                                        <path d="M59.625,42.265625 L40.53125,42.265625 C39.7200818,42.265625 39.0625,41.6080432 39.0625,40.796875 C39.0625,39.9857068 39.7200818,39.328125 40.53125,39.328125 L59.625,39.328125 C60.4361682,39.328125 61.09375,39.9857068 61.09375,40.796875 C61.09375,41.6080432 60.4361682,42.265625 59.625,42.265625 Z" id="Shape" fill="#86E6F4"></path>
                                        <path d="M32.453125,42.265625 L9.6875,42.265625 C8.87633177,42.265625 8.21875,41.6080432 8.21875,40.796875 C8.21875,39.9857068 8.87633177,39.328125 9.6875,39.328125 L32.453125,39.328125 C33.2642932,39.328125 33.921875,39.9857068 33.921875,40.796875 C33.921875,41.6080432 33.2642932,42.265625 32.453125,42.265625 Z" id="Shape" fill="#86E6F4"></path>
                                        <path d="M66.96875,48.875 L54.484375,48.875 C53.6732068,48.875 53.015625,48.2174182 53.015625,47.40625 C53.015625,46.5950818 53.6732068,45.9375 54.484375,45.9375 L66.96875,45.9375 C67.7799182,45.9375 68.4375,46.5950818 68.4375,47.40625 C68.4375,48.2174182 67.7799182,48.875 66.96875,48.875 Z" id="Shape" fill="#86E6F4"></path>
                                        <path d="M47.140625,48.875 L28.78125,48.875 C27.9700818,48.875 27.3125,48.2174182 27.3125,47.40625 C27.3125,46.5950818 27.9700818,45.9375 28.78125,45.9375 L47.140625,45.9375 C47.9517932,45.9375 48.609375,46.5950818 48.609375,47.40625 C48.609375,48.2174182 47.9517932,48.875 47.140625,48.875 Z" id="Shape" fill="#FFFFFF"></path>
                                        <path d="M19.96875,48.875 L9.6875,48.875 C8.87633177,48.875 8.21875,48.2174182 8.21875,47.40625 C8.21875,46.5950818 8.87633177,45.9375 9.6875,45.9375 L19.96875,45.9375 C20.7799182,45.9375 21.4375,46.5950818 21.4375,47.40625 C21.4375,48.2174182 20.7799182,48.875 19.96875,48.875 Z" id="Shape" fill="#86E6F4"></path>
                                        <path d="M73.578125,55.484375 L65.5,55.484375 C64.6888318,55.484375 64.03125,54.8267932 64.03125,54.015625 C64.03125,53.2044568 64.6888318,52.546875 65.5,52.546875 L73.578125,52.546875 C74.3892932,52.546875 75.046875,53.2044568 75.046875,54.015625 C75.046875,54.8267932 74.3892932,55.484375 73.578125,55.484375 Z" id="Shape" fill="#F4F8FF"></path>
                                        <path d="M56.6875,55.484375 L42,55.484375 C41.1888318,55.484375 40.53125,54.8267932 40.53125,54.015625 C40.53125,53.2044568 41.1888318,52.546875 42,52.546875 L56.6875,52.546875 C57.4986682,52.546875 58.15625,53.2044568 58.15625,54.015625 C58.15625,54.8267932 57.4986682,55.484375 56.6875,55.484375 Z" id="Shape" fill="#86E6F4"></path>
                                        <path d="M33.1875,55.484375 L9.6875,55.484375 C8.87633177,55.484375 8.21875,54.8267932 8.21875,54.015625 C8.21875,53.2044568 8.87633177,52.546875 9.6875,52.546875 L33.1875,52.546875 C33.9986682,52.546875 34.65625,53.2044568 34.65625,54.015625 C34.65625,54.8267932 33.9986682,55.484375 33.1875,55.484375 Z" id="Shape" fill="#FFFFFF"></path>
                                        <path d="M28.046875,62.09375 L9.6875,62.09375 C8.87633177,62.09375 8.21875,61.4361682 8.21875,60.625 C8.21875,59.8138318 8.87633177,59.15625 9.6875,59.15625 L28.046875,59.15625 C28.8580432,59.15625 29.515625,59.8138318 29.515625,60.625 C29.515625,61.4361682 28.8580432,62.09375 28.046875,62.09375 Z" id="Shape" fill="#86E6F4"></path>
                                        <circle id="Oval" fill="#86E6F4" cx="14.4609375" cy="16.1953125" r="1.8359375"></circle>
                                        <circle id="Oval" fill="#5EA7C8" cx="7.8515625" cy="16.1953125" r="1.8359375"></circle>
                                        <circle id="Oval" fill="#A9F5EB" cx="21.0703125" cy="16.1953125" r="1.8359375"></circle>
                                    </g>
                                </g>
                            </g>
                        </g>
                    </g>
                </g>
            </g>
        </g>
    </g>
</svg>