<?xml version="1.0" encoding="UTF-8"?>
<svg width="67px" height="87px" viewBox="0 0 67 87" version="1.1" xmlns="http://www.w3.org/2000/svg" xmlns:xlink="http://www.w3.org/1999/xlink">
    <!-- Generator: Sketch 43.1 (39012) - http://www.bohemiancoding.com/sketch -->
    <title>Layer_1-2</title>
    <desc>Created with Sketch.</desc>
    <defs></defs>
    <g id="Working-Homepage-Layouts" stroke="none" stroke-width="1" fill="none" fill-rule="evenodd">
        <g id="HomepageV9-Copy" transform="translate(-1079.000000, -1367.000000)" fill-rule="nonzero">
            <g id="SectionAnchors" transform="translate(-4.000000, 1243.000000)">
                <g id="FeaturedHighlight" transform="translate(973.000000, 124.000000)">
                    <g id="footprintIcon" transform="translate(110.000000, 0.000000)">
                        <g id="Layer_2">
                            <g>
                                <g id="Layer_1-2">
                                    <path d="M62.6565625,53.3435937 C61.9911528,52.882384 61.0780047,53.0466192 60.615,53.7107812 C59.7547734,54.9300996 58.8021812,56.0815578 57.765625,57.155 L16.640625,15.9639062 C17.7838704,14.8879043 19.0117856,13.9055721 20.3125,13.0264062 C20.7414699,12.7181251 20.9733885,12.2044089 20.9208941,11.6787695 C20.8683998,11.1531301 20.5394678,10.6954246 20.0580035,10.4780663 C19.5765392,10.260708 19.0156887,10.3167188 18.5867187,10.625 C17.1457423,11.6120319 15.787554,12.7147924 14.525625,13.9223437 L11.97,11.359375 C11.3960985,10.7854735 10.4656203,10.7854735 9.89171877,11.359375 C9.31781725,11.9332765 9.31781724,12.8637547 9.89171875,13.4376562 L12.4914062,16.0373437 C4.66180905,24.9921429 2.42889628,37.543712 6.68975244,48.6493919 C10.9506086,59.7550718 21.0059011,67.5920916 32.815863,69.0118873 C44.6258249,70.431683 56.252092,65.2012241 63.02375,55.421875 C63.257041,55.0996879 63.3496746,54.6966545 63.2804672,54.3049409 C63.2112599,53.9132273 62.9861307,53.5663358 62.6565625,53.3435937 L62.6565625,53.3435937 Z M7.4903125,37.12125 C7.49190726,30.1314383 10.0072084,23.3753132 14.5770312,18.08625 L55.7020312,59.21125 C47.077682,66.6617445 34.9013847,68.4006084 24.5363341,63.6619384 C14.1712834,58.9232685 7.5200872,48.5768947 7.51234375,37.18 L7.4903125,37.12125 Z" id="Shape" fill="#5782F0"></path>
                                    <path d="M66.4092188,14.4510937 C66.4092188,14.1646875 66.07875,13.8782812 65.6748438,13.8195312 L64.3089063,13.6139062 C63.8861251,13.5300012 63.5556238,13.1994999 63.4717188,12.7767187 L63.2660938,11.4107812 C63.2073438,11.0142187 62.9209375,10.6764062 62.6345313,10.6764062 C62.348125,10.6764062 62.0617188,11.006875 62.0029688,11.4107812 L61.7973438,12.7767187 C61.7134387,13.1994999 61.3829374,13.5300012 60.9601563,13.6139062 L59.5942188,13.8195312 C59.1976563,13.8782812 58.8598438,14.1646875 58.8598438,14.4510937 C58.8598438,14.7375 59.1903125,15.0239062 59.5942188,15.0826562 L60.9601563,15.2882812 C61.3829374,15.3721863 61.7134387,15.7026876 61.7973438,16.1254687 L62.0029688,17.4914062 C62.0617188,17.8879687 62.348125,18.2257812 62.6345313,18.2257812 C62.9209375,18.2257812 63.2,17.8953125 63.25875,17.4914062 L63.4790625,15.9125 C63.5518375,15.4932767 63.8932615,15.1728173 64.31625,15.1267187 L65.6675,15.0239062 C66.07875,15.03125 66.4092188,14.7448437 66.4092188,14.4510937 Z" id="Shape" fill="#FFFFFF" opacity="0.5"></path>
                                    <path d="M8.32015625,62.03125 C8.32015625,61.7448437 7.9896875,61.4584375 7.58578125,61.3996875 L6.21984375,61.1940625 C5.79706256,61.1101575 5.4665613,60.7796562 5.38265625,60.356875 L5.17703125,58.9909375 C5.11828125,58.594375 4.831875,58.2565625 4.54546875,58.2565625 C4.2590625,58.2565625 3.97265625,58.5870312 3.91390625,58.9909375 L3.70828125,60.356875 C3.6243762,60.7796562 3.29387494,61.1101575 2.87109375,61.1940625 L1.50515625,61.3996875 C1.10859375,61.4584375 0.77078125,61.7448437 0.77078125,62.03125 C0.77078125,62.3176562 1.10125,62.6040625 1.50515625,62.6628125 L2.87109375,62.8684375 C3.29387494,62.9523425 3.6243762,63.2828438 3.70828125,63.705625 L3.91390625,65.0715625 C3.97265625,65.468125 4.2590625,65.8059375 4.54546875,65.8059375 C4.831875,65.8059375 5.1109375,65.4754687 5.1696875,65.0715625 L5.39,63.4926562 C5.48619527,63.0941117 5.82611333,62.8014866 6.23453125,62.765625 L7.58578125,62.6628125 C7.9896875,62.5967187 8.32015625,62.3396875 8.32015625,62.03125 Z" id="Shape" fill="#FFFFFF" opacity="0.5"></path>
                                    <ellipse id="Oval" fill="#4D69CD" cx="36.6376562" cy="37.12125" rx="26.0923437" ry="26.0923438"></ellipse>
                                    <path d="M36.6376563,56.2590625 C23.5676543,56.2655356 12.5092715,46.6008292 10.765625,33.6476562 C9.39343324,43.7230098 13.9994076,53.6777307 22.5671876,59.1539343 C31.1349677,64.6301378 42.1036261,64.6301378 50.6714061,59.1539343 C59.2391862,53.6777307 63.8451605,43.7230098 62.4729688,33.6476562 C60.7311888,46.5869918 49.6936917,56.2471549 36.6376563,56.2590625 L36.6376563,56.2590625 Z" id="Shape" fill="#A9F5EB"></path>
                                    <path d="M30.1754144,48 L14,48 C17.7357578,51.2545402 22.4528531,53.7741511 27.7486188,55.34375 L30.1657459,55.34375 C32.8356307,55.34375 35,53.6997956 35,51.671875 C35,49.6439544 32.8356307,48 30.1657459,48 L30.1754144,48 Z" id="Shape" fill="#A9F5EB"></path>
                                    <path d="M10.5453125,37.12125 C10.5424002,40.5208915 11.2112507,43.8876056 12.5134375,47.0279687 L14.085,47.0279687 C16.1129206,47.0279687 17.756875,45.3840143 17.756875,43.3560937 C17.756875,41.3365625 19.4239062,39.265625 21.42875,39.265625 L24.5792187,39.265625 C26.686875,39.265625 28.390625,38.2448438 28.390625,36.328125 C28.390625,34.4114062 27.4359375,32.7076562 26.3123437,32.7076562 C25.18875,32.7076562 24.2707812,31.0553125 24.2707812,29.0357813 C24.2707812,27.0078607 25.9147357,25.3639063 27.9426562,25.3639063 L28.390625,25.3639063 C30.3818403,25.3645794 32.0107285,23.7780422 32.0625,21.7875 C32.0453362,19.7420809 30.4337991,18.0660823 28.390625,17.96875 L18.7629687,17.96875 C13.5167913,22.9583667 10.5464595,29.8811774 10.5453125,37.12125 L10.5453125,37.12125 Z" id="Shape" fill="#A9F5EB"></path>
                                    <path d="M46.75,21.640625 C46.75,24.578125 48.4684375,26.046875 50.0767188,26.046875 C51.685,26.046875 53.359375,27.0676562 53.359375,28.984375 C53.327889,30.9991095 51.7022345,32.624764 49.6875,32.65625 L43.1295313,32.65625 C42.163836,32.6226066 41.2251866,32.9787601 40.5248748,33.6445398 C39.824563,34.3103194 39.4214402,35.2297757 39.40625,36.1959375 C39.3894836,38.2525372 41.0222181,39.9440501 43.078125,40 L44.546875,40 C46.5957813,40 47.484375,41.70375 47.484375,43.671875 C47.484375,45.64 49.1,46.609375 51.15625,46.609375 L60.7471875,46.609375 C62.0572201,43.617838 62.732384,40.3870536 62.73,37.12125 C62.7269177,29.8726308 59.7386805,22.9452329 54.4682813,17.96875 L50.8698438,17.96875 C48.8282813,17.96875 46.75,19.6210938 46.75,21.640625 Z" id="Shape" fill="#A9F5EB"></path>
                                    <path d="M51.0167187,86.265625 C48.6575536,80.3897334 42.9621181,76.5390977 36.6303125,76.5390977 C30.2985069,76.5390977 24.6030714,80.3897334 22.2439062,86.265625 L51.0167187,86.265625 Z" id="Shape" fill="#FFFFFF"></path>
                                    <path d="M29.859375,6.21875 C28.2370385,6.21875 26.921875,4.90358645 26.921875,3.28125 C26.921875,1.65891355 28.2370385,0.34375 29.859375,0.34375 C31.4817115,0.34375 32.796875,1.65891355 32.796875,3.28125 C32.796875,4.06032344 32.4873893,4.80748806 31.9365012,5.35837617 C31.3856131,5.90926428 30.6384484,6.21875 29.859375,6.21875 Z M29.859375,1.71703125 C29.2267076,1.71703125 28.6563367,2.09814091 28.4142253,2.6826494 C28.172114,3.26715789 28.3059419,3.93995626 28.7533053,4.38731969 C29.2006687,4.83468311 29.8734671,4.96851103 30.4579756,4.72639969 C31.0424841,4.48428834 31.4235937,3.91391743 31.4235937,3.28125 C31.4235937,2.41735584 30.7232692,1.71703125 29.859375,1.71703125 L29.859375,1.71703125 Z" id="Shape" fill="#FFFFFF" opacity="0.5"></path>
                                    <path d="M38.1357812,79.1201563 C41.3452664,79.473498 44.289283,81.0680639 46.33875,83.563125" id="Shape" fill="#FFFFFF"></path>
                                    <path d="M46.33875,84.2975 C46.1127238,84.2987176 45.8987287,84.1957832 45.7585937,84.0184375 C43.8417402,81.6900125 41.0954852,80.197082 38.0990625,79.8545312 C37.8366956,79.8427248 37.6005572,79.691844 37.4795985,79.4587243 C37.3586398,79.2256047 37.3712372,78.9456625 37.5126454,78.7243493 C37.6540536,78.5030361 37.9027893,78.3739747 38.1651562,78.3857812 C41.5893821,78.7443773 44.7331541,80.4416446 46.9115625,83.1078125 C47.0865443,83.3292411 47.1191532,83.6313555 46.9954513,83.8850228 C46.8717493,84.1386901 46.6136241,84.2990268 46.3314062,84.2975 L46.33875,84.2975 Z" id="Shape" fill="#239DDA"></path>
                                    <path d="M58.5514063,33.7284375 C58.1922941,33.7342951 57.8816323,33.4795523 57.8170313,33.12625 C56.9502068,28.5740426 54.6465485,24.4197358 51.244375,21.2734375 C50.9401869,20.9935845 50.9204595,20.5201256 51.2003125,20.2159375 C51.4801655,19.9117494 51.9536244,19.892022 52.2578125,20.171875 C55.8910614,23.5332317 58.3515724,27.9703876 59.2784375,32.8325 C59.3149213,33.0243972 59.2734506,33.2229228 59.1631977,33.3841677 C59.0529448,33.5454125 58.8829952,33.6560892 58.6909375,33.6917187 L58.5514063,33.7284375 Z" id="Shape" fill="#A9F5EB" opacity="0.5"></path>
                                    <path d="M46.75,17.96875 C46.6356278,17.9703411 46.5224651,17.9451939 46.4195313,17.8953125 C43.3264292,16.4597085 39.9520435,15.7321458 36.5421875,15.765625 C35.3308279,15.7385682 34.1194162,15.8171994 32.9217188,16.000625 C32.5314011,16.0781006 32.1503889,15.8306055 32.0625,15.4425 C32.017313,15.0586509 32.2773811,14.7054719 32.6573438,14.6346875 C33.9968503,14.4095646 35.3528014,14.2965687 36.7110938,14.296875 C40.2995662,14.2821743 43.8447455,15.0805928 47.0804688,16.6321875 C47.2499128,16.7098378 47.3802596,16.853367 47.4412771,17.0294856 C47.5022945,17.2056041 47.4886809,17.3990094 47.4035938,17.5648438 C47.2791537,17.8117991 47.0265349,17.9679119 46.75,17.96875 Z" id="Shape" fill="#F4F8FF"></path>
                                    <path d="M63.640625,87 L57.765625,87 C57.3600409,87 57.03125,86.6712091 57.03125,86.265625 C57.03125,85.8600409 57.3600409,85.53125 57.765625,85.53125 L63.640625,85.53125 C64.0462091,85.53125 64.375,85.8600409 64.375,86.265625 C64.375,86.6712091 64.0462091,87 63.640625,87 Z" id="Shape" fill="#5EA7C8"></path>
                                    <path d="M63.6039062,54.1514062 C63.5019311,53.5781592 63.1771787,53.0685884 62.700625,52.7340625 C61.7034013,52.0536976 60.3443664,52.3025811 59.6529687,53.2921875 C58.9783242,54.2726958 58.2424875,55.2096612 57.4498437,56.0975 L56.296875,54.9665625 C60.6207702,50.0108272 62.9729461,43.6390442 62.90625,37.0625 C62.9555617,30.035838 60.1860281,23.2826673 55.2173054,18.3139446 C50.2485827,13.3452219 43.495412,10.5756883 36.46875,10.625 C29.9467047,10.5088927 23.614637,12.8228852 18.7042187,17.116875 L17.580625,15.9859375 C18.5183435,15.1346989 19.5119691,14.3471586 20.5548437,13.6285937 C21.3532677,13.0851335 21.704629,12.0850012 21.4215391,11.1615891 C21.1384493,10.2381769 20.2869214,9.60681359 19.3210937,9.60421875 C18.8809299,9.605406 18.4512122,9.73841385 18.0873437,9.98609375 C16.8205033,10.8480443 15.6156248,11.7977143 14.4815625,12.828125 L12.44,10.771875 C11.5824392,9.9273595 10.205842,9.9273595 9.34828125,10.771875 C8.48919945,11.6320265 8.48919945,13.0254735 9.34828125,13.885625 L11.4559375,16.0079687 C6.61384022,21.9445397 4.02806293,29.4027122 4.15625,37.0625 C4.15625,54.8564062 18.168125,69.6246875 35.734375,70.109375 L35.734375,75.984375 C29.6390625,76.3148437 24.9684375,79.8692187 22.515625,85.53125 L11.5,85.53125 C11.0944159,85.53125 10.765625,85.8600409 10.765625,86.265625 C10.765625,86.6712091 11.0944159,87 11.5,87 L50.715625,87 L54.09375,87 C54.4993341,87 54.828125,86.6712091 54.828125,86.265625 C54.828125,85.8600409 54.4993341,85.53125 54.09375,85.53125 L50.421875,85.53125 C47.9176562,79.7810937 43.40125,76.2046875 37.203125,75.984375 L37.203125,70.109375 C47.6910599,69.8436082 57.399827,64.5115873 63.2514062,55.80375 C63.5838198,55.3216985 63.7106576,54.7271463 63.6039062,54.1514062 L63.6039062,54.1514062 Z M56.4364062,57.1623437 C56.09125,57.5075 55.7020312,57.8453125 55.3789062,58.1757812 L54.2553125,57.0448437 C54.6176042,56.7168229 54.9701042,56.3790104 55.3128125,56.0314062 L56.4364062,57.1623437 Z M54.2332812,59.1304688 C49.2475988,63.3055854 42.9712838,65.6277441 36.46875,65.703125 C20.9,65.703125 8.5625,52.7340625 8.5625,37.0625 C8.5625,30.453125 10.4939062,24.1815625 14.555,19.173125 L15.6859375,20.3114063 C11.9345539,25.0807228 9.93795266,30.9953298 10.03125,37.0625 C10.03125,51.8528125 21.78125,64.234375 36.46875,64.234375 C42.5771724,64.1349854 48.4646288,61.9330248 53.1390625,57.9995313 L54.2332812,59.1304688 Z M36.46875,12.09375 C43.1058796,12.0444013 49.4854918,14.65918 54.1787809,19.3524691 C58.87207,24.0457582 61.4868487,30.4253704 61.4375,37.0625 C61.4375,51.015625 50.363125,62.765625 36.46875,62.765625 C22.574375,62.765625 11.5,51.015625 11.5,37.0625 C11.4506513,30.4253704 14.06543,24.0457582 18.7587191,19.3524691 C23.4520082,14.65918 29.8316204,12.0444013 36.46875,12.09375 L36.46875,12.09375 Z M17.639375,18.1229688 C17.2966667,18.4705729 16.9613021,18.8255208 16.6332812,19.1878125 L15.5096875,18.056875 C15.8328125,17.6970313 16.170625,17.3225 16.5157812,16.9920313 L17.639375,18.1229688 Z M10.3764063,12.886875 C10.0916717,12.6004412 10.0916717,12.13784 10.3764063,11.8514062 C10.66284,11.5666717 11.1254412,11.5666717 11.411875,11.8514062 L13.4240625,13.8782812 C13.0789063,14.2234375 12.7484375,14.6126562 12.4179688,14.943125 L10.3764063,12.886875 Z M48.953125,85.53125 L23.984375,85.53125 C26.4445313,80.47875 30.8140625,77.453125 36.46875,77.453125 C42.1234375,77.453125 46.4929688,80.47875 48.953125,85.53125 Z M62.0470312,54.9665625 C56.2851786,63.4499605 46.7235411,68.5615795 36.46875,68.640625 C19.2917187,68.640625 5.625,54.3496875 5.625,37.0625 C5.625,26.6784375 10.3764062,17.0507812 18.9098438,11.1978125 C19.0314102,11.1161185 19.174628,11.0726417 19.3210938,11.0729687 C19.6445123,11.0722442 19.9303323,11.2831883 20.0249703,11.5924515 C20.1196082,11.9017147 20.0007826,12.2364847 19.7323438,12.416875 C11.5954688,17.96875 7.09375,27.1704687 7.09375,37.0625 C7.09375,53.541875 20.0995313,67.171875 36.46875,67.171875 C46.2449024,67.0935094 55.3588931,62.2180734 60.85,54.129375 C61.0810937,53.8018496 61.5321324,53.7201397 61.8634375,53.9457812 C62.1955185,54.1772836 62.2776361,54.6338577 62.0470312,54.9665625 L62.0470312,54.9665625 Z" id="Shape" fill="#5782F0"></path>
                                </g>
                            </g>
                        </g>
                    </g>
                </g>
            </g>
        </g>
    </g>
</svg>