<?xml version="1.0" encoding="UTF-8"?>
<svg width="1440px" height="216px" viewBox="0 0 1440 216" version="1.1" xmlns="http://www.w3.org/2000/svg" xmlns:xlink="http://www.w3.org/1999/xlink">
    <!-- Generator: Sketch 43.1 (39012) - http://www.bohemiancoding.com/sketch -->
    <title>hero-swoosh</title>
    <desc>Created with Sketch.</desc>
    <defs>
        <linearGradient x1="30.1509797%" y1="92.2033884%" x2="100%" y2="9.73676108%" id="linearGradient-1">
            <stop stop-color="#429BD2" offset="0%"></stop>
            <stop stop-color="#A1B555" offset="41.6701275%"></stop>
            <stop stop-color="#FBC131" offset="100%"></stop>
        </linearGradient>
        <rect id="path-2" x="1" y="-1.42108547e-14" width="1440" height="217"></rect>
        <linearGradient x1="50%" y1="-1.26849894%" x2="50%" y2="97.7678571%" id="linearGradient-3">
            <stop stop-color="#FFFFFF" offset="0%"></stop>
            <stop stop-color="#FFFFFF" stop-opacity="0" offset="100%"></stop>
        </linearGradient>
    </defs>
    <g id="Individual-Bio-Page" stroke="none" stroke-width="1" fill="none" fill-rule="evenodd">
        <g id="hero-swoosh">
            <g id="Background">
                <use fill="#93E1FF" xlink:href="#path-2"></use>
                <use fill-opacity="0.8" fill="url(#linearGradient-1)" xlink:href="#path-2"></use>
            </g>
            <path d="M1.00269413,62.9408034 C1.00269413,62.9408034 124.400103,29.4947146 375.175482,97.3424947 C625.950861,165.190275 794.129587,217.748414 1004.10421,137.477801 C1214.07883,57.2071882 1434.00486,-89 1434.00486,-89 L1435,363 L-1,363 L1.00269413,62.9408034 Z" id="Path-2" fill="url(#linearGradient-3)" opacity="0.100000001" transform="translate(717.000000, 137.000000) scale(-1, 1) translate(-717.000000, -137.000000) "></path>
            <path d="M0.0124132137,284.868083 C0.0124132137,284.868083 123.408567,26.0052295 323.429751,119.266828 C523.450934,212.528427 834.926709,150.671244 1043.90406,133.541563 C1252.88142,116.411881 1433,324.837339 1433,324.837339 L1433,361 L0,361 L0.0124132137,284.868083 Z" id="Path-2" fill="url(#linearGradient-3)" opacity="0.200000003"></path>
            <path d="M0.0124132137,68 C0.0124132137,68 115.447524,176.844026 369.205743,174.934734 C622.963961,173.025442 877.71731,362.045354 1088.68493,265.626106 C1299.65254,169.206858 1433,152.963496 1433,152.963496 L1433,363 L0,363 L0.0124132137,68 Z" id="Path-2" fill="url(#linearGradient-3)" opacity="0.300000012"></path>
        </g>
    </g>
</svg>