<?xml version="1.0" encoding="UTF-8"?>
<svg width="135px" height="99px" viewBox="0 0 135 99" version="1.1" xmlns="http://www.w3.org/2000/svg" xmlns:xlink="http://www.w3.org/1999/xlink">
    <!-- Generator: Sketch 43.1 (39012) - http://www.bohemiancoding.com/sketch -->
    <title>Artboard</title>
    <desc>Created with Sketch.</desc>
    <defs></defs>
    <g id="Homepage" stroke="none" stroke-width="1" fill="none" fill-rule="evenodd">
        <g id="Artboard">
            <g id="Page-1" transform="translate(4.000000, -14.000000)">
                <path d="M117.5313,105 L7.0003,105 C6.4473,105 6.0003,104.553 6.0003,104 C6.0003,103.447 6.4473,103 7.0003,103 L117.5313,103 C118.0843,103 118.5313,103.447 118.5313,104 C118.5313,104.553 118.0843,105 117.5313,105" id="Fill-13" fill="#429BD2"></path>
                <polygon id="Fill-15" fill="#249DDA" points="9.975 103.962 32 103.962 32 49.001 9.975 49.001"></polygon>
                <polygon id="Fill-17" fill="#93E1FF" points="11 57 32 57 32 54 11 54"></polygon>
                <path d="M10.975,103 L31,103 L31,50.001 L10.975,50.001 L10.975,103 Z M32,104.962 L9.975,104.962 C9.423,104.962 9,104.515 9,103.962 L9,49.001 C9,48.448 9.423,48.001 9.975,48.001 L32,48.001 C32.552,48.001 33,48.448 33,49.001 L33,103.962 C33,104.515 32.552,104.962 32,104.962 L32,104.962 Z" id="Fill-18" fill="#429BD2"></path>
                <polygon id="Fill-19" fill="#93E1FF" points="8.975 52.961 32 52.961 32 47 8.975 47"></polygon>
                <path d="M10,51.961 L31,51.961 L31,48 L10,48 L10,51.961 Z M32,53.961 L9,53.961 C8.447,53.961 8,53.514 8,52.961 L8,47 C8,46.448 8.447,46 9,46 L32,46 C32.552,46 33,46.448 33,47 L33,52.961 C33,53.514 32.552,53.961 32,53.961 L32,53.961 Z" id="Fill-20" fill="#5EB4EA"></path>
                <polygon id="Fill-21" fill="#FFFFFF" points="13 61 29 61 29 57 13 57"></polygon>
                <path d="M14,60 L28,60 L28,58 L14,58 L14,60 Z M29,62 L13,62 C12.448,62 12,61.552 12,61 L12,57 C12,56.448 12.448,56 13,56 L29,56 C29.552,56 30,56.448 30,57 L30,61 C30,61.552 29.552,62 29,62 L29,62 Z" id="Fill-22" fill="#5EB4EA"></path>
                <polygon id="Fill-23" fill="#FFFFFF" points="13 70 29 70 29 66 13 66"></polygon>
                <path d="M14,69 L28,69 L28,67 L14,67 L14,69 Z M29,71 L13,71 C12.448,71 12,70.553 12,70 L12,66 C12,65.447 12.448,65 13,65 L29,65 C29.552,65 30,65.447 30,66 L30,70 C30,70.553 29.552,71 29,71 L29,71 Z" id="Fill-24" fill="#5EB4EA"></path>
                <polygon id="Fill-25" fill="#FFFFFF" points="13 79 29 79 29 75 13 75"></polygon>
                <path d="M14,78 L28,78 L28,76 L14,76 L14,78 Z M29,80 L13,80 C12.448,80 12,79.553 12,79 L12,75 C12,74.447 12.448,74 13,74 L29,74 C29.552,74 30,74.447 30,75 L30,79 C30,79.553 29.552,80 29,80 L29,80 Z" id="Fill-26" fill="#5EB4EA"></path>
                <polygon id="Fill-27" fill="#FFFFFF" points="13 88 29 88 29 84 13 84"></polygon>
                <path d="M14,87 L28,87 L28,85 L14,85 L14,87 Z M29,89 L13,89 C12.448,89 12,88.553 12,88 L12,84 C12,83.447 12.448,83 13,83 L29,83 C29.552,83 30,83.447 30,84 L30,88 C30,88.553 29.552,89 29,89 L29,89 Z" id="Fill-28" fill="#5EB4EA"></path>
                <polygon id="Fill-29" fill="#FFFFFF" points="13 97 29 97 29 93 13 93"></polygon>
                <path d="M14,96 L28,96 L28,94 L14,94 L14,96 Z M29,98 L13,98 C12.448,98 12,97.553 12,97 L12,93 C12,92.447 12.448,92 13,92 L29,92 C29.552,92 30,92.447 30,93 L30,97 C30,97.553 29.552,98 29,98 L29,98 Z" id="Fill-30" fill="#5EB4EA"></path>
                <path d="M29,51 L12,51 C11.448,51 11,50.552 11,50 C11,49.448 11.448,49 12,49 L29,49 C29.552,49 30,49.448 30,50 C30,50.552 29.552,51 29,51" id="Fill-31" fill="#FFFFFF"></path>
                <polygon id="Fill-32" fill="#3AD0F9" points="81.9746 104 61.9996 104 61.9996 22.335 81.9746 33.669"></polygon>
                <path d="M63,103 L81,103 L81,34.252 L63,24.052 L63,103 Z M82,105 L62.025,105 C61.473,105 61.025,104.553 61.025,104 L61.025,22.335 C61.025,21.979 61.215,21.649 61.522,21.471 C61.831,21.293 62.21,21.29 62.519,21.465 L82.493,32.799 C82.807,32.978 83,33.31 83,33.669 L83,104 C83,104.553 82.553,105 82,105 L82,105 Z" id="Fill-33" fill="#429BD2"></path>
                <path d="M66,64 C65.447,64 65,63.552 65,63 L65,32 C65,31.448 65.447,31 66,31 C66.553,31 67,31.448 67,32 L67,63 C67,63.552 66.553,64 66,64" id="Fill-34" fill="#FFFFFF"></path>
                <path d="M72,99 C71.447,99 71,98.553 71,98 L71,36 C71,35.448 71.447,35 72,35 C72.553,35 73,35.448 73,36 L73,98 C73,98.553 72.553,99 72,99" id="Fill-35" fill="#FFFFFF"></path>
                <path d="M77,99 C76.447,99 76,98.553 76,98 L76,55 C76,54.448 76.447,54 77,54 C77.553,54 78,54.448 78,55 L78,98 C78,98.553 77.553,99 77,99" id="Fill-36" fill="#FFFFFF"></path>
                <path d="M77,50.999 C76.447,50.999 76,50.552 76,49.999 L76,40 C76,39.448 76.447,39 77,39 C77.553,39 78,39.448 78,40 L78,49.999 C78,50.552 77.553,50.999 77,50.999" id="Fill-37" fill="#FFFFFF"></path>
                <polygon id="Fill-39" fill="#429BD2" points="94 103.962 115 103.962 115 47 94 47"></polygon>
                <polygon id="Fill-40" fill="#429BD2" points="96.858 47 111.143 47 111.143 34 96.858 34"></polygon>
                <path d="M95,103 L113,103 L113,48 L95,48 L95,103 Z M114,104.962 L94,104.962 C93.447,104.962 93,104.515 93,103.962 L93,47 C93,46.448 93.447,46 94,46 L114,46 C114.553,46 115,46.448 115,47 L115,103.962 C115,104.515 114.553,104.962 114,104.962 L114,104.962 Z" id="Fill-41" fill="#429BD2"></path>
                <polygon id="Fill-42" fill="#93E1FF" points="97 46 112 46 112 43 97 43"></polygon>
                <path d="M98,46 L111,46 L111,35 L98,35 L98,46 Z M112,48 L97,48 C96.447,48 96,47.552 96,47 L96,34 C96,33.448 96.447,33 97,33 L112,33 C112.553,33 113,33.448 113,34 L113,47 C113,47.552 112.553,48 112,48 L112,48 Z" id="Fill-43" fill="#429BD2"></path>
                <path d="M101,35 C100.447,35 100,34.552 100,34 L100,25 C100,24.448 100.447,24 101,24 C101.553,24 102,24.448 102,25 L102,34 C102,34.552 101.553,35 101,35" id="Fill-44" fill="#93E1FF"></path>
                <path d="M108,35 C107.447,35 107,34.552 107,34 L107,29 C107,28.448 107.447,28 108,28 C108.553,28 109,28.448 109,29 L109,34 C109,34.552 108.553,35 108,35" id="Fill-45" fill="#93E1FF"></path>
                <polygon id="Fill-46" fill="#93E1FF" points="97 53 99 53 99 50 97 50"></polygon>
                <polygon id="Fill-47" fill="#93E1FF" points="101 53 103 53 103 50 101 50"></polygon>
                <polygon id="Fill-48" fill="#93E1FF" points="100 40 102 40 102 37 100 37"></polygon>
                <polygon id="Fill-49" fill="#93E1FF" points="104 40 106 40 106 37 104 37"></polygon>
                <polygon id="Fill-50" fill="#93E1FF" points="105 53 107 53 107 50 105 50"></polygon>
                <polygon id="Fill-51" fill="#93E1FF" points="109 53 111 53 111 50 109 50"></polygon>
                <polygon id="Fill-52" fill="#93E1FF" points="97 59 99 59 99 56 97 56"></polygon>
                <polygon id="Fill-53" fill="#93E1FF" points="101 59 103 59 103 56 101 56"></polygon>
                <polygon id="Fill-54" fill="#93E1FF" points="105 59 107 59 107 56 105 56"></polygon>
                <polygon id="Fill-55" fill="#93E1FF" points="109 59 111 59 111 56 109 56"></polygon>
                <polygon id="Fill-56" fill="#93E1FF" points="97 65 99 65 99 62 97 62"></polygon>
                <polygon id="Fill-57" fill="#93E1FF" points="101 65 103 65 103 62 101 62"></polygon>
                <polygon id="Fill-58" fill="#93E1FF" points="105 65 107 65 107 62 105 62"></polygon>
                <polygon id="Fill-59" fill="#93E1FF" points="109 65 111 65 111 62 109 62"></polygon>
                <polygon id="Fill-60" fill="#93E1FF" points="97 71 99 71 99 68 97 68"></polygon>
                <polygon id="Fill-61" fill="#93E1FF" points="101 71 103 71 103 68 101 68"></polygon>
                <polygon id="Fill-62" fill="#93E1FF" points="105 71 107 71 107 68 105 68"></polygon>
                <polygon id="Fill-63" fill="#93E1FF" points="109 71 111 71 111 68 109 68"></polygon>
                <polygon id="Fill-64" fill="#93E1FF" points="97 77 99 77 99 74 97 74"></polygon>
                <polygon id="Fill-65" fill="#93E1FF" points="101 77 103 77 103 74 101 74"></polygon>
                <polygon id="Fill-66" fill="#93E1FF" points="105 77 107 77 107 74 105 74"></polygon>
                <polygon id="Fill-67" fill="#93E1FF" points="109 77 111 77 111 74 109 74"></polygon>
                <polygon id="Fill-68" fill="#93E1FF" points="97 83 99 83 99 80 97 80"></polygon>
                <polygon id="Fill-69" fill="#93E1FF" points="101 83 103 83 103 80 101 80"></polygon>
                <polygon id="Fill-70" fill="#93E1FF" points="105 83 107 83 107 80 105 80"></polygon>
                <polygon id="Fill-71" fill="#93E1FF" points="109 83 111 83 111 80 109 80"></polygon>
                <polygon id="Fill-72" fill="#93E1FF" points="97 89 99 89 99 86 97 86"></polygon>
                <polygon id="Fill-73" fill="#93E1FF" points="101 89 103 89 103 86 101 86"></polygon>
                <polygon id="Fill-74" fill="#93E1FF" points="105 89 107 89 107 86 105 86"></polygon>
                <polygon id="Fill-75" fill="#93E1FF" points="109 89 111 89 111 86 109 86"></polygon>
                <polygon id="Fill-76" fill="#93E1FF" points="97 95 99 95 99 92 97 92"></polygon>
                <polygon id="Fill-77" fill="#93E1FF" points="101 95 103 95 103 92 101 92"></polygon>
                <polygon id="Fill-78" fill="#93E1FF" points="105 95 107 95 107 92 105 92"></polygon>
                <polygon id="Fill-79" fill="#93E1FF" points="109 95 111 95 111 92 109 92"></polygon>
                <polygon id="Fill-80" fill="#93E1FF" points="97 101 99 101 99 98 97 98"></polygon>
                <polygon id="Fill-81" fill="#93E1FF" points="101 101 103 101 103 98 101 98"></polygon>
                <polygon id="Fill-82" fill="#93E1FF" points="105 101 107 101 107 98 105 98"></polygon>
                <polygon id="Fill-83" fill="#93E1FF" points="109 101 111 101 111 98 109 98"></polygon>
                <path d="M109,42 C108.447,42 108,41.552 108,41 L108,37 C108,36.448 108.447,36 109,36 C109.553,36 110,36.448 110,37 L110,41 C110,41.552 109.553,42 109,42" id="Fill-84" fill="#FFFFFF"></path>
                <polygon id="Fill-85" fill="#429BD2" points="31.975 103.962 49 103.962 49 38.001 31.975 38.001"></polygon>
                <path d="M32.975,103 L48,103 L48,39 L32.975,39 L32.975,103 Z M49,104.962 L31.975,104.962 C31.423,104.962 31,104.515 31,103.962 L31,38.001 C31,37.448 31.423,37.001 31.975,37.001 L49,37.001 C49.552,37.001 50,37.448 50,38.001 L50,103.962 C50,104.515 49.552,104.962 49,104.962 L49,104.962 Z" id="Fill-86" fill="#429BD2"></path>
                <path d="M38,105 L36,105 C35.448,105 35,104.553 35,104 L35,43 C35,42.448 35.448,42 36,42 L38,42 C38.552,42 39,42.448 39,43 L39,104 C39,104.553 38.552,105 38,105" id="Fill-87" fill="#93E1FF"></path>
                <path d="M45,105 L43,105 C42.448,105 42,104.553 42,104 L42,43 C42,42.448 42.448,42 43,42 L45,42 C45.552,42 46,42.448 46,43 L46,104 C46,104.553 45.552,105 45,105" id="Fill-88" fill="#93E1FF"></path>
                <path d="M44,101 C43.448,101 43,100.553 43,100 L43,57 C43,56.448 43.448,56 44,56 C44.552,56 45,56.448 45,57 L45,100 C45,100.553 44.552,101 44,101" id="Fill-89" fill="#FFFFFF"></path>
                <path d="M44,52.999 C43.448,52.999 43,52.552 43,51.999 L43,44 C43,43.448 43.448,43 44,43 C44.552,43 45,43.448 45,44 L45,51.999 C45,52.552 44.552,52.999 44,52.999" id="Fill-90" fill="#FFFFFF"></path>
                <path d="M37,83 C36.448,83 36,82.553 36,82 L36,58 C36,57.448 36.448,57 37,57 C37.552,57 38,57.448 38,58 L38,82 C38,82.553 37.552,83 37,83" id="Fill-91" fill="#FFFFFF"></path>
                <polygon id="Fill-92" fill="#429BD2" points="49 104 67 104 67 67.001 49 67.001"></polygon>
                <path d="M50,103 L66,103 L66,68.001 L50,68.001 L50,103 Z M67,105 L49,105 C48.448,105 48,104.553 48,104 L48,67.001 C48,66.448 48.448,66.001 49,66.001 L67,66.001 C67.553,66.001 68,66.448 68,67.001 L68,104 C68,104.553 67.553,105 67,105 L67,105 Z" id="Fill-93" fill="#3AD0F9"></path>
                <polygon id="Fill-94" fill="#3AD0F9" points="53 104 63 104 63 71 53 71"></polygon>
                <path d="M54,103 L62,103 L62,72 L54,72 L54,103 Z M63,105 L53,105 C52.448,105 52,104.553 52,104 L52,71 C52,70.447 52.448,70 53,70 L63,70 C63.552,70 64,70.447 64,71 L64,104 C64,104.553 63.552,105 63,105 L63,105 Z" id="Fill-95" fill="#429BD2"></path>
                <path d="M55.5,86 C55.244,86 54.988,85.902 54.793,85.707 C54.402,85.316 54.402,84.684 54.793,84.293 L58.293,80.793 C58.684,80.402 59.316,80.402 59.707,80.793 C60.098,81.184 60.098,81.816 59.707,82.207 L56.207,85.707 C56.012,85.902 55.756,86 55.5,86" id="Fill-96" fill="#FFFFFF"></path>
                <path d="M55.5,79.5 C55.244,79.5 54.988,79.402 54.793,79.207 C54.402,78.816 54.402,78.184 54.793,77.793 L58.293,74.293 C58.684,73.902 59.316,73.902 59.707,74.293 C60.098,74.684 60.098,75.316 59.707,75.707 L56.207,79.207 C56.012,79.402 55.756,79.5 55.5,79.5" id="Fill-97" fill="#FFFFFF"></path>
                <path d="M55.5,99 C55.244,99 54.988,98.902 54.793,98.707 C54.402,98.316 54.402,97.684 54.793,97.293 L58.293,93.793 C58.684,93.402 59.316,93.402 59.707,93.793 C60.098,94.184 60.098,94.816 59.707,95.207 L56.207,98.707 C56.012,98.902 55.756,99 55.5,99" id="Fill-98" fill="#FFFFFF"></path>
                <polygon id="Fill-99" fill="#93E1FF" points="82 104 94 104 94 83.001 82 83.001"></polygon>
                <path d="M83,103 L93,103 L93,84.001 L83,84.001 L83,103 Z M94,105 L82,105 C81.447,105 81,104.553 81,104 L81,83.001 C81,82.448 81.447,82.001 82,82.001 L94,82.001 C94.553,82.001 95,82.448 95,83.001 L95,104 C95,104.553 94.553,105 94,105 L94,105 Z" id="Fill-100" fill="#429BD2"></path>
                <polygon id="Fill-101" fill="#429BD2" points="85 89 87 89 87 86 85 86"></polygon>
                <polygon id="Fill-102" fill="#429BD2" points="89 89 91 89 91 86 89 86"></polygon>
                <polygon id="Fill-103" fill="#429BD2" points="85 94 87 94 87 91 85 91"></polygon>
                <polygon id="Fill-104" fill="#429BD2" points="89 94 91 94 91 91 89 91"></polygon>
                <polygon id="Fill-105" fill="#429BD2" points="85 99 87 99 87 96 85 96"></polygon>
                <polygon id="Fill-106" fill="#429BD2" points="89 99 91 99 91 96 89 96"></polygon>
            </g>
        </g>
    </g>
</svg>