<?xml version="1.0" encoding="UTF-8"?>
<svg width="411px" height="300px" viewBox="0 0 411 300" version="1.1" xmlns="http://www.w3.org/2000/svg" xmlns:xlink="http://www.w3.org/1999/xlink">
    <!-- Generator: Sketch 43.1 (39012) - http://www.bohemiancoding.com/sketch -->
    <title>Group 32</title>
    <desc>Created with Sketch.</desc>
    <defs>
        <linearGradient x1="30.1509797%" y1="92.2033884%" x2="100%" y2="9.73676108%" id="linearGradient-1">
            <stop stop-color="#429BD2" offset="0%"></stop>
            <stop stop-color="#A1B555" offset="41.6701275%"></stop>
            <stop stop-color="#FBC131" offset="100%"></stop>
        </linearGradient>
        <path d="M195,56 C192.24,56 190,53.76 190,51 C190,48.24 192.24,46 195,46 L285,46 C287.76,46 290,48.24 290,51 C290,53.76 287.76,56 285,56 L195,56 Z M330,51 C330,48.245 332.245,46 335,46 C337.755,46 340,48.245 340,51 C340,53.755 337.755,56 335,56 C332.245,56 330,53.755 330,51 L330,51 Z M350,51 C350,42.73 343.27,36 335,36 C326.73,36 320,42.73 320,51 C320,59.27 326.73,66 335,66 C343.27,66 350,59.27 350,51 L350,51 Z M370,51 C370,48.245 372.245,46 375,46 C377.755,46 380,48.245 380,51 C380,53.755 377.755,56 375,56 C372.245,56 370,53.755 370,51 L370,51 Z M390,51 C390,42.73 383.27,36 375,36 C366.73,36 360,42.73 360,51 C360,59.27 366.73,66 375,66 C383.27,66 390,59.27 390,51 L390,51 Z M285,126 C287.76,126 290,128.24 290,131 C290,133.76 287.76,136 285,136 L195,136 C192.24,136 190,133.76 190,131 C190,128.24 192.24,126 195,126 L285,126 Z M340,131 C340,133.755 337.755,136 335,136 C332.245,136 330,133.755 330,131 C330,128.245 332.245,126 335,126 C337.755,126 340,128.245 340,131 L340,131 Z M320,131 C320,139.27 326.73,146 335,146 C343.27,146 350,139.27 350,131 C350,122.73 343.27,116 335,116 C326.73,116 320,122.73 320,131 L320,131 Z M380,131 C380,133.755 377.755,136 375,136 C372.245,136 370,133.755 370,131 C370,128.245 372.245,126 375,126 C377.755,126 380,128.245 380,131 L380,131 Z M360,131 C360,139.27 366.73,146 375,146 C383.27,146 390,139.27 390,131 C390,122.73 383.27,116 375,116 C366.73,116 360,122.73 360,131 L360,131 Z M285,206 C287.76,206 290,208.24 290,211 C290,213.76 287.76,216 285,216 L195,216 C192.24,216 190,213.76 190,211 C190,208.24 192.24,206 195,206 L285,206 Z M440,196 C440,198.76 437.76,201 435,201 C432.24,201 430,198.76 430,196 L430,31 C430,23.71 422.29,16 415,16 L165,16 C157.71,16 150,23.71 150,31 L150,42.9472656 C150,45.7072656 147.76,40.8300781 145,40.8300781 C142.24,40.8300781 140,40.4221094 140,37.6621094 L140,31 C140,18.15 152.15,6 165,6 L415,6 C427.85,6 440,18.15 440,31 L440,196 Z M310,251 C310,253.76 307.76,256 305,256 L165,256 C152.15,256 140,243.85 140,231 L140,171 C140,168.24 142.24,166 145,166 L335,166 C337.76,166 340,168.24 340,171 C340,173.76 337.76,176 335,176 L150,176 L150,231 C150,238.29 157.71,246 165,246 L305,246 C307.76,246 310,248.24 310,251 L310,251 Z M172.939941,86 L415,86 C417.76,86 420,88.24 420,91 C420,93.76 417.76,96 415,96 L180.054687,96 C180.054687,96 177.292597,93.5522198 175.550215,91.103247 C173.735223,88.5522198 171.540943,86 172.939941,86 Z M390,251 C390,254.685 387.975,257.875 385,259.61 L385,271 C385,273.76 382.76,276 380,276 C377.24,276 375,273.76 375,271 L375,259.61 C372.025,257.875 370,254.685 370,251 C370,245.485 374.485,241 380,241 C385.515,241 390,245.485 390,251 L390,251 Z M430,281 C430,289.27 423.27,296 415,296 L345,296 C336.73,296 330,289.27 330,281 L330,231 C330,222.73 336.73,216 345,216 L415,216 C423.27,216 430,222.73 430,231 L430,281 Z M360,186 C360,174.97 368.97,166 380,166 C391.03,166 400,174.97 400,186 L400,206 L360,206 L360,186 Z M415,206 L410,206 L410,186 C410,169.455 396.545,156 380,156 C363.455,156 350,169.455 350,186 L350,206 L345,206 C331.215,206 320,217.215 320,231 L320,281 C320,294.785 331.215,306 345,306 L415,306 C428.785,306 440,294.785 440,281 L440,231 C440,217.215 428.785,206 415,206 L415,206 Z" id="path-2"></path>
        <path d="M166.83081,114.282369 C165.370515,114.375128 164.260055,115.634003 164.352814,117.094298 C165.309559,132.288257 163.80686,147.458363 159.88447,162.180575 C159.508133,163.593166 160.348266,165.04551 161.763507,165.421847 C161.991429,165.482803 162.222002,165.514606 162.447275,165.514606 C163.618691,165.514606 164.689397,164.730128 165.007429,163.542811 C169.078233,148.266694 170.636588,132.52678 169.642739,116.760365 C169.55263,115.30007 168.325558,114.189609 166.83081,114.282369 M96.0131273,49.6822035 C71.4584389,54.6328951 52.8191379,73.7757461 48.5283618,98.4496964 C48.279237,99.8914396 49.2439328,101.264276 50.685676,101.516051 C52.145971,101.765176 53.5002555,100.79783 53.7520305,99.3587367 C57.663819,76.8527017 74.6652573,59.3954181 97.0626315,54.8767193 C126.777382,48.8950753 155.818966,68.186341 161.805911,97.8957914 C161.821813,97.9805998 161.843015,98.0601077 161.866867,98.1396156 C162.346565,100.543404 162.760006,102.923341 163.096589,105.218469 C163.290058,106.535649 164.421721,107.481793 165.715049,107.481793 C165.844912,107.481793 165.974775,107.473843 166.104638,107.45264 C167.551682,107.240619 168.553481,105.894286 168.34146,104.447242 C167.981024,101.985147 167.53313,99.4302938 167.016328,96.8515877 C166.997777,96.7667793 166.976574,96.6793206 166.950072,96.5971624 C160.271409,64.1632415 128.502704,43.1334031 96.0131273,49.6822035 M54.0727124,119.617348 C54.0462097,119.492786 54.0117563,119.373524 53.9693521,119.254262 C53.4339989,116.503289 53.1080166,113.707262 52.991405,110.935086 C52.9330992,109.472141 51.682175,108.345779 50.2351313,108.396134 C48.772186,108.45444 47.6352231,109.689463 47.6961791,111.152408 C47.8286923,114.327423 48.2156307,117.528941 48.8463934,120.672153 C48.8702457,120.794065 48.9046992,120.913327 48.9471034,121.029939 C50.675075,130.276707 47.3092407,139.764649 40.1058254,145.865555 C38.9900646,146.814349 38.8496006,148.486665 39.7957446,149.602426 C40.323147,150.222588 41.0678709,150.540619 41.8205457,150.540619 C42.4274559,150.540619 43.0343662,150.333899 43.5326157,149.909857 C52.3023366,142.481169 56.3413377,130.873016 54.0727124,119.617348 M144.534146,155.499262 C143.110954,155.114974 141.666561,155.957757 141.290224,157.372998 C139.270723,164.907696 136.5171,172.283379 133.09826,179.295975 C132.456896,180.613156 133.005501,182.198013 134.320031,182.839377 C134.696369,183.022245 135.088608,183.107053 135.480847,183.107053 C136.461444,183.107053 137.404938,182.561099 137.863433,181.617605 C141.430688,174.300229 144.303573,166.603865 146.407882,158.743184 C146.78952,157.330594 145.949386,155.875599 144.534146,155.499262 M148.196809,100.641464 C146.028894,89.8813955 139.800776,80.6134251 130.660018,74.5416722 C121.51926,68.4672689 110.563072,66.323206 99.8056539,68.488471 C77.601749,72.9647656 63.1763664,94.6757216 67.6553112,116.879627 C67.6871144,117.035992 67.7321688,117.184407 67.7878244,117.327521 C68.6385589,121.756111 68.8267275,126.245657 68.3470299,130.682197 C68.1906644,132.137192 69.2428189,133.443772 70.7004636,133.602787 C72.1236549,133.745902 73.4620379,132.706998 73.6184034,131.249354 C74.1696581,126.118444 73.9258339,120.929229 72.8948815,115.822172 C72.8630784,115.668456 72.8180239,115.520042 72.7623684,115.379578 C69.1474094,96.1969727 81.6646024,77.5550214 100.852508,73.6856372 C110.221188,71.7959995 119.767436,73.6670853 127.726177,78.9570106 C135.639863,84.2151328 141.046399,92.2242282 142.96784,101.524002 C142.975791,101.579657 142.983742,101.637963 142.994343,101.693619 C145.941436,116.293918 146.217063,131.092988 143.815924,145.672086 C143.580051,147.11913 144.557998,148.481365 146.002392,148.719889 C146.148156,148.741091 146.29127,148.754342 146.434384,148.754342 C147.709161,148.754342 148.832873,147.83205 149.047544,146.533421 C151.541442,131.373916 151.265814,115.994439 148.225962,100.816381 C148.218012,100.758076 148.210061,100.69977 148.196809,100.641464 M68.9698418,140.724044 C67.6049562,140.193992 66.0678036,140.869809 65.5377509,142.234695 C62.6966688,149.552071 57.9871511,156.045216 51.9233489,161.011809 C50.7916866,161.936751 50.62472,163.609067 51.5523121,164.74073 C52.0770642,165.379443 52.8376897,165.710726 53.6036158,165.710726 C54.1946245,165.710726 54.7909337,165.514606 55.2838827,165.111766 C62.0500046,159.567416 67.3054765,152.321596 70.4804918,144.153485 C71.0105444,142.79125 70.332077,141.254097 68.9698418,140.724044 M125.566212,136.91683 C123.673924,149.141498 117.668428,161.004489 108.193737,171.219408 C107.366855,172.108937 107.674285,173.324952 108.882805,173.934914 C109.341301,174.16756 109.860752,174.277041 110.377554,174.277041 C111.222988,174.277041 112.05517,173.97988 112.566671,173.426612 C122.529011,162.687751 128.844588,150.216752 130.832285,137.360617 C130.996601,136.287317 129.952398,135.317633 128.500053,135.196423 C127.05566,135.075212 125.730528,135.84353 125.566212,136.91683 Z M129.387892,104.43134 C128.232377,98.6988211 124.914247,93.7587305 120.043064,90.5227592 C115.17188,87.2841376 109.3307,86.1445244 103.600831,87.2947386 C94.9954263,89.030661 88.2796593,95.7013735 86.4880814,104.290876 C86.1886017,105.724669 87.108243,107.129308 88.5393851,107.428788 C89.978478,107.725618 91.377817,106.808626 91.6772967,105.374834 C93.0342315,98.8631374 98.1253871,93.8064353 104.647685,92.4919047 C108.994116,91.6199682 113.417406,92.4839539 117.109222,94.9354474 C120.71358,97.3312853 123.194227,100.956845 124.124469,105.170764 C124.13507,105.276774 124.148321,105.382785 124.169523,105.488795 C125.513207,112.138306 126.202275,118.92563 126.220827,125.659949 C126.226128,127.122894 127.410795,128.304911 128.87109,128.304911 L128.876391,128.304911 C130.341986,128.302261 131.526654,127.112293 131.521354,125.649347 C131.502802,118.679155 130.800482,111.655958 129.432946,104.773224 C129.424995,104.659263 129.409094,104.545302 129.387892,104.43134 M92.4776762,116.521841 C92.284207,115.069497 90.9378733,114.046495 89.4961301,114.253216 C88.0464362,114.446685 87.0313854,115.782418 87.2275049,117.234762 C90.028833,137.901514 82.5709924,158.780288 67.2816241,173.083758 C66.213568,174.082907 66.1579125,175.760524 67.159712,176.83123 C67.6791636,177.387785 68.3841336,177.668713 69.0944041,177.668713 C69.7437186,177.668713 70.3930331,177.43284 70.9045339,176.953142 C87.4448264,161.478256 95.5095773,138.887412 92.4776762,116.521841 M110.54187,108.234468 C110.252991,106.800676 108.856303,105.878384 107.41986,106.159312 C105.986068,106.448191 105.055825,107.84753 105.344704,109.281322 C110.560422,135.150541 103.547826,161.369595 86.1064435,181.220066 C85.1417477,182.319925 85.2504085,183.994892 86.3476175,184.962238 C86.8511675,185.402181 87.4766296,185.619503 88.0967912,185.619503 C88.8335643,185.619503 89.565037,185.317373 90.0897891,184.721064 C108.63103,163.614368 116.086221,135.738899 110.54187,108.234468 M35.2796961,123.415176 C35.2664448,123.351569 35.2240406,123.303865 35.2054887,123.240258 C31.9059111,106.681414 34.2142903,90.0059579 41.894753,75.002818 C42.5626194,73.7015387 42.0484683,72.10343 40.7445388,71.4355637 C39.4406093,70.7650471 37.8451509,71.2844987 37.1772846,72.5884282 C28.9164142,88.7205802 26.4463689,106.660212 30.0374755,124.46468 C30.0586776,124.56274 30.1143332,124.642247 30.1434861,124.735007 C30.3581574,125.781861 30.58608,126.818114 30.837855,127.846416 C31.1373348,129.054936 32.2186421,129.860616 33.4112606,129.860616 C33.6206314,129.860616 33.8326524,129.836763 34.0473237,129.786408 C35.4678648,129.433923 36.3371511,127.997481 35.9873164,126.57694 C35.7302409,125.535386 35.4917172,124.480581 35.2796961,123.415176 M185.851749,93.04846 C185.835847,92.9689521 185.782842,92.9079961 185.75899,92.8284882 C181.677584,72.8693561 170.2576,55.4359248 153.576844,43.7297123 C152.378925,42.8842784 150.72251,43.1784576 149.885027,44.3763766 C149.044894,45.5742955 149.333772,47.2280598 150.531691,48.0681932 C166.157643,59.0349823 176.840854,75.3844559 180.614829,94.1032648 C180.62808,94.1748219 180.670484,94.2304774 180.689036,94.2993842 C181.73854,99.573408 182.220888,104.940191 182.120178,110.256619 C182.093676,111.719564 183.257141,112.928084 184.720086,112.957237 L184.773092,112.957237 C186.212185,112.957237 187.394202,111.801722 187.420705,110.357329 C187.529365,104.585056 187.001963,98.7650777 185.851749,93.04846 M44.3356454,65.607635 C43.153628,64.7462994 42.8939023,63.0872347 43.7578881,61.9052173 C55.4906032,45.8287208 72.7014123,34.8089265 92.223251,30.8732856 C109.545371,27.382889 127.066261,29.6409132 142.885682,37.4088346 C144.200213,38.0528486 144.743517,39.6403562 144.096852,40.9548868 C143.455489,42.2667671 141.867981,42.8153715 140.5508,42.1660571 C125.786184,34.9175872 109.43406,32.8079778 93.2701049,36.0704517 C75.0521958,39.7437165 58.9889506,50.0267377 48.0380631,65.0298776 C47.5186115,65.7427984 46.7129315,66.1191358 45.8966504,66.1191358 C45.3533465,66.1191358 44.8073923,65.9521692 44.3356454,65.607635" id="path-3"></path>
    </defs>
    <g id="Page-11" stroke="none" stroke-width="1" fill="none" fill-rule="evenodd">
        <g id="Technologies-V1-Copy" transform="translate(-774.000000, -4373.000000)">
            <g id="Group-25" transform="translate(230.000000, 4367.000000)">
                <g id="Group-24" transform="translate(515.000000, 0.000000)">
                    <g id="Group-32">
                        <g id="network-lock">
                            <use fill="#93E1FF" xlink:href="#path-2"></use>
                            <use fill-opacity="0.6" fill="url(#linearGradient-1)" xlink:href="#path-2"></use>
                        </g>
                        <g id="fingerprint" transform="translate(107.934635, 107.448272) rotate(-30.000000) translate(-107.934635, -107.448272) ">
                            <use fill="#93E1FF" xlink:href="#path-3"></use>
                            <use fill-opacity="0.6" fill="url(#linearGradient-1)" xlink:href="#path-3"></use>
                        </g>
                    </g>
                </g>
            </g>
        </g>
    </g>
</svg>