<?xml version="1.0" encoding="UTF-8"?>
<svg width="561px" height="650px" viewBox="0 0 561 650" version="1.1" xmlns="http://www.w3.org/2000/svg" xmlns:xlink="http://www.w3.org/1999/xlink">
    <!-- Generator: Sketch 43.1 (39012) - http://www.bohemiancoding.com/sketch -->
    <title>lgImageRight</title>
    <desc>Created with Sketch.</desc>
    <defs>
        <linearGradient x1="50%" y1="0%" x2="50%" y2="98.6348055%" id="linearGradient-1">
            <stop stop-color="#FFFFFF" stop-opacity="0.601420969" offset="0%"></stop>
            <stop stop-color="#444444" offset="100%"></stop>
        </linearGradient>
    </defs>
    <g id="INTERNALS" stroke="none" stroke-width="1" fill="none" fill-rule="evenodd" opacity="0.71801404">
        <g id="HomepageV9-V2" transform="translate(-839.000000, -1845.000000)">
            <g id="Section---Full-Service-Dev" transform="translate(126.000000, 1823.000000)">
                <g id="lgImageRight" style="mix-blend-mode: saturation;" transform="translate(713.000000, 18.000000)">
                    <path d="M208.995249,86.1666607 C208.990498,85.8068637 208.961992,85.4470666 208.933485,85.0920037 C208.919232,84.9405102 208.890726,84.7890167 208.871722,84.6375232 C208.857469,84.5381056 208.847967,84.4434222 208.833714,84.3440046 C208.809959,84.2256503 208.805208,84.1120302 208.786203,83.9936759 C208.710187,83.6007396 208.619917,83.2078033 208.524896,82.8196013 C208.501141,82.7343862 208.467884,82.6491711 208.439378,82.563956 C208.401369,82.4361333 208.363361,82.3130449 208.325353,82.1804881 C208.249336,81.9437795 208.187573,81.7118051 208.106805,81.4798306 C208.045042,81.2999321 207.950021,81.1295019 207.878755,80.9496034 C207.75998,80.6513506 207.636453,80.3625661 207.498673,80.0643133 C207.44166,79.9412248 207.398901,79.8039338 207.337137,79.6808454 C207.265872,79.5388202 207.170851,79.4109976 207.094834,79.2737066 C206.866785,78.8334286 206.610229,78.4120873 206.33942,78.0049485 C206.177884,77.7635058 206.016349,77.5315314 205.854814,77.299557 C205.555499,76.9066207 205.246681,76.5468236 204.928362,76.1964949 C204.804835,76.0544698 204.69081,75.8887738 204.557781,75.7609511 C204.50552,75.7041411 204.448507,75.6662677 204.391495,75.6141918 C204.210955,75.4342933 204.020914,75.2875339 203.830872,75.1265721 C203.631329,74.9561419 203.446038,74.766775 203.236993,74.6152815 C203.141972,74.5395348 203.037449,74.4827247 202.937678,74.4164463 C202.814151,74.3406996 202.714379,74.2602187 202.595603,74.1939403 C202.476827,74.1181935 202.358051,74.0235101 202.225022,73.9524975 C201.935209,73.7820673 201.626392,73.635308 201.322325,73.5027512 C201.279566,73.4838145 201.236807,73.4648778 201.189296,73.4506753 L19.9942708,0.50182221 C19.751968,0.402404602 19.5144161,0.31718951 19.2768643,0.250911105 C18.9965532,0.170430184 18.716242,0.113620123 18.4454329,0.0710125768 C18.2031301,0.0284050307 17.9703293,0.0189366872 17.7280265,0.00946834358 C17.7042713,0.00946834358 17.6947692,0.00473417179 17.6852671,0.00473417179 C17.6567609,0.00473417179 17.6330057,0 17.6044995,0 C17.3051842,0 17.0058689,0.0236708589 16.7160557,0.0710125768 C16.359728,0.137290982 16.0224044,0.231974418 15.6945829,0.369265399 C15.6850808,0.369265399 15.6660767,0.378733743 15.6518236,0.378733743 L5,4.83832357 C5.62238577,4.58267829 6.30178397,4.45485565 7.01919046,4.46905817 C7.04294564,4.46905817 7.07145186,4.47379234 7.09520704,4.47379234 C7.8078625,4.4974632 8.56802832,4.6489567 9.34719829,4.96141203 L190.537473,77.9055309 C191.022078,78.099632 191.478178,78.3600114 191.929526,78.6440617 C192.048302,78.7198085 192.167078,78.7955552 192.290605,78.8760362 C192.599422,79.0890739 192.889236,79.339985 193.1838,79.5908961 C193.36909,79.7518579 193.559132,79.8938831 193.739671,80.0737816 C193.924962,80.2536801 194.091248,80.4572495 194.271787,80.6608189 C194.594858,81.0064135 194.908426,81.3709447 195.198239,81.7638809 C195.369277,81.9911212 195.526061,82.2278298 195.687596,82.4645384 C195.958405,82.8764113 196.21021,83.2930184 196.443011,83.7238281 C196.580791,83.9936759 196.718571,84.2587895 196.8516,84.5381056 C196.98938,84.8221559 197.108156,85.1156746 197.222181,85.4139274 C197.393218,85.816332 197.545251,86.2282049 197.673529,86.6495462 C197.706787,86.7726347 197.759048,86.8957232 197.787554,87.0235458 C197.95384,87.6105831 198.086869,88.2070888 198.18189,88.8130627 C198.196143,88.903012 198.205645,89.0024296 198.215147,89.097113 C198.295915,89.7314921 198.357679,90.3753394 198.348176,91.0097185 L196.789837,258.144919 C196.785085,258.944994 196.680563,259.674057 196.533281,260.360512 C196.500023,260.497803 196.466766,260.625625 196.443011,260.753448 C196.352741,261.070637 196.219712,261.340485 196.096185,261.638738 C195.868135,262.225775 195.587824,262.751268 195.255252,263.210483 C195.117472,263.385647 194.993945,263.575014 194.851414,263.731242 C194.347804,264.275672 193.791933,264.730152 193.141041,265 L203.788113,260.545144 C204.443756,260.270562 204.999627,259.811348 205.498486,259.271652 C205.645768,259.11069 205.769295,258.926058 205.902324,258.746159 C206.239648,258.286944 206.52471,257.766186 206.748009,257.179148 C206.805021,257.032389 206.919046,256.94244 206.961805,256.790946 C207.009316,256.629984 207.047324,256.45482 207.085332,256.28439 C207.123341,256.156567 207.151847,256.038213 207.180353,255.905656 C207.208859,255.777833 207.251619,255.659479 207.275374,255.526922 C207.341888,255.162391 207.389399,254.783657 207.408403,254.395455 C207.427407,254.158747 207.436909,253.922038 207.44166,253.685329 L209,86.5453945 C209,86.4175718 209,86.2944834 208.995249,86.1666607" id="Fill-72"></path>
                    <path d="M190.206057,77.4708402 L9.52781031,4.4990881 C5.19289681,2.74689469 1.61126337,5.75403743 1.55441204,11.2379292 L0.000475837441,178.43033 C-0.0469002664,183.909486 3.44945619,189.781702 7.7891073,191.533896 L188.472092,264.500912 C192.807005,266.253105 196.393377,263.245963 196.440753,257.762071 L197.999426,90.5744055 C198.05154,85.0905137 194.545708,79.2182979 190.206057,77.4708402" id="Fill-74" fill="#8D8D8D"></path>
                    <path d="M189.188899,85.00723 L11.9532296,13.2426254 C9.83661448,12.3865863 8.0901697,13.8703873 8.05694929,16.5193525 L8,23.1251203 L192.938061,98 L192.999756,91.398988 C193.023485,88.7500228 191.315006,85.863269 189.188899,85.00723" id="Fill-75" fill="#86E6F4"></path>
                    <polyline id="Fill-76" fill="#FFFFFF" points="176 83.162086 175.959849 87 168 83.837914 168.035132 80 176 83.162086"></polyline>
                    <polyline id="Fill-77" fill="#FFFFFF" points="164 79.162086 163.959849 83 156 79.837914 156.035132 76 164 79.162086"></polyline>
                    <polyline id="Fill-78" fill="#878787" points="8.06169514 24 193 98.0690915 192.938305 105 8 31.020188 8.06169514 24"></polyline>
                    <path d="M8.36508683,32 L7.00047434,177.998207 C6.96730668,180.63499 8.67781053,183.470596 10.7910646,184.322698 L187.759509,255.752513 C189.877501,256.609349 191.621173,255.170244 191.644864,252.533461 L193,106.539988 L8.36508683,32" id="Fill-79" fill="#FFFFFF"></path>
                    <polyline id="Fill-80" fill="#FFFFFF" points="186 89.1701828 185.960025 93 178 89.8298172 178.044972 86 186 89.1701828"></polyline>
                    <polyline id="Fill-81" fill="#86E6F4" points="34.2157048 53 33 184.04374 156.779565 237 158 105.961002 34.2157048 53"></polyline>
                    <path d="M81.5544186,85.0434513 C82.0089136,85.2195693 82.3355818,85.7479235 82.3355818,86.2446667 L82.2882386,89.8844397 L85.2755963,91.0314649 C85.6874824,91.1850037 86.004682,91.7630322 85.9999477,92.2642913 C85.990479,92.7113601 85.6638108,92.9777951 85.2519247,92.8242563 L82.2740356,91.6727152 L82.2408954,95.3124882 C82.236161,95.8092315 81.8621495,96.1163091 81.4455291,95.9582544 C81.0383774,95.8001998 80.7069748,95.2221713 80.7069748,94.7254281 L80.754318,91.0856551 L77.7290857,89.9250823 L77,88.7419303 C77,88.2406712 77.3361369,87.9697204 77.748023,88.1322909 L80.768521,89.2928637 L80.8016612,85.6530907 C80.8442701,85.1744108 81.1425325,84.8853966 81.5544186,85.0434513" id="Fill-82" fill="#FFFFFF"></path>
                    <path d="M60.5327854,111.036861 C60.9804098,111.213686 61.3102382,111.74416 61.3102382,112.247431 L61.2772554,115.892743 L64.2315761,117.044371 C64.6462176,117.207594 65.0137407,117.75167 64.9996052,118.250407 L64.2080169,118.848891 L61.2536962,117.701797 L61.173595,121.33804 L60.4291251,122 L59.6987906,120.762226 L59.7364853,117.107847 L56.7303345,115.938082 L56,114.750182 L56.7491818,114.138096 L59.7836037,115.316929 L59.8260102,111.671617 C59.830722,111.168346 60.1605505,110.896308 60.5327854,111.036861" id="Fill-83" fill="#FFFFFF"></path>
                    <path d="M87.5567823,129 C88.011041,129.172274 88.3280757,129.702698 88.3280757,130.205921 L88.2996845,133.855419 L91.2712934,135.002404 C91.6876972,135.165612 92,135.741371 92,136.244594 C91.9952681,136.747816 91.6640379,137.015295 91.2476341,136.856621 L88.2760252,135.705103 L88.2050473,139.291131 C88.1955836,139.844223 87.8596215,140.116235 87.4479495,139.953028 C87.0362776,139.794354 86.7097792,139.268463 86.7192429,138.715372 L86.7476341,135.111209 L83.7287066,133.950623 L83,132.758303 C83.0047319,132.209745 83.3785489,131.951333 83.7523659,132.096406 L86.7665615,133.266059 L86.8044164,129.612028 L87.5567823,129" id="Fill-84" fill="#FFFFFF"></path>
                    <polyline id="Fill-85" fill="#47C6FF" points="72.1106741 128 79.8346147 168.720129 70.3824423 190.185555 85 196 58 185.260155 72.1106741 128"></polyline>
                    <polyline id="Fill-86" fill="#FFFFFF" points="87.4292278 153 103 204 85.3613458 196.853624 71 191.034705 87.4292278 153"></polyline>
                    <polyline id="Fill-87" fill="#47C6FF" points="99.9207607 155 113 208 86 197.173565 102.060222 203.6081 93.274168 175.152737 99.9207607 155"></polyline>
                    <path d="M116.575393,100.045493 C116.98534,100.2036 117.310471,100.72761 117.305759,101.229034 L117.268063,104.865485 L120.269634,106.026439 L121,107.20998 C120.995288,107.711404 120.660733,108.027617 120.250785,107.874028 L117.253927,106.713074 L117.21623,110.299835 C117.211518,110.796741 116.876963,111.117472 116.467016,110.959365 C116.052356,110.801258 115.736649,110.22304 115.741361,109.726134 L115.769634,106.134855 L112.768063,104.973901 L112,103.727118 L112.786911,103.13083 L115.788482,104.291784 L115.826178,100.650815 C115.826178,100.153909 116.165445,99.8873865 116.575393,100.045493" id="Fill-88" fill="#FFFFFF"></path>
                    <path d="M104.131594,105.745788 C110.733293,108.340625 116.081936,117.070875 115.999049,125.249841 C115.921038,133.381282 110.450502,137.85809 103.858555,135.263252 C97.2227258,132.654158 91.9228391,123.933413 92.0008503,115.806724 C92.0886129,107.623006 97.5055164,103.127188 104.131594,105.745788" id="Fill-89" fill="#FFFFFF"></path>
                    <path d="M75.5591415,101.045026 C75.9658655,101.20305 76.3347547,101.744846 76.3300254,102.246007 L76.2969199,105.880556 L79.2622216,107.022843 L80,108.255429 C79.9952707,108.75659 79.6547575,109.027488 79.2433042,108.869464 L76.2780025,107.727177 L76.2070623,111.298517 C76.1976036,111.844828 75.8618199,112.115726 75.4503665,111.953187 C75.0341838,111.795163 74.7125881,111.266912 74.7125881,110.720601 L74.7504229,107.135717 L71.7378278,105.97537 C71.3311038,105.812831 70.99532,105.289095 71.0000494,104.738269 L71.7520158,104.128748 L74.7693403,105.29361 L74.8024457,101.654546 C74.8119044,101.1579 75.1382295,100.887002 75.5591415,101.045026" id="Fill-90" fill="#FFFFFF"></path>
                    <path d="M56.5376791,80 C56.9848526,80.1774987 57.3096418,80.7054437 57.3096418,81.2060811 L57.2719851,84.8698371 L60.265694,86.0440595 C60.6752108,86.2033532 61,86.7312982 61,87.2364869 C60.9858787,87.7917393 60.6657966,88.0101993 60.2421586,87.8509056 L57.2531567,86.6766832 L57.2155,90.3449904 C57.2060858,90.8501791 56.8765896,91.123254 56.429416,90.9457553 C56.0622631,90.8046666 55.6951101,90.2539654 55.6998172,89.7533279 L55.7327668,86.0850207 L52.7296437,84.9153496 C52.3624907,84.7697096 51.9953377,84.2235596 52.0000448,83.7229222 L52.748472,83.1085035 L55.7892519,84.2963796 L55.8269086,80.6280724 L56.5376791,80" id="Fill-91" fill="#FFFFFF"></path>
                    <path d="M111.556782,146 C111.963722,146.16391 112.332808,146.705722 112.328076,147.156474 L112.294953,150.830781 L115.266562,151.982702 L116,153.225683 C115.990536,153.726518 115.659306,154.004254 115.242902,153.844897 L112.276025,152.688424 L112.205047,156.335413 C112.195584,156.840801 111.859621,157.113984 111.443218,156.954627 C111.026814,156.795271 110.709779,156.262564 110.709779,155.761729 L110.747634,152.096528 L107.733438,150.921842 L107,149.728944 C107,149.173473 107.340694,148.90029 107.757098,149.0642 L110.76183,150.234332 L110.799685,146.564578 L111.556782,146" id="Fill-92" fill="#FFFFFF"></path>
                    <polyline id="Fill-93" fill="#D9D9D4" points="180 566.03988 258.752291 536 449 613.115547 369.171443 643 180 566.03988"></polyline>
                    <polyline id="Fill-94" fill="#A0A2A1" points="264 574.766182 275.571288 570 370 609.22413 358.353051 614 264 574.766182"></polyline>
                    <polyline id="Fill-95" fill="#C3C4C1" points="370.076073 643.73252 450 614 449.928682 624.093853 370 654 370.076073 643.73252"></polyline>
                    <polyline id="Fill-96" fill="#FFFFFF" points="370 643.649854 369.904826 654 180 576.288368 180.133243 566 370 643.649854"></polyline>
                    <polyline id="Fill-97" fill="#1C1E1B" points="345 550.699256 356.314943 546 369 608.319731 357.675862 613 345 550.699256"></polyline>
                    <polyline id="Fill-98" fill-opacity="0.818982111" fill="#AFAFAF" points="345.873402 550.106024 359 612 264 573.802575 278.102641 523 345.873402 550.106024"></polyline>
                    <path d="M505.001135,578.712801 L504.755177,602.651744 C504.755177,603.449076 504.682837,604.213186 504.547801,604.934582 C504.528511,604.99628 504.50922,605.048486 504.499574,605.110185 C504.388652,605.655977 504.219858,606.15431 504.02695,606.652642 C503.848511,607.146229 503.602553,607.592355 503.351773,608.024243 C503.226383,608.233068 503.134752,608.451385 502.994894,608.645972 C502.560851,609.239225 502.059291,609.775526 501.456454,610.207414 C500.993475,610.53489 500.511206,610.800667 500,611 C503.998014,609.438558 507.996028,607.877116 511.998865,606.310929 C512.510071,606.102104 512.997163,605.841072 513.455319,605.504105 C514.058156,605.072217 514.559716,604.540662 514.998582,603.952155 C515.133617,603.757568 515.239716,603.529759 515.360284,603.32568 C515.615887,602.893792 515.857021,602.447665 516.035461,601.958825 C516.06922,601.863905 516.14156,601.787968 516.170496,601.693048 C516.300709,601.294382 516.406809,600.871986 516.493617,600.440097 C516.503262,600.364161 516.537021,600.297717 516.546667,600.22178 C516.546667,600.202796 516.556312,600.193304 516.561135,600.183812 C516.643121,599.73294 516.69617,599.277322 516.725106,598.816957 C516.754043,598.536942 516.754043,598.247435 516.763688,597.957927 L517,574 L505.001135,578.712801" id="Fill-99" fill="#C3C4C1"></path>
                    <path d="M505,579.134137 L504.758246,603.142255 C504.739285,606.374117 503.672726,609.134765 501.515905,610.719758 C499.363824,612.30475 496.562328,612.352348 493.803493,611.22429 L131.481311,464.30546 C128.755659,463.205961 126.053707,460.935566 124.029614,457.684665 C121.981819,454.424245 120.972143,450.86872 121.000584,447.689215 L121.223377,424 L505,579.134137" id="Fill-100" fill="#FFFFFF"></path>
                    <path d="M500.941826,291.797678 C498.822662,288.525144 496.04926,286.209269 493.28534,285.134211 L131.704857,143.690629 C128.983605,142.620307 126.257611,142.757649 124.190597,144.358396 C122.090397,145.949672 121.023704,148.620742 121,151.78435 L121.175412,423.64151 L505,578 L504.018642,301.799983 C504.042347,298.593752 503.042026,295.070213 500.941826,291.797678" id="Fill-101" fill="#888888"></path>
                    <polyline id="Fill-102" fill="#FFFFFF" points="493.801933 302.509663 495 556 132.394601 410.649862 132 161 493.801933 302.509663"></polyline>
                    <path d="M516.007018,296.767218 C516.002266,296.339837 515.978511,295.907708 515.931,295.47083 C515.911995,295.304626 515.878738,295.128925 515.859733,294.962721 C515.840729,294.839256 515.826475,294.71579 515.80272,294.592325 C515.783715,294.445116 515.774213,294.307404 515.745706,294.160195 C515.655435,293.704322 515.550911,293.243701 515.427382,292.783079 C515.403626,292.669111 515.351364,292.555143 515.327609,292.445923 C515.275346,292.274971 515.218333,292.104019 515.16132,291.928318 C515.085302,291.686135 515.023537,291.448701 514.928515,291.20177 C514.81924,290.902604 514.671955,290.622432 514.553177,290.332763 C514.420146,290.024099 514.291866,289.705937 514.139831,289.387776 C514.082817,289.264311 514.040057,289.145594 513.978293,289.022128 C513.66947,288.400052 513.313137,287.79697 512.928297,287.193888 C512.17287,286.020965 511.31767,285.018995 510.41971,284.107249 C510.319936,283.998029 510.224914,283.850821 510.134643,283.74635 C509.982608,283.618135 509.844825,283.518413 509.707043,283.399696 C509.402972,283.119524 509.103652,282.872593 508.79483,282.63516 C508.604785,282.473705 508.424243,282.293255 508.234198,282.155543 C508.034652,282.013083 507.825603,281.899115 507.616554,281.761403 C507.450265,281.656932 507.279225,281.538216 507.112936,281.433745 C506.994158,281.367263 506.87538,281.281787 506.766105,281.220054 C506.324251,280.977872 505.8919,280.759433 505.454798,280.583732 C505.388282,280.559988 505.321767,280.536245 505.260002,280.507753 L142.593368,138.683809 C142.251288,138.555595 141.904457,138.436878 141.557625,138.341905 C141.44835,138.308664 141.334323,138.294418 141.225048,138.270675 C141.068261,138.232685 140.916225,138.199444 140.759439,138.175701 C140.631159,138.137712 140.498127,138.10922 140.360345,138.085476 C140.146545,138.056984 139.946998,138.056984 139.733198,138.042738 C139.590665,138.028492 139.452883,138.004749 139.324603,138.009497 C139.267589,138.009497 139.220078,138 139.172567,138 C138.754469,138 138.350625,138.033241 137.942029,138.099722 C137.942029,138.099722 137.942029,138.099722 137.937278,138.104471 C137.851758,138.123466 137.780491,138.151958 137.694971,138.170952 C137.310131,138.25168 136.930042,138.346653 136.573709,138.489114 L125.061764,143.323265 C125.04276,143.328014 125.023756,143.337511 125,143.347009 C125.394342,143.185554 125.802938,143.076334 126.216285,142.995607 C126.287551,142.976612 126.349316,142.94812 126.425334,142.933874 C126.88144,142.857895 127.342298,142.834152 127.817409,142.843649 C127.945689,142.843649 128.069218,142.857895 128.197498,142.867392 C128.549081,142.895884 128.900663,142.933874 129.261747,143.005104 C129.409032,143.033596 129.551565,143.062088 129.69885,143.095329 C130.154957,143.204548 130.620566,143.337511 131.076672,143.52271 L493.439235,285.346653 C494.061631,285.588836 494.684027,285.906997 495.301671,286.272645 C495.463209,286.377116 495.629498,286.486335 495.795787,286.586058 C496.204383,286.861481 496.593974,287.155899 496.993067,287.47406 C497.287636,287.706745 497.591707,287.963174 497.881525,288.224351 C498.123832,288.452287 498.361388,288.703967 498.598943,288.946149 C499.496903,289.853146 500.356855,290.859866 501.112281,292.02804 C501.573139,292.759336 501.967482,293.495381 502.323815,294.245671 C502.461597,294.53534 502.585126,294.829758 502.708655,295.119428 C502.950962,295.68452 503.183766,296.25911 503.359557,296.824202 C503.407068,296.961914 503.449828,297.099625 503.492589,297.237337 C503.706389,297.973382 503.867926,298.704678 503.981953,299.431225 C504.000957,299.545193 504.019962,299.659161 504.029464,299.777878 C504.13874,300.542415 504.200504,301.316449 504.195753,302.057243 L505.179233,579 L517,574.284565 L516.011769,297.232588 C516.011769,297.075882 516.011769,296.919176 516.007018,296.767218" id="Fill-103" fill="url(#linearGradient-1)"></path>
                    <polyline id="Fill-105" fill="#60FFE9" points="278 267 185 230.556377 185 214 278 250.443623 278 267"></polyline>
                    <polyline id="Fill-106" fill="#86E6F4" points="439 439 185 336.954806 185 240 439 342.049943 439 439"></polyline>
                    <polyline id="Fill-107" fill="#A9F5EB" points="439 464 185 361.967667 185 348 439 450.027586 439 464"></polyline>
                    <polyline id="Fill-108" fill="#239DDA" points="438 510 386 488.828836 386 450 438 471.175912 438 510"></polyline>
                    <polyline id="Fill-109" fill="#60FFE9" points="277 410 185 374.029792 185 369 277 404.974853 277 410"></polyline>
                    <polyline id="Fill-110" fill="#60FFE9" points="277 422 185 386.033866 185 381 277 416.966134 277 422"></polyline>
                    <polyline id="Fill-111" fill="#60FFE9" points="277 434 185 398.049581 185 393 277 428.950419 277 434"></polyline>
                    <polyline id="Fill-112" fill="#60FFE9" points="277 444 185 408.049581 185 403 277 438.945778 277 444"></polyline>
                    <polyline id="Fill-113" fill="#59EAA0" points="378 451 286 415.025717 286 410 378 445.969639 378 451"></polyline>
                    <polyline id="Fill-114" fill="#59EAA0" points="378 462 286 426.034436 286 421 378 456.965564 378 462"></polyline>
                    <polyline id="Fill-115" fill="#59EAA0" points="378 474 286 438.050153 286 433 378 468.945205 378 474"></polyline>
                    <polyline id="Fill-116" fill="#59EAA0" points="378 485 286 449.050725 286 444 378 479.949275 378 485"></polyline>
                    <polyline id="Fill-117" fill="#A9F5EB" points="441 333 285 270.775624 285 254 441 316.219649 441 333"></polyline>
                    <polyline id="Fill-118" fill="#FFFFFF" points="204 302.279044 204 296.365935 228 292 228 298.314408 208.957074 301.457107 228 320.709767 228 327 204 302.279044"></polyline>
                    <polyline id="Fill-119" fill="#FFFFFF" points="418 390.469678 394 395 394 388.709767 413.000577 385.460699 394 366.324078 394 360 418 384.556569 418 390.469678"></polyline>
                    <path d="M642.995243,192.90088 C642.990485,192.44545 642.952426,191.985277 642.914367,191.529847 C642.895338,191.340084 642.862036,191.145578 642.833492,190.955816 C642.814462,190.827726 642.804948,190.704381 642.785918,190.576291 C642.757374,190.429225 642.747859,190.282159 642.724072,190.130349 C642.628925,189.627479 642.514748,189.129353 642.391056,188.631227 C642.357755,188.522113 642.319696,188.417744 642.286394,188.308631 C642.23882,188.147333 642.191246,187.986034 642.134158,187.819992 C642.043768,187.521117 641.962892,187.222241 641.85823,186.928109 C641.782112,186.69565 641.663178,186.477424 641.56803,186.249709 C641.420552,185.870184 641.263559,185.495403 641.087536,185.125367 C641.011418,184.964069 640.959087,184.788538 640.882969,184.631985 C640.787821,184.45171 640.668887,184.290412 640.568982,184.114882 C640.278782,183.550339 639.950523,183.009516 639.603235,182.492414 C639.403425,182.18405 639.198858,181.885174 638.989534,181.591042 C638.613701,181.092916 638.214082,180.632742 637.804948,180.182057 C637.652712,180.006527 637.50999,179.793044 637.338725,179.627002 C637.272122,179.555841 637.196004,179.5084 637.129401,179.441984 C636.901047,179.219013 636.653663,179.02925 636.411037,178.820512 C636.158896,178.607029 635.921028,178.360338 635.654615,178.165832 C635.530923,178.07095 635.397716,177.999789 635.274025,177.914396 C635.121789,177.814771 634.983825,177.71989 634.841104,177.629753 C634.68411,177.534872 634.531874,177.41627 634.365366,177.321389 C633.994291,177.107906 633.599429,176.918144 633.214082,176.752102 C633.161751,176.728382 633.104662,176.704661 633.042816,176.680941 L402.110371,83.640448 C401.805899,83.5171025 401.49667,83.4079891 401.196955,83.322596 C400.840152,83.2182267 400.483349,83.1423218 400.136061,83.0853931 C399.826832,83.0379525 399.527117,83.0237203 399.222645,83.0142322 C399.194101,83.0142322 399.179829,83.0047441 399.165557,83.0047441 C399.127498,83.0047441 399.098953,83 399.065652,83 C398.680304,83 398.299715,83.0332084 397.933397,83.0901371 C397.481446,83.1707861 397.048525,83.2988757 396.629876,83.4649178 C396.615604,83.4696619 396.591817,83.47915 396.572788,83.4838941 L383,89.1720213 C383.794481,88.8446812 384.655566,88.6833832 385.578497,88.6976153 C385.602284,88.6976153 385.640343,88.7023594 385.668887,88.7071035 C386.582303,88.7355678 387.543292,88.9300742 388.537583,89.3285752 L619.470029,182.369068 C620.088487,182.611015 620.668887,182.947843 621.249286,183.308392 C621.392008,183.403273 621.544244,183.502898 621.701237,183.602524 C622.096099,183.877679 622.471931,184.195531 622.843007,184.518127 C623.076118,184.717378 623.318744,184.90714 623.551855,185.134855 C623.784967,185.357826 623.999049,185.623493 624.23216,185.874928 C624.641294,186.32087 625.040913,186.785787 625.411989,187.288658 C625.630828,187.578045 625.830637,187.876921 626.035205,188.185285 C626.377735,188.702387 626.69648,189.233722 626.991437,189.788777 C627.16746,190.130349 627.34824,190.471922 627.519505,190.822982 C627.690771,191.188275 627.843007,191.563055 627.990485,191.94258 C628.204567,192.459683 628.399619,192.981529 628.566127,193.517608 C628.608944,193.678906 628.67079,193.83546 628.708849,193.992014 C628.918173,194.741575 629.089439,195.505369 629.208373,196.273906 C629.227402,196.397252 629.236917,196.515853 629.251189,196.639199 C629.360609,197.455177 629.43197,198.271155 629.422455,199.077645 L627.433873,412.256699 C627.424358,413.276671 627.300666,414.211251 627.110371,415.079414 C627.067555,415.254944 627.029496,415.416242 626.991437,415.587028 C626.87726,415.990273 626.705994,416.331846 626.558516,416.71137 C626.263559,417.460932 625.906755,418.129844 625.473834,418.718107 C625.307326,418.945822 625.150333,419.178281 624.964795,419.377532 C624.327307,420.074908 623.618459,420.653684 622.785918,421 L636.358706,415.316617 C637.191246,414.965556 637.904853,414.386781 638.532826,413.694149 C638.723121,413.490154 638.884872,413.248207 639.05138,413.025236 C639.484301,412.436973 639.841104,411.777549 640.131304,411.023243 C640.202664,410.838225 640.340628,410.719623 640.402474,410.525117 C640.46432,410.325866 640.507136,410.093407 640.559467,409.884669 C640.602284,409.718627 640.6451,409.566817 640.683159,409.400775 C640.716461,409.234733 640.768792,409.087667 640.802093,408.912137 C640.887726,408.451963 640.944814,407.972813 640.973359,407.469943 C640.997146,407.171067 641.00666,406.872191 641.011418,406.563827 L643,193.384774 C643,193.223476 643,193.062178 642.995243,192.90088" id="Fill-120"></path>
                    <path d="M619.083892,181.735443 L389.123507,88.6370428 C383.609233,86.4012001 379.047167,90.2367858 378.980844,97.2291346 L377.000632,310.545615 C376.939046,317.542711 381.387417,325.028749 386.911165,327.264591 L616.87155,420.362991 C622.390561,422.598834 626.952628,418.763248 627.018951,411.766153 L628.999163,198.454419 C629.070223,191.457324 624.607641,183.971286 619.083892,181.735443" id="Fill-122" fill="#929292"></path>
                    <path d="M617.143312,191.492549 L391.051325,100.309888 C388.344918,99.2179365 386.118911,101.107487 386.080859,104.473544 L386,112.862577 L621.928277,208 L621.999623,199.615715 C622.032918,196.249657 619.854475,192.579752 617.143312,191.492549" id="Fill-123" fill="#86E6F4"></path>
                    <polyline id="Fill-126" fill="#929292" points="386.080858 113 622 208.093975 621.914386 217 386 122.01504 386.080858 113"></polyline>
                    <path d="M385.741283,123 L384.000488,309.407932 C383.962541,312.774805 386.144464,316.388614 388.838664,317.480829 L614.321419,408.680817 C617.020362,409.78253 619.240232,407.94001 619.273435,404.573138 L621,218.165205 L385.741283,123" id="Fill-127" fill="#FFFFFF"></path>
                    <polyline id="Fill-128" fill="#60FFE9" points="450 168.495433 449.854549 184 399 163.504567 399.140603 148 450 168.495433"></polyline>
                    <polyline id="Fill-129" fill="#474846" points="553 267.481039 552.950076 272 530 263.518961 530.044932 259 553 267.481039"></polyline>
                    <polyline id="Fill-130" fill="#F2AE47" points="436 279.410266 435.956894 284 417 276.589734 417.043106 272 436 279.410266"></polyline>
                    <polyline id="Fill-131" fill="#474846" points="458 288.411356 457.952141 293 439 285.588644 439.043073 281 458 288.411356"></polyline>
                    <polyline id="Fill-132" fill="#E26154" points="423 296.408494 422.956916 301 404 293.586873 404.047871 289 423 296.408494"></polyline>
                    <polyline id="Fill-133" fill="#E26154" points="468 304.31398 467.957614 309 438 296.681229 438.037677 292 468 304.31398"></polyline>
                    <polyline id="Fill-134" fill="#474846" points="446 306.417761 445.952129 311 427 303.591506 427.052658 299 446 306.417761"></polyline>
                    <polyline id="Fill-135" fill="#E26154" points="488 298.537448 487.951012 303 465 294.462552 465.034292 290 488 298.537448"></polyline>
                    <polyline id="Fill-136" fill="#4D69CD" points="523 301.348131 522.953024 306 483 289.656625 483.042278 285 523 301.348131"></polyline>
                    <polyline id="Fill-137" fill="#474846" points="539 297.35513 538.961922 302 518 293.649566 518.042838 289 539 297.35513"></polyline>
                    <polyline id="Fill-138" fill="#F2AE47" points="549 290.205434 548.952494 295 529 286.789728 529.047506 282 549 290.205434"></polyline>
                    <polyline id="Fill-139" fill="#E26154" points="589 307.165767 588.956189 312 554 297.834233 554.043811 293 589 307.165767"></polyline>
                    <polyline id="Fill-140" fill="#E26154" points="468 268.269026 467.952912 273 438 260.726201 438.04238 256 468 268.269026"></polyline>
                    <polyline id="Fill-141" fill="#474846" points="513 321.35129 512.957766 326 473 309.653463 473.037541 305 513 321.35129"></polyline>
                    <polyline id="Fill-142" fill="#F2AE47" points="539 332.388466 538.957162 337 518 328.611534 518.033318 324 539 332.388466"></polyline>
                    <polyline id="Fill-143" fill="#474846" points="478 282.352342 477.948381 287 438 270.65241 438.046926 266 478 282.352342"></polyline>
                    <polyline id="Fill-144" fill="#F2AE47" points="552 312.512341 551.955088 317 529 308.483075 529.049902 304 552 312.512341"></polyline>
                    <polyline id="Fill-145" fill="#E26154" points="485 253.565505 484.950959 258 462 249.434495 462.044136 245 485 253.565505"></polyline>
                    <polyline id="Fill-146" fill="#474846" points="478 238.306998 477.953074 243 438 226.693002 438.046926 222 478 238.306998"></polyline>
                    <polyline id="Fill-147" fill="#F2AE47" points="513 286.305938 512.962455 291 473 274.68932 473.037545 270 513 286.305938"></polyline>
                    <polyline id="Fill-148" fill="#474846" points="501 227.116945 500.956764 232 438 205.883055 438.043236 201 501 227.116945"></polyline>
                    <polyline id="Fill-149" fill="#E26154" points="590 262.162127 589.951308 267 555 252.832991 555.038954 248 590 262.162127"></polyline>
                    <polyline id="Fill-150" fill="#F2AE47" points="468 224.309188 467.952912 229 438 216.68602 438.04238 212 468 224.309188"></polyline>
                    <polyline id="Fill-151" fill="#60FFE9" points="454.138205 171 454 186.228549 609.857029 249 610 233.766701 454.138205 171"></polyline>
                    <polyline id="Fill-152" fill="#F2AE47" points="417 230.596244 457.957371 247 458 242.403756 417.037893 226 417 230.596244"></polyline>
                    <polyline id="Fill-153" fill="#474846" points="501 271.117722 500.951963 276 438 249.882278 438.043233 245 501 271.117722"></polyline>
                    <polyline id="Fill-154" fill="#4D69CD" points="489 210.43622 488.957103 215 417 186.56378 417.042897 182 489 210.43622"></polyline>
                    <polyline id="Fill-155" fill="#E26154" points="526 280.210272 525.947719 285 506 276.789728 506.047529 272 526 280.210272"></polyline>
                    <polyline id="Fill-156" fill="#E26154" points="514 241.34759 513.962455 246 474 229.65241 474.037545 225 514 241.34759"></polyline>
                    <polyline id="Fill-157" fill="#4D69CD" points="525 256.302756 524.953019 261 485 244.697244 485.042283 240 525 256.302756"></polyline>
                    <polyline id="Fill-158" fill="#F2AE47" points="518 221.570136 517.965716 226 495 217.425339 495.04408 213 518 221.570136"></polyline>
                    <polyline id="Fill-159" fill="#E26154" points="526 236.208488 525.952471 241 506 232.786672 506.038023 228 526 236.208488"></polyline>
                    <polyline id="Fill-160" fill="#F2AE47" points="539 252.385424 538.952413 257 518 248.614576 518.047587 244 539 252.385424"></polyline>
                    <polyline id="Fill-161" fill="#474846" points="550 246.210272 549.952483 251 530 242.789728 530.052269 238 550 246.210272"></polyline>
                </g>
            </g>
        </g>
    </g>
</svg>