<?xml version="1.0" encoding="UTF-8"?>
<svg width="346px" height="285px" viewBox="0 0 346 285" version="1.1" xmlns="http://www.w3.org/2000/svg" xmlns:xlink="http://www.w3.org/1999/xlink">
    <!-- Generator: Sketch 43.1 (39012) - http://www.bohemiancoding.com/sketch -->
    <title>Group 13</title>
    <desc>Created with Sketch.</desc>
    <defs>
        <linearGradient x1="30.1509797%" y1="92.2033884%" x2="100%" y2="9.73676108%" id="linearGradient-1">
            <stop stop-color="#429BD2" offset="0%"></stop>
            <stop stop-color="#A1B555" offset="41.6701275%"></stop>
            <stop stop-color="#FBC131" offset="100%"></stop>
        </linearGradient>
        <path d="M0,198.75 L0,22.0833333 C0,10.7325 10.7140909,0 22.0454545,0 L171.954545,0 C183.285909,0 194,10.7325 194,22.0833333 C194,24.5213333 192.024727,26.5 189.590909,26.5 C187.157091,26.5 185.181818,24.5213333 185.181818,22.0833333 C185.181818,15.6438333 178.383,8.83333333 171.954545,8.83333333 L22.0454545,8.83333333 C15.617,8.83333333 8.81818182,15.6438333 8.81818182,22.0833333 L8.81818182,198.75 C8.81818182,201.188 6.84290909,203.166667 4.40909091,203.166667 C1.97527273,203.166667 0,201.188 0,198.75 L0,198.75 Z M189.590909,35.3333333 L22.0454545,35.3333333 C19.6116364,35.3333333 17.6363636,37.312 17.6363636,39.75 C17.6363636,42.188 19.6116364,44.1666667 22.0454545,44.1666667 L185.181818,44.1666667 L185.181818,242.916667 C185.181818,249.356167 178.383,256.166667 171.954545,256.166667 L22.0454545,256.166667 C15.617,256.166667 8.81818182,249.356167 8.81818182,242.916667 L8.81818182,220.833333 L171.954545,220.833333 C174.388364,220.833333 176.363636,218.854667 176.363636,216.416667 C176.363636,213.978667 174.388364,212 171.954545,212 L4.40909091,212 C1.97527273,212 0,213.978667 0,216.416667 L0,242.916667 C0,254.2675 10.7140909,265 22.0454545,265 L171.954545,265 C183.285909,265 194,254.2675 194,242.916667 L194,39.75 C194,37.312 192.024727,35.3333333 189.590909,35.3333333 L189.590909,35.3333333 Z M88.1818182,238.5 C88.1818182,243.371583 92.1367727,247.333333 97,247.333333 C101.863227,247.333333 105.818182,243.371583 105.818182,238.5 C105.818182,233.628417 101.863227,229.666667 97,229.666667 C92.1367727,229.666667 88.1818182,233.628417 88.1818182,238.5 L88.1818182,238.5 Z M97.0881818,17.6666667 C94.6543636,17.6666667 92.7011364,19.6453333 92.7011364,22.0833333 C92.7011364,24.5213333 94.6984545,26.5 97.1322727,26.5 C99.5705,26.5 101.541364,24.5213333 101.541364,22.0833333 C101.541364,19.6453333 99.5705,17.6666667 97.1322727,17.6666667 L97.0881818,17.6666667 L97.0881818,17.6666667 Z M163.136364,79.5 C164.265091,79.5 165.393818,79.0671667 166.253591,78.2059167 C167.977545,76.479 167.977545,73.6876667 166.253591,71.96075 L157.435409,63.1274167 C155.711455,61.4005 152.924909,61.4005 151.200955,63.1274167 C149.477,64.8543333 149.477,67.6456667 151.200955,69.3725833 L160.019136,78.2059167 C160.878909,79.0671667 162.007636,79.5 163.136364,79.5 L163.136364,79.5 Z M124.746409,63.1274167 C123.022455,64.8543333 123.022455,67.6456667 124.746409,69.3725833 L160.019136,104.705917 C160.878909,105.567167 162.007636,106 163.136364,106 C164.265091,106 165.393818,105.567167 166.253591,104.705917 C167.977545,102.979 167.977545,100.187667 166.253591,98.46075 L130.980864,63.1274167 C129.256909,61.4005 126.470364,61.4005 124.746409,63.1274167 L124.746409,63.1274167 Z" id="path-2"></path>
        <path d="M62.7123288,137.371313 L62.7123288,-39.6188548 C62.7123288,-50.9904731 73.4632063,-61.7426258 84.833476,-61.7426258 L182.166524,-61.7426258 C193.536794,-61.7426258 204.287671,-50.9904731 204.287671,-39.6188548 C204.287671,-37.1763905 202.305616,-35.1941006 199.863442,-35.1941006 C197.421267,-35.1941006 195.439212,-37.1763905 195.439212,-39.6188548 C195.439212,-46.0701464 188.617051,-52.8931174 182.166524,-52.8931174 L84.833476,-52.8931174 C78.3829495,-52.8931174 71.5607877,-46.0701464 71.5607877,-39.6188548 L71.5607877,137.371313 C71.5607877,139.813777 69.5787329,141.796067 67.1365582,141.796067 C64.6943836,141.796067 62.7123288,139.813777 62.7123288,137.371313 L62.7123288,137.371313 Z M199.863442,-26.3445922 L84.833476,-26.3445922 C82.3913014,-26.3445922 80.4092466,-24.3623024 80.4092466,-21.9198381 C80.4092466,-19.4773737 82.3913014,-17.4950839 84.833476,-17.4950839 L195.439212,-17.4950839 L195.439212,181.618855 C195.439212,188.070146 188.617051,194.893117 182.166524,194.893117 L84.833476,194.893117 C78.3829495,194.893117 71.5607877,188.070146 71.5607877,181.618855 L71.5607877,159.495084 L182.166524,159.495084 C184.608699,159.495084 186.590753,157.512794 186.590753,155.07033 C186.590753,152.627865 184.608699,150.645575 182.166524,150.645575 L67.1365582,150.645575 C64.6943836,150.645575 62.7123288,152.627865 62.7123288,155.07033 L62.7123288,181.618855 C62.7123288,192.990473 73.4632063,203.742626 84.833476,203.742626 L182.166524,203.742626 C193.536794,203.742626 204.287671,192.990473 204.287671,181.618855 L204.287671,-21.9198381 C204.287671,-24.3623024 202.305616,-26.3445922 199.863442,-26.3445922 L199.863442,-26.3445922 Z M124.651541,177.194101 C124.651541,182.074605 128.620075,186.043609 133.5,186.043609 C138.379925,186.043609 142.348459,182.074605 142.348459,177.194101 C142.348459,172.313597 138.379925,168.344592 133.5,168.344592 C128.620075,168.344592 124.651541,172.313597 124.651541,177.194101 L124.651541,177.194101 Z M120.315796,-44.043609 C117.873622,-44.043609 115.913688,-42.0613191 115.913688,-39.6188548 C115.913688,-37.1763905 117.91344,-35.1941006 120.360039,-35.1941006 C122.806637,-35.1941006 124.784268,-37.1763905 124.784268,-39.6188548 C124.784268,-42.0613191 122.806637,-44.043609 120.360039,-44.043609 L120.315796,-44.043609 L120.315796,-44.043609 Z M137.924229,-44.043609 C135.482055,-44.043609 133.5,-42.0613191 133.5,-39.6188548 C133.5,-37.1763905 135.482055,-35.1941006 137.924229,-35.1941006 L155.621147,-35.1941006 C158.063322,-35.1941006 160.045377,-37.1763905 160.045377,-39.6188548 C160.045377,-42.0613191 158.063322,-44.043609 155.621147,-44.043609 L137.924229,-44.043609 L137.924229,-44.043609 Z M173.318065,17.9029497 C174.450668,17.9029497 175.583271,17.4693238 176.445995,16.6064967 C178.175869,14.8764178 178.175869,12.0799732 176.445995,10.3498943 L167.597536,1.50038589 C165.867663,-0.229693002 163.07155,-0.229693002 161.341676,1.50038589 C159.611802,3.23046478 159.611802,6.02690943 161.341676,7.75698832 L170.190135,16.6064967 C171.05286,17.4693238 172.185462,17.9029497 173.318065,17.9029497 L173.318065,17.9029497 Z M134.796299,1.50038589 C133.066426,3.23046478 133.066426,6.02690943 134.796299,7.75698832 L170.190135,43.1550219 C171.05286,44.0178489 172.185462,44.4514748 173.318065,44.4514748 C174.450668,44.4514748 175.583271,44.0178489 176.445995,43.1550219 C178.175869,41.424943 178.175869,38.6284983 176.445995,36.8984194 L141.05216,1.50038589 C139.322286,-0.229693002 136.526173,-0.229693002 134.796299,1.50038589 L134.796299,1.50038589 Z" id="path-3"></path>
    </defs>
    <g id="Page-11" stroke="none" stroke-width="1" fill="none" fill-rule="evenodd">
        <g id="Technologies-V1-Copy" transform="translate(-835.000000, -3062.000000)">
            <g id="Group-15" transform="translate(231.000000, 3062.000000)">
                <g id="Group-13" transform="translate(604.000000, 0.000000)">
                    <g id="ipad">
                        <use fill="#93E1FF" xlink:href="#path-2"></use>
                        <use fill-opacity="0.6" fill="url(#linearGradient-1)" xlink:href="#path-2"></use>
                    </g>
                    <g id="Group-9" transform="translate(79.000000, 143.000000)">
                        <rect id="Rectangle-5" fill="#FFFFFF" x="1" y="0.0827067669" width="265" height="141.834586" rx="20"></rect>
                        <g id="Group-12">
                            <g id="iphone" transform="translate(133.500000, 71.000000) rotate(-90.000000) translate(-133.500000, -71.000000) ">
                                <use fill="#93E1FF" xlink:href="#path-3"></use>
                                <use fill-opacity="0.6" fill="url(#linearGradient-1)" xlink:href="#path-3"></use>
                            </g>
                        </g>
                    </g>
                </g>
            </g>
        </g>
    </g>
</svg>