<?xml version="1.0" encoding="UTF-8"?>
<svg width="21px" height="21px" viewBox="0 0 21 21" version="1.1" xmlns="http://www.w3.org/2000/svg" xmlns:xlink="http://www.w3.org/1999/xlink">
    <!-- Generator: Sketch 43.1 (39012) - http://www.bohemiancoding.com/sketch -->
    <title>phone-handle</title>
    <desc>Created with Sketch.</desc>
    <defs></defs>
    <g id="Contact-Page" stroke="none" stroke-width="1" fill="none" fill-rule="evenodd">
        <g id="Contact-Us-V2" transform="translate(-854.000000, -741.000000)" fill="#236BDA">
            <g id="Group-13" transform="translate(247.000000, 449.000000)">
                <g id="Group-12" transform="translate(607.000000, 7.000000)">
                    <g id="Group-11">
                        <g id="Group-4" transform="translate(0.000000, 59.000000)">
                            <g id="Group-9">
                                <g id="Group-3">
                                    <g id="02-Text" transform="translate(0.000000, 212.000000)">
                                        <g id="Group-8">
                                            <g id="Group-6" transform="translate(0.000000, 14.000000)">
                                                <path d="M18.8026097,16.7673752 C18.939367,16.9042163 18.939367,17.1257519 18.8026097,17.262243 L17.8225739,18.2439292 C17.7543702,18.3121748 17.6648308,18.3464725 17.5752915,18.3464725 C17.4857522,18.3464725 17.3962129,18.3121748 17.3280091,18.2439292 C17.1912518,18.1074381 17.1912518,17.8855525 17.3280091,17.7490614 L18.0607625,17.0151591 L14.5694288,13.5213363 L12.8241117,15.2680727 C11.7090674,16.3838001 9.50626039,16.4313971 7.09814251,14.0218037 C4.86840374,11.7906988 4.74353837,9.73563242 5.62249265,8.55760902 L2.86321277,5.79593858 C2.72680522,5.65944746 2.72680522,5.43756188 2.86321277,5.30107076 C2.99997008,5.16457963 3.22137003,5.16457963 3.35777758,5.30107076 L6.34650194,8.29232626 C6.48325926,8.42881739 6.48325926,8.65035299 6.34650194,8.78719409 C5.47804055,9.65653756 5.5266576,11.4592703 7.59270732,13.5269359 C9.6591068,15.5946015 11.4607357,15.6421984 12.3295469,14.7732049 L14.3221464,12.7790345 C14.4533075,12.6477931 14.6855501,12.6477931 14.8167112,12.7790345 L18.8026097,16.7673752 L18.8026097,16.7673752 Z M13.8205863,15.77029 C13.6841788,15.6334489 13.4627788,15.6334489 13.3260215,15.77029 C13.189614,15.9071311 13.189614,16.1283168 13.3260215,16.2651579 L16.0629166,19.0037298 C14.610351,20.3315435 13.1053211,20.6349737 11.4607357,19.9301196 C11.4366021,19.9206702 8.99700554,18.9207852 5.59975806,15.5211062 C2.2154518,12.1347264 1.20253831,9.68033601 1.18120277,9.62958931 C0.306095881,7.87865316 0.636621864,6.52389125 2.36130295,4.79885341 L4.10662004,3.05246697 L7.59795376,6.54558984 L6.84876153,7.2952411 C6.71200422,7.43173222 6.71200422,7.65326782 6.84876153,7.79010892 C6.98516908,7.92660004 7.20656903,7.92660004 7.34332634,7.79010892 L8.34015073,6.79302375 C8.4055564,6.72722803 8.44228151,6.63833381 8.44228151,6.54558984 C8.44228151,6.45284587 8.4055564,6.36360167 8.34015073,6.29815593 L4.35390245,2.30981525 C4.22274134,2.17857379 3.99049875,2.17857379 3.85933764,2.30981525 L1.86673814,4.30398559 C-0.0887864843,6.26035838 -0.468629043,7.89370218 0.543235158,9.91622068 C0.585556474,10.0205139 1.60686427,12.5158516 5.10484349,16.0159741 C8.60317247,19.5164465 11.0966325,20.53838 11.1935168,20.5768775 C11.8510712,20.8593091 12.4974331,21 13.130504,21 C14.4176317,21 15.6494968,20.4176379 16.8100102,19.2564134 C16.8757656,19.1909676 16.9124908,19.1017234 16.9124908,19.0089795 C16.9124908,18.9162355 16.8757656,18.8273413 16.8100102,18.7615455 L13.8205863,15.77029 L13.8205863,15.77029 Z M18.3349767,2.66679204 C16.5718216,0.902906731 14.0972488,-0.0721298708 11.54293,0.00416516841 C11.3498609,0.00976480431 11.197714,0.170754337 11.2029604,0.363941775 C11.2085566,0.557479191 11.3722457,0.71636886 11.5625167,0.704119657 C13.9202688,0.642873639 16.2126151,1.53356573 17.8404118,3.16165987 C19.4675091,4.78975401 20.363252,7.07965511 20.296797,9.4437514 C20.2915506,9.63693884 20.4436974,9.79792837 20.6367666,9.803528 L20.6469097,9.803528 C20.8354319,9.803528 20.9907267,9.65303779 20.9963229,9.46335012 C21.0676745,6.90781629 20.0977819,4.43032738 18.3349767,2.66679204 L18.3349767,2.66679204 Z M11.5527234,2.80398312 L11.5583196,2.80398312 C13.4082158,2.77108526 15.1577301,3.4472413 16.3563677,4.64661331 C17.5815873,5.87328355 18.2531321,7.62141989 18.1982193,9.44305144 C18.1922734,9.63623888 18.3444203,9.79757839 18.5374894,9.803528 L18.548332,9.803528 C18.7365045,9.803528 18.8917993,9.65373774 18.8977452,9.46405008 C18.9582542,7.45028102 18.2122099,5.5142069 16.8509325,4.15174549 C15.5193849,2.81938212 13.5995361,2.0798802 11.5471272,2.10402863 C11.3544078,2.10717843 11.1998126,2.2660681 11.2029604,2.45925554 C11.2061083,2.65104307 11.3617528,2.80398312 11.5527234,2.80398312 L11.5527234,2.80398312 Z M11.5527234,4.90384659 C12.3340938,4.90384659 13.8051967,5.06343621 14.8726733,6.13156676 C15.9401498,7.20039726 16.0996417,8.6717016 16.0996417,9.45355076 C16.0996417,9.6467382 16.2559857,9.803528 16.4494046,9.803528 C16.6428235,9.803528 16.7991676,9.6467382 16.7991676,9.45355076 C16.7991676,8.56355863 16.6130937,6.88366786 15.3672381,5.63669894 C14.1213825,4.39007999 12.4425203,4.2038921 11.5527234,4.2038921 C11.3593045,4.2038921 11.2029604,4.3606819 11.2029604,4.55386934 C11.2029604,4.74705678 11.3593045,4.90384659 11.5527234,4.90384659 L11.5527234,4.90384659 Z" id="phone-handle"></path>
                                            </g>
                                        </g>
                                    </g>
                                </g>
                            </g>
                        </g>
                    </g>
                </g>
            </g>
        </g>
    </g>
</svg>