<?xml version="1.0" encoding="UTF-8"?>
<svg width="22px" height="27px" viewBox="0 0 22 27" version="1.1" xmlns="http://www.w3.org/2000/svg" xmlns:xlink="http://www.w3.org/1999/xlink">
    <!-- Generator: Sketch 43.1 (39012) - http://www.bohemiancoding.com/sketch -->
    <title>Pin icon</title>
    <desc>Created with Sketch.</desc>
    <defs></defs>
    <g id="Contact-Page" stroke="none" stroke-width="1" fill="none" fill-rule="evenodd">
        <g id="Contact-Us-V2" transform="translate(-853.000000, -519.000000)" stroke="#236BDA">
            <g id="Group-13" transform="translate(247.000000, 449.000000)">
                <g id="Group-12" transform="translate(607.000000, 7.000000)">
                    <g id="Group-11">
                        <g id="Group-4" transform="translate(0.000000, 59.000000)">
                            <g id="Group-9">
                                <g id="Group-3">
                                    <g id="Group">
                                        <g id="Pin-icon" transform="translate(0.000000, 5.000000)">
                                            <path d="M10.014,25.46 C9.501,25.46 9.015,25.298 8.608,24.991 C4.35163845,21.8650733 1.37264392,17.3022555 0.223,12.148 C0.215154696,12.1137666 0.209807283,12.0790084 0.207,12.044 C0.0693678523,11.373398 1.38995002e-05,10.6905799 0,10.006 C-8.32667268e-16,4.489 4.488,0 10.004,0 C15.521,0 20.01,4.489 20.01,10.006 C20.01,10.738 19.931,11.464 19.776,12.164 C19.7731906,12.1980183 19.7678423,12.231779 19.76,12.265 C18.6032642,17.3086632 15.6952235,21.7786197 11.553,24.88 L11.244,25.107 C11.2217704,25.1231493 11.1987412,25.1381684 11.175,25.152 C10.8212154,25.3535071 10.4211468,25.4596408 10.014,25.46 L10.014,25.46 Z M14.287,10.005 C14.2842437,7.64086898 12.3681316,5.72520426 10.004,5.723 C7.64064944,5.7263061 5.72575411,7.64164874 5.723,10.005 C5.72575411,12.3683513 7.64064944,14.2836939 10.004,14.287 C12.3681316,14.2847957 14.2842437,12.369131 14.287,10.005 L14.287,10.005 Z"></path>
                                        </g>
                                    </g>
                                </g>
                            </g>
                        </g>
                    </g>
                </g>
            </g>
        </g>
    </g>
</svg>