<?xml version="1.0" encoding="UTF-8"?>
<svg width="21px" height="21px" viewBox="0 0 21 21" version="1.1" xmlns="http://www.w3.org/2000/svg" xmlns:xlink="http://www.w3.org/1999/xlink">
    <!-- Generator: Sketch 43.1 (39012) - http://www.bohemiancoding.com/sketch -->
    <title>postmark</title>
    <desc>Created with Sketch.</desc>
    <defs></defs>
    <g id="Contact-Page" stroke="none" stroke-width="1" fill="none" fill-rule="evenodd">
        <g id="Contact-Us-V2" transform="translate(-854.000000, -790.000000)" fill="#236BDA">
            <g id="Group-13" transform="translate(247.000000, 449.000000)">
                <g id="Group-12" transform="translate(607.000000, 7.000000)">
                    <g id="Group-11">
                        <g id="Group-4" transform="translate(0.000000, 59.000000)">
                            <g id="Group-9">
                                <g id="Group-3">
                                    <g id="02-Text" transform="translate(0.000000, 212.000000)">
                                        <g id="Group-8">
                                            <g id="Group-7" transform="translate(0.000000, 63.000000)">
                                                <path d="M19.95,3.5 C19.95,3.88605 20.26395,4.2 20.65,4.2 C20.8432,4.2 21,4.3568 21,4.55 L21,5.95 C21,6.1432 20.8432,6.3 20.65,6.3 C20.26395,6.3 19.95,6.61395 19.95,7 C19.95,7.38605 20.26395,7.7 20.65,7.7 C20.8432,7.7 21,7.8568 21,8.05 L21,9.45 C21,9.6432 20.8432,9.8 20.65,9.8 C20.26395,9.8 19.95,10.11395 19.95,10.5 C19.95,10.88605 20.26395,11.2 20.65,11.2 C20.8432,11.2 21,11.3568 21,11.55 L21,12.95 C21,13.1432 20.8432,13.3 20.65,13.3 C20.26395,13.3 19.95,13.61395 19.95,14 C19.95,14.38605 20.26395,14.7 20.65,14.7 C20.8432,14.7 21,14.8568 21,15.05 L21,16.45 C21,16.6432 20.8432,16.8 20.65,16.8 C20.26395,16.8 19.95,17.11395 19.95,17.5 C19.95,17.88605 20.26395,18.2 20.65,18.2 C20.8432,18.2 21,18.3568 21,18.55 L21,20.65 C21,20.8432 20.8432,21 20.65,21 C20.4568,21 20.3,20.8432 20.3,20.65 L20.3,18.85555 C19.69695,18.6998 19.25,18.151 19.25,17.5 C19.25,16.849 19.69695,16.3002 20.3,16.1441 L20.3,15.35555 C19.69695,15.1998 19.25,14.651 19.25,14 C19.25,13.349 19.69695,12.8002 20.3,12.6441 L20.3,11.8559 C19.69695,11.6998 19.25,11.151 19.25,10.5 C19.25,9.849 19.69695,9.3002 20.3,9.1441 L20.3,8.35555 C19.69695,8.1998 19.25,7.651 19.25,7 C19.25,6.349 19.69695,5.8002 20.3,5.6441 L20.3,4.8559 C19.69695,4.6998 19.25,4.151 19.25,3.5 C19.25,2.849 19.69695,2.3002 20.3,2.14445 L20.3,0.7 L18.85555,0.7 C18.6998,1.30305 18.151,1.75 17.5,1.75 C16.849,1.75 16.3002,1.30305 16.1441,0.7 L15.35555,0.7 C15.1998,1.30305 14.651,1.75 14,1.75 C13.349,1.75 12.8002,1.30305 12.6441,0.7 L11.8559,0.7 C11.6998,1.30305 11.151,1.75 10.5,1.75 C9.849,1.75 9.3002,1.30305 9.1441,0.7 L8.35555,0.7 C8.1998,1.30305 7.651,1.75 7,1.75 C6.349,1.75 5.8002,1.30305 5.6441,0.7 L4.8559,0.7 C4.6998,1.30305 4.151,1.75 3.5,1.75 C2.849,1.75 2.3002,1.30305 2.14445,0.7 L0.7,0.7 L0.7,2.14445 C1.30305,2.3002 1.75,2.849 1.75,3.5 C1.75,4.151 1.30305,4.6998 0.7,4.8559 L0.7,5.6441 C1.30305,5.8002 1.75,6.349 1.75,7 C1.75,7.651 1.30305,8.1998 0.7,8.35555 L0.7,9.1441 C1.30305,9.3002 1.75,9.849 1.75,10.5 C1.75,11.151 1.30305,11.6998 0.7,11.8559 L0.7,12.6441 C1.30305,12.8002 1.75,13.349 1.75,14 C1.75,14.651 1.30305,15.1998 0.7,15.35555 L0.7,16.1441 C1.30305,16.3002 1.75,16.849 1.75,17.5 C1.75,18.151 1.30305,18.6998 0.7,18.85555 L0.7,20.3 L2.14445,20.3 C2.3002,19.69695 2.849,19.25 3.5,19.25 C4.151,19.25 4.6998,19.69695 4.8559,20.3 L5.6441,20.3 C5.8002,19.69695 6.349,19.25 7,19.25 C7.651,19.25 8.1998,19.69695 8.35555,20.3 L9.1441,20.3 C9.3002,19.69695 9.849,19.25 10.5,19.25 C11.151,19.25 11.6998,19.69695 11.8559,20.3 L12.6441,20.3 C12.8002,19.69695 13.349,19.25 14,19.25 C14.651,19.25 15.1998,19.69695 15.35555,20.3 L16.1441,20.3 C16.3002,19.69695 16.849,19.25 17.5,19.25 C18.151,19.25 18.6998,19.69695 18.85555,20.3 L19.25,20.3 C19.4432,20.3 19.6,20.4568 19.6,20.65 C19.6,20.8432 19.4432,21 19.25,21 L18.55,21 C18.3568,21 18.2,20.8432 18.2,20.65 C18.2,20.26395 17.88605,19.95 17.5,19.95 C17.11395,19.95 16.8,20.26395 16.8,20.65 C16.8,20.8432 16.6432,21 16.45,21 L15.05,21 C14.8568,21 14.7,20.8432 14.7,20.65 C14.7,20.26395 14.38605,19.95 14,19.95 C13.61395,19.95 13.3,20.26395 13.3,20.65 C13.3,20.8432 13.1432,21 12.95,21 L11.55,21 C11.3568,21 11.2,20.8432 11.2,20.65 C11.2,20.26395 10.88605,19.95 10.5,19.95 C10.11395,19.95 9.8,20.26395 9.8,20.65 C9.8,20.8432 9.6432,21 9.45,21 L8.05,21 C7.8568,21 7.7,20.8432 7.7,20.65 C7.7,20.26395 7.38605,19.95 7,19.95 C6.61395,19.95 6.3,20.26395 6.3,20.65 C6.3,20.8432 6.1432,21 5.95,21 L4.55,21 C4.3568,21 4.2,20.8432 4.2,20.65 C4.2,20.26395 3.88605,19.95 3.5,19.95 C3.11395,19.95 2.8,20.26395 2.8,20.65 C2.8,20.8432 2.6432,21 2.45,21 L0.35,21 C0.1568,21 0,20.8432 0,20.65 L0,18.55 C0,18.3568 0.1568,18.2 0.35,18.2 C0.73605,18.2 1.05,17.88605 1.05,17.5 C1.05,17.11395 0.73605,16.8 0.35,16.8 C0.1568,16.8 0,16.6432 0,16.45 L0,15.05 C0,14.8568 0.1568,14.7 0.35,14.7 C0.73605,14.7 1.05,14.38605 1.05,14 C1.05,13.61395 0.73605,13.3 0.35,13.3 C0.1568,13.3 0,13.1432 0,12.95 L0,11.55 C0,11.3568 0.1568,11.2 0.35,11.2 C0.73605,11.2 1.05,10.88605 1.05,10.5 C1.05,10.11395 0.73605,9.8 0.35,9.8 C0.1568,9.8 0,9.6432 0,9.45 L0,8.05 C0,7.8568 0.1568,7.7 0.35,7.7 C0.73605,7.7 1.05,7.38605 1.05,7 C1.05,6.61395 0.73605,6.3 0.35,6.3 C0.1568,6.3 0,6.1432 0,5.95 L0,4.55 C0,4.3568 0.1568,4.2 0.35,4.2 C0.73605,4.2 1.05,3.88605 1.05,3.5 C1.05,3.11395 0.73605,2.8 0.35,2.8 C0.1568,2.8 0,2.6432 0,2.45 L0,0.35 C0,0.1568 0.1568,0 0.35,0 L2.45,0 C2.6432,0 2.8,0.1568 2.8,0.35 C2.8,0.73605 3.11395,1.05 3.5,1.05 C3.88605,1.05 4.2,0.73605 4.2,0.35 C4.2,0.1568 4.3568,0 4.55,0 L5.95,0 C6.1432,0 6.3,0.1568 6.3,0.35 C6.3,0.73605 6.61395,1.05 7,1.05 C7.38605,1.05 7.7,0.73605 7.7,0.35 C7.7,0.1568 7.8568,0 8.05,0 L9.45,0 C9.6432,0 9.8,0.1568 9.8,0.35 C9.8,0.73605 10.11395,1.05 10.5,1.05 C10.88605,1.05 11.2,0.73605 11.2,0.35 C11.2,0.1568 11.3568,0 11.55,0 L12.95,0 C13.1432,0 13.3,0.1568 13.3,0.35 C13.3,0.73605 13.61395,1.05 14,1.05 C14.38605,1.05 14.7,0.73605 14.7,0.35 C14.7,0.1568 14.8568,0 15.05,0 L16.45,0 C16.6432,0 16.8,0.1568 16.8,0.35 C16.8,0.73605 17.11395,1.05 17.5,1.05 C17.88605,1.05 18.2,0.73605 18.2,0.35 C18.2,0.1568 18.3568,0 18.55,0 L20.65,0 C20.8432,0 21,0.1568 21,0.35 L21,2.45 C21,2.6432 20.8432,2.8 20.65,2.8 C20.26395,2.8 19.95,3.11395 19.95,3.5 L19.95,3.5 Z M17.85,2.8 C18.0432,2.8 18.2,2.9568 18.2,3.15 L18.2,17.85 C18.2,18.0432 18.0432,18.2 17.85,18.2 L3.15,18.2 C2.9568,18.2 2.8,18.0432 2.8,17.85 L2.8,3.15 C2.8,2.9568 2.9568,2.8 3.15,2.8 L17.85,2.8 L17.85,2.8 Z M3.5,17.5 L17.5,17.5 L17.5,3.5 L3.5,3.5 L3.5,17.5 Z M9.53155,10.7814 C9.34675,10.4447 9.2183,10.0737 9.1525,9.6817 C8.8711,9.62885 8.5757,9.5473 8.2698,9.42515 C6.685,8.79095 5.41905,9.4066 5.40645,9.41325 C5.2332,9.49935 5.0232,9.42935 4.93675,9.25645 C4.8503,9.08355 4.92065,8.8732 5.09355,8.78675 C5.1562,8.7556 6.65595,8.02585 8.5302,8.77485 C8.7283,8.8543 8.92115,8.91415 9.107,8.9579 C9.12135,8.60755 9.18645,8.2705 9.2967,7.9541 C8.97225,7.9037 8.62925,7.81865 8.2698,7.67515 C6.685,7.04095 5.41905,7.65695 5.40645,7.6629 C5.2332,7.7497 5.0232,7.679 4.93675,7.50645 C4.8503,7.33355 4.92065,7.1232 5.09355,7.03675 C5.1562,7.0056 6.65595,6.27585 8.5302,7.02485 C8.9131,7.1785 9.27675,7.2576 9.60925,7.2912 C10.2235,6.27935 11.3323,5.6 12.6,5.6 C14.5299,5.6 16.1,7.1701 16.1,9.1 C16.1,11.0299 14.5299,12.6 12.6,12.6 C11.60355,12.6 10.70545,12.17965 10.06775,11.50905 C10.0429,11.50975 10.02085,11.5122 9.99565,11.5122 C9.4899,11.5122 8.9012,11.4275 8.2698,11.17515 C6.685,10.54095 5.41905,11.1566 5.40645,11.1629 C5.2332,11.2497 5.0232,11.17935 4.93675,11.00645 C4.8503,10.83355 4.92065,10.6232 5.09355,10.53675 C5.1562,10.50525 6.65595,9.77585 8.5302,10.52485 C8.8837,10.6666 9.22005,10.7436 9.53155,10.7814 L9.53155,10.7814 Z M11.70645,9.41325 C11.6648,9.4339 10.9914,9.7622 9.99565,9.7622 C9.9589,9.7622 9.91865,9.758 9.88085,9.75695 C9.9736,10.1388 10.1437,10.4895 10.3747,10.7926 C10.99315,10.73135 11.38655,10.5406 11.39355,10.53675 C11.5668,10.4503 11.7768,10.52065 11.8629,10.69355 C11.9497,10.86645 11.87935,11.07645 11.70645,11.1629 C11.68125,11.17585 11.42225,11.30045 11.00365,11.39705 C11.4569,11.7131 12.00675,11.9 12.6,11.9 C14.14385,11.9 15.4,10.64385 15.4,9.1 C15.4,7.55615 14.14385,6.3 12.6,6.3 C11.75055,6.3 10.99,6.6815 10.4762,7.28035 C11.03515,7.21 11.3869,7.04025 11.39355,7.03675 C11.5668,6.9503 11.7768,7.02065 11.8629,7.19355 C11.9497,7.36645 11.87935,7.5768 11.70645,7.6629 C11.66515,7.6839 11.0019,8.00555 10.0205,8.01115 C9.884,8.3328 9.80805,8.6856 9.8021,9.05485 C10.7415,9.1021 11.38445,8.79165 11.39355,8.78675 C11.5668,8.69995 11.7768,8.77065 11.8629,8.94355 C11.9497,9.11645 11.87935,9.32645 11.70645,9.41325 L11.70645,9.41325 Z" id="postmark"></path>
                                            </g>
                                        </g>
                                    </g>
                                </g>
                            </g>
                        </g>
                    </g>
                </g>
            </g>
        </g>
    </g>
</svg>