<?xml version="1.0" encoding="UTF-8"?>
<svg width="96px" height="96px" viewBox="0 0 96 96" version="1.1" xmlns="http://www.w3.org/2000/svg" xmlns:xlink="http://www.w3.org/1999/xlink">
    <!-- Generator: Sketch 43.1 (39012) - http://www.bohemiancoding.com/sketch -->
    <title>speedometer@1x</title>
    <desc>Created with Sketch.</desc>
    <defs>
        <linearGradient x1="32.6555582%" y1="92.2033884%" x2="93.6909266%" y2="9.73676108%" id="linearGradient-1">
            <stop stop-color="#429BD2" offset="0%"></stop>
            <stop stop-color="#A1B555" offset="41.6701275%"></stop>
            <stop stop-color="#FBC131" offset="100%"></stop>
        </linearGradient>
    </defs>
    <g id="Technologies" stroke="none" stroke-width="1" fill="none" fill-rule="evenodd" fill-opacity="0.6">
        <path d="M96,48 C96,74.4672 74.4672,96 48,96 C32.7904,96 18.2592,88.5952 9.1248,76.1904 C8.7824,75.7392 8.6896,75.1296 8.9088,74.6 C9.1568,74.0016 9.728,73.6 10.3744,73.6 L76.8,73.6 C77.6832,73.6 78.4,74.3168 78.4,75.2 C78.4,76.0832 77.6832,76.8 76.8,76.8 L13.6864,76.8 C22.2576,86.8736 34.8592,92.8 48,92.8 C72.7024,92.8 92.8,72.7024 92.8,48 C92.8,23.2976 72.7024,3.2 48,3.2 C23.2976,3.2 3.2,23.2976 3.2,48 C3.2,55.104 4.8144,61.8992 7.9968,68.192 C8.3952,68.9808 8.08,69.9424 7.2912,70.3424 C6.5008,70.7408 5.5392,70.424 5.1408,69.6352 C1.7296,62.8912 0,55.6112 0,48 C0,21.5328 21.5328,0 48,0 C74.4672,0 96,21.5328 96,48 M68.8979423,17.7841853 C68.4478772,18.5554189 67.4641636,18.81088 66.699053,18.3597811 C61.2886282,15.1632842 55.1050559,13.4736842 48.8170042,13.4736842 C29.317936,13.4736842 13.4547504,29.4302989 13.4547504,49.0442105 C13.4547504,57.0637474 15.5057611,63.8027453 19.549917,69.0752674 C20.0916024,69.7818274 19.9614051,70.7972042 19.2589821,71.3436968 C18.9664398,71.5700547 18.6208542,71.68 18.2768759,71.68 C17.7962707,71.68 17.3204876,71.4633432 17.0038347,71.0510484 C12.5787309,65.2821558 10.24,57.67168 10.24,49.0442105 C10.24,27.6485389 27.5466085,10.24 48.8170042,10.24 C55.6772815,10.24 62.4234351,12.0832 68.3257167,15.5707284 C69.0924347,16.0234442 69.3480073,17.0145684 68.8979423,17.7841853 M84.2606661,27.6811571 C84.7132133,28.4476177 84.4426688,29.4252951 83.6589095,29.86693 L77.9807542,33.065583 C77.7216873,33.2111946 77.4396651,33.28 77.162562,33.28 C76.5952383,33.28 76.0443113,32.9935773 75.7393339,32.4799367 C75.2867867,31.7150762 75.5573312,30.7357987 76.3410905,30.2941638 L82.0192458,27.0955108 C82.8046448,26.6522757 83.8064793,26.9146965 84.2606661,27.6811571 M88.2674577,37.0930412 C88.4859681,37.9915107 88.0031061,38.9152655 87.1871304,39.1563183 L81.2842951,40.9010011 C81.1528833,40.9414575 81.0184154,40.96 80.8885316,40.96 C80.213136,40.96 79.5958061,40.4627233 79.4124408,39.7092226 C79.1939304,38.8107531 79.6783205,37.8869983 80.4927681,37.6459455 L86.3971315,35.8995771 C87.2100511,35.6534672 88.0489474,36.192886 88.2674577,37.0930412 M82.3466667,46.08 L89.1733333,46.08 C90.1154133,46.08 90.88,46.94016 90.88,48 C90.88,49.05984 90.1154133,49.92 89.1733333,49.92 L82.3466667,49.92 C81.4045867,49.92 80.64,49.05984 80.64,48 C80.64,46.94016 81.4045867,46.08 82.3466667,46.08 M48,51.2 C46.2352,51.2 44.8,49.7648 44.8,48 C44.8,46.2352 46.2352,44.8 48,44.8 C49.7648,44.8 51.2,46.2352 51.2,48 C51.2,49.7648 49.7648,51.2 48,51.2 M74.090307,19.6654417 L51.4350673,42.320908 C50.4907022,41.7622192 49.4050791,41.4209746 48.2305746,41.4209746 C44.7292814,41.4209746 41.8819016,44.2683829 41.8819016,47.7697111 C41.8819016,48.9442274 42.2231427,50.0298613 42.781826,50.9742359 L37.5854371,56.1706767 C36.9648543,56.7912657 36.9648543,57.7943661 37.5854371,58.4149551 C37.8949349,58.724456 38.30125,58.88 38.707565,58.88 C39.1138801,58.88 39.5201952,58.724456 39.829693,58.4149551 L45.0260819,53.2185142 C45.970447,53.777203 47.0560701,54.1184476 48.2305746,54.1184476 C51.7318678,54.1184476 54.5792476,51.2710393 54.5792476,47.7697111 C54.5792476,46.5951948 54.2380064,45.5095609 53.6793232,44.5651863 L76.3345629,21.9097201 C76.9551457,21.2891311 76.9551457,20.2860307 76.3345629,19.6654417 C75.7139801,19.0448528 74.7108898,19.0448528 74.090307,19.6654417" id="speedometer" fill="url(#linearGradient-1)"></path>
    </g>
</svg>