<?xml version="1.0" encoding="UTF-8"?>
<svg width="135px" height="99px" viewBox="0 0 135 99" version="1.1" xmlns="http://www.w3.org/2000/svg" xmlns:xlink="http://www.w3.org/1999/xlink">
    <!-- Generator: Sketch 43.1 (39012) - http://www.bohemiancoding.com/sketch -->
    <title>Artboard Copy 2</title>
    <desc>Created with Sketch.</desc>
    <defs></defs>
    <g id="Homepage" stroke="none" stroke-width="1" fill="none" fill-rule="evenodd">
        <g id="Artboard-Copy-2">
            <g id="Page-1" transform="translate(30.000000, 9.000000)">
                <path d="M74.8365456,22.6867099 C75.5362421,19.8349571 73.9239761,16.4592859 71.2536325,15.1855149 L43.5487053,1.97547731 C40.8774635,0.701706261 36.4933575,0.671463093 33.8041518,1.90787493 L4.77797487,15.2540068 C2.0896673,16.4895291 0.462131942,19.8349571 1.16272663,22.6867099 L10.9144658,62.4066626 C11.6141623,65.2593049 14.217141,68.9062751 16.6979648,70.512721 L34.1813951,81.8272236 C36.663117,83.4336695 40.6888419,83.3829677 43.1292467,81.716925 L59.3758579,70.6230196 C61.8162627,68.9569769 64.3851099,65.2584154 65.0857046,62.4066626 L74.8365456,22.6867099 Z" id="Fill-4" fill="#93E1FF"></path>
                <path d="M68.8984655,23.6925792 C69.3488345,21.7658736 68.2580408,19.4831366 66.4763811,18.6182319 L41.8123736,6.66240798 C40.0298131,5.79750329 37.1033154,5.7768247 35.3090453,6.61655545 L9.54433596,18.6640844 C7.75006589,19.5038152 6.65116555,21.7658736 7.1006338,23.6925792 L15.6171115,60.1516385 C16.0665797,62.077445 17.7896915,64.5426931 19.4452479,65.6296679 L35.5612519,76.2063194 C37.2168084,77.2923952 39.9046105,77.2600287 41.532244,76.1325957 L56.6042928,65.7033916 C58.2319263,64.5759586 59.9334204,62.077445 60.3828886,60.1516385 L68.8984655,23.6925792 Z" id="Fill-6" fill="#429BD2"></path>
                <path d="M7.44015634,25 C7.87791502,24.052465 8.61471872,23.2378705 9.54518109,22.8060372 L35.3089907,10.8503229 C37.1041616,10.0169918 40.0306594,10.0366206 41.8123192,10.8949338 L66.4763277,22.7605341 C67.3986834,23.2048584 68.129182,24.0283752 68.5633377,24.9821557 L68.8984122,23.5581765 C69.3487812,21.6461545 68.2588882,19.3808143 66.4763277,18.5225011 L41.8123192,6.65690076 C40.0306594,5.79858754 37.1041616,5.77895875 35.3089907,6.61228988 L9.54518109,18.5680042 C7.75091095,19.4013353 6.65110983,21.6461545 7.1005781,23.5581765 L7.44015634,25 Z" id="Fill-8" fill="#93E1FF"></path>
                <path d="M37.9906654,6.7796893 C36.9428491,6.7796893 35.9332808,6.9710059 35.2208013,7.30558748 L9.7779009,19.2303956 C8.38496348,19.8826517 7.50348136,21.7006044 7.85216046,23.1991027 L16.2622648,59.2831931 C16.6571972,60.9747877 18.2146898,63.2100775 19.6654439,64.1631011 L35.5801543,74.6321234 C36.207243,75.0450113 37.0567035,75.2719217 37.9728757,75.2719217 C38.9264063,75.2719217 39.8407994,75.0165363 40.4812304,74.5725038 L55.3650247,64.2485262 C56.7979891,63.2545697 58.3421394,60.9810166 58.7370718,59.2840829 L67.1462867,23.1991027 C67.4976342,21.6952653 66.6205996,19.8541767 65.2312201,19.1796745 L40.8761629,7.34563049 C40.1361093,6.98524341 39.084735,6.7796893 37.9906654,6.7796893 M38.340234,77 L37.4507465,77 C36.1912322,77 35.5178902,76.7205888 34.6026075,76.1199436 L18.6878972,65.6509214 C16.853774,64.4451819 15.0285456,61.8254792 14.5295431,59.6871825 L6.1203283,23.6030922 C5.58485683,21.3046235 6.88706653,18.6199622 9.02272601,17.618887 L34.464737,5.69407883 C35.4200465,5.24648697 36.6724449,5 37.9906654,5 C39.3649236,5 40.6662438,5.26428386 41.6535749,5.74479997 L66.0086322,17.5788439 C68.1265019,18.6083942 69.4135903,21.3108524 68.8790083,23.6030922 L60.468904,59.6871825 C59.9734595,61.8183605 58.1766947,64.4629788 56.3790405,65.7114308 L41.4943567,76.0345186 C40.5506104,76.6894442 39.6664599,77 38.340234,77" id="Fill-12" fill="#429BD2"></path>
                <path d="M39,24 C38.448,24 38,23.6066341 38,23.1219512 L38,6.87804878 C38,6.39336585 38.448,6 39,6 C39.553,6 40,6.39336585 40,6.87804878 L40,23.1219512 C40,23.6066341 39.553,24 39,24" id="Fill-14" fill="#93E1FF"></path>
                <path d="M39,77 C38.448,77 38,76.6055882 38,76.1176471 L38,47.8823529 C38,47.3944118 38.448,47 39,47 C39.553,47 40,47.3944118 40,47.8823529 L40,76.1176471 C40,76.6055882 39.553,77 39,77" id="Fill-16" fill="#93E1FF"></path>
                <path d="M36.70824,24.6701159 C37.143037,23.776628 37.8560683,23.776628 38.29176,24.6701159 L41.4579055,31.1673856 C41.8927025,32.0608735 43.0458987,32.9090526 44.0201661,33.0522282 L51.0976956,34.0943286 C52.071963,34.2384103 52.2920454,34.9234781 51.5870659,35.6203261 L46.4652285,40.6767787 C45.7602489,41.3736267 45.320084,42.7455746 45.4864878,43.7278676 L46.6960466,50.8694272 C46.8624504,51.8517202 46.285405,52.2758097 45.4140216,51.8118485 L39.08352,48.4399739 C38.2130313,47.9769189 36.7869687,47.9769189 35.9155853,48.4399739 L29.5850837,51.8118485 C28.7137004,52.2758097 28.1375496,51.8517202 28.3030587,50.8694272 L29.5135122,43.7278676 C29.679916,42.7455746 29.2388564,41.3736267 28.5338769,40.6767787 L23.4129341,35.6203261 C22.7079546,34.9234781 22.928037,34.2384103 23.9023044,34.0943286 L30.9798339,33.0522282 C31.9541013,32.9090526 33.1072975,32.0608735 33.5420945,31.1673856 L36.70824,24.6701159 Z" id="Fill-18" fill="#3AD0F9"></path>
                <path d="M29.6309497,42 L29.9627572,40.1362272 C30.1396574,39.1350727 29.6691984,37.7367813 28.9156991,37.0265528 L25.700896,34 L23.964405,34.2438236 C22.9230842,34.3897483 22.6878547,35.088894 23.4413541,35.798199 L28.9156991,40.9517432 C29.2025643,41.2214269 29.447356,41.5917802 29.6309497,42" id="Fill-20" fill="#00B3F9"></path>
                <path d="M52.0355119,34.2438236 L50.2998278,34 L47.0837916,37.0274763 C46.3302273,37.7367813 45.8597278,39.1359963 46.0375996,40.1371508 L46.3684793,42 C46.5530452,41.5917802 46.7969016,41.2223505 47.0837916,40.9526668 L52.5586079,35.7991226 C53.3121722,35.088894 53.0769224,34.3897483 52.0355119,34.2438236" id="Fill-22" fill="#00B3F9"></path>
                <path d="M46.5184668,48.0067124 C46.3054972,48.0609076 46.0331754,48.01045 45.7215764,47.8347825 L39.5454575,44.3588101 C38.6953247,43.8803966 37.3040395,43.8803966 36.4547796,44.3588101 L30.2786606,47.8347825 C29.9661888,48.01045 29.6947399,48.0609076 29.4808974,48.0067124 L29.0279006,50.8342104 C28.8655549,51.8471013 29.4285278,52.2844011 30.2786606,51.8059877 L36.4547796,48.3300152 C37.3040395,47.8516018 38.6953247,47.8516018 39.5454575,48.3300152 L45.7215764,51.8059877 C46.5717092,52.2844011 47.1338094,51.8471013 46.9723365,50.8342104 L46.5184668,48.0067124 Z" id="Fill-24" fill="#00B3F9"></path>
                <path d="M38.8506135,1.78723404 C37.1672896,1.78723404 35.3326556,1.9266383 34.1726122,2.46102128 L5.06614951,15.8688511 C2.77308227,16.9251064 1.34014041,19.8767234 1.93727457,22.3145106 L11.7156842,62.2180851 C12.3623544,64.8551489 14.8427579,68.3393617 17.1331231,69.8245532 L34.6643697,81.1913617 C35.6902156,81.858 37.0718202,82.224383 38.5533974,82.224383 C40.0953185,82.224383 41.581399,81.8124255 42.6324632,81.0930638 L58.923508,69.9469787 C61.1814497,68.4028085 63.6366349,64.8631915 64.2842057,62.2180851 L74.0626154,22.3145106 C74.6606502,19.8713617 73.2376155,16.8857872 70.9544555,15.7946809 L43.1737567,2.52357447 C41.9866937,1.95702128 40.5834734,1.78723404 38.8506135,1.78723404 M39.7512683,84 L37.9499586,84 C36.1234306,84 34.9949101,83.5406809 33.6790533,82.6872766 L16.1478067,71.3204681 C13.488173,69.5957872 10.7150567,65.7014043 9.96571188,62.640766 L0.186401548,22.7362979 C-0.613379956,19.4710213 1.23476379,15.6624255 4.30779813,14.2469362 L33.4142608,0.839106383 C34.8066732,0.198382979 36.9115036,0 38.8506135,0 C40.8734843,0 42.5126761,0.224297872 43.9546245,0.913276596 L71.7353232,14.1852766 C74.7822386,15.6400851 76.6114686,19.476383 75.8125877,22.7362979 L66.0350787,62.640766 C65.2866345,65.6969362 62.5540477,69.6342128 59.9457513,71.418766 L43.6547064,82.5648511 C42.291115,83.4977872 41.677769,84 39.7512683,84" id="Fill-26" fill="#429BD2"></path>
                <path d="M37.499803,46.4360619 C38.2474118,46.4360619 38.9625942,46.5920849 39.5129423,46.8759233 L45.8667161,50.1444725 L44.6525274,43.2212833 C44.4336492,41.970455 44.9686848,40.3590991 45.897341,39.4732059 L51.0369261,34.5703821 L43.9355436,33.5593179 C42.6510977,33.3768504 41.2495564,32.3807715 40.6766899,31.2436548 L37.499803,24.9445576 L34.3229162,31.2436548 C33.7491489,32.3807715 32.3494092,33.3768504 31.0640625,33.5593179 L23.96268,34.5703821 L29.1022651,39.4723244 C30.0300205,40.3590991 30.5659569,41.970455 30.3479794,43.2212833 L29.13289,50.1444725 L35.4866638,46.8759233 C36.0370119,46.5920849 36.7521943,46.4360619 37.499803,46.4360619 M46.1153185,52 C45.7748413,52 45.4154486,51.9039181 45.0497509,51.7152801 L38.6752602,48.4361531 C38.0906842,48.1346849 36.9098226,48.1346849 36.3234452,48.4361531 L29.950756,51.7152801 C29.0761438,52.1648378 28.2024323,52.0581781 27.703426,51.4799234 C27.4638309,51.2013739 27.2080226,50.6962826 27.3530407,49.8703304 L28.5717331,42.9233411 C28.6888284,42.2525305 28.342046,41.2097328 27.8439404,40.734612 L22.6881421,35.8168029 C22.0945588,35.2500076 21.8702762,34.5765525 22.0729412,33.9683273 C22.2747055,33.3609836 22.8601822,32.9449223 23.6798497,32.8285662 L30.805552,31.8148576 C31.4937124,31.7170127 32.400751,31.0726466 32.7070003,30.4635399 L35.8955968,24.143287 C36.2612945,23.4169428 36.8458706,23 37.499803,23 C38.1537355,23 38.7383115,23.4169428 39.1040093,24.143287 L42.291705,30.4635399 C42.5988551,31.0726466 43.5058937,31.7170127 44.1940541,31.8148576 L51.3197564,32.8285662 C52.1394239,32.9449223 52.7249006,33.3609836 52.9275656,33.9683273 C53.1293299,34.5765525 52.9050473,35.2500076 52.311464,35.8159215 L47.1556657,40.7354935 C46.6575601,41.2097328 46.3107777,42.2525305 46.427873,42.9233411 L47.6465654,49.8703304 C47.7915835,50.6962826 47.5357752,51.2013739 47.2952794,51.4799234 C47.0070447,51.8157695 46.5873029,52 46.1153185,52" id="Fill-28" fill="#FFFFFF"></path>
                <path d="M25.1153799,65 C24.9493032,65 24.7796931,64.9514896 24.628634,64.8508754 L21.3601046,62.6571266 C20.2223031,61.8908417 19.0756676,60.2334025 18.7514648,58.8831959 L14.0253481,39.1116081 C13.9096245,38.629199 14.2011419,38.1431965 14.6755204,38.0264121 C15.1490155,37.9069328 15.6269275,38.2042837 15.7426511,38.6866928 L20.4678845,58.4582806 C20.6878476,59.3754868 21.5606333,60.6376559 22.3353631,61.1577954 L25.6038925,63.3515442 C26.0102502,63.6255382 26.1224403,64.1825097 25.8538908,64.5966449 C25.6842806,64.8580621 25.401597,65 25.1153799,65" id="Fill-30" fill="#FFFFFF"></path>
                <path d="M10.940388,16 C10.5868046,16 10.2492077,15.8235866 10.0893429,15.5221102 C9.8683533,15.1079942 10.0714757,14.6151963 10.5426067,14.42139 L18.661859,11.0778178 C19.1301689,10.8848398 19.6925169,11.0629096 19.9116258,11.4778538 C20.1307346,11.8919698 19.9285526,12.3847677 19.458362,12.578574 L11.3391097,15.9221462 C11.2093371,15.975153 11.0748625,16 10.940388,16" id="Fill-32" fill="#FFFFFF"></path>
                <path d="M69.0936663,18 C68.9624417,18 68.830312,17.9731211 68.7045174,17.9150281 L41.0667967,5.27502295 C39.5047709,4.56143231 36.861273,4.55102759 35.2938173,5.25334644 L25.2881642,9.73518116 C24.8392854,9.93807327 24.2971919,9.75165531 24.0854224,9.31725809 C23.873653,8.88372794 24.0691325,8.36782706 24.5225362,8.16493495 L34.5272843,3.68310022 C36.5816288,2.76228218 39.7970851,2.77355396 41.8469046,3.70997909 L69.4846253,16.3508513 C69.936219,16.5563446 70.1271735,17.0748467 69.9108791,17.5066427 C69.7552195,17.8179173 69.4321354,18 69.0936663,18" id="Fill-34" fill="#FFFFFF"></path>
                <path d="M42.066724,47 C41.9204227,47 41.7722576,46.962884 41.6334111,46.8846395 L38.7977742,45.2786207 C38.1631805,44.9205016 37.0020883,44.9205016 36.3656309,45.2786207 C35.9108853,45.5364263 35.3471126,45.3488401 35.1076257,44.8573041 C34.8672069,44.3677743 35.0433277,43.7608777 35.4990051,43.5040752 C36.6871211,42.8319749 38.4781477,42.8319749 39.6653319,43.5040752 L42.5019006,45.1090909 C42.9566462,45.3668966 43.1327669,45.9737931 42.8923482,46.464326 C42.725546,46.8043887 42.4012602,47 42.066724,47" id="Fill-36" fill="#FFFFFF"></path>
                <path d="M44.366177,40 C44.1253949,40 43.8846129,39.9139861 43.7031002,39.74281 C43.3456315,39.4064191 43.3530402,38.8664904 43.7197698,38.5386157 L45.982195,36.5100508 L42.8557326,36.0927558 C41.5351357,35.9156183 40.0950738,34.9532849 39.5051577,33.8529885 L38.0956566,31.2291395 C37.8696919,30.8075863 38.0576871,30.2966128 38.5160991,30.0879653 C38.9745111,29.8801694 39.530162,30.0530488 39.7561267,30.4746019 L41.1665539,33.0993026 C41.4832749,33.689477 42.4149162,34.3120131 43.121519,34.4065432 L46.2729856,34.8272447 C47.1157228,34.9405105 47.717678,35.3416247 47.926047,35.9300959 C48.132564,36.5177155 47.9019688,37.1675034 47.2916789,37.7142451 L45.0125842,39.7581392 C44.8329237,39.9199475 44.5995504,40 44.366177,40" id="Fill-38" fill="#FFFFFF"></path>
                <path d="M59,22 C59,21.6104972 58.592128,21.2191529 58.0940269,21.1316759 L53.7151571,20.3526703 C53.217056,20.2642726 52.7355277,19.7836096 52.6480608,19.2854512 L51.8682242,14.9060773 C51.7798366,14.407919 51.3885372,14 51,14 C50.6114628,14 50.2201634,14.407919 50.1317758,14.9060773 L49.3537806,19.2854512 C49.2663137,19.7836096 48.7847854,20.2642726 48.2866843,20.3526703 L43.9059731,21.1316759 C43.407872,21.2191529 43,21.6104972 43,22 C43,22.388582 43.4106341,22.7624309 43.912418,22.8305709 L48.2802394,23.4244936 C48.7820232,23.4926335 49.2626309,23.9567219 49.3482564,24.4558011 L50.1382207,29.0930018 C50.2238462,29.592081 50.6114628,30 51,30 C51.3885372,30 51.7761538,29.592081 51.8617793,29.092081 L52.653585,24.427256 C52.7392105,23.927256 53.2198182,23.4650092 53.721602,23.3996317 L58.087582,22.8259669 C58.5893659,22.7605893 59,22.388582 59,22" id="Fill-52" fill="#FFFFFF"></path>
            </g>
        </g>
    </g>
</svg>