<?xml version="1.0" encoding="UTF-8"?>
<svg width="504px" height="488px" viewBox="0 0 504 488" version="1.1" xmlns="http://www.w3.org/2000/svg" xmlns:xlink="http://www.w3.org/1999/xlink">
    <!-- Generator: Sketch 43.1 (39012) - http://www.bohemiancoding.com/sketch -->
    <title>rocketIcon</title>
    <desc>Created with Sketch.</desc>
    <defs></defs>
    <g id="INTERNALS" stroke="none" stroke-width="1" fill="none" fill-rule="evenodd">
        <g id="HomepageV9-V2" transform="translate(-103.000000, -2824.000000)">
            <g id="Section---Technology-Leadership" transform="translate(0.000000, 2604.000000)">
                <g id="Group-2">
                    <g id="rocketIcon" transform="translate(103.000000, 220.000000)">
                        <g transform="translate(39.000000, 0.000000)" id="Layer_2">
                            <g>
                                <g id="Layer_1-2">
                                    <path d="M285.95792,193.205929 C285.95792,193.205929 317.985916,199.679856 317.985916,228.095353 C317.842139,240.199065 315.451185,252.172101 310.933523,263.411202 C307.037173,273.141474 302.946006,271.164407 300.647159,261.821795 C297.841787,250.191987 291.880372,236.778942 279.451016,233.910256" id="Shape" fill="#239DDA" fill-rule="nonzero"></path>
                                    <path d="M158.469353,193.205929 C158.469353,193.205929 126.441357,199.679856 126.441357,228.095353 C126.58424,240.199158 128.975226,252.172355 133.49375,263.411202 C137.3901,273.141474 141.481267,271.164407 143.780114,261.821795 C146.585486,250.191987 152.546901,236.778942 164.976257,233.910256" id="Shape" fill="#239DDA" fill-rule="nonzero"></path>
                                    <path d="M305.907231,272.676282 L305.478633,272.676282 C301.582283,272.40492 298.698984,268.799679 296.98459,261.860561 C294.490926,251.897692 289.19189,239.53133 278.593819,237.127837 C276.532164,236.646493 275.234374,234.614984 275.671556,232.553446 C275.911667,231.549406 276.544275,230.682075 277.429226,230.143608 C278.314176,229.605141 279.378408,229.439996 280.38614,229.68476 C292.075189,232.282083 300.335451,242.787676 304.621436,260.077324 C304.937856,261.481122 305.408236,262.846112 306.024122,264.147756 C306.608941,263.200218 307.104582,262.200983 307.504735,261.162772 C311.897475,250.517529 314.2116,239.137111 314.323347,227.63016 C314.323347,202.974968 285.568285,196.966234 285.256577,196.927468 C283.168084,196.516867 281.797456,194.514499 282.178461,192.430609 C282.393339,191.421853 283.003309,190.539839 283.873451,189.979659 C284.743594,189.419479 285.8022,189.227299 286.815117,189.445625 C299.010692,191.849119 322.116047,202.897436 322.116047,227.63016 C321.994722,240.080185 319.495659,252.393772 314.751946,263.91516 C313.855785,266.124824 311.245231,272.676282 305.907231,272.676282 Z" id="Shape" fill="#239DDA" fill-rule="nonzero"></path>
                                    <path d="M181.847452,303.03008 C181.847452,311.442308 187.419232,319.195513 193.536501,319.195513 C199.653771,319.195513 201.329201,325.514375 201.329201,334.042901 L201.329201,369.591346 C201.329201,378.119872 206.900981,385.097756 213.018251,385.097756 C219.13552,385.097756 224.7073,378.119872 224.7073,369.591346 L224.7073,330.360128 C224.7073,321.831603 230.16219,314.853718 236.39635,314.853718 C242.589706,314.852417 247.646431,319.780135 247.773691,325.940801 C248.116938,332.511742 253.200149,337.864756 259.774449,338.578526 C265.891718,338.578526 271.463499,330.05 271.463499,321.521474 L271.463499,226.816074 C271.463499,218.287548 265.774828,211.309663 259.774449,211.309663 C253.77407,211.309663 248.085399,217.938654 248.085399,226.157051 C248.085399,234.375449 242.474656,240.965673 236.39635,240.965673 C230.318044,240.965673 224.7073,247.943558 224.7073,256.472083 L224.7073,288.182692 C224.7073,296.711218 219.13552,303.689103 213.018251,303.689103 C206.900981,303.689103 201.329201,296.749984 201.329201,288.182692 L201.329201,237.786859 C201.329201,229.258333 197.705596,222.280449 191.588326,222.280449 C185.471057,222.280449 181.847452,229.374631 181.847452,237.786859 L181.847452,303.03008 Z" id="Shape" fill="#E73030" fill-rule="nonzero"></path>
                                    <path d="M292.854459,136.995192 C292.854459,55.5865385 224.161811,4.06649038 224.161811,4.06649038 C224.161811,4.06649038 155.469163,55.8191346 155.469163,136.995192 C155.469163,161.495321 161.313688,219.217933 163.729425,228.870673 C166.145162,238.523413 188.315393,257.983958 224.122848,257.983958 C259.930303,257.983958 282.06157,238.600946 284.594198,229.219567 C287.126825,219.838189 292.854459,161.766683 292.854459,136.995192 Z" id="Shape" fill="#47C6FF" fill-rule="nonzero"></path>
                                    <path d="M224.7073,152.501603 C205.340249,152.501603 189.640152,136.881076 189.640152,117.612179 C189.640152,98.3432832 205.340249,82.7227564 224.7073,82.7227564 C244.074352,82.7227564 259.774449,98.3432832 259.774449,117.612179 C259.774449,126.86543 256.079885,135.739691 249.503519,142.282727 C242.927153,148.825763 234.007686,152.501603 224.7073,152.501603 L224.7073,152.501603 Z M224.7073,90.7860897 C209.81619,90.7860897 197.744559,102.796539 197.744559,117.612179 C197.744559,132.42782 209.81619,144.438269 224.7073,144.438269 C239.598411,144.438269 251.670041,132.42782 251.670041,117.612179 C251.648582,102.805392 239.589513,90.8074406 224.7073,90.7860897 L224.7073,90.7860897 Z" id="Shape" fill="#5EA7C8" fill-rule="nonzero"></path>
                                    <path d="M224.7073,152.501603 C205.340249,152.501603 189.640152,136.881076 189.640152,117.612179 C189.640152,98.3432832 205.340249,82.7227564 224.7073,82.7227564 C244.074352,82.7227564 259.774449,98.3432832 259.774449,117.612179 C259.774449,126.86543 256.079885,135.739691 249.503519,142.282727 C242.927153,148.825763 234.007686,152.501603 224.7073,152.501603 L224.7073,152.501603 Z M224.7073,90.7860897 C209.81619,90.7860897 197.744559,102.796539 197.744559,117.612179 C197.744559,132.42782 209.81619,144.438269 224.7073,144.438269 C239.598411,144.438269 251.670041,132.42782 251.670041,117.612179 C251.648582,102.805392 239.589513,90.8074406 224.7073,90.7860897 L224.7073,90.7860897 Z" id="Shape" fill="#F4F8FF" fill-rule="nonzero"></path>
                                    <ellipse id="Oval-2" fill="#60FFE9" cx="224.81405" cy="117.234375" rx="30.1033058" ry="30.109375"></ellipse>
                                    <path d="M224.161811,43.9567308 C235.461122,43.9489621 246.639262,41.640231 257.008041,37.1726763 C247.52903,24.4048688 236.496208,12.855029 224.161811,2.78721154 C211.826594,12.8541512 200.79367,24.4040986 191.315582,37.1726763 C201.684361,41.640231 212.862501,43.9489621 224.161811,43.9567308 L224.161811,43.9567308 Z" id="Shape" fill="#FFFFFF" fill-rule="nonzero"></path>
                                    <path d="M290.945248,164.829199 C288.17884,175.102196 263.670799,196.656106 224.044921,196.656106 C184.419043,196.656106 159.833075,175.102196 157.183557,164.441538 C156.949776,163.588686 156.715995,162.348173 156.482214,160.797532 C158.469353,187.391026 161.937104,220.535978 163.729425,227.63016 C166.145162,237.282901 188.315393,256.743446 224.122848,256.743446 C259.930303,256.743446 282.06157,237.360433 284.594198,228.017821 C286.425482,221.233766 289.97116,188.243878 291.763481,161.340256 C291.490737,162.774599 291.256956,164.13141 290.945248,164.829199 Z" id="Shape" fill="#5782F0" fill-rule="nonzero" opacity="0.3"></path>
                                    <path d="M119.505854,125.365385 C119.505854,121.02359 114.284745,117.612179 107.816804,117.612179 L53.7354683,117.612179 C47.2675275,117.612179 41.5788567,121.02359 41.5788567,125.365385 C41.7873056,127.478455 41.0335244,129.57333 39.5245311,131.074676 C38.0155378,132.576021 35.909991,133.325982 33.786157,133.11859 C28.3312672,133.11859 22.0971074,136.995192 22.0971074,140.871795 C22.0971074,144.748397 27.3182163,148.625 33.786157,148.625 L74.3471591,148.625 C80.8150999,148.625 84.4387052,145.058526 84.4387052,140.871795 C84.4387052,136.685064 89.659814,133.11859 96.1277548,133.11859 L107.816804,133.11859 C114.284745,133.11859 119.505854,129.707179 119.505854,125.365385 Z" id="Shape" fill="#47C6FF" fill-rule="nonzero"></path>
                                    <path d="M222.720162,261.046474 C185.743802,261.046474 161.820213,240.578013 158.975878,229.142035 C156.443251,218.985337 150.676653,161.495321 150.676653,136.646298 C150.676653,54.6173878 217.57698,3.25240385 220.421315,1.31410256 C221.806684,0.28034188 223.711566,0.28034188 225.096935,1.31410256 C227.941271,3.44623397 294.841598,54.8112179 294.841598,136.995192 C294.841598,160.603702 289.230854,219.721891 286.503409,230.033654 C283.464256,240.849375 259.579632,261.046474 222.720162,261.046474 Z M222.720162,9.06730769 C210.953185,19.0689423 158.469353,66.98375 158.469353,136.646298 C158.469353,160.448638 164.11906,217.628526 166.534797,227.2425 C168.288154,234.452981 188.276429,253.293269 222.720162,253.293269 C257.163895,253.293269 277.26906,234.608045 279.022417,227.513862 C281.360227,218.830272 287.048898,160.797532 287.048898,136.646298 C287.048898,66.8674519 234.565065,19.0301763 222.759125,9.06730769 L222.720162,9.06730769 Z" id="Shape" fill="#239DDA" fill-rule="nonzero"></path>
                                    <path d="M139.221384,272.676282 C134.000275,272.676282 131.428685,266.124824 130.571488,263.91516 C125.939112,252.367645 123.507933,240.063019 123.402204,227.63016 C123.402204,202.936202 145.96207,191.810353 157.8849,189.406859 C159.81563,189.305532 161.529015,190.628164 161.910067,192.514048 C162.291119,194.399933 161.22457,196.278585 159.404477,196.927468 C158.235572,197.160064 131.194904,202.897436 131.194904,227.63016 C131.315978,239.068673 133.520604,250.390566 137.701808,261.046474 C138.092232,262.082122 138.574692,263.081072 139.143457,264.031458 C139.744528,262.727661 140.201773,261.362878 140.50718,259.961026 C144.715238,242.710144 152.897572,232.165785 164.158023,229.568462 C166.088733,229.412684 167.841283,230.691685 168.271843,232.570703 C168.702402,234.449722 167.68021,236.358101 165.872417,237.050304 C155.391236,239.453798 150.287018,251.82016 147.910244,261.783029 C146.273778,268.799679 143.468406,272.40492 139.649983,272.676282 L139.221384,272.676282 Z" id="Shape" fill="#239DDA" fill-rule="nonzero"></path>
                                    <path d="M463.358729,271.009343 C448.711975,260.298544 428.998362,259.50008 413.525018,268.990917 C398.051675,278.481754 389.913114,296.363822 392.951687,314.194696 C380.2457,311.133796 366.829695,313.771732 356.2492,321.411361 C345.668705,329.05099 338.988569,340.923439 337.974191,353.891106 C319.832241,347.999763 299.932509,354.230723 288.451584,369.397516 C280.133869,355.632078 265.01161,347.388053 248.874163,347.821556 C232.736715,348.255059 218.083607,357.298945 210.524587,371.490881 C196.404987,358.361578 175.402794,355.74961 158.469353,365.016955 C157.080494,350.044503 148.193038,336.779764 134.836639,329.744566 C121.48024,322.709368 105.457868,322.853388 92.231405,330.127532 L92.231405,326.522292 C92.0747258,303.464459 74.2568604,284.337427 51.160192,282.433373 C28.0635236,280.529319 7.32455399,296.477786 3.3556646,319.195513 C37.0266631,382.226342 96.3522709,427.774759 166.170961,444.200198 C235.989651,460.625638 309.536323,446.336552 368.015048,404.984728 C368.375505,403.282666 368.635705,401.561106 368.794318,399.828846 C370.356032,400.313932 371.94284,400.715094 373.547865,401.030593 C416.891803,368.553035 448.419908,322.909073 463.358729,271.009343 L463.358729,271.009343 Z" id="Shape" fill="#FFFFFF" fill-rule="nonzero"></path>
                                    <path d="M225.057972,233.910256 C199.634336,233.777109 175.368854,223.316292 157.8849,204.952035 C156.374193,203.440015 156.374193,200.998046 157.8849,199.486026 C159.404623,197.982975 161.859031,197.982975 163.378753,199.486026 C178.882673,215.998658 200.433808,225.579522 223.14055,226.053984 C245.847291,226.528445 267.783723,217.856261 283.970782,202.005817 C285.490504,200.502767 287.944913,200.502767 289.464635,202.005817 C290.975342,203.517838 290.975342,205.959807 289.464635,207.471827 C272.238402,224.237445 249.154875,233.713052 225.057972,233.910256 Z" id="Shape" fill="#FFFFFF" fill-rule="nonzero"></path>
                                    <path d="M0.5502927,313.070481 C2.49846763,316.972927 4.53755739,320.84953 6.66756198,324.700288 C7.99977927,302.152543 26.6705959,284.491603 49.3715565,284.30609 C71.9314222,284.30609 88.3350551,303.146378 88.3350551,325.863269 L88.3350551,329.197147 C88.2101435,330.63738 88.9010451,332.027124 90.127376,332.802388 C91.3329109,333.494876 92.8181911,333.494876 94.0237259,332.802388 C100.665485,329.212389 108.055394,327.20838 115.609504,326.948718 C136.883574,326.948718 152.507937,343.928237 154.573003,365.210785 C154.685285,366.527096 155.463568,367.695909 156.638068,368.312067 C157.843603,369.004556 159.328883,369.004556 160.534418,368.312067 C167.051074,364.568642 174.340529,362.354439 181.847452,361.838141 C192.211742,361.838141 200.277187,367.110321 207.914032,374.320801 C208.799193,375.151214 210.023409,375.522603 211.223671,375.324841 C212.423933,375.127079 213.46246,374.382868 214.031302,373.312885 C221.679344,359.471009 236.112952,350.683707 251.981749,350.208333 C266.398244,350.208333 277.619731,358.853157 285.139687,371.374583 C285.797211,372.483467 286.965167,373.195214 288.256767,373.274119 C289.551233,373.337427 290.792609,372.756211 291.568664,371.723478 C299.361364,361.295417 309.258092,354.123702 322.116047,354.123702 C327.178471,354.144292 332.176395,355.255191 336.766322,357.380048 C337.896201,357.740731 339.129698,357.569487 340.117183,356.914856 C341.114678,356.248327 341.747283,355.161182 341.831577,353.968638 C342.664969,342.013771 348.750813,331.031711 358.467005,323.949587 C368.183197,316.867464 380.542371,314.404968 392.250344,317.218446 C393.514222,317.515606 394.84383,317.166718 395.796023,316.288061 C396.764839,315.402541 397.2191,314.090402 397.003891,312.799119 C396.637775,310.646822 396.442355,308.469211 396.419439,306.286426 C396.224566,283.694346 414.429999,265.199852 437.136295,264.923077 C446.313643,264.912571 455.220105,268.016769 462.384642,273.722965 C463.189888,271.138563 463.943182,268.450785 464.644525,265.659631 C456.630192,260.140354 447.117024,257.179176 437.370076,257.169872 C424.319229,257.179985 411.810407,262.363857 402.611357,271.574487 C393.412308,280.785117 388.281428,293.263154 388.353994,306.24766 C388.330519,306.686698 388.330519,307.126667 388.353994,307.565705 C361.079545,307.565705 339.143096,323.731138 334.701257,348.618926 C330.585376,347.474949 326.372627,346.709338 322.116047,346.331731 C308.556749,346.331731 297.997641,352.999487 288.802256,362.846058 C279.60687,350.673526 267.372331,342.455128 251.981749,342.455128 C234.950811,342.864247 219.164836,351.424578 209.589463,365.443381 C201.09542,358.891923 192.601377,354.084936 181.847452,354.084936 C174.799671,354.519614 167.886061,356.199876 161.430579,359.046987 C156.832886,336.407628 138.987603,319.195513 115.609504,319.195513 C108.929295,319.463582 102.342647,320.852875 96.1277548,323.304712 C95.1737098,299.35694 76.7278715,279.720166 52.7775169,277.155614 C28.8271622,274.591061 6.60410242,289.873095 0.5502927,313.070481 L0.5502927,313.070481 Z" id="Shape" fill="#BDE7FA" fill-rule="nonzero"></path>
                                    <path d="M462.384642,273.916795 C445.415172,278.843382 433.748634,294.319928 433.74647,311.9075 L433.74647,314.078397 C425.001253,318.663013 418.280215,326.317112 414.888137,335.554776 C396.430303,339.376119 383.203213,355.563146 383.210813,374.320801 C383.227329,376.582686 383.435876,378.839139 383.834229,381.06609 C366.341164,376.799847 348.160358,384.832169 339.610658,400.604167 C333.364302,396.052509 325.945038,393.363379 318.219697,392.850962 C298.737948,392.850962 282.217424,408.589968 278.983454,427.236426 C274.208744,424.952957 268.968068,423.798687 263.670799,423.863782 C254.507819,423.79331 245.563339,426.646472 238.149707,432.004647 C233.432851,415.67743 218.403982,404.443125 201.329201,404.480769 C187.555468,404.374159 174.624536,411.068231 166.807541,422.351907 C158.496446,405.307523 139.157795,396.575108 120.791649,401.573317 C122.651944,388.478354 117.789166,375.32771 107.84257,366.554496 C97.8959743,357.781282 84.1907537,354.554362 71.3469697,357.961538 L71.3469697,355.713109 C70.5989699,333.388903 52.3384616,315.596595 29.8898072,315.31891 C21.1660157,315.586673 12.8455921,319.035946 6.51170799,325.010417 C55.7484306,411.510493 152.125539,460.419623 251.412223,449.291706 C350.698907,438.163789 433.724096,369.147491 462.384642,273.916795 Z" id="Shape" fill="#D6E2EF" fill-rule="nonzero"></path>
                                    <path d="M306.530647,243.136571 L306.063085,243.136571 C303.935848,242.874123 302.42118,240.95141 302.673261,238.833542 C305.244852,217.58976 294.52989,211.697324 294.062328,211.387196 C292.181072,210.392052 291.452083,208.078018 292.425861,206.192548 C293.397511,204.31405 295.702052,203.555509 297.608006,204.486843 C298.270386,204.796971 313.660968,212.782772 310.426997,239.763926 C310.171132,241.706073 308.499314,243.153183 306.530647,243.136571 Z" id="Shape" fill="#FFFFFF" fill-rule="nonzero"></path>
                                    <path d="M277.346987,171.884615 L276.957352,171.884615 C274.712566,171.779864 272.972925,169.893265 273.061002,167.659119 C274.749127,148.403115 274.749127,129.037446 273.061002,109.781442 C272.261842,103.60964 270.555181,97.5882329 267.995747,91.9103045 C267.629832,90.9037033 267.698533,89.7913685 268.18557,88.8369158 C268.672606,87.8824631 269.534627,87.170849 270.567338,86.8707212 C272.773358,86.0687218 275.233687,87.034544 276.294972,89.1191506 C279.13621,95.4381962 281.026735,102.139059 281.905716,109.006122 C283.676856,128.737529 283.676856,148.586733 281.905716,168.318141 C281.5654,170.514822 279.572835,172.073685 277.346987,171.884615 Z" id="Shape" fill="#FFFFFF" fill-rule="nonzero"></path>
                                    <path d="M263.670799,78.8461538 C262.290923,78.7868422 261.045724,78.0051631 260.397865,76.7915545 C256.971164,70.3706334 253.063787,64.2153085 248.708815,58.3776923 C247.376736,56.618161 247.595357,54.1418631 249.215341,52.6403205 C249.970217,51.9491893 250.986536,51.6129548 252.007076,51.7167151 C253.027616,51.8204753 253.954573,52.3542862 254.55334,53.1830449 C259.132816,59.3249046 263.235832,65.8046208 266.826842,72.5660577 C267.857669,74.4983273 267.251676,76.8932665 265.424156,78.1095994 C264.918093,78.5095112 264.311797,78.7642056 263.670799,78.8461538 L263.670799,78.8461538 Z" id="Shape" fill="#FFFFFF" fill-rule="nonzero"></path>
                                    <path d="M170.898709,156.882163 C168.834901,156.885863 167.126184,155.287809 167.002359,153.238157 C164.664549,117.844776 170.080475,105.013221 170.314256,104.509263 C171.235618,102.515848 173.568493,101.594254 175.613292,102.415897 C176.574941,102.795553 177.345345,103.540143 177.754654,104.485509 C178.163963,105.430875 178.178568,106.49939 177.795248,107.455481 C177.795248,107.726843 172.924811,119.821843 175.106767,152.734199 C175.17128,153.80201 174.789433,154.848884 174.051617,155.627005 C173.313801,156.405126 172.285603,156.845325 171.210417,156.843397 L170.898709,156.882163 Z" id="Shape" fill="#FFFFFF" fill-rule="nonzero"></path>
                                    <path d="M137.818698,237.321667 C135.768968,237.326669 134.065824,235.750772 133.922348,233.716426 C132.745133,222.038495 138.353738,210.712684 148.377806,204.525609 C150.260714,203.455115 152.65934,204.10597 153.735287,205.979335 C154.811235,207.8527 154.157064,210.239169 152.274156,211.309663 C144.940774,216.069732 140.895683,224.507906 141.792975,233.173702 C141.949569,235.302414 140.347188,237.156608 138.208333,237.321667 L137.818698,237.321667 Z" id="Shape" fill="#FFFFFF" fill-rule="nonzero"></path>
                                    <path d="M221.044731,136.995192 C219.6527,137.036742 218.34413,136.336259 217.611948,135.157608 C216.879766,133.978958 216.835208,132.501205 217.495058,131.281006 C218.154907,130.060806 219.418919,129.283536 220.81095,129.241987 C235.772934,128.544199 235.928788,118.232436 235.928788,117.80601 C235.874991,115.536562 237.680502,113.653421 239.96151,113.599896 C242.242518,113.546371 244.135252,115.342732 244.18905,117.612179 C244.18905,123.931042 239.396539,136.064808 221.239549,136.995192 L221.044731,136.995192 Z" id="Shape" fill="#FFFFFF" fill-rule="nonzero"></path>
                                    <path d="M226.694439,245.540064 C207.223632,245.201473 188.209745,239.614641 171.677979,229.374631 C170.522592,228.59212 169.874563,227.255782 169.977997,225.869003 C170.081431,224.482224 170.920614,223.25569 172.179435,222.651423 C173.438255,222.047156 174.925468,222.156959 176.080854,222.939471 C177.990065,224.257516 223.81114,254.766378 269.593251,224.839006 C271.400842,223.661463 273.825635,224.164791 275.009177,225.963221 C276.192719,227.761652 275.686827,230.174155 273.879236,231.351699 C259.9175,240.641088 243.490346,245.580697 226.694439,245.540064 L226.694439,245.540064 Z" id="Shape" fill="#FFFFFF" fill-rule="nonzero"></path>
                                    <path d="M119.505854,59.463141 C110.898276,59.463141 103.920455,52.5206847 103.920455,43.9567308 C103.920455,35.3927769 110.898276,28.4503205 119.505854,28.4503205 C128.113432,28.4503205 135.091253,35.3927769 135.091253,43.9567308 C135.091253,52.5206847 128.113432,59.463141 119.505854,59.463141 Z M119.505854,35.6995673 C114.922318,35.6995673 111.206629,39.3964253 111.206629,43.9567308 C111.206629,48.5170362 114.922318,52.2138942 119.505854,52.2138942 C124.08939,52.2138942 127.805079,48.5170362 127.805079,43.9567308 C127.805079,39.3964253 124.08939,35.6995673 119.505854,35.6995673 Z" id="Shape" fill="#47C6FF" fill-rule="nonzero"></path>
                                    <path d="M400.043044,140.871795 C391.435466,140.871795 384.457645,133.929339 384.457645,125.365385 C384.457645,116.801431 391.435466,109.858974 400.043044,109.858974 C408.650623,109.858974 415.628444,116.801431 415.628444,125.365385 C415.628444,133.929339 408.650623,140.871795 400.043044,140.871795 Z M400.043044,117.108221 C395.459509,117.108221 391.743819,120.805079 391.743819,125.365385 C391.743819,129.92569 395.459509,133.622548 400.043044,133.622548 C404.62658,133.622548 408.342269,129.92569 408.342269,125.365385 C408.342269,120.805079 404.62658,117.108221 400.043044,117.108221 L400.043044,117.108221 Z" id="Shape" fill="#47C6FF" fill-rule="nonzero"></path>
                                    <path d="M405.069335,205.49476 C405.069335,203.982885 403.315978,202.47101 401.172986,202.160881 L393.925775,201.075433 C391.682638,200.632517 389.929108,198.887874 389.483936,196.656106 L388.353994,189.445625 C388.042287,187.35226 386.52271,185.569022 385.003134,185.569022 C383.483557,185.569022 381.963981,187.313494 381.652273,189.445625 L380.561295,196.656106 C380.116122,198.887874 378.362593,200.632517 376.119456,201.075433 L368.872245,202.160881 C366.768216,202.47101 364.975895,203.982885 364.975895,205.49476 C364.975895,207.006635 366.729253,208.51851 368.872245,208.828638 L376.119456,209.914087 C378.419799,210.383917 380.188188,212.220511 380.561295,214.527244 L381.652273,221.737724 C381.963981,223.83109 383.483557,225.614327 385.003134,225.614327 C386.52271,225.614327 388.003323,223.869856 388.315031,221.737724 L389.483936,213.403029 C389.870056,211.190042 391.681538,209.498408 393.925775,209.255064 L401.095059,208.71234 C403.315978,208.402212 405.069335,207.006635 405.069335,205.49476 Z" id="Shape" fill="#FFFFFF" fill-rule="nonzero"></path>
                                    <path d="M364.196625,49.6941026 C364.196625,48.1822276 362.443268,46.6703526 360.300275,46.3602244 L353.286846,45.2747756 C351.043709,44.8318595 349.290179,43.0872167 348.845007,40.8554487 L347.754029,33.6449679 C347.442321,31.5516026 345.922744,29.7683654 344.403168,29.7683654 C342.883592,29.7683654 341.364015,31.5128365 341.052307,33.6449679 L339.961329,40.8554487 C339.516157,43.0872167 337.762627,44.8318595 335.51949,45.2747756 L328.27228,46.3602244 C326.168251,46.6703526 324.37593,48.1822276 324.37593,49.6941026 C324.37593,51.2059776 326.129287,52.7178526 328.27228,53.0279808 L335.51949,54.1134295 C337.762627,54.5563456 339.516157,56.3009884 339.961329,58.5327564 L341.052307,65.7432372 C341.364015,67.8366026 342.883592,69.6198397 344.403168,69.6198397 C345.922744,69.6198397 347.403357,67.8753686 347.715065,65.7432372 L348.88397,57.4085417 C349.281289,55.2232457 351.069528,53.5542842 353.286846,53.2993429 L360.456129,52.7566186 C362.482231,52.5627885 364.196625,51.2059776 364.196625,49.6941026 Z" id="Shape" fill="#8FDAFC" fill-rule="nonzero"></path>
                                    <path d="M72.0872762,222.784407 C72.0872762,221.272532 70.3728822,219.760657 68.1909263,219.450529 L61.0606061,218.403846 C58.8174695,217.96093 57.0639395,216.216287 56.6187672,213.984519 L55.4498623,206.774038 C55.1381543,204.680673 53.6185778,202.897436 52.0990014,202.897436 C50.5794249,202.897436 49.0598485,204.641907 48.7481405,206.774038 L47.6571625,213.984519 C47.2119902,216.216287 45.4584603,217.96093 43.2153237,218.403846 L35.9681129,219.489295 C33.864084,219.799423 32.0717631,221.311298 32.0717631,222.823173 C32.0717631,224.335048 33.786157,225.846923 35.9681129,226.157051 L43.2153237,227.2425 C45.4584603,227.685416 47.2119902,229.430059 47.6571625,231.661827 L48.7481405,238.872308 C49.0598485,240.965673 50.5794249,242.74891 52.0990014,242.74891 C53.6185778,242.74891 55.0991908,241.004439 55.4108988,238.872308 L56.5798037,230.537612 C56.9543148,228.296788 58.789312,226.58222 61.0606061,226.350881 L68.2298898,225.808157 C70.3339187,225.653093 72.0872762,224.296282 72.0872762,222.784407 Z" id="Shape" fill="#FFFFFF" fill-rule="nonzero"></path>
                                </g>
                            </g>
                        </g>
                        <g id="iphoneIcon" transform="translate(225.000000, 376.000000)" fill-rule="nonzero">
                            <g id="Layer_2">
                                <g>
                                    <g id="Layer_1-2">
                                        <rect id="Rectangle-path" fill="#47C6FF" x="2" y="1" width="59" height="110" rx="6"></rect>
                                        <path d="M5,105 L5,7 C5,3.69 8.11,1 11.42,1 L8.42,1 C5.1062915,1 2.42,3.6862915 2.42,7 L2.42,105 C2.42,108.313708 5.1062915,111 8.42,111 L11.42,111 C8.11,111 5,108.31 5,105 Z" id="Shape" fill="#47C6FF"></path>
                                        <path d="M55,112 L8,112 C4.13400675,112 1,108.865993 1,105 L1,7 C1,3.13400675 4.13400675,0 8,0 L55,0 C58.8659932,0 62,3.13400675 62,7 L62,105 C62,108.865993 58.8659932,112 55,112 L55,112 Z M8,2 C5.23857625,2 3,4.23857625 3,7 L3,105 C3,107.761424 5.23857625,110 8,110 L55,110 C57.7614237,110 60,107.761424 60,105 L60,7 C60,4.23857625 57.7614237,2 55,2 L8,2 Z" id="Shape" fill="#239DDA"></path>
                                        <rect id="Rectangle-path" fill="#239DDA" x="9" y="1" width="59" height="110" rx="6"></rect>
                                        <rect id="Rectangle-path" fill="#60FFE9" x="16" y="13" width="45" height="82" rx="4"></rect>
                                        <circle id="Oval" fill="#60FFE9" cx="39" cy="102" r="4"></circle>
                                        <path d="M5,27 C5,28.1045695 4.1045695,29 3,29 L3,29 C1.8954305,29 1,28.1045695 1,27 L1,17 C1,15.8954305 1.8954305,15 3,15 L3,15 C4.1045695,15 5,15.8954305 5,17 L5,27 Z" id="Shape" fill="#F4F8FF"></path>
                                        <path d="M44.2,51.1 C44.21527,49.4692694 45.0643081,47.9598683 46.45,47.1 C45.5785242,45.8373782 44.1630284,45.0592261 42.63,45 C41.01,44.83 39.46,46 38.63,46 C37.8,46 36.53,45.06 35.19,45.09 C33.3861126,45.140625 31.7432811,46.1407747 30.87,47.72 C29.03,50.93 30.4,55.72 32.19,58.3 C33.07,59.57 34.11,61.01 35.49,60.96 C36.87,60.91 37.31,60.1 38.91,60.1 C40.51,60.1 40.91,60.96 42.36,60.93 C43.81,60.9 44.68,59.63 45.55,58.35 C46.1739823,57.4242978 46.662266,56.4140555 47,55.35 C45.3036724,54.6172459 44.2038158,52.9478207 44.2,51.1 Z" id="Shape" fill="#239DDA"></path>
                                        <path d="M5,46 C5,47.1045695 4.1045695,48 3,48 L3,48 C1.8954305,48 1,47.1045695 1,46 L1,36 C1,34.8954305 1.8954305,34 3,34 L3,34 C4.1045695,34 5,34.8954305 5,36 L5,46 Z" id="Shape" fill="#F4F8FF"></path>
                                        <path d="M44,8 L33,8 C32.4477153,8 32,7.55228475 32,7 C32,6.44771525 32.4477153,6 33,6 L44,6 C44.5522847,6 45,6.44771525 45,7 C45,7.55228475 44.5522847,8 44,8 Z" id="Shape" fill="#239DDA"></path>
                                        <path d="M3,30 C1.34314575,30 0,28.6568542 0,27 L0,17 C0,15.3431458 1.34314575,14 3,14 C4.65685425,14 6,15.3431458 6,17 L6,27 C6,28.6568542 4.65685425,30 3,30 L3,30 Z M3,16 C2.44771525,16 2,16.4477153 2,17 L2,27 C2,27.5522847 2.44771525,28 3,28 C3.55228475,28 4,27.5522847 4,27 L4,17 C4,16.4477153 3.55228475,16 3,16 Z" id="Shape" fill="#239DDA"></path>
                                        <path d="M3,49 C1.34314575,49 0,47.6568542 0,46 L0,36 C0,34.3431458 1.34314575,33 3,33 C4.65685425,33 6,34.3431458 6,36 L6,46 C6,47.6568542 4.65685425,49 3,49 L3,49 Z M3,35 C2.44771525,35 2,35.4477153 2,36 L2,46 C2,46.5522847 2.44771525,47 3,47 C3.55228475,47 4,46.5522847 4,46 L4,36 C4,35.4477153 3.55228475,35 3,35 Z" id="Shape" fill="#239DDA"></path>
                                        <path d="M42,43.46 C42.7447117,42.4675007 43.1004181,41.2367565 43,40 C41.8486286,40.1321788 40.7993594,40.7235196 40.09,41.64 C39.3154577,42.5821996 38.9260588,43.7825483 39,45 C40.1955471,45.0246982 41.3231953,44.4458388 42,43.46 L42,43.46 Z" id="Shape" fill="#239DDA"></path>
                                        <path d="M47.34,81.59 C46.9337349,81.5923626 46.56642,81.3486962 46.410629,80.9734815 C46.2548381,80.5982668 46.3415401,80.1660905 46.63,79.88 L50.39,76.12 C50.6343899,75.8346238 51.0181184,75.7103181 51.383419,75.7981899 C51.7487195,75.8860617 52.0339383,76.1712805 52.1218101,76.536581 C52.2096819,76.9018816 52.0853762,77.2856101 51.8,77.53 L48,81.29 C47.82527,81.4690352 47.5897804,81.5760759 47.34,81.59 Z" id="Shape" fill="#FFFFFF"></path>
                                        <path d="M24.74,31 C24.3094818,31.0356141 23.9047638,30.7907513 23.7365179,30.3928724 C23.568272,29.9949936 23.6745379,29.5340575 24,29.25 L34.25,19 C34.5090175,18.7409824 34.8865439,18.6398245 35.2403684,18.7346315 C35.594193,18.8294385 35.8705615,19.105807 35.9653685,19.4596316 C36.0601755,19.8134561 35.9590176,20.1909825 35.7,20.45 L25.47,30.7 C25.2780892,30.8958561 25.0141728,31.0043149 24.74,31 Z" id="Shape" fill="#FFFFFF"></path>
                                        <path d="M23.72,45 C23.454197,45.0015368 23.1987188,44.8971865 23.01,44.71 C22.6222764,44.3199625 22.6222764,43.6900375 23.01,43.3 L45.28,21.3 C45.4681405,21.1075873 45.7258913,20.9991245 45.995,20.9991245 C46.2641087,20.9991245 46.5218595,21.1075873 46.71,21.3 C47.0977236,21.6900375 47.0977236,22.3199625 46.71,22.71 L24.44,44.71 C24.2488369,44.8996681 23.9892573,45.004221 23.72,45 L23.72,45 Z" id="Shape" fill="#FFFFFF"></path>
                                        <path d="M47.06,38 C46.626533,38.0045566 46.233973,37.7447181 46.0688107,37.3439242 C45.9036483,36.9431302 45.9991712,36.4821587 46.31,36.18 L56.18,26.31 C56.596975,25.8930251 57.273025,25.8930251 57.69,26.31 C58.1069749,26.726975 58.1069749,27.403025 57.69,27.82 L47.82,37.69 C47.6185768,37.8912024 47.3446843,38.0029217 47.06,38 Z" id="Shape" fill="#FFFFFF"></path>
                                        <path d="M24.15,76.33 C23.7437349,76.3323626 23.37642,76.0886962 23.220629,75.7134815 C23.0648381,75.3382668 23.1515401,74.9060905 23.44,74.62 L32.71,65.35 C33.1067603,65.0102232 33.6981942,65.0330677 34.0675632,65.4024368 C34.4369323,65.7718058 34.4597768,66.3632397 34.12,66.76 L24.85,76 C24.6704116,76.1994878 24.4181658,76.3184037 24.15,76.33 L24.15,76.33 Z" id="Shape" fill="#FFFFFF"></path>
                                        <path d="M62,112 L15,112 C11.1340068,112 8,108.865993 8,105 L8,7 C8,3.13400675 11.1340068,0 15,0 L62,0 C65.8659932,0 69,3.13400675 69,7 L69,105 C69,108.865993 65.8659932,112 62,112 L62,112 Z M15,2 C12.2385763,2 10,4.23857625 10,7 L10,105 C10,107.761424 12.2385763,110 15,110 L62,110 C64.7614237,110 67,107.761424 67,105 L67,7 C67,4.23857625 64.7614237,2 62,2 L15,2 Z" id="Shape" fill="#239DDA"></path>
                                        <path d="M34.62,81.87 C34.2137349,81.8723626 33.84642,81.6286962 33.690629,81.2534815 C33.5348381,80.8782668 33.6215401,80.4460905 33.91,80.16 L53.5,60.58 C53.8921222,60.1878779 54.5278778,60.1878779 54.92,60.58 C55.3121221,60.9721222 55.3121221,61.6078778 54.92,62 L35.33,81.58 C35.1412812,81.7671865 34.885803,81.8715368 34.62,81.87 Z" id="Shape" fill="#FFFFFF"></path>
                                        <path d="M57,85 L20,85 C17.790861,85 16,83.209139 16,81 L16,91 C16,93.209139 17.790861,95 20,95 L57,95 C59.209139,95 61,93.209139 61,91 L61,81 C61,83.209139 59.209139,85 57,85 Z" id="Shape" fill="#47C6FF"></path>
                                        <path d="M39,99.17 C40.9220761,99.2520666 42.5300495,100.656446 42.87,102.55 C42.9538571,102.192653 42.9974618,101.827045 43,101.46 C43,99.250861 41.209139,97.46 39,97.46 C36.790861,97.46 35,99.250861 35,101.46 C35.0025382,101.827045 35.0461429,102.192653 35.13,102.55 C35.4699505,100.656446 37.0779239,99.2520666 39,99.17 Z" id="Shape" fill="#47C6FF"></path>
                                    </g>
                                </g>
                            </g>
                        </g>
                        <g id="systemhealthIcon" transform="translate(354.000000, 284.000000)" fill-rule="nonzero">
                            <g id="Layer_2">
                                <g>
                                    <g id="Layer_1-2">
                                        <rect id="Rectangle-path" fill="#239DDA" x="2.84836364" y="0.893333333" width="126.754545" height="101.773333" rx="8"></rect>
                                        <path d="M118.984727,97.56 L13.4665455,97.56 C7.60228557,97.56 2.84836364,92.7843707 2.84836364,86.8933333 L2.84836364,94 C2.84836364,99.8910373 7.60228557,104.666667 13.4665455,104.666667 L118.984727,104.666667 C124.848987,104.666667 129.602909,99.8910373 129.602909,94 L129.602909,86.8933333 C129.602909,92.7843707 124.848987,97.56 118.984727,97.56 Z" id="Shape" fill="#47C6FF"></path>
                                        <path d="M118.984727,0.906666667 L13.4665455,0.906666667 C7.60228557,0.906666667 2.84836364,5.682296 2.84836364,11.5733333 L2.84836364,84 L129.602909,84 L129.602909,11.5733333 C129.602909,5.682296 124.848987,0.906666667 118.984727,0.906666667 Z" id="Shape" fill="#239DDA"></path>
                                        <path d="M129.271091,85.3333333 L3.61818182,85.3333333 C2.88514933,85.3333333 2.29090909,84.7363797 2.29090909,84 C2.29090909,83.2636203 2.88514933,82.6666667 3.61818182,82.6666667 L129.271091,82.6666667 C130.004123,82.6666667 130.598364,83.2636203 130.598364,84 C130.598364,84.7363797 130.004123,85.3333333 129.271091,85.3333333 Z" id="Shape" fill="#47C6FF"></path>
                                        <ellipse id="Oval" fill="#60FFE9" cx="115.109091" cy="93.3333333" rx="3.98181818" ry="4"></ellipse>
                                        <ellipse id="Oval" fill="#60FFE9" cx="15.5636364" cy="93.3333333" rx="2.65454545" ry="2.66666667"></ellipse>
                                        <ellipse id="Oval" fill="#60FFE9" cx="26.1818182" cy="93.3333333" rx="2.65454545" ry="2.66666667"></ellipse>
                                        <ellipse id="Oval" fill="#60FFE9" cx="36.8" cy="93.3333333" rx="2.65454545" ry="2.66666667"></ellipse>
                                        <ellipse id="Oval" fill="#60FFE9" cx="47.4181818" cy="93.3333333" rx="2.65454545" ry="2.66666667"></ellipse>
                                        <path d="M129.709091,61.3333333 L117.763636,61.3333333 C117.030604,61.3333333 116.436364,60.7363797 116.436364,60 C116.436364,59.2636203 117.030604,58.6666667 117.763636,58.6666667 L129.709091,58.6666667 C130.442123,58.6666667 131.036364,59.2636203 131.036364,60 C131.036364,60.7363797 130.442123,61.3333333 129.709091,61.3333333 Z" id="Shape" fill="#60FFE9"></path>
                                        <path d="M85.8294545,73.3333333 C85.2200094,73.3577007 84.672479,72.9616788 84.5021818,72.3733333 L78.0914545,49.7866667 L75.7023636,60.2933333 C75.5633263,60.9135368 75.0077486,61.3488662 74.3750909,61.3333333 L44.6707273,61.3333333 C44.021686,61.3439683 43.4602112,60.8814567 43.3434545,60.24 L39.7465455,40.32 L36.8,52.8666667 C36.6350677,53.5846368 35.9219794,54.032352 35.2072727,53.8666666 C34.4925661,53.7009812 34.0468859,52.9846368 34.2118182,52.2666667 L38.5652727,33.48 C38.7096957,32.8651099 39.2638675,32.4364491 39.8925455,32.4533333 C40.5415868,32.4426983 41.1030615,32.90521 41.2198182,33.5466667 L45.7856364,58.6666667 L73.3530909,58.6666667 L76.6181818,44.1466667 C76.7509091,43.56 77.3083636,42.68 77.9454545,42.6666667 C78.5825455,42.6533333 79.0470909,43.4933333 79.2727273,44.08 L85.5905455,66.16 L92.3994545,28.6533333 C92.5162112,28.0118766 93.077686,27.549365 93.7267273,27.56 C94.3674825,27.5470191 94.9259532,27.9958357 95.054,28.6266667 L101.146182,58.6666667 L113.781818,58.6666667 C114.514851,58.6666667 115.109091,59.2636203 115.109091,60 C115.109091,60.7363797 114.514851,61.3333333 113.781818,61.3333333 L100.071091,61.3333333 C99.4303357,61.3463143 98.871865,60.8974976 98.7438182,60.2666667 L93.7267273,35.8666667 L87.0903636,72.24 C86.9857201,72.8295912 86.5025914,73.2767535 85.9090909,73.3333333 L85.8294545,73.3333333 Z" id="Shape" fill="#60FFE9"></path>
                                        <path d="M30.4025455,76 L30.4025455,76 C29.7658623,76.0142315 29.2088517,75.5721839 29.0752727,74.9466667 L24.2041818,52 L21.7089091,60.3733333 C21.5336407,60.9563772 20.9873637,61.3460048 20.3816364,61.32 L4.05618182,61.32 C3.32314933,61.32 2.72890909,60.7230463 2.72890909,59.9866667 C2.72890909,59.250287 3.32314933,58.6533333 4.05618182,58.6533333 L19.4392727,58.6533333 L23.1423636,46.2666667 C23.317632,45.6836228 23.863909,45.2939952 24.4696364,45.32 C25.0763999,45.3430905 25.5901962,45.7768698 25.7172727,46.3733333 L30.4689091,68.56 L32.3138182,60.64 C32.4824157,59.9220299 33.1984752,59.4772995 33.9131818,59.6466668 C34.6278884,59.8160341 35.0705974,60.5353632 34.902,61.2533333 L31.7165455,74.9733333 C31.5731506,75.5832393 31.0262953,76.0105134 30.4025455,76 Z" id="Shape" fill="#60FFE9"></path>
                                        <path d="M108.472727,13.3333333 L99.1818182,13.3333333 C98.4487857,13.3333333 97.8545455,12.7363797 97.8545455,12 C97.8545455,11.2636203 98.4487857,10.6666667 99.1818182,10.6666667 L108.472727,10.6666667 C109.20576,10.6666667 109.8,11.2636203 109.8,12 C109.8,12.7363797 109.20576,13.3333333 108.472727,13.3333333 Z" id="Shape" fill="#FFFFFF"></path>
                                        <path d="M91.2181818,13.3333333 L60.6909091,13.3333333 C59.9578766,13.3333333 59.3636364,12.7363797 59.3636364,12 C59.3636364,11.2636203 59.9578766,10.6666667 60.6909091,10.6666667 L91.2181818,10.6666667 C91.9512143,10.6666667 92.5454545,11.2636203 92.5454545,12 C92.5454545,12.7363797 91.9512143,13.3333333 91.2181818,13.3333333 Z" id="Shape" fill="#EFFEFC"></path>
                                        <path d="M50.0727273,13.3333333 L16.8909091,13.3333333 C16.1578766,13.3333333 15.5636364,12.7363797 15.5636364,12 C15.5636364,11.2636203 16.1578766,10.6666667 16.8909091,10.6666667 L50.0727273,10.6666667 C50.8057598,10.6666667 51.4,11.2636203 51.4,12 C51.4,12.7363797 50.8057598,13.3333333 50.0727273,13.3333333 Z" id="Shape" fill="#EFFEFC"></path>
                                        <path d="M97.7483636,20 L76.6181818,20 C75.8851493,20 75.2909091,19.4030463 75.2909091,18.6666667 C75.2909091,17.930287 75.8851493,17.3333333 76.6181818,17.3333333 L97.7483636,17.3333333 C98.4813961,17.3333333 99.0756364,17.930287 99.0756364,18.6666667 C99.0756364,19.4030463 98.4813961,20 97.7483636,20 Z" id="Shape" fill="#47C6FF"></path>
                                        <path d="M67.3272727,20 L16.8909091,20 C16.1578766,20 15.5636364,19.4030463 15.5636364,18.6666667 C15.5636364,17.930287 16.1578766,17.3333333 16.8909091,17.3333333 L67.3272727,17.3333333 C68.0603052,17.3333333 68.6545455,17.930287 68.6545455,18.6666667 C68.6545455,19.4030463 68.0603052,20 67.3272727,20 Z" id="Shape" fill="#EFFEFC"></path>
                                        <path d="M119.090909,104 L12.9090909,104 C6.31179853,104 0.963636364,98.627417 0.963636364,92 L0.963636364,12 C0.963636364,5.372583 6.31179853,0 12.9090909,0 L119.090909,0 C125.688201,0 131.036364,5.372583 131.036364,12 L131.036364,92 C131.036364,98.627417 125.688201,104 119.090909,104 L119.090909,104 Z M12.9090909,2.66666667 C7.77786351,2.66666667 3.61818182,6.84534233 3.61818182,12 L3.61818182,92 C3.61818182,97.1546577 7.77786351,101.333333 12.9090909,101.333333 L119.090909,101.333333 C124.222136,101.333333 128.381818,97.1546577 128.381818,92 L128.381818,12 C128.381818,6.84534233 124.222136,2.66666667 119.090909,2.66666667 L12.9090909,2.66666667 Z" id="Shape" fill="#239DDA"></path>
                                        <path d="M123.072727,55 C122.339695,55 121.745455,54.4030463 121.745455,53.6666667 L121.745455,40.3333333 C121.745455,39.5969537 122.339695,39 123.072727,39 C123.80576,39 124.4,39.5969537 124.4,40.3333333 L124.4,53.6666667 C124.4,54.4030463 123.80576,55 123.072727,55 Z" id="Shape" fill="#FFFFFF"></path>
                                        <path d="M123.072727,33.6 C122.339695,33.6 121.745455,33.0030463 121.745455,32.2666667 L121.745455,14.6666667 C121.745455,10.9847683 118.774253,8 115.109091,8 L47.4181818,8 C46.6851493,8 46.0909091,7.40304633 46.0909091,6.66666667 C46.0909091,5.930287 46.6851493,5.33333333 47.4181818,5.33333333 L115.109091,5.33333333 C120.240318,5.33333333 124.4,9.512009 124.4,14.6666667 L124.4,32.2666667 C124.4,33.0030463 123.80576,33.6 123.072727,33.6 Z" id="Shape" fill="#FFFFFF"></path>
                                        <path d="M37.0256364,8 L16.8909091,8 C16.1578766,8 15.5636364,7.40304633 15.5636364,6.66666667 C15.5636364,5.930287 16.1578766,5.33333333 16.8909091,5.33333333 L37.0256364,5.33333333 C37.7586688,5.33333333 38.3529091,5.930287 38.3529091,6.66666667 C38.3529091,7.40304633 37.7586688,8 37.0256364,8 Z" id="Shape" fill="#FFFFFF"></path>
                                    </g>
                                </g>
                            </g>
                        </g>
                        <g id="serverIcon" transform="translate(0.000000, 266.000000)" fill-rule="nonzero">
                            <g id="Layer_2">
                                <g>
                                    <g id="Layer_1-2">
                                        <rect id="Rectangle-path" fill="#239DDA" x="35.5541791" y="1.21818182" width="88.097207" height="130.193182" rx="8"></rect>
                                        <path d="M111.500047,115.727273 L47.705518,115.727273 C40.9945188,115.727273 35.5541791,110.273287 35.5541791,103.545455 L35.5541791,119.792955 C35.5541791,126.520787 40.9945188,131.974773 47.705518,131.974773 L111.500047,131.974773 C118.211046,131.974773 123.651386,126.520787 123.651386,119.792955 L123.651386,103.545455 C123.651386,110.273287 118.211046,115.727273 111.500047,115.727273 Z" id="Shape" fill="#47C6FF"></path>
                                        <path d="M132.840836,33.5 L124.426034,33.5 C123.587159,33.5 122.907117,32.8182518 122.907117,31.9772727 C122.907117,31.1362937 123.587159,30.4545455 124.426034,30.4545455 L132.840836,30.4545455 C134.017855,30.4935734 135.157992,30.0398299 135.987839,29.2021245 C136.817686,28.3644191 137.262393,27.218309 137.215318,26.0386364 C137.256369,24.8465771 136.814655,23.6885671 135.990691,22.8281184 C135.166727,21.9676696 134.030598,21.4779704 132.840836,21.4704545 L124.426034,21.4704545 C123.587159,21.4704545 122.907117,20.7887063 122.907117,19.9477273 C122.907117,19.1067482 123.587159,18.425 124.426034,18.425 L132.840836,18.425 C134.834792,18.4368773 136.740965,19.2487441 138.133702,20.6793075 C139.526438,22.1098709 140.289738,24.0399807 140.253153,26.0386364 C140.303414,28.0272183 139.539641,29.9497785 138.139441,31.3592432 C136.739242,32.7687078 134.824632,33.5422537 132.840836,33.5 L132.840836,33.5 Z" id="Shape" fill="#239DDA"></path>
                                        <path d="M132.840836,60.9090909 L124.426034,60.9090909 C123.587159,60.9090909 122.907117,60.2273427 122.907117,59.3863636 C122.907117,58.5453846 123.587159,57.8636364 124.426034,57.8636364 L132.840836,57.8636364 C134.017855,57.9026644 135.157992,57.4489208 135.987839,56.6112154 C136.817686,55.77351 137.262393,54.6273999 137.215318,53.4477273 C137.256369,52.255668 136.814655,51.097658 135.990691,50.2372093 C135.166727,49.3767605 134.030598,48.8870613 132.840836,48.8795455 L124.426034,48.8795455 C123.587159,48.8795455 122.907117,48.1977972 122.907117,47.3568182 C122.907117,46.5158391 123.587159,45.8340909 124.426034,45.8340909 L132.840836,45.8340909 C134.834792,45.8459682 136.740965,46.657835 138.133702,48.0883984 C139.526438,49.5189618 140.289738,51.4490716 140.253153,53.4477273 C140.303414,55.4363092 139.539641,57.3588695 138.139441,58.7683341 C136.739242,60.1777987 134.824632,60.9513447 132.840836,60.9090909 L132.840836,60.9090909 Z" id="Shape" fill="#239DDA"></path>
                                        <path d="M132.840836,88.3181818 L124.426034,88.3181818 C123.587159,88.3181818 122.907117,87.6364336 122.907117,86.7954545 C122.907117,85.9544755 123.587159,85.2727273 124.426034,85.2727273 L132.840836,85.2727273 C133.987762,85.3686659 135.121067,84.9696938 135.956345,84.1759329 C136.791624,83.3821721 137.249591,82.2689689 137.215318,81.1156818 C137.362911,78.535177 135.412909,76.3155585 132.840836,76.1363636 L124.426034,76.1363636 C123.587159,76.1363636 122.907117,75.4546154 122.907117,74.6136364 C122.907117,73.7726573 123.587159,73.0909091 124.426034,73.0909091 L132.840836,73.0909091 C137.093868,73.2641682 140.407189,76.8512586 140.253153,81.1156818 C140.289228,83.0769395 139.512114,84.9653172 138.107106,86.3305552 C136.702097,87.6957931 134.795108,88.4155402 132.840836,88.3181818 L132.840836,88.3181818 Z" id="Shape" fill="#239DDA"></path>
                                        <path d="M132.840836,115.727273 L124.426034,115.727273 C123.587159,115.727273 122.907117,115.045525 122.907117,114.204545 C122.907117,113.363566 123.587159,112.681818 124.426034,112.681818 L132.840836,112.681818 C133.987762,112.777757 135.121067,112.378785 135.956345,111.585024 C136.791624,110.791263 137.249591,109.67806 137.215318,108.524773 C137.362911,105.944268 135.412909,103.724649 132.840836,103.545455 L124.426034,103.545455 C123.587159,103.545455 122.907117,102.863706 122.907117,102.022727 C122.907117,101.181748 123.587159,100.5 124.426034,100.5 L132.840836,100.5 C137.093868,100.673259 140.407189,104.260349 140.253153,108.524773 C140.289228,110.48603 139.512114,112.374408 138.107106,113.739646 C136.702097,115.104884 134.795108,115.824631 132.840836,115.727273 L132.840836,115.727273 Z" id="Shape" fill="#239DDA"></path>
                                        <path d="M111.393723,134 L47.5991938,134 C40.0493197,134 33.9289375,127.864266 33.9289375,120.295455 L33.9289375,13.7045455 C33.9289375,6.135734 40.0493197,0 47.5991938,0 L111.393723,0 C118.943597,0 125.063979,6.135734 125.063979,13.7045455 L125.063979,120.295455 C125.063979,127.864266 118.943597,134 111.393723,134 L111.393723,134 Z M47.5991938,3.04545455 C41.7270695,3.04545455 36.9667722,7.8176921 36.9667722,13.7045455 L36.9667722,120.295455 C36.9667722,126.182308 41.7270695,130.954545 47.5991938,130.954545 L111.393723,130.954545 C117.265847,130.954545 122.026145,126.182308 122.026145,120.295455 L122.026145,13.7045455 C122.026145,7.8176921 117.265847,3.04545455 111.393723,3.04545455 L47.5991938,3.04545455 Z" id="Shape" fill="#239DDA"></path>
                                        <path d="M107.945781,35.1445455 L51.2445955,35.1445455 C47.8890959,35.1445455 45.168926,32.4175526 45.168926,29.0536364 L45.168926,33.3629545 C45.168926,36.7268707 47.8890959,39.4538636 51.2445955,39.4538636 L107.945781,39.4538636 C111.30128,39.4538636 114.02145,36.7268707 114.02145,33.3629545 L114.02145,29.0536364 C114.02145,32.4175526 111.30128,35.1445455 107.945781,35.1445455 Z" id="Shape" fill="#47C6FF"></path>
                                        <path d="M108.355888,36.5454545 L52.1559459,36.5454545 C47.9615714,36.5454545 44.5613591,33.1367134 44.5613591,28.9318182 L44.5613591,21.3181818 C44.5613591,17.1132866 47.9615714,13.7045455 52.1559459,13.7045455 L108.355888,13.7045455 C112.550263,13.7045455 115.950475,17.1132866 115.950475,21.3181818 L115.950475,28.9318182 C115.950475,33.1367134 112.550263,36.5454545 108.355888,36.5454545 L108.355888,36.5454545 Z M52.1559459,16.75 C49.6393212,16.75 47.5991938,18.7952447 47.5991938,21.3181818 L47.5991938,28.9318182 C47.5991938,31.4547553 49.6393212,33.5 52.1559459,33.5 L108.355888,33.5 C110.872513,33.5 112.91264,31.4547553 112.91264,28.9318182 L112.91264,21.3181818 C112.91264,18.7952447 110.872513,16.75 108.355888,16.75 L52.1559459,16.75 Z" id="Shape" fill="#86E6F4"></path>
                                        <path d="M90.5541768,30.4545455 C89.1961962,30.5888318 87.8496595,30.1059364 86.8847621,29.1386187 C85.9198647,28.171301 85.4381775,26.8213869 85.5721278,25.46 C85.5721278,22.0643182 87.5770988,19.7954545 90.5541768,19.7954545 C92.0577265,19.7789796 93.5044889,20.3704863 94.5677226,21.436387 C95.6309563,22.5022876 96.2209831,23.9526789 96.2045494,25.46 C96.2045494,28.4445455 93.9413625,30.4545455 90.5541768,30.4545455 Z M90.5541768,22.8409091 C88.8681785,22.8409091 88.6099626,24.4854545 88.6099626,25.46 C88.6099626,26.9827273 89.080827,27.4090909 90.5541768,27.4090909 C91.5262839,27.4090909 93.1667147,27.1502273 93.1667147,25.46 C93.1749449,24.7628773 92.9023398,24.0918966 92.4105985,23.5989218 C91.9188572,23.1059471 91.2495553,22.8326582 90.5541768,22.8409091 Z" id="Shape" fill="#F4F8FF"></path>
                                        <path d="M104.224433,30.4545455 C102.866452,30.5888318 101.519916,30.1059364 100.555018,29.1386187 C99.590121,28.171301 99.1084337,26.8213869 99.2423841,25.46 C99.2423841,22.0643182 101.247355,19.7954545 104.224433,19.7954545 C105.727983,19.7789796 107.174745,20.3704863 108.237979,21.436387 C109.301213,22.5022876 109.891239,23.9526789 109.874806,25.46 C109.874806,28.4445455 107.611619,30.4545455 104.224433,30.4545455 Z M104.224433,22.8409091 C102.538435,22.8409091 102.280219,24.4854545 102.280219,25.46 C102.280219,26.9827273 102.751083,27.4090909 104.224433,27.4090909 C105.19654,27.4090909 106.836971,27.1502273 106.836971,25.46 C106.845201,24.7628773 106.572596,24.0918966 106.080855,23.5989218 C105.589113,23.1059471 104.919812,22.8326582 104.224433,22.8409091 Z" id="Shape" fill="#F4F8FF"></path>
                                        <rect id="Rectangle-path" fill="#239DDA" x="51.3964872" y="20.9679545" width="16.708091" height="8.8775" rx="2"></rect>
                                        <path d="M79.4964584,25.8863636 L74.9397063,25.8863636 C74.1008314,25.8863636 73.4207889,25.2046154 73.4207889,24.3636364 C73.4207889,23.5226573 74.1008314,22.8409091 74.9397063,22.8409091 L79.4964584,22.8409091 C80.3353333,22.8409091 81.0153758,23.5226573 81.0153758,24.3636364 C81.0153758,25.2046154 80.3353333,25.8863636 79.4964584,25.8863636 Z" id="Shape" fill="#60FFE9"></path>
                                        <path d="M64.3072848,30.4545455 L55.1937806,30.4545455 C52.6771559,30.4545455 50.6370285,28.4093008 50.6370285,25.8863636 L50.6370285,24.3636364 C50.6370285,21.8406992 52.6771559,19.7954545 55.1937806,19.7954545 L64.3072848,19.7954545 C66.8239095,19.7954545 68.8640369,21.8406992 68.8640369,24.3636364 L68.8640369,25.8863636 C68.8640369,28.4093008 66.8239095,30.4545455 64.3072848,30.4545455 L64.3072848,30.4545455 Z M55.1937806,22.8409091 C54.3549057,22.8409091 53.6748632,23.5226573 53.6748632,24.3636364 L53.6748632,25.8863636 C53.6748632,26.7273427 54.3549057,27.4090909 55.1937806,27.4090909 L64.3072848,27.4090909 C65.1461597,27.4090909 65.8262021,26.7273427 65.8262021,25.8863636 L65.8262021,24.3636364 C65.8262021,23.5226573 65.1461597,22.8409091 64.3072848,22.8409091 L55.1937806,22.8409091 Z" id="Shape" fill="#F4F8FF"></path>
                                        <path d="M107.945781,62.5536364 L51.2445955,62.5536364 C47.8890959,62.5536364 45.168926,59.8266435 45.168926,56.4627273 L45.168926,60.7720455 C45.168926,64.1359617 47.8890959,66.8629545 51.2445955,66.8629545 L107.945781,66.8629545 C111.30128,66.8629545 114.02145,64.1359617 114.02145,60.7720455 L114.02145,56.4627273 C114.02145,59.8266435 111.30128,62.5536364 107.945781,62.5536364 Z" id="Shape" fill="#47C6FF"></path>
                                        <path d="M108.355888,63.9545455 L52.1559459,63.9545455 C47.9615714,63.9545455 44.5613591,60.5458043 44.5613591,56.3409091 L44.5613591,48.7272727 C44.5613591,44.5223775 47.9615714,41.1136364 52.1559459,41.1136364 L108.355888,41.1136364 C112.550263,41.1136364 115.950475,44.5223775 115.950475,48.7272727 L115.950475,56.3409091 C115.950475,60.5458043 112.550263,63.9545455 108.355888,63.9545455 L108.355888,63.9545455 Z M52.1559459,44.1590909 C49.6393212,44.1590909 47.5991938,46.2043356 47.5991938,48.7272727 L47.5991938,56.3409091 C47.5991938,58.8638462 49.6393212,60.9090909 52.1559459,60.9090909 L108.355888,60.9090909 C110.872513,60.9090909 112.91264,58.8638462 112.91264,56.3409091 L112.91264,48.7272727 C112.91264,46.2043356 110.872513,44.1590909 108.355888,44.1590909 L52.1559459,44.1590909 Z" id="Shape" fill="#86E6F4"></path>
                                        <path d="M90.5541768,57.8636364 C89.1961962,57.9979227 87.8496595,57.5150273 86.8847621,56.5477096 C85.9198647,55.5803919 85.4381775,54.2304778 85.5721278,52.8690909 C85.5721278,49.4734091 87.5770988,47.2045455 90.5541768,47.2045455 C92.0577265,47.1880705 93.5044889,47.7795772 94.5677226,48.8454779 C95.6309563,49.9113785 96.2209831,51.3617698 96.2045494,52.8690909 C96.2045494,55.8536364 93.9413625,57.8636364 90.5541768,57.8636364 Z M90.5541768,50.25 C88.8681785,50.25 88.6099626,51.8945455 88.6099626,52.8690909 C88.6099626,54.3918182 89.080827,54.8181818 90.5541768,54.8181818 C91.5262839,54.8181818 93.1667147,54.5593182 93.1667147,52.8690909 C93.1749449,52.1719682 92.9023398,51.5009875 92.4105985,51.0080127 C91.9188572,50.515038 91.2495553,50.2417492 90.5541768,50.25 L90.5541768,50.25 Z" id="Shape" fill="#F4F8FF"></path>
                                        <path d="M104.224433,57.8636364 C102.866452,57.9979227 101.519916,57.5150273 100.555018,56.5477096 C99.590121,55.5803919 99.1084337,54.2304778 99.2423841,52.8690909 C99.2423841,49.4734091 101.247355,47.2045455 104.224433,47.2045455 C105.727983,47.1880705 107.174745,47.7795772 108.237979,48.8454779 C109.301213,49.9113785 109.891239,51.3617698 109.874806,52.8690909 C109.874806,55.8536364 107.611619,57.8636364 104.224433,57.8636364 Z M104.224433,50.25 C102.538435,50.25 102.280219,51.8945455 102.280219,52.8690909 C102.280219,54.3918182 102.751083,54.8181818 104.224433,54.8181818 C105.19654,54.8181818 106.836971,54.5593182 106.836971,52.8690909 C106.845201,52.1719682 106.572596,51.5009875 106.080855,51.0080127 C105.589113,50.515038 104.919812,50.2417492 104.224433,50.25 L104.224433,50.25 Z" id="Shape" fill="#F4F8FF"></path>
                                        <rect id="Rectangle-path" fill="#239DDA" x="51.3964872" y="48.3770455" width="16.708091" height="8.8775" rx="2"></rect>
                                        <path d="M79.4964584,53.2954545 L74.9397063,53.2954545 C74.1008314,53.2954545 73.4207889,52.6137063 73.4207889,51.7727273 C73.4207889,50.9317482 74.1008314,50.25 74.9397063,50.25 L79.4964584,50.25 C80.3353333,50.25 81.0153758,50.9317482 81.0153758,51.7727273 C81.0153758,52.6137063 80.3353333,53.2954545 79.4964584,53.2954545 Z" id="Shape" fill="#60FFE9"></path>
                                        <path d="M64.3072848,57.8636364 L55.1937806,57.8636364 C52.6771559,57.8636364 50.6370285,55.8183917 50.6370285,53.2954545 L50.6370285,51.7727273 C50.6370285,49.2497901 52.6771559,47.2045455 55.1937806,47.2045455 L64.3072848,47.2045455 C66.8239095,47.2045455 68.8640369,49.2497901 68.8640369,51.7727273 L68.8640369,53.2954545 C68.8640369,55.8183917 66.8239095,57.8636364 64.3072848,57.8636364 L64.3072848,57.8636364 Z M55.1937806,50.25 C54.3549057,50.25 53.6748632,50.9317482 53.6748632,51.7727273 L53.6748632,53.2954545 C53.6748632,54.1364336 54.3549057,54.8181818 55.1937806,54.8181818 L64.3072848,54.8181818 C65.1461597,54.8181818 65.8262021,54.1364336 65.8262021,53.2954545 L65.8262021,51.7727273 C65.8262021,50.9317482 65.1461597,50.25 64.3072848,50.25 L55.1937806,50.25 Z" id="Shape" fill="#F4F8FF"></path>
                                        <path d="M107.945781,89.9627273 L51.2445955,89.9627273 C47.8890959,89.9627273 45.168926,87.2357344 45.168926,83.8718182 L45.168926,88.1811364 C45.168926,91.5450526 47.8890959,94.2720455 51.2445955,94.2720455 L107.945781,94.2720455 C111.30128,94.2720455 114.02145,91.5450526 114.02145,88.1811364 L114.02145,83.8718182 C114.02145,87.2357344 111.30128,89.9627273 107.945781,89.9627273 Z" id="Shape" fill="#47C6FF"></path>
                                        <path d="M108.355888,91.3636364 L52.1559459,91.3636364 C47.9615714,91.3636364 44.5613591,87.9548953 44.5613591,83.75 L44.5613591,76.1363636 C44.5613591,71.9314684 47.9615714,68.5227273 52.1559459,68.5227273 L108.355888,68.5227273 C112.550263,68.5227273 115.950475,71.9314684 115.950475,76.1363636 L115.950475,83.75 C115.950475,87.9548953 112.550263,91.3636364 108.355888,91.3636364 L108.355888,91.3636364 Z M52.1559459,71.5681818 C49.6393212,71.5681818 47.5991938,73.6134265 47.5991938,76.1363636 L47.5991938,83.75 C47.5991938,86.2729372 49.6393212,88.3181818 52.1559459,88.3181818 L108.355888,88.3181818 C110.872513,88.3181818 112.91264,86.2729372 112.91264,83.75 L112.91264,76.1363636 C112.91264,73.6134265 110.872513,71.5681818 108.355888,71.5681818 L52.1559459,71.5681818 Z" id="Shape" fill="#86E6F4"></path>
                                        <path d="M90.5541768,85.2727273 C89.1961962,85.4070136 87.8496595,84.9241182 86.8847621,83.9568005 C85.9198647,82.9894828 85.4381775,81.6395687 85.5721278,80.2781818 C85.5721278,76.8825 87.5770988,74.6136364 90.5541768,74.6136364 C92.0577265,74.5971614 93.5044889,75.1886682 94.5677226,76.2545688 C95.6309563,77.3204694 96.2209831,78.7708607 96.2045494,80.2781818 C96.2045494,83.2627273 93.9413625,85.2727273 90.5541768,85.2727273 Z M90.5541768,77.6590909 C88.8681785,77.6590909 88.6099626,79.3036364 88.6099626,80.2781818 C88.6099626,81.8009091 89.080827,82.2272727 90.5541768,82.2272727 C91.5262839,82.2272727 93.1667147,81.9684091 93.1667147,80.2781818 C93.1749449,79.5810591 92.9023398,78.9100784 92.4105985,78.4171037 C91.9188572,77.9241289 91.2495553,77.6508401 90.5541768,77.6590909 Z" id="Shape" fill="#F4F8FF"></path>
                                        <path d="M104.224433,85.2727273 C102.866452,85.4070136 101.519916,84.9241182 100.555018,83.9568005 C99.590121,82.9894828 99.1084337,81.6395687 99.2423841,80.2781818 C99.2423841,76.8825 101.247355,74.6136364 104.224433,74.6136364 C105.727983,74.5971614 107.174745,75.1886682 108.237979,76.2545688 C109.301213,77.3204694 109.891239,78.7708607 109.874806,80.2781818 C109.874806,83.2627273 107.611619,85.2727273 104.224433,85.2727273 Z M104.224433,77.6590909 C102.538435,77.6590909 102.280219,79.3036364 102.280219,80.2781818 C102.280219,81.8009091 102.751083,82.2272727 104.224433,82.2272727 C105.19654,82.2272727 106.836971,81.9684091 106.836971,80.2781818 C106.845201,79.5810591 106.572596,78.9100784 106.080855,78.4171037 C105.589113,77.9241289 104.919812,77.6508401 104.224433,77.6590909 Z" id="Shape" fill="#F4F8FF"></path>
                                        <rect id="Rectangle-path" fill="#239DDA" x="51.3964872" y="75.7861364" width="16.708091" height="8.8775" rx="2"></rect>
                                        <path d="M79.4964584,80.7045455 L74.9397063,80.7045455 C74.1008314,80.7045455 73.4207889,80.0227972 73.4207889,79.1818182 C73.4207889,78.3408391 74.1008314,77.6590909 74.9397063,77.6590909 L79.4964584,77.6590909 C80.3353333,77.6590909 81.0153758,78.3408391 81.0153758,79.1818182 C81.0153758,80.0227972 80.3353333,80.7045455 79.4964584,80.7045455 Z" id="Shape" fill="#60FFE9"></path>
                                        <path d="M64.3072848,85.2727273 L55.1937806,85.2727273 C52.6771559,85.2727273 50.6370285,83.2274826 50.6370285,80.7045455 L50.6370285,79.1818182 C50.6370285,76.658881 52.6771559,74.6136364 55.1937806,74.6136364 L64.3072848,74.6136364 C66.8239095,74.6136364 68.8640369,76.658881 68.8640369,79.1818182 L68.8640369,80.7045455 C68.8640369,83.2274826 66.8239095,85.2727273 64.3072848,85.2727273 L64.3072848,85.2727273 Z M55.1937806,77.6590909 C54.3549057,77.6590909 53.6748632,78.3408391 53.6748632,79.1818182 L53.6748632,80.7045455 C53.6748632,81.5455245 54.3549057,82.2272727 55.1937806,82.2272727 L64.3072848,82.2272727 C65.1461597,82.2272727 65.8262021,81.5455245 65.8262021,80.7045455 L65.8262021,79.1818182 C65.8262021,78.3408391 65.1461597,77.6590909 64.3072848,77.6590909 L55.1937806,77.6590909 Z" id="Shape" fill="#F4F8FF"></path>
                                        <path d="M108.355888,118.772727 L52.1559459,118.772727 C50.1417362,118.772727 48.2100233,117.970579 46.785762,116.542745 C45.3615007,115.114911 44.5613591,113.178353 44.5613591,111.159091 L44.5613591,103.545455 C44.5613591,99.3405593 47.9615714,95.9318182 52.1559459,95.9318182 L108.355888,95.9318182 C112.550263,95.9318182 115.950475,99.3405593 115.950475,103.545455 L115.950475,111.159091 C115.950475,113.178353 115.150333,115.114911 113.726072,116.542745 C112.301811,117.970579 110.370098,118.772727 108.355888,118.772727 L108.355888,118.772727 Z M52.1559459,98.9772727 C49.6393212,98.9772727 47.5991938,101.022517 47.5991938,103.545455 L47.5991938,111.159091 C47.5991938,113.682028 49.6393212,115.727273 52.1559459,115.727273 L108.355888,115.727273 C110.872513,115.727273 112.91264,113.682028 112.91264,111.159091 L112.91264,103.545455 C112.91264,101.022517 110.872513,98.9772727 108.355888,98.9772727 L52.1559459,98.9772727 Z" id="Shape" fill="#86E6F4"></path>
                                        <path d="M90.5541768,112.681818 C89.1961962,112.816105 87.8496595,112.333209 86.8847621,111.365891 C85.9198647,110.398574 85.4381775,109.04866 85.5721278,107.687273 C85.5721278,104.291591 87.5770988,102.022727 90.5541768,102.022727 C92.0577265,102.006252 93.5044889,102.597759 94.5677226,103.66366 C95.6309563,104.72956 96.2209831,106.179952 96.2045494,107.687273 C96.2045494,110.671818 93.9413625,112.681818 90.5541768,112.681818 Z M90.5541768,105.068182 C88.8681785,105.068182 88.6099626,106.712727 88.6099626,107.687273 C88.6099626,109.21 89.080827,109.636364 90.5541768,109.636364 C91.5262839,109.636364 93.1667147,109.3775 93.1667147,107.687273 C93.1749449,106.99015 92.9023398,106.319169 92.4105985,105.826195 C91.9188572,105.33322 91.2495553,105.059931 90.5541768,105.068182 Z" id="Shape" fill="#F4F8FF"></path>
                                        <path d="M104.224433,112.681818 C102.866452,112.816105 101.519916,112.333209 100.555018,111.365891 C99.590121,110.398574 99.1084337,109.04866 99.2423841,107.687273 C99.2423841,104.291591 101.247355,102.022727 104.224433,102.022727 C105.727983,102.006252 107.174745,102.597759 108.237979,103.66366 C109.301213,104.72956 109.891239,106.179952 109.874806,107.687273 C109.874806,110.671818 107.611619,112.681818 104.224433,112.681818 Z M104.224433,105.068182 C102.538435,105.068182 102.280219,106.712727 102.280219,107.687273 C102.280219,109.21 102.751083,109.636364 104.224433,109.636364 C105.19654,109.636364 106.836971,109.3775 106.836971,107.687273 C106.845201,106.99015 106.572596,106.319169 106.080855,105.826195 C105.589113,105.33322 104.919812,105.059931 104.224433,105.068182 Z" id="Shape" fill="#F4F8FF"></path>
                                        <rect id="Rectangle-path" fill="#239DDA" x="51.3964872" y="103.195227" width="16.708091" height="8.8775" rx="2"></rect>
                                        <path d="M79.4964584,108.113636 L74.9397063,108.113636 C74.1008314,108.113636 73.4207889,107.431888 73.4207889,106.590909 C73.4207889,105.74993 74.1008314,105.068182 74.9397063,105.068182 L79.4964584,105.068182 C80.3353333,105.068182 81.0153758,105.74993 81.0153758,106.590909 C81.0153758,107.431888 80.3353333,108.113636 79.4964584,108.113636 Z" id="Shape" fill="#60FFE9"></path>
                                        <path d="M64.3072848,112.681818 L55.1937806,112.681818 C52.6771559,112.681818 50.6370285,110.636574 50.6370285,108.113636 L50.6370285,106.590909 C50.6370285,104.067972 52.6771559,102.022727 55.1937806,102.022727 L64.3072848,102.022727 C66.8239095,102.022727 68.8640369,104.067972 68.8640369,106.590909 L68.8640369,108.113636 C68.8640369,110.636574 66.8239095,112.681818 64.3072848,112.681818 L64.3072848,112.681818 Z M55.1937806,105.068182 C54.3549057,105.068182 53.6748632,105.74993 53.6748632,106.590909 L53.6748632,108.113636 C53.6748632,108.954615 54.3549057,109.636364 55.1937806,109.636364 L64.3072848,109.636364 C65.1461597,109.636364 65.8262021,108.954615 65.8262021,108.113636 L65.8262021,106.590909 C65.8262021,105.74993 65.1461597,105.068182 64.3072848,105.068182 L55.1937806,105.068182 Z" id="Shape" fill="#F4F8FF"></path>
                                        <path d="M6.58842499,60.9090909 C3.23292541,60.9090909 0.512755543,58.182098 0.512755543,54.8181818 C0.512755543,51.4542656 3.23292541,48.7272727 6.58842499,48.7272727 C9.94392458,48.7272727 12.6640944,51.4542656 12.6640944,54.8181818 C12.6640944,58.182098 9.94392458,60.9090909 6.58842499,60.9090909 Z M6.58842499,51.5747727 C4.80162147,51.5747727 3.35313101,53.0268964 3.35313101,54.8181818 C3.35313101,56.6094672 4.80162147,58.0615909 6.58842499,58.0615909 C8.37522852,58.0615909 9.82371897,56.6094672 9.82371897,54.8181818 C9.82371897,53.9579762 9.48285862,53.1330025 8.87612331,52.5247453 C8.26938799,51.9164881 7.44647831,51.5747727 6.58842499,51.5747727 L6.58842499,51.5747727 Z" id="Shape" fill="#FFFFFF" opacity="0.5"></path>
                                        <path d="M167.851881,67.1979545 C167.851881,66.6040909 167.168369,66.0102273 166.332964,65.8884091 L163.522967,65.4772727 C162.648523,65.3032955 161.964943,64.6180008 161.791401,63.7413636 L161.366104,60.9090909 C161.244591,60.0868182 160.652213,59.3863636 160.059835,59.3863636 C159.467458,59.3863636 158.87508,60.0715909 158.753566,60.9090909 L158.32827,63.7413636 C158.154728,64.6180008 157.471148,65.3032955 156.596704,65.4772727 L153.771517,65.9036364 C152.951302,66.0254545 152.2526,66.6193182 152.2526,67.2131818 C152.2526,67.8070455 152.936113,68.4009091 153.771517,68.5227273 L156.596704,68.9490909 C157.471148,69.1230681 158.154728,69.8083628 158.32827,70.685 L158.753566,73.5172727 C158.87508,74.3395455 159.467458,75.04 160.059835,75.04 C160.652213,75.04 161.229402,74.3547727 161.350915,73.5172727 L161.80659,70.2434091 C161.957112,69.3741492 162.663283,68.7096764 163.538156,68.6140909 L166.332964,68.4009091 C167.168369,68.3247727 167.851881,67.7918182 167.851881,67.1979545 Z" id="Shape" fill="#FFFFFF" opacity="0.5"></path>
                                        <path d="M21.5345718,97.1347727 C21.5345718,96.5409091 20.851059,95.9470455 20.0156545,95.8252273 L17.2208465,95.3988636 C16.3464027,95.2248864 15.6628226,94.5395917 15.4892807,93.6629545 L15.0639839,90.8306818 C14.9424705,90.0084091 14.3500927,89.3079545 13.7577149,89.3079545 C13.1653372,89.3079545 12.5729594,89.9931818 12.451446,90.8306818 L12.0261492,93.6629545 C11.8526072,94.5395917 11.1690272,95.2248864 10.2945834,95.3988636 L7.46939706,95.8252273 C6.64918169,95.9470455 5.9504797,96.5409091 5.9504797,97.1347727 C5.9504797,97.7286364 6.63399251,98.3225 7.46939706,98.4443182 L10.2945834,98.8706818 C11.1690272,99.044659 11.8526072,99.7299537 12.0261492,100.606591 L12.451446,103.438864 C12.5729594,104.261136 13.1653372,104.961591 13.7577149,104.961591 C14.3500927,104.961591 14.9272813,104.276364 15.0487947,103.438864 L15.5044699,100.165 C15.6593569,99.306617 16.3564677,98.6510498 17.2208465,98.5509091 L20.0156545,98.3377273 C20.851059,98.2768182 21.5345718,97.7286364 21.5345718,97.1347727 Z" id="Shape" fill="#FFFFFF" opacity="0.5"></path>
                                        <path d="M118.730094,102.022727 C117.891219,102.022727 117.211177,101.340979 117.211177,100.5 L117.211177,16.4911364 C117.211177,11.2681818 115.008746,9.13636364 109.61659,9.13636364 L73.4207889,9.13636364 C72.581914,9.13636364 71.9018716,8.45461541 71.9018716,7.61363636 C71.9018716,6.77265731 72.581914,6.09090909 73.4207889,6.09090909 L109.61659,6.09090909 C116.664366,6.09090909 120.249011,9.59318182 120.249011,16.4911364 L120.249011,100.5 C120.249011,101.340979 119.568969,102.022727 118.730094,102.022727 Z" id="Shape" fill="#FFFFFF"></path>
                                        <path d="M63.806042,9.13636364 L50.1357858,9.13636364 C49.2969109,9.13636364 48.6168684,8.45461541 48.6168684,7.61363636 C48.6168684,6.77265731 49.2969109,6.09090909 50.1357858,6.09090909 L63.806042,6.09090909 C64.6449169,6.09090909 65.3249594,6.77265731 65.3249594,7.61363636 C65.3249594,8.45461541 64.6449169,9.13636364 63.806042,9.13636364 Z" id="Shape" fill="#FFFFFF"></path>
                                    </g>
                                </g>
                            </g>
                        </g>
                    </g>
                </g>
            </g>
        </g>
    </g>
</svg>