<svg xmlns="http://www.w3.org/2000/svg" xmlns:xlink="http://www.w3.org/1999/xlink" viewBox="0 0 897 276">
  <defs>
    <style>
      .cls-1 {
        fill: url(#radial-gradient);
      }

      .cls-2 {
        opacity: 0.89;
        fill: url(#radial-gradient-2);
      }

      .cls-3 {
        opacity: 0.85;
        fill: url(#radial-gradient-3);
      }

      .cls-4 {
        fill: #727376;
        stroke: #727376;
        stroke-miterlimit: 10;
        stroke-width: 0.35px;
      }

      .cls-5 {
        fill: none;
      }

      .cls-6 {
        fill: #1e90c7;
      }

      .cls-7 {
        fill: #1e91c7;
      }

      .cls-8 {
        fill: #fefefe;
      }
    </style>
    <radialGradient id="radial-gradient" cx="83.5" cy="143.5" r="59.5" gradientTransform="translate(0 -143.5) scale(1 2)" gradientUnits="userSpaceOnUse">
      <stop offset="0" stop-color="#67c3e7"/>
      <stop offset="0.22841" stop-color="#60b8dd"/>
      <stop offset="0.60146" stop-color="#58add3"/>
      <stop offset="0.9995" stop-color="#56a9d0"/>
    </radialGradient>
    <radialGradient id="radial-gradient-2" cx="139.5" cy="85.5" r="59.5" gradientTransform="translate(0 -85.5) scale(1 2)" gradientUnits="userSpaceOnUse">
      <stop offset="0" stop-color="#f6d658"/>
      <stop offset="0.42568" stop-color="#f7ce58"/>
      <stop offset="0.99998" stop-color="#f8ca58"/>
    </radialGradient>
    <radialGradient id="radial-gradient-3" cx="68.5" cy="71.5" r="59.5" gradientTransform="translate(0 -71.5) scale(1 2)" gradientUnits="userSpaceOnUse">
      <stop offset="0" stop-color="#c4d06e"/>
      <stop offset="0.10488" stop-color="#c0cd6f"/>
      <stop offset="0.5377" stop-color="#b5c373"/>
      <stop offset="0.9995" stop-color="#b1c074"/>
    </radialGradient>
  </defs>
  <title>solliance-master</title>
  <g id="Layer_2" data-name="Layer 2">
    <circle class="cls-1" cx="83.5" cy="143.5" r="59.5"/>
    <circle class="cls-2" cx="139.5" cy="85.5" r="59.5"/>
    <circle class="cls-3" cx="68.5" cy="71.5" r="59.5"/>
    <g>
      <path class="cls-4" d="M385.74763,234.586l6.04061,14.96675a45.14806,45.14806,0,0,1,1.647,4.709H393.52c.46451-1.39883,1.01384-3.07722,1.68939-4.89538l5.65992-14.78038h2.23872l-7.18067,18.09055c-2.78805,7.08734-4.60367,10.58388-7.3069,12.72925a10.27309,10.27309,0,0,1-3.71707,2.00453l-.54933-1.91135a9.76963,9.76963,0,0,0,3.71707-2.192,16.38346,16.38346,0,0,0,3.8857-6.01465,2.76447,2.76447,0,0,0,.25346-.88526,3.17479,3.17479,0,0,0-.29587-1.02609l-8.40556-20.795Z"/>
      <path class="cls-4" d="M416.87868,257.52532c-6.0396,0-10.43222-4.89538-10.43222-11.51573,0-7.46008,5.06817-11.98272,10.72809-11.98272,6.50411,0,10.60187,5.08175,10.60187,11.46914,0,8.393-5.91338,12.02931-10.85533,12.02931Zm.12723-1.86475c4.47643,0,8.70042-3.58973,8.70042-10.02478,0-4.242-2.576-9.74416-8.53178-9.74416-5.74474,0-8.659,4.7556-8.659,9.97818,0,6.24762,4.09776,9.79076,8.448,9.79076Z"/>
      <path class="cls-4" d="M452.06307,251.55726c0,1.81922.04241,3.59079.16965,5.409h-1.94285l-.12723-4.52264h-.08482a8.724,8.724,0,0,1-7.89763,5.08175c-2.32354,0-7.64518-.88526-7.64518-10.39752V234.586h2.06908v12.0759c0,5.22258,1.648,8.85891,6.12442,8.85891a7.55855,7.55855,0,0,0,6.75858-4.7556,7.833,7.833,0,0,0,.50692-2.61129V234.586h2.06908Z"/>
      <path class="cls-4" d="M460.93515,241.8131c0-2.42492-.04241-4.80219-.16864-7.22711H462.667l.08381,4.84879h.12723c1.01384-3.12381,3.21015-5.40789,6.20925-5.40789a3.28877,3.28877,0,0,1,.97143.13978v2.09772a4.722,4.722,0,0,0-1.18247-.09318c-2.83046,0-4.98436,2.61129-5.65992,6.48058a11.93655,11.93655,0,0,0-.21206,2.192v12.12249h-2.06908Z"/>
      <path class="cls-4" d="M486.61632,253.93559a9.21065,9.21065,0,0,0,5.06918,1.67838c3.54742,0,5.11059-2.05112,5.11059-4.33627,0-2.61129-1.60558-3.86929-4.77331-4.98856-3.67465-1.30565-5.49027-3.40336-5.49027-6.06125,0-3.1704,2.28012-6.201,6.67274-6.201a8.24872,8.24872,0,0,1,4.90055,1.492l-.80279,1.86475a7.25359,7.25359,0,0,0-4.47744-1.44542,3.93045,3.93045,0,0,0-4.2664,4.01012c0,2.517,1.7318,3.49655,4.7309,4.61582,3.71707,1.39883,5.53369,3.1704,5.53369,6.52717,0,3.63632-2.70323,6.434-7.30791,6.434a10.54946,10.54946,0,0,1-5.65992-1.63179Z"/>
      <path class="cls-4" d="M514.66345,257.52532c-6.0396,0-10.43222-4.89538-10.43222-11.51573,0-7.46008,5.06817-11.98272,10.72809-11.98272,6.50411,0,10.60187,5.08175,10.60187,11.46914,0,8.393-5.91338,12.02931-10.85533,12.02931Zm.12723-1.86475c4.47643,0,8.70042-3.58973,8.70042-10.02478,0-4.242-2.576-9.74416-8.53178-9.74416-5.74474,0-8.659,4.7556-8.659,9.97818,0,6.24762,4.09776,9.79076,8.448,9.79076Z"/>
      <path class="cls-4" d="M532.53082,223.58277h2.06908v33.38345h-2.06908Z"/>
      <path class="cls-4" d="M560.788,251.55726c0,1.81922.04241,3.59079.16965,5.409h-1.94285l-.12723-4.52264h-.08482a8.724,8.724,0,0,1-7.89763,5.08175c-2.32354,0-7.64518-.88526-7.64518-10.39752V234.586H545.329v12.0759c0,5.22258,1.648,8.85891,6.12442,8.85891a7.55855,7.55855,0,0,0,6.75858-4.7556,7.833,7.833,0,0,0,.50692-2.61129V234.586H560.788Z"/>
      <path class="cls-4" d="M572.57434,229.644v4.942h6.42029v1.81816h-6.42029V250.7186c0,2.75107.76038,4.84879,3.25256,4.84879a7.22539,7.22539,0,0,0,2.66082-.41933l.25346,1.77157a7.61859,7.61859,0,0,1-3.12532.6057,4.48321,4.48321,0,0,1-3.75948-1.67838c-1.01384-1.25905-1.35212-3.31018-1.35212-5.40789v-14.0349H566.7882V234.586h3.71606V230.3429Z"/>
      <path class="cls-4" d="M586.38636,229.97016a1.86086,1.86086,0,0,1-1.647-2.00453,1.92648,1.92648,0,0,1,1.7318-2.00559,2.03054,2.03054,0,0,1-.04241,4.01012Zm-.97143,26.99605V234.586H587.484v22.38023Z"/>
      <path class="cls-4" d="M604.88585,257.52532c-6.0396,0-10.43222-4.89538-10.43222-11.51573,0-7.46008,5.06817-11.98272,10.72809-11.98272,6.50411,0,10.60187,5.08175,10.60187,11.46914,0,8.393-5.91338,12.02931-10.85533,12.02931Zm.12723-1.86475c4.47643,0,8.70042-3.58973,8.70042-10.02478,0-4.242-2.576-9.74416-8.53178-9.74416-5.74474,0-8.659,4.7556-8.659,9.97818,0,6.24762,4.09776,9.79076,8.448,9.79076Z"/>
      <path class="cls-4" d="M622.75422,239.99494c0-1.81922-.04241-3.59079-.16864-5.409h1.94285l.16864,4.476h.08482a8.53533,8.53533,0,0,1,7.81381-5.03515c1.858,0,7.89864.93185,7.89864,10.21009v12.72925h-2.07009V244.237c0-4.3818-1.7318-8.25215-6.37788-8.25215a7.55725,7.55725,0,0,0-6.8848,5.31577,6.98968,6.98968,0,0,0-.33828,2.00453v13.6611h-2.06908Z"/>
      <path class="cls-4" d="M660.85389,245.77557c0,6.52823,3.75948,9.79181,8.57419,9.79181a12.9503,12.9503,0,0,0,6.50512-1.39883l.54933,1.81816a14.99939,14.99939,0,0,1-7.26549,1.53861c-6.29306,0-10.38981-4.709-10.38981-11.18959,0-7.59985,4.39262-12.30886,10.13635-12.30886,7.519,0,8.82765,7.36689,8.82765,10.35092a6.16808,6.16808,0,0,1-.08381,1.39777Zm14.78344-1.81816c.04241-2.33068-.84419-8.06578-6.92721-8.06578-5.153,0-7.3069,4.66242-7.729,8.06578Z"/>
      <path class="cls-4" d="M684.63462,234.586l3.8857,5.50214c.97143,1.35224,1.7318,2.47046,2.576,3.7761h.08482c.8452-1.30565,1.68939-2.47046,2.61841-3.7761l3.8857-5.50214h2.32354l-7.7714,10.86344,8.15109,11.51679h-2.40736l-4.05434-5.68851c-1.05625-1.492-1.94285-2.89085-2.87287-4.24308h-.08381c-.8452,1.44542-1.7318,2.65788-2.83046,4.24308l-3.97052,5.68851h-2.40736l8.23692-11.4702-7.73-10.91Z"/>
      <path class="cls-4" d="M706.34528,241.8131c0-2.42492-.04241-4.80219-.16864-7.22711h1.98425l.16965,4.66242h.08381a9.07645,9.07645,0,0,1,8.53279-5.22152c5.95478,0,9.75667,5.22152,9.75667,11.28277,0,7.83282-4.7309,12.21568-10.26358,12.21568a8.76439,8.76439,0,0,1-7.941-4.56923h-.08482v13.335h-2.06908Zm2.06908,6.15443a7.71983,7.71983,0,0,0,7.85623,7.693c5.154,0,8.36314-4.01012,8.36314-10.25774,0-5.08175-3.0405-9.5112-8.10969-9.5112a8.837,8.837,0,0,0-8.10969,8.11237Z"/>
      <path class="cls-4" d="M733.80067,245.77557c0,6.52823,3.75948,9.79181,8.57419,9.79181a12.95031,12.95031,0,0,0,6.50512-1.39883l.54933,1.81816a14.99939,14.99939,0,0,1-7.26549,1.53861c-6.29306,0-10.38981-4.709-10.38981-11.18959,0-7.59985,4.39262-12.30886,10.13635-12.30886,7.519,0,8.82765,7.36689,8.82765,10.35092a6.16808,6.16808,0,0,1-.08381,1.39777Zm14.78344-1.81816c.04241-2.33068-.84419-8.06578-6.92721-8.06578-5.153,0-7.3069,4.66242-7.729,8.06578Z"/>
      <path class="cls-4" d="M757.79245,241.8131c0-2.42492-.04241-4.80219-.16864-7.22711h1.90044l.08381,4.84879h.12723c1.01384-3.12381,3.21015-5.40789,6.20925-5.40789a3.28877,3.28877,0,0,1,.97143.13978v2.09772a4.722,4.722,0,0,0-1.18247-.09318c-2.83046,0-4.98436,2.61129-5.65992,6.48058a11.93655,11.93655,0,0,0-.21206,2.192v12.12249h-2.06908Z"/>
      <path class="cls-4" d="M776.715,229.644v4.942h6.42029v1.81816H776.715V250.7186c0,2.75107.76038,4.84879,3.25256,4.84879a7.22539,7.22539,0,0,0,2.66082-.41933l.25346,1.77157a7.61859,7.61859,0,0,1-3.12532.6057,4.48321,4.48321,0,0,1-3.75948-1.67838c-1.01384-1.25905-1.35212-3.31018-1.35212-5.40789v-14.0349h-3.71606V234.586H774.645V230.3429Z"/>
      <path class="cls-4" d="M788.71144,253.93559a9.21065,9.21065,0,0,0,5.06918,1.67838c3.54742,0,5.11059-2.05112,5.11059-4.33627,0-2.61129-1.60558-3.86929-4.77331-4.98856-3.67465-1.30565-5.49027-3.40336-5.49027-6.06125,0-3.1704,2.28012-6.201,6.67274-6.201a8.24872,8.24872,0,0,1,4.90055,1.492l-.80279,1.86475a7.25359,7.25359,0,0,0-4.47744-1.44542,3.93045,3.93045,0,0,0-4.2664,4.01012c0,2.517,1.7318,3.49655,4.7309,4.61582,3.71707,1.39883,5.53369,3.1704,5.53369,6.52717,0,3.63632-2.70323,6.434-7.30791,6.434a10.54946,10.54946,0,0,1-5.65992-1.63179Z"/>
      <path class="cls-4" d="M808.141,257.52532a1.94279,1.94279,0,0,1-1.73079-2.14431,1.96651,1.96651,0,0,1,1.81562-2.192c1.05625,0,1.77421.93291,1.77421,2.192a1.97681,1.97681,0,0,1-1.81663,2.14431Z"/>
    </g>
  </g>
  <g id="Layer_1" data-name="Layer 1">
    <rect class="cls-5" x="7.71672" y="9.93357" width="869.28328" height="255.38266"/>
    <g>
      <path class="cls-6" d="M264.98414,204.42832a43.88576,43.88576,0,0,1-15.76984-1.93865,41.04186,41.04186,0,0,1-15.20708-7.98057,39.07708,39.07708,0,0,1-10.17767-13.37655,44.02735,44.02735,0,0,1-4.1567-14.04175,58.34508,58.34508,0,0,1-.77275-9.99721,72.90747,72.90747,0,0,1,2.45372-16.10194,53.18377,53.18377,0,0,1,4.86092-11.56424,37.66137,37.66137,0,0,1,6.04907-7.94112,39.54609,39.54609,0,0,1,11.42347-8.02926,54.93931,54.93931,0,0,1,17.75317-4.95294,57.11335,57.11335,0,0,1,9.53977-.27154c9.25188.546,18.09793,2.5055,25.93612,7.886A37.179,37.179,0,0,1,310.173,132.83669a47.88943,47.88943,0,0,1,3.40986,12.9703,64.00868,64.00868,0,0,1-3.76524,30.43687,44.96724,44.96724,0,0,1-11.51083,17.2662,40.85,40.85,0,0,1-20.27444,9.79234A46.96948,46.96948,0,0,1,264.98414,204.42832Z"/>
      <path class="cls-6" d="M602.40606,110.32727c-.349,5.65327-.6927,11.2203-1.03642,16.78733l.24526.0986c.66675-.98188,1.39814-1.92642,1.98966-2.95166a29.24639,29.24639,0,0,1,17.77256-13.72171A57.988,57.988,0,0,1,642.65374,108.28c6.098.50066,12.12924,1.45571,17.69284,4.4a22.57087,22.57087,0,0,1,12.06085,15.28719,39.174,39.174,0,0,1,1.10369,11.13338c-.32274,6.10192-.41005,12.21236-.75593,18.31-.30635,5.39889-.497,10.80159-.77542,16.19986-.2981,5.78256-.47648,11.57119-.81065,17.34715-.19917,3.44379-.15317,6.87557-.2358,10.31175-.01986.82416-.12095,1.28625-1.13854,1.27691-5.04187-.04628-10.08431-.02108-15.12815-.02108.06548-3.42925.25267-6.75828.63883-10.01573.34307-2.89434-.208-5.83516.63377-8.67182a2.72673,2.72673,0,0,0,.03794-.95485,69.29685,69.29685,0,0,1,.49278-10.82973c.24751-3.01435-.21622-6.091.62515-9.059a2.69854,2.69854,0,0,0,.03775-.76409c-.08179-5.02481.539-10.02587.41989-15.06165-.05883-2.48962.12882-5.01759-.04759-7.49778-.46533-6.54612-3.26947-11.755-9.22036-15.00067a28.66941,28.66941,0,0,0-10.36649-3.40224c-8.29776-.98628-16.29592-.04009-23.41945,4.73458-6.44666,4.32094-10.29828,10.52266-12.24438,17.94259a76.51876,76.51876,0,0,0-1.98769,12.13288c-.58421,6.07238-.87594,12.15576-1.2444,18.23964-.19674,3.24907.00506,6.50011-.31571,9.72911-.55676,5.60365-.21116,11.22025-.34457,16.82919-.02923,1.23213-.41361,1.68842-1.67966,1.67268-4.60006-.05726-9.20148-.04895-13.80187-.00595-1.32038.01232-1.53749-.06019-1.33588-1.59267.43727-3.32395.41886-6.6912.84447-9.98725.3077-2.38257.33984-4.78677.52594-7.15168.23693-3.01116.48716-6.05506.61443-9.09025a49.7481,49.7481,0,0,1,.64117-8.66071,1.9919,1.9919,0,0,0,.02586-.57358,66.34831,66.34831,0,0,1,.49573-10.26442c.28714-3.721-.14-7.482.63869-11.16591a2.28467,2.28467,0,0,0,.01461-.57412c-.24728-5.15723.51943-10.28462.41183-15.4439-.11551-5.53763.68178-11.06211.39942-16.60754-.05274-1.03615.363-1.323,1.33387-1.28592,3.24244.1239,6.474.45947,9.72958.36815C598.91578,110.46489,600.5841,109.75745,602.40606,110.32727Z"/>
      <path class="cls-6" d="M539.17874,148.63849c-1.65858,1.13669-3.07611,2.17054-4.55392,3.10939-4.50783,2.86373-9.64568,4.07652-14.7,5.47105-6.75863,1.86476-13.55365,3.62095-20.03006,6.34874a24.05086,24.05086,0,0,0-10.80647,8.2112,14.20641,14.20641,0,0,0,4.25755,20.13426,22.54874,22.54874,0,0,0,10.6526,2.96865,54.33011,54.33011,0,0,0,21.3525-2.85583,1.321,1.321,0,0,1,1.24431.02518c-.4109,2.02851-1.27045,3.98545-1.65727,6.062-.07912.425-.17411.86465-.27716,1.2937-.80526,3.35238-.82147,3.2802-4.19319,3.8875a102.60638,102.60638,0,0,1-19.73683,1.18662,45.776,45.776,0,0,1-16.12963-3.04861,21.44772,21.44772,0,0,1-11.71759-12.97253,25.73385,25.73385,0,0,1-1.20772-12.41439,22.80751,22.80751,0,0,1,3.64566-9.33407,28.67928,28.67928,0,0,1,10.32358-9.02093c6.61665-3.6315,13.80805-5.64206,21.01341-7.66632,6.21049-1.74478,12.58356-2.83889,18.71437-4.91685,3.46105-1.17308,6.89175-2.4409,9.61758-4.83552a12.38537,12.38537,0,0,0,4.36833-8.43394c.35478-4.03234-1.2748-6.98251-4.13787-9.51744a16.49946,16.49946,0,0,0-7.51466-3.46942,18.76342,18.76342,0,0,0-6.13366-.707c-1.00481.10235-1.94417-.41416-2.98959-.39413a88.91784,88.91784,0,0,0-29.02427,5.068,39.53206,39.53206,0,0,1-5.70169,1.97128c-.36555-1.12837.17055-2.171.30222-3.18066.33843-2.59621.94429-5.16411,1.02865-7.79412.02642-.82375.49109-.865,1.07408-1.01634,4.66358-1.2108,9.36463-2.254,14.11773-3.034a112.00874,112.00874,0,0,1,23.38811-1.54453c7.53325.35176,14.9925,1.255,21.77633,4.99087,5.471,3.013,8.77588,7.47783,9.5104,13.79117a54.65254,54.65254,0,0,1-.01312,13.32034,7.12921,7.12921,0,0,0-.00838.95837c.04745,5.797-.639,11.5581-.87379,17.343-.16732,4.12152-.43961,8.245-.68689,12.36581q-.90555,15.09088-.792,30.20253c.00548.76706-.01007,1.35706-1.07226,1.34961-5.16755-.03621-10.33548-.01637-15.506-.01637.09556-3.29078.28527-6.47933.62585-9.6165.24377-2.24586.309-4.5249.53418-6.768.25032-2.493.30471-5.07773.613-7.55344.43212-3.46942-.182-6.97609.64487-10.39518a1.28424,1.28424,0,0,0,.01012-.38253c-.2951-4.26517.7386-8.494.3715-12.75557C538.72615,153.01644,539.70074,151.05854,539.17874,148.63849Z"/>
      <path class="cls-6" d="M868.84209,188.25295a95.37638,95.37638,0,0,0-1.54044,9.583c-.17509,2.66743-1.51515,3.37212-3.79813,3.81073-3.85752.74106-7.71111,1.4807-11.59253,2.09561-5.86873.92979-11.76846.747-17.67082.71094a56.30733,56.30733,0,0,1-18.885-3.48529,33.44143,33.44143,0,0,1-9.16893-5.27962,40.25284,40.25284,0,0,1-11.80425-15.737,42.49745,42.49745,0,0,1-2.88124-9.7352,53.736,53.736,0,0,1-1.18763-12.75492,72.32362,72.32362,0,0,1,2.39774-16.49266,60.33452,60.33452,0,0,1,4.88776-11.96071,47.41285,47.41285,0,0,1,4.68747-6.58906,37.16529,37.16529,0,0,1,12.64347-9.80719,41.57026,41.57026,0,0,1,12.509-3.6936,64.41376,64.41376,0,0,1,13.13419-.70632c8.77648.43064,17.067,2.45676,24.115,8.08763a30.13094,30.13094,0,0,1,8.67746,11.67885,46.11461,46.11461,0,0,1,3.63446,18.49223c.01209,1.66894-.52032,3.26961-.43675,4.936.0311.62327-.31215.9287-.95239.90588-.51086-.01821-1.02293,0-1.53454,0q-32.4218.0003-64.8437.00027c-.51161,0-1.02424.02275-1.53445-.00315-.61157-.031-.88915.16315-.96335.84092-1.0798,9.87616.117,19.278,5.738,27.76065,3.74613,5.65318,9.09033,9.05875,15.47815,11.0579a42.739,42.739,0,0,0,16.76846,1.58639,97.5653,97.5653,0,0,0,23.328-5.40764A.71214.71214,0,0,1,868.84209,188.25295Z"/>
      <path class="cls-6" d="M742.96022,204.49652a72.87484,72.87484,0,0,1-7.55925-.05054,64.32337,64.32337,0,0,1-8.98128-1.62415,39.21018,39.21018,0,0,1-13.40905-6.254,35.24241,35.24241,0,0,1-8.93031-9.59352c-3.14609-4.90655-4.76935-10.38026-5.83406-16.06675a57.99167,57.99167,0,0,1-1.18632-13.53388c.117-2.37428.41268-4.75879.65916-7.13389a61.67711,61.67711,0,0,1,2.06554-10.27137c1.78758-6.38516,4.30308-12.47649,8.63212-17.58555a37.46012,37.46012,0,0,1,22.70642-13.074,83.49361,83.49361,0,0,1,18.65122-1.05973,88.02544,88.02544,0,0,1,18.51042,2.854c1.99546.53362,1.9787.56319,2.02132,2.51307a74.08276,74.08276,0,0,0,.69645,8.33421c.05986.4416.02782.89493.071,1.33967.10755,1.1085-.59105,1.161-1.32085.912a86.31371,86.31371,0,0,0-10.03353-2.72175,49.34245,49.34245,0,0,0-11.916-1.42568c-3.55389.11958-7.0899-.07474-10.60126.92385a31.11949,31.11949,0,0,0-13.76833,8.07232,32.83077,32.83077,0,0,0-8.75784,16.92018,83.454,83.454,0,0,0-1.28665,9.38459,49.83809,49.83809,0,0,0,1.30014,15.80033,26.07781,26.07781,0,0,0,6.02574,12.29829,27.10137,27.10137,0,0,0,10.06276,6.68375,38.12507,38.12507,0,0,0,16.73708,2.80466,75.075,75.075,0,0,0,17.58042-3.46719c3.00378-.94412,3.0406-.9611,2.499,1.97855-.54908,2.98085-1.19138,5.943-1.579,8.954a1.81454,1.81454,0,0,1-1.6954,1.84674c-4.41269.76364-8.80487,1.53906-13.28211,1.94139C748.11142,204.45907,745.201,204.27983,742.96022,204.49652Z"/>
      <path class="cls-6" d="M136.90316,186.97925c3.50579,1.36959,6.99607,2.682,10.57554,3.762a51.55781,51.55781,0,0,0,18.76638,2.19192c4.63245-.3393,9.02781-1.5829,12.43971-5.14148a11.85733,11.85733,0,0,0,1.05429-15.37869c-1.96225-2.83215-4.67871-4.925-7.2875-7.11q-2.81417-2.35711-5.67091-4.6633c-1.59794-1.2914-3.24284-2.525-4.83109-3.828-1.94375-1.5946-3.89956-3.18054-5.75642-4.87306-1.39968-1.27584-2.93771-2.38881-4.22774-3.79827a35.9961,35.9961,0,0,1-7.32471-10.9039,21.455,21.455,0,0,1-1.31324-6.37992,18.42545,18.42545,0,0,1,1.63073-9.34627,20.79584,20.79584,0,0,1,7.64432-9.10656c5.467-3.40619,11.4635-4.725,17.78486-4.99123a28.83129,28.83129,0,0,1,4.36548-.3256c4.34878.47063,8.73229.33417,13.0857,1.00182,2.86522.43942,5.72841.97869,8.62146,1.26711.64431.06423,1.26593.17563,1.32457,1.05679.24,3.60635.55358,7.20846.7435,10.81722.09048,1.71948-.05293,1.82418-1.64534,1.126a51.725,51.725,0,0,0-10.0756-2.82392c-3.20221-.68879-6.423-.49353-9.64336-.633a27.06724,27.06724,0,0,0-8.81265,1.18072c-4.08906,1.1935-7.4,3.35806-8.62263,7.75612a11.0779,11.0779,0,0,0,1.4087,9.11516,30.54369,30.54369,0,0,0,6.83508,7.4082c4.43511,3.60865,8.84,7.25507,13.30851,10.82182a80.18042,80.18042,0,0,1,6.63424,5.72169c4.72335,4.70262,8.91244,9.89106,9.76714,16.75326,1.04617,8.3995-1.78692,15.41874-8.7618,20.46253-4.93376,3.56783-10.59739,5.21154-16.58636,6.03232a68.30091,68.30091,0,0,1-13.33385.23147,72.22135,72.22135,0,0,1-11.15636-1.36176c-2.97572-.64925-5.96958-1.20665-8.9205-1.98193-.66281-.17416-.88993-.35162-.99324-1.05746-.41083-2.80667-.47289-5.636-.69277-8.45468C137.125,190.08681,136.60007,188.685,136.90316,186.97925Z"/>
      <path class="cls-6" d="M392.32861,204.44516c-2.42655.00073-4.85366-.02843-7.27937.01705-.8151.01529-1.07348-.19882-1.11634-1.062-.08239-1.66.33309-3.28842.3108-4.89833-.04591-3.30973.278-6.61026.54852-9.86949.24995-3.01165-.20929-6.08488.62515-9.04915a1.15772,1.15772,0,0,0,.00932-.3823,83.36263,83.36263,0,0,1,.51737-11.40333c.23922-3.46115-.222-6.97843.62276-10.39864a1.3044,1.3044,0,0,0,.00857-.38273c-.24334-4.07276.398-8.11345.45193-12.18211.04792-3.61181.175-7.24422.42223-10.84227.18315-2.66451.05687-5.33472.32255-7.971.46144-4.57766.02768-9.17952.43319-13.72149.36991-4.14372-.05293-8.28012.341-12.37927.59372-6.17853.19271-12.3515.3359-18.52428.05073-2.18611.25707-2.37418,2.362-2.375,4.41115-.00173,8.82253.02522,13.23321-.02.98523-.01009,1.31218.26329,1.30712,1.28259-.0223,4.45466-.355,8.88752-.77116,13.31741a5.26047,5.26047,0,0,0-.01616.76649c.20273,3.831-.33281,7.63522-.47226,11.45342-.18788,5.1431-.47891,10.28793-.77608,15.42775-.31206,5.39653-.478,10.79932-.80161,16.18993-.21037,3.50516.04778,7.0242-.35754,10.496-.40176,3.44129.02145,6.89511-.3783,10.30379-.4257,3.63038.02965,7.27938-.39394,10.8759-.39052,3.31631.005,6.63754-.36134,9.9246-.48954,4.39288.02,8.81059-.41235,13.17808-.36,3.63734-.18821,7.25656-.2403,10.88247-.0156,1.08376-.3071,1.407-1.39031,1.37008C397.05406,204.38881,394.69037,204.44441,392.32861,204.44516Z"/>
      <path class="cls-6" d="M345.35326,204.49591c-2.36275,0-4.72625-.03485-7.08783.01766-.903.02007-1.23527-.23826-1.2014-1.17957.14774-4.10452.29726-8.20738.77542-12.29056a2.09813,2.09813,0,0,0,.01077-.383,78.97034,78.97034,0,0,1,.50257-10.63416c.21449-3.19944-.15463-6.45844.63311-9.62058a1.28874,1.28874,0,0,0,.00731-.38249,98.538,98.538,0,0,1,.49517-12.163c.26114-4.22752.38851-8.47267.59845-12.697.22953-4.6189.43123-9.26365.57058-13.89417.10291-3.41977-.097-6.88212.32166-10.26637.5124-4.14163-.077-8.29308.38565-12.38278.54056-4.77787-.073-9.55836.382-14.2918.45329-4.715.26278-9.41028.29735-14.11468.0066-.89881.23941-1.21977,1.18117-1.21178q7.28436.062,14.56937-.00056c.95543-.00842,1.28806.33588,1.14992,1.22155-.5695,3.65147-.07186,7.37419-.73851,11.0195a3.39376,3.39376,0,0,0-.0237.76538c.1891,3.957-.34012,7.88785-.48678,11.83216-.18638,5.01327-.47929,10.02732-.75729,15.03845-.28152,5.075-.44378,10.15861-.80184,15.22337-.25224,3.56842.05059,7.14756-.3611,10.68068-.40846,3.50518.03293,7.0251-.385,10.49487-.40682,3.37739.01368,6.76455-.37253,10.11108-.426,3.69093.02248,7.40444-.4027,11.06246-.393,3.38088.01485,6.76448-.355,10.1153-.6044,5.47629-.13027,10.96222-.325,16.44022-.04061,1.14233-.25449,1.55946-1.49332,1.49857-2.35774-.11586-4.72518-.03359-7.08854-.03359Z"/>
      <path class="cls-6" d="M451.8617,112.023c-.04783,2.6099-.18844,5.01077-.3953,7.41259-.31,3.6-.39975,7.21636-.75973,10.81986-.24583,2.46091-.26241,4.95689-.35333,7.42878-.14751,4.01008-.39731,8.02028-.59845,12.02376-.15978,3.18083.04942,6.38444-.34874,9.53271-.46744,3.69565.01752,7.40208-.37,11.07114-.51821,4.90655.02553,9.83263-.394,14.719-.51507,5.99857-.15313,11.99209-.258,17.98614-.02,1.1387-.23145,1.51152-1.47716,1.489-4.78841-.08673-9.58038-.07286-14.369.01379-1.22463.02216-1.76772-.38633-1.42268-1.48957.73279-2.34294-.06075-4.81551.71973-7.13751a1.50139,1.50139,0,0,0,.0252-.57245,49.59581,49.59581,0,0,1,.50941-8.90834c.29065-2.76306-.03232-5.54552.56379-8.30387.36883-1.70685-.175-3.6.12338-5.3352.68136-3.96334-.1098-7.992.7083-11.93042a2.23066,2.23066,0,0,0,.00834-.57438c-.269-4.58533.268-9.15781.50111-13.71638.24428-4.77744-.11781-9.56846.34836-14.30173a119.228,119.228,0,0,0,.25866-13.153c-.02473-2.11223.5555-4.15345.42828-6.252-.04356-.71927.3641-.82861.95426-.82751C441.43671,112.02705,446.60927,112.023,451.8617,112.023Z"/>
      <path class="cls-7" d="M444.46532,79.0409c2.4874,0,4.97648.05283,7.46145-.02517,1.04111-.03267,1.50086.17192,1.43552,1.32315a95.602,95.602,0,0,0-.39923,10.66343c.057,1.03929-.577,1.08164-1.35167,1.0716q-4.21106-.05451-8.42269-.0579c-2.233-.00145-4.46717-.00313-6.69848.06776-.9159.02911-1.15887-.27246-1.20857-1.18675-.20062-3.69317.63035-7.34076.414-11.02823-.06239-1.06364.7149-.83758,1.30932-.84046,2.48665-.012,4.97339-.00507,7.46013-.00507Z"/>
      <path class="cls-8" d="M235.24919,158.77473a51.73865,51.73865,0,0,1,4.09464-21.4182c3.99018-9.28748,11.22856-14.63426,20.90661-16.83092A35.24049,35.24049,0,0,1,279.6872,121.752c7.78695,2.6585,13.24042,7.94279,15.75,15.81305a52.7888,52.7888,0,0,1-2.16311,39.00534c-4.24608,9.32226-11.78631,14.66273-22.01072,16.103a35.24543,35.24543,0,0,1-14.799-.704c-10.24774-2.94148-16.66049-9.71595-19.53438-19.92418A44.92439,44.92439,0,0,1,235.24919,158.77473Z"/>
      <path class="cls-8" d="M807.58854,144.63785c1.08692-5.52319,2.6936-10.583,5.99754-14.98419,4.78687-6.37645,11.26932-9.82929,19.0105-11.09653a30.53243,30.53243,0,0,1,13.83953.75954c8.65685,2.58875,13.14562,8.7594,14.7907,17.33117a48.46638,48.46638,0,0,1,.53372,6.86914c.03907.82355-.222,1.20025-1.06331,1.12251-.25341-.02342-.511-.00176-.76671-.00174q-25.40817.00016-50.81633.00011Z"/>
    </g>
  </g>
</svg>
