<?xml version="1.0" encoding="UTF-8"?>
<svg width="87px" height="85px" viewBox="0 0 87 85" version="1.1" xmlns="http://www.w3.org/2000/svg" xmlns:xlink="http://www.w3.org/1999/xlink">
    <!-- Generator: Sketch 43.1 (39012) - http://www.bohemiancoding.com/sketch -->
    <title>Layer_1-2</title>
    <desc>Created with Sketch.</desc>
    <defs></defs>
    <g id="Working-Homepage-Layouts" stroke="none" stroke-width="1" fill="none" fill-rule="evenodd">
        <g id="HomepageV9-Copy" transform="translate(-699.000000, -1363.000000)" fill-rule="nonzero">
            <g id="SectionAnchors" transform="translate(-4.000000, 1243.000000)">
                <g id="FeaturedHighlight" transform="translate(589.000000, 120.000000)">
                    <g id="leadershipIcon" transform="translate(114.000000, 0.000000)">
                        <g id="Layer_2">
                            <g>
                                <g id="Layer_1-2">
                                    <ellipse id="Oval" cx="44.7119901" cy="73.1725084" rx="6.2797759" ry="3.89714949"></ellipse>
                                    <path d="M44.7119901,78.2337416 C40.7188261,78.2337416 37.5999548,76.0827175 37.5999548,73.3327808 C37.5999548,70.5828442 40.7272327,68.4318201 44.7119901,68.4318201 C48.6967475,68.4318201 51.8324322,70.5828442 51.8324322,73.3327808 C51.8324322,76.0827175 48.7051542,78.2337416 44.7119901,78.2337416 Z M44.7119901,70.1779455 C41.7696587,70.1779455 39.281287,71.620397 39.281287,73.3327808 C39.281287,75.0451647 41.8032854,76.4876161 44.7119901,76.4876161 C47.6206949,76.4876161 50.1510999,75.0367293 50.1510999,73.3327808 C50.1510999,71.6288323 47.6627282,70.1779455 44.7119901,70.1779455 Z" id="Shape" fill="#5782F0"></path>
                                    <ellipse id="Oval" fill="#F4F8FF" cx="44.7119901" cy="68.8957665" rx="8.46550781" ry="5.25524704"></ellipse>
                                    <path d="M44.6447368,74.8595861 C39.4662336,74.8595861 35.3974095,72.2108742 35.3974095,68.8282834 C35.3974095,65.4456926 39.4578269,62.7969806 44.6447368,62.7969806 C49.8316468,62.7969806 53.8920641,65.4456926 53.8920641,68.8282834 C53.8920641,72.2108742 49.8316468,74.8595861 44.6447368,74.8595861 Z M44.7035835,64.4671875 C40.5843195,64.4671875 37.0787418,66.4241976 37.0787418,68.8282834 C37.0787418,71.2323691 40.5843195,73.1725084 44.7119901,73.1725084 C48.8396608,73.1725084 52.3368318,71.1733214 52.3368318,68.8114126 C52.3368318,66.4495038 48.8480674,64.4671875 44.7119901,64.4671875 L44.7035835,64.4671875 Z" id="Shape" fill="#5782F0"></path>
                                    <ellipse id="Oval" fill="#F4F8FF" cx="44.7119901" cy="65.1757601" rx="8.46550781" ry="5.25524704"></ellipse>
                                    <path d="M44.6447368,71.274546 C39.4662336,71.274546 35.3974095,68.5920925 35.3974095,65.1757601 C35.3974095,61.7594278 39.4578269,59.0769742 44.6447368,59.0769742 C49.8316468,59.0769742 53.8920641,61.7594278 53.8920641,65.1757601 C53.8920641,68.5920925 49.8316468,71.274546 44.6447368,71.274546 Z M44.7035835,60.7640519 C40.5759128,60.7640519 37.0787418,62.7885452 37.0787418,65.1757601 C37.0787418,67.5629751 40.5675062,69.5874683 44.7035835,69.5874683 C48.8396608,69.5874683 52.3284252,67.5629751 52.3284252,65.1757601 C52.3284252,62.7885452 48.8480674,60.7640519 44.7119901,60.7640519 L44.7035835,60.7640519 Z" id="Shape" fill="#5782F0"></path>
                                    <path d="M65.38397,35.2132601 C65.38397,23.7580025 56.0609827,14.1247889 44.6447368,14.1247889 C33.228491,14.1247889 24.0316036,23.7495671 24.0316036,35.2132601 C24.0316036,43.0244299 28.1844942,47.3433488 30.1180263,51.2404983 C32.4130448,55.8630912 32.7829379,66.2723606 44.7035835,66.2723606 C56.624229,66.2723606 56.7503289,55.4581926 58.9360609,51.1645798 C61.0040995,47.0902872 65.38397,42.5520481 65.38397,35.2132601 Z" id="Shape" fill="#4D69CD"></path>
                                    <path d="M44.5942969,56.1752006 C38.6271868,56.1808356 32.9321656,53.6709934 28.8990604,49.258182 C29.3109868,49.9414485 29.6892866,50.5909734 30.0087397,51.2320629 C32.3037582,55.8546558 32.6736513,66.2639253 44.5942969,66.2639253 C56.5149424,66.2639253 56.6326357,55.4581926 58.8267743,51.1645798 C58.9780942,50.8693412 59.1462274,50.5656672 59.3143606,50.2619932 C55.3511502,54.0639431 50.077318,56.182498 44.5942969,56.1752006 L44.5942969,56.1752006 Z" id="Shape" fill="#5EA7C8"></path>
                                    <path d="M44.7119901,67.2677365 C34.6239967,67.2677365 32.2869449,60.1482686 30.597206,54.9520693 C30.2615743,53.818274 29.8515548,52.7080017 29.3698335,51.6285262 C28.9242804,50.7259396 28.3526275,49.7811761 27.7389412,48.7773649 C25.7129359,45.4538218 23.1909375,41.3204814 23.1909375,35.0698585 C23.036979,27.2546337 27.104062,19.9660405 33.8247058,16.0131512 C40.5453495,12.0602618 48.8702241,12.0602618 55.5908678,16.0131512 C62.3115116,19.9660405 66.3785946,27.2546337 66.2246361,35.0698585 C66.2246361,40.8902766 63.6101645,45.0826647 61.5084992,48.4483847 C60.8275596,49.5449852 60.1802467,50.5741026 59.6842537,51.5526077 C59.1999244,52.6446363 58.8008101,53.7727437 58.4905078,54.9267631 C56.9941221,59.8277238 54.7327303,67.2677365 44.7119901,67.2677365 Z M44.6447368,14.9683277 C33.6536177,15.0426246 24.802396,24.0411531 24.8722697,35.0698585 C24.8722697,40.8396643 27.1504749,44.5765414 29.1680736,47.8832137 C29.7985732,48.9207665 30.3954461,49.8992715 30.8494058,50.8693412 C31.3683709,52.0191215 31.8093236,53.2027714 32.1692516,54.4122044 C33.8085506,59.3806482 35.8177426,65.5806588 44.7119901,65.5806588 C53.6062377,65.5806588 55.3800432,59.3890836 56.8932422,54.4206398 C57.2285914,53.1818794 57.6614954,51.9718117 58.187868,50.8018581 C58.7174877,49.7474345 59.3816139,48.6845756 60.0877734,47.5542335 C62.1810321,44.1800781 64.5433039,40.4178948 64.5433039,35.0867293 C64.5620109,24.0270753 55.6665518,15.0333413 44.6447368,14.9683277 L44.6447368,14.9683277 Z" id="Shape" fill="#4D69CD"></path>
                                    <path d="M44.6447368,66.4241976 C44.1804498,66.4241976 43.8040707,66.0465324 43.8040707,65.5806588 L43.8040707,49.5534206 L33.2116776,39.1947635 C32.9260388,38.8600808 32.9452434,38.3611833 33.2557595,38.0496062 C33.5662755,37.7380291 34.0634739,37.7187588 34.3970169,38.0053737 L45.3256764,48.9713788 C45.4533212,49.1366698 45.510729,49.3458632 45.485403,49.5534206 L45.485403,65.5806588 C45.485403,66.0465324 45.1090239,66.4241976 44.6447368,66.4241976 Z" id="Shape" fill="#A9F5EB"></path>
                                    <path d="M46.2588158,48.389337 C45.9172825,48.39133 45.6084933,48.1857879 45.4775251,47.8692797 C45.346557,47.5527715 45.4194443,47.188214 45.6619428,46.9468856 L53.152278,39.4309544 L33.8169572,39.4309544 C33.3526702,39.4309544 32.9762911,39.0532892 32.9762911,38.5874155 C32.9762911,38.1215419 33.3526702,37.7438767 33.8169572,37.7438767 L55.1782833,37.7438767 C55.5198166,37.7418837 55.8286058,37.9474258 55.959574,38.263934 C56.0905421,38.5804422 56.0176548,38.9449997 55.7751562,39.1863281 L46.8556887,48.1447107 C46.6970392,48.3026098 46.4822674,48.3906333 46.2588158,48.389337 Z" id="Shape" fill="#A9F5EB"></path>
                                    <path d="M17.7434211,37.7438767 L9.33675987,37.7438767 C8.87247279,37.7438767 8.49609375,37.3662115 8.49609375,36.9003378 C8.49609375,36.4344642 8.87247279,36.056799 9.33675987,36.056799 L17.7434211,36.056799 C18.2077081,36.056799 18.5840872,36.4344642 18.5840872,36.9003378 C18.5840872,37.3662115 18.2077081,37.7438767 17.7434211,37.7438767 Z" id="Shape" fill="#239DDA"></path>
                                    <path d="M79.9527138,37.7438767 L71.3611061,37.7438767 C70.896819,37.7438767 70.52044,37.3662115 70.52044,36.9003378 C70.52044,36.4344642 70.896819,36.056799 71.3611061,36.056799 L79.9527138,36.056799 C80.4170009,36.056799 80.7933799,36.4344642 80.7933799,36.9003378 C80.7933799,37.3662115 80.4170009,37.7438767 79.9527138,37.7438767 Z" id="Shape" fill="#239DDA"></path>
                                    <path d="M44.6447368,10.7506334 C44.1804498,10.7506334 43.8040707,10.3729682 43.8040707,9.90709459 L43.8040707,1.47170608 C43.8040707,1.00583244 44.1804498,0.62816723 44.6447368,0.62816723 C45.1090239,0.62816723 45.485403,1.00583244 45.485403,1.47170608 L45.485403,9.90709459 C45.485403,10.3729682 45.1090239,10.7506334 44.6447368,10.7506334 Z" id="Shape" fill="#239DDA"></path>
                                    <path d="M25.8222225,19.0257496 C25.5987709,19.0270459 25.383999,18.9390224 25.2253495,18.7811233 L19.1221135,12.6570313 C18.8364746,12.3223485 18.8556793,11.8234511 19.1661953,11.5118739 C19.4767114,11.2002968 19.9739098,11.1810265 20.3074527,11.4676415 L26.4106887,17.5917335 C26.6531872,17.8330619 26.7260746,18.1976195 26.5951065,18.5141277 C26.4641383,18.8306359 26.1553491,19.0361779 25.8138158,19.034185 L25.8222225,19.0257496 Z" id="Shape" fill="#239DDA"></path>
                                    <path d="M69.6545539,63.0500422 C69.4311023,63.0513385 69.2163304,62.9633151 69.0576809,62.805416 L62.9544449,56.639147 C62.716119,56.4312579 62.6140039,56.1068862 62.6900683,55.7993467 C62.7661327,55.4918071 63.0075443,55.2529824 63.3150845,55.1810278 C63.6226248,55.1090732 63.9444109,55.2161277 64.1481908,55.4581926 L70.2514268,61.5822846 C70.5131771,61.8204896 70.5985292,62.1975148 70.4650254,62.5258112 C70.3315215,62.8541077 70.0076641,63.0635859 69.6545539,63.0500422 L69.6545539,63.0500422 Z" id="Shape" fill="#239DDA"></path>
                                    <path d="M63.5513178,19.0257496 C63.2097846,19.0277425 62.9009953,18.8222005 62.7700272,18.5056923 C62.639059,18.1891841 62.7119464,17.8246266 62.9544449,17.5832981 L69.0240543,11.4676415 C69.3575972,11.1810265 69.8547956,11.2002968 70.1653117,11.5118739 C70.4758277,11.8234511 70.4950323,12.3223485 70.2093935,12.6570313 L64.1481908,18.7811233 C63.9895413,18.9390224 63.7747694,19.0270459 63.5513178,19.0257496 Z" id="Shape" fill="#239DDA"></path>
                                    <path d="M19.7189864,63.0500422 C19.3774531,63.0520352 19.0686639,62.8464931 18.9376958,62.5299849 C18.8067276,62.2134767 18.879615,61.8489192 19.1221135,61.6075908 L25.2253495,55.4581926 C25.4307998,55.2174667 25.7533874,55.1126099 26.0604832,55.1867332 C26.367579,55.2608565 26.6073528,55.5014496 26.6812236,55.8095948 C26.7550945,56.1177401 26.6505948,56.44143 26.4106887,56.6475823 L20.3074527,62.7716744 C20.1564788,62.9399501 19.9444244,63.0402603 19.7189864,63.0500422 Z" id="Shape" fill="#239DDA"></path>
                                    <path d="M27.8314145,36.1748944 L27.8314145,36.1748944 C27.3671274,36.1748944 26.9907484,35.7972292 26.9907484,35.3313556 C27.004491,27.2233964 32.5734927,20.1894609 40.4414063,18.3424831 C40.8753884,18.2504885 41.3059314,18.512651 41.4249856,18.9413957 C41.5117276,19.3740097 41.2515155,19.8005976 40.8281127,19.9199008 C33.6773125,21.5974632 28.6202058,27.9963643 28.6216406,35.3650971 C28.6050981,35.7988317 28.263228,36.1491688 27.8314145,36.1748944 Z" id="Shape" fill="#FFFFFF"></path>
                                    <path d="M52.1182586,20.468201 C51.9939015,20.4675418 51.8709545,20.4417208 51.7567722,20.3922825 C49.5250984,19.458702 47.1298252,18.9825993 44.7119901,18.992008 C44.4273048,19.022416 44.1502858,18.887148 43.9984656,18.643595 C43.8466454,18.4000419 43.8466454,18.0909103 43.9984656,17.8473573 C44.1502858,17.6038043 44.4273048,17.4685363 44.7119901,17.4989443 C47.3779632,17.4881874 50.0191074,18.0130586 52.4797451,19.0426204 C52.670996,19.1104974 52.8239178,19.2576274 52.8995361,19.4465118 C52.9751543,19.6353963 52.9661646,19.8477899 52.8748581,20.0295608 C52.7241471,20.306139 52.4323268,20.4753225 52.1182586,20.468201 Z" id="Shape" fill="#FFFFFF"></path>
                                    <path d="M61.3992126,36.1748944 C61.1662457,36.1912988 60.9369771,36.1097223 60.7663527,35.9497153 C60.5957283,35.7897083 60.4991269,35.5656927 60.4996998,35.3313556 C60.4948446,32.4590476 59.7038721,29.6432506 58.213088,27.1912057 C58.1055181,26.994445 58.080522,26.7627836 58.1436307,26.5474809 C58.2067394,26.3321781 58.3527498,26.1509846 58.5493544,26.0439928 C58.9769978,25.8109916 59.5112904,25.9468572 59.776727,26.3561022 C61.4206196,29.0596717 62.2930081,32.1643162 62.2987253,35.3313556 C62.2992983,35.5656927 62.2026969,35.7897083 62.0320725,35.9497153 C61.8614481,36.1097223 61.6321795,36.1912988 61.3992126,36.1748944 L61.3992126,36.1748944 Z" id="Shape" fill="#FFFFFF"></path>
                                    <path d="M4.29276316,62.2486803 C2.43561485,62.2486803 0.930098684,60.7380195 0.930098684,58.8745249 C0.930098684,57.0110303 2.43561485,55.5003695 4.29276316,55.5003695 C6.14991147,55.5003695 7.65542763,57.0110303 7.65542763,58.8745249 C7.65542763,60.7380195 6.14991147,62.2486803 4.29276316,62.2486803 Z M4.29276316,57.0777872 C3.30383168,57.0777872 2.50214433,57.8822141 2.50214433,58.8745249 C2.50214433,59.8668358 3.30383168,60.6712627 4.29276316,60.6712627 C5.28169463,60.6712627 6.08338199,59.8668358 6.08338199,58.8745249 C6.08338199,57.8822141 5.28169463,57.0777872 4.29276316,57.0777872 Z" id="Shape" fill="#FFFFFF" opacity="0.5"></path>
                                    <path d="M78.1536883,27.6214105 C76.3024748,27.5558037 74.8527605,26.0003065 74.9114018,24.1425404 C74.9700431,22.2847744 76.5149532,20.824451 78.3665938,20.8765268 C80.2182344,20.9286026 81.679201,22.4734636 81.6340461,24.331609 C81.6121507,25.2326115 81.2319304,26.0873769 80.5781386,26.7053724 C79.9243469,27.3233678 79.0513297,27.6532228 78.1536883,27.6214105 Z M78.2797882,22.4589527 C77.2922253,22.4406175 76.4763763,23.2281571 76.4564093,24.2190619 C76.4364423,25.2099667 77.2198991,26.0299534 78.2073936,26.0516886 C79.1948881,26.0734238 80.0134252,25.2886976 80.0367804,24.2978674 C80.0480468,23.817637 79.868095,23.3527056 79.5367581,23.0059878 C79.2054212,22.6592699 78.7500279,22.459363 78.2713816,22.4505173 L78.2797882,22.4589527 Z" id="Shape" fill="#FFFFFF" opacity="0.5"></path>
                                    <path d="M63.9800576,84.1385135 C62.1229093,84.1385135 60.6173931,82.6278527 60.6173931,80.7643581 C60.6173931,78.9008635 62.1229093,77.3902027 63.9800576,77.3902027 C65.8372059,77.3902027 67.342722,78.9008635 67.342722,80.7643581 C67.342722,82.6278527 65.8372059,84.1385135 63.9800576,84.1385135 Z M63.9800576,78.9676204 C62.9911261,78.9676204 62.1894387,79.7720472 62.1894387,80.7643581 C62.1894387,81.756669 62.9911261,82.5610959 63.9800576,82.5610959 C64.968989,82.5610959 65.7706764,81.756669 65.7706764,80.7643581 C65.7706764,79.7720472 64.968989,78.9676204 63.9800576,78.9676204 L63.9800576,78.9676204 Z" id="Shape" fill="#FFFFFF" opacity="0.5"></path>
                                    <path d="M86.9302426,51.3838999 C86.9302426,51.0549198 86.5519428,50.7259396 86.0895765,50.6584565 L84.5343442,50.3969595 C84.050371,50.300582 83.672034,49.9209522 83.5759848,49.4353252 L83.3153783,47.8663429 C83.248125,47.4108319 82.9202652,47.0228041 82.5924054,47.0228041 C82.2645456,47.0228041 81.9366859,47.4023965 81.8694326,47.8663429 L81.6340461,49.4606313 C81.5328238,49.9293072 81.1679865,50.2953913 80.7009067,50.3969595 L79.1372677,50.6331503 C78.683308,50.7006334 78.2966016,51.0296136 78.2966016,51.3585937 C78.2966016,51.6875739 78.6749013,52.0165541 79.1372677,52.0840372 L80.7009067,52.320228 C81.1824113,52.4292809 81.5508398,52.8189515 81.6340461,53.3071685 L81.8694326,54.8761508 C81.9366859,55.3316617 82.2645456,55.7196896 82.5924054,55.7196896 C82.9202652,55.7196896 83.2397183,55.3400971 83.3069716,54.8761508 L83.5591715,53.0625422 C83.6424797,52.581002 84.0333203,52.2129067 84.5175308,52.1599557 L86.0895765,52.0840372 C86.5519428,52.0081187 86.9302426,51.7128801 86.9302426,51.3838999 Z" id="Shape" fill="#FFFFFF" opacity="0.5"></path>
                                    <path d="M15.4063692,19.709016 C15.4063692,19.3800359 15.0364762,19.0510557 14.5657031,18.9835726 L13.0020641,18.7473818 C12.5180909,18.6510043 12.139754,18.2713745 12.0437048,17.7857475 L11.8587582,16.2167652 C11.7915049,15.7612542 11.4636451,15.3732264 11.1357854,15.3732264 C10.8079256,15.3732264 10.4800658,15.7528188 10.4128125,16.2167652 L10.177426,17.7857475 C10.0813768,18.2713745 9.70303981,18.6510043 9.21906661,18.7473818 L7.65542763,18.9751372 C7.20146793,19.0426204 6.81476151,19.3716005 6.81476151,19.7005807 C6.81476151,20.0295608 7.18465461,20.358541 7.65542763,20.4260241 L9.21906661,20.6622149 C9.7066137,20.7576488 10.0865788,21.1422567 10.177426,21.6322846 L10.4128125,23.2012669 C10.4800658,23.6567779 10.8079256,24.0448057 11.1357854,24.0448057 C11.4636451,24.0448057 11.7830983,23.6652133 11.8503516,23.2012669 L12.1025514,21.3876584 C12.1858596,20.9061181 12.5767002,20.5380229 13.0609108,20.4850718 L14.6077364,20.3669764 C15.0280695,20.3332348 15.4063692,20.0295608 15.4063692,19.709016 Z" id="Shape" fill="#FFFFFF" opacity="0.5"></path>
                                    <path d="M27.3438281,78.959185 C27.3438281,78.6302048 26.973935,78.3012247 26.503162,78.2337416 L24.939523,77.9975507 C24.4555498,77.9011733 24.0772129,77.5215434 23.9811637,77.0359164 L23.7457771,75.4669341 C23.6785238,75.0114231 23.3506641,74.6233953 23.0228043,74.6233953 C22.6949445,74.6233953 22.3670847,75.0029878 22.2998314,75.4669341 L22.0644449,77.0359164 C21.9683957,77.5215434 21.5900587,77.9011733 21.1060855,77.9975507 L19.5424465,78.2337416 C19.0884868,78.3012247 18.7017804,78.6302048 18.7017804,78.959185 C18.7017804,79.2881651 19.0716735,79.6171453 19.5424465,79.6846284 L21.1060855,79.9208193 C21.5900587,80.0171967 21.9683957,80.3968265 22.0644449,80.8824535 L22.2998314,82.4514358 C22.3670847,82.9069468 22.6949445,83.2949747 23.0228043,83.2949747 C23.3506641,83.2949747 23.6701172,82.9153822 23.7373705,82.4514358 L23.9895703,80.6378273 C24.0728785,80.156287 24.4637191,79.7881918 24.9479297,79.7352407 L26.4947553,79.6171453 C26.9907484,79.5918391 27.3438281,79.2881651 27.3438281,78.959185 Z" id="Shape" fill="#FFFFFF" opacity="0.5"></path>
                                </g>
                            </g>
                        </g>
                    </g>
                </g>
            </g>
        </g>
    </g>
</svg>