<?xml version="1.0" encoding="UTF-8"?>
<svg width="20px" height="14px" viewBox="0 0 20 14" version="1.1" xmlns="http://www.w3.org/2000/svg" xmlns:xlink="http://www.w3.org/1999/xlink">
    <!-- Generator: Sketch 43.1 (39012) - http://www.bohemiancoding.com/sketch -->
    <title>Twitter</title>
    <desc>Created with Sketch.</desc>
    <defs></defs>
    <g id="INTERNALS" stroke="none" stroke-width="1" fill="none" fill-rule="evenodd">
        <g id="Leadership-V2" transform="translate(-320.000000, -851.000000)" fill="#46A1EE">
            <g id="Group-4" transform="translate(138.000000, 758.000000)">
                <g id="Group">
                    <g id="User-#1">
                        <g id="Group" transform="translate(148.000000, 93.000000)">
                            <path d="M49.9055118,2.18880943 C49.9055118,2.18880943 49.9055118,2.0324659 49.9055118,2.18880943 C49.1181102,1.40709178 48.1732283,1.09440472 47.2283465,1.25074825 L47.2283465,1.25074825 L47.2283465,1.25074825 C48.1732283,1.09440472 48.6456693,0.781717654 48.8031496,0.625374123 C48.8031496,0.469030592 48.8031496,0.312687061 48.6456693,0.312687061 C48.1732283,0.312687061 47.7007874,0.469030592 47.3858268,0.625374123 C47.8582677,0.312687061 48.015748,0.156343531 48.015748,-3.64153152e-14 C47.5433071,-3.64153152e-14 47.0708661,0.312687061 46.4409449,0.781717654 C46.5984252,0.469030592 46.7559055,0.312687061 46.5984252,0.156343531 C46.2834646,0.312687061 46.1259843,0.469030592 45.9685039,0.781717654 C45.496063,1.25074825 45.1811024,1.56343531 45.023622,2.0324659 L45.023622,2.0324659 C44.3937008,3.12687061 43.9212598,4.0649318 43.6062992,5.15933651 L43.4488189,5.15933651 C43.1338583,4.69030592 42.6614173,4.22127533 42.0314961,3.90858827 C41.4015748,3.43955768 40.6141732,3.12687061 39.6692913,2.65784002 C38.7244094,2.18880943 37.7795276,1.71977884 36.6771654,1.40709178 C36.6771654,2.50149649 37.1496063,3.43955768 38.2519685,4.0649318 L38.2519685,4.0649318 C37.9370079,4.0649318 37.4645669,4.0649318 37.1496063,4.22127533 C37.1496063,5.15933651 37.9370079,5.94105417 39.3543307,6.25374123 L39.3543307,6.25374123 C38.8818898,6.25374123 38.4094488,6.41008476 37.9370079,6.72277182 C38.4094488,7.66083301 39.1968504,7.97352007 40.4566929,7.97352007 C40.2992126,8.1298636 39.984252,8.28620713 39.984252,8.28620713 C39.8267717,8.44255066 39.6692913,8.75523772 39.8267717,9.06792478 C40.1417323,9.53695538 40.4566929,9.69329891 41.2440945,9.69329891 L41.2440945,9.69329891 L41.2440945,9.69329891 C40.1417323,10.7877036 38.7244094,11.4130777 37.1496063,11.2567342 L37.1496063,11.2567342 C36.2047244,11.2567342 35.1023622,10.7877036 34,9.84964244 C35.1023622,11.4130777 36.6771654,12.663826 38.5669291,13.4455436 C40.7716535,14.0709178 42.976378,14.2272613 45.023622,13.6018872 L45.023622,13.6018872 C47.0708661,12.9765131 48.9606299,11.7257648 50.3779528,10.005986 C51.007874,9.06792478 51.480315,8.1298636 51.6377953,7.19180241 C52.7401575,7.19180241 53.5275591,6.87911535 54,6.25374123 L54,6.25374123 C53.6850394,6.41008476 52.8976378,6.41008476 51.7952756,6.0973977 L51.7952756,6.0973977 L51.7952756,6.0973977 C52.8976378,5.94105417 53.6850394,5.62836711 53.8425197,5.00299298 C53.0551181,5.31568005 52.2677165,5.31568005 51.480315,5.00299298 C51.3228346,3.90858827 50.8503937,2.97052708 49.9055118,2.18880943 L49.9055118,2.18880943 Z" id="Twitter"></path>
                        </g>
                    </g>
                </g>
            </g>
        </g>
    </g>
</svg>