<?xml version="1.0" encoding="UTF-8"?>
<svg width="277px" height="277px" viewBox="0 0 277 277" version="1.1" xmlns="http://www.w3.org/2000/svg" xmlns:xlink="http://www.w3.org/1999/xlink">
    <!-- Generator: Sketch 43.1 (39012) - http://www.bohemiancoding.com/sketch -->
    <title>website@1x</title>
    <desc>Created with Sketch.</desc>
    <defs>
        <linearGradient x1="30.1509797%" y1="92.2033884%" x2="100%" y2="9.73676108%" id="linearGradient-1">
            <stop stop-color="#429BD2" offset="0%"></stop>
            <stop stop-color="#A1B555" offset="41.6701275%"></stop>
            <stop stop-color="#FBC131" offset="100%"></stop>
        </linearGradient>
        <path d="M269,44.4166667 L269,268.583333 C269,280.943883 258.943883,291 246.583333,291 L22.4166667,291 C10.0561167,291 0,280.943883 0,268.583333 L0,89.25 C0,86.7752 2.00853333,84.7666667 4.48333333,84.7666667 C6.95813333,84.7666667 8.96666667,86.7752 8.96666667,89.25 L8.96666667,268.583333 C8.96666667,275.998767 15.0012333,282.033333 22.4166667,282.033333 L246.583333,282.033333 C253.998767,282.033333 260.033333,275.998767 260.033333,268.583333 L260.033333,44.4166667 C260.033333,37.0012333 253.998767,30.9666667 246.583333,30.9666667 L22.4166667,30.9666667 C15.0012333,30.9666667 8.96666667,37.0012333 8.96666667,44.4166667 L8.96666667,66.8333333 L246.583333,66.8333333 C249.062617,66.8333333 251.066667,68.8418667 251.066667,71.3166667 C251.066667,73.7914667 249.062617,75.8 246.583333,75.8 L4.48333333,75.8 C2.00853333,75.8 0,73.7914667 0,71.3166667 L0,44.4166667 C0,32.0561167 10.0561167,22 22.4166667,22 L246.583333,22 C258.943883,22 269,32.0561167 269,44.4166667 L269,44.4166667 Z M27,49 C27,53.9635 31.0365,58 36,58 C40.9635,58 45,53.9635 45,49 C45,44.0365 40.9635,40 36,40 C31.0365,40 27,44.0365 27,49 L27,49 Z M53,49 C53,53.9635 57.0365,58 62,58 C66.9635,58 71,53.9635 71,49 C71,44.0365 66.9635,40 62,40 C57.0365,40 53,44.0365 53,49 L53,49 Z M81,49 C81,53.9635 85.0365,58 90,58 C94.9635,58 99,53.9635 99,49 C99,44.0365 94.9635,40 90,40 C85.0365,40 81,44.0365 81,49 L81,49 Z M67.5,94 L31.5,94 C29.016,94 27,96.24 27,99 C27,101.76 29.016,104 31.5,104 L67.5,104 C69.984,104 72,101.76 72,99 C72,96.24 69.984,94 67.5,94 L67.5,94 Z M238.5,104 C240.9885,104 243,101.76 243,99 C243,96.24 240.9885,94 238.5,94 L220.5,94 C218.0115,94 216,96.24 216,99 C216,101.76 218.0115,104 220.5,104 L238.5,104 L238.5,104 Z M201.5,104 C203.9885,104 206,101.76 206,99 C206,96.24 203.9885,94 201.5,94 L183.5,94 C181.0115,94 179,96.24 179,99 C179,101.76 181.0115,104 183.5,104 L201.5,104 L201.5,104 Z M165.5,104 C167.9885,104 170,101.76 170,99 C170,96.24 167.9885,94 165.5,94 L147.5,94 C145.0115,94 143,96.24 143,99 C143,101.76 145.0115,104 147.5,104 L165.5,104 L165.5,104 Z M45,125.5 L45,197.5 C45,199.984 47.0048,202 49.475,202 L94.225,202 C95.410875,202 96.547525,201.5275 97.388825,200.6815 L130.025,167.863 L144.761175,182.6815 C146.5109,184.441 149.3391,184.441 151.088825,182.6815 L174.775,158.863 L198.461175,182.6815 C200.2109,184.441 203.0391,184.441 204.788825,182.6815 C206.53855,180.922 206.53855,178.078 204.788825,176.3185 L177.938825,149.3185 C176.1891,147.559 173.3609,147.559 171.611175,149.3185 L147.925,173.137 L133.188825,158.3185 C131.4391,156.559 128.6109,156.559 126.861175,158.3185 L92.37235,193 L53.95,193 L53.95,130 L215.05,130 L215.05,193 L121.075,193 C118.6048,193 116.6,195.016 116.6,197.5 C116.6,199.984 118.6048,202 121.075,202 L219.525,202 C221.999675,202 224,199.984 224,197.5 L224,125.5 C224,123.016 221.999675,121 219.525,121 L49.475,121 C47.0048,121 45,123.016 45,125.5 L45,125.5 Z M85.5,139 C92.943,139 99,145.057 99,152.5 C99,159.943 92.943,166 85.5,166 C78.057,166 72,159.943 72,152.5 C72,145.057 78.057,139 85.5,139 L85.5,139 Z M86,148 C83.245,148 81,150.245 81,153 C81,155.755 83.245,158 86,158 C88.755,158 91,155.755 91,153 C91,150.245 88.755,148 86,148 L86,148 Z M93.5833333,275 C96.0213333,275 98,272.928 98,270.375 L98,242.625 C98,240.072 96.0213333,238 93.5833333,238 L49.4166667,238 C46.9786667,238 45,240.072 45,242.625 L45,270.375 C45,272.928 46.9786667,275 49.4166667,275 C51.8546667,275 53.8333333,272.928 53.8333333,270.375 L53.8333333,247.25 L89.1666667,247.25 L89.1666667,270.375 C89.1666667,272.928 91.1453333,275 93.5833333,275 L93.5833333,275 Z M155.583333,275 C158.02575,275 160,272.928 160,270.375 L160,242.625 C160,240.072 158.02575,238 155.583333,238 L111.416667,238 C108.978667,238 107,240.072 107,242.625 L107,270.375 C107,272.928 108.978667,275 111.416667,275 C113.854667,275 115.833333,272.928 115.833333,270.375 L115.833333,247.25 L151.166667,247.25 L151.166667,270.375 C151.166667,272.928 153.140917,275 155.583333,275 L155.583333,275 Z M219.583333,275 C222.02575,275 224,272.928 224,270.375 L224,242.625 C224,240.072 222.02575,238 219.583333,238 L175.416667,238 C172.97425,238 171,240.072 171,242.625 L171,270.375 C171,272.928 172.97425,275 175.416667,275 C177.859083,275 179.833333,272.928 179.833333,270.375 L179.833333,247.25 L215.166667,247.25 L215.166667,270.375 C215.166667,272.928 217.140917,275 219.583333,275 L219.583333,275 Z M140,216 C140,213.24 137.765586,211 135.012469,211 L134.962594,211 C132.209476,211 130,213.24 130,216 C130,218.76 132.254364,221 135.012469,221 C137.765586,221 140,218.76 140,216 L140,216 Z M159,216 C159,213.24 156.765586,211 154.012469,211 L153.962594,211 C151.209476,211 149,213.24 149,216 C149,218.76 151.259352,221 154.012469,221 C156.765586,221 159,218.76 159,216 L159,216 Z M122,216 C122,213.24 119.765586,211 117.012469,211 L116.962594,211 C114.209476,211 112,213.24 112,216 C112,218.76 114.259352,221 117.012469,221 C119.765586,221 122,218.76 122,216 L122,216 Z" id="path-2"></path>
        <filter x="-2.6%" y="-1.9%" width="105.2%" height="105.2%" filterUnits="objectBoundingBox" id="filter-3">
            <feOffset dx="0" dy="2" in="SourceAlpha" result="shadowOffsetOuter1"></feOffset>
            <feGaussianBlur stdDeviation="2" in="shadowOffsetOuter1" result="shadowBlurOuter1"></feGaussianBlur>
            <feColorMatrix values="0 0 0 0 0   0 0 0 0 0   0 0 0 0 0  0 0 0 0.5 0" type="matrix" in="shadowBlurOuter1"></feColorMatrix>
        </filter>
    </defs>
    <g id="Page-11" stroke="none" stroke-width="1" fill="none" fill-rule="evenodd">
        <g id="Technologies-V1-Copy" transform="translate(-186.000000, -2399.000000)">
            <g id="Group-16" transform="translate(190.000000, 2379.000000)">
                <g id="Group-3">
                    <g id="website">
                        <use fill="black" fill-opacity="1" filter="url(#filter-3)" xlink:href="#path-2"></use>
                        <use fill="#93E1FF" fill-rule="evenodd" xlink:href="#path-2"></use>
                        <use fill-opacity="0.6" fill="url(#linearGradient-1)" fill-rule="evenodd" xlink:href="#path-2"></use>
                    </g>
                </g>
            </g>
        </g>
    </g>
</svg>