<?xml version="1.0" encoding="UTF-8"?>
<svg width="309px" height="309px" viewBox="0 0 309 309" version="1.1" xmlns="http://www.w3.org/2000/svg" xmlns:xlink="http://www.w3.org/1999/xlink">
    <!-- Generator: Sketch 43.1 (39012) - http://www.bohemiancoding.com/sketch -->
    <title>cloud-files@1x</title>
    <desc>Created with Sketch.</desc>
    <defs>
        <linearGradient x1="30.1509797%" y1="92.2033884%" x2="100%" y2="9.73676108%" id="linearGradient-1">
            <stop stop-color="#429BD2" offset="0%"></stop>
            <stop stop-color="#A1B555" offset="41.6701275%"></stop>
            <stop stop-color="#FBC131" offset="100%"></stop>
        </linearGradient>
        <path d="M2208,333 C2208,335.755 2210.24,338 2213,338 C2215.76,338 2218,335.755 2218,333 C2218,330.245 2215.76,328 2213,328 C2210.24,328 2208,330.245 2208,333 L2208,333 Z M2099,353.8 L2099,333 C2099,330.1296 2101.30606,327.8 2104.15897,327.8 L2197.97491,327.8 C2199.52776,323.3956 2202.96364,319.9272 2207.33845,318.3568 L2207.33845,312.2 C2207.33845,309.3296 2209.64451,307 2212.49742,307 C2215.35033,307 2217.65639,309.3296 2217.65639,312.2 L2217.65639,318.3568 C2222.0312,319.9272 2225.46708,323.3956 2227.01993,327.8 L2320.84103,327.8 C2323.69394,327.8 2326,330.1296 2326,333 L2326,353.8 C2326,356.6704 2323.69394,359 2320.84103,359 C2317.98811,359 2315.68205,356.6704 2315.68205,353.8 L2315.68205,338.2 L2227.01993,338.2 C2225.46708,342.6044 2222.0312,346.0728 2217.65639,347.6432 L2217.65639,353.8 C2217.65639,356.6704 2215.35033,359 2212.49742,359 C2209.64451,359 2207.33845,356.6704 2207.33845,353.8 L2207.33845,347.638 C2202.96364,346.0728 2199.52776,342.6044 2197.97491,338.2 L2109.31795,338.2 L2109.31795,353.8 C2109.31795,356.6704 2107.01189,359 2104.15897,359 C2101.30606,359 2099,356.6704 2099,353.8 L2099,353.8 Z M2299.16667,409 L2319.83333,409 C2322.6905,409 2325,406.76 2325,404 C2325,401.24 2322.6905,399 2319.83333,399 L2299.16667,399 C2296.3095,399 2294,401.24 2294,404 C2294,406.76 2296.3095,409 2299.16667,409 L2299.16667,409 Z M2340.8,441 L2299.2,441 C2296.3244,441 2294,443.24 2294,446 C2294,448.76 2296.3244,451 2299.2,451 L2340.8,451 C2343.6756,451 2346,448.76 2346,446 C2346,443.24 2343.6756,441 2340.8,441 L2340.8,441 Z M2340.8,421 L2299.2,421 C2296.3244,421 2294,423.24 2294,426 C2294,428.76 2296.3244,431 2299.2,431 L2340.8,431 C2343.6756,431 2346,428.76 2346,426 C2346,423.24 2343.6756,421 2340.8,421 L2340.8,421 Z M2358,462 L2357.99479,380 L2285,380 L2285,462 L2358,462 Z M2367,379.3 L2367,461.7 C2367,467.38045 2362.41533,472 2356.77778,472 L2285.22222,472 C2279.58467,472 2275,467.38045 2275,461.7 L2275,379.3 C2275,373.61955 2279.58467,369 2285.22222,369 L2356.77778,369 C2362.41533,369 2367,373.61955 2367,379.3 L2367,379.3 Z M2084.16667,409 L2104.83333,409 C2107.6905,409 2110,406.76 2110,404 C2110,401.24 2107.6905,399 2104.83333,399 L2084.16667,399 C2081.3095,399 2079,401.24 2079,404 C2079,406.76 2081.3095,409 2084.16667,409 L2084.16667,409 Z M2125.8,441 L2084.2,441 C2081.3244,441 2079,443.24 2079,446 C2079,448.76 2081.3244,451 2084.2,451 L2125.8,451 C2128.6756,451 2131,448.76 2131,446 C2131,443.24 2128.6756,441 2125.8,441 L2125.8,441 Z M2125.8,421 L2084.2,421 C2081.3244,421 2079,423.24 2079,426 C2079,428.76 2081.3244,431 2084.2,431 L2125.8,431 C2128.6756,431 2131,428.76 2131,426 C2131,423.24 2128.6756,421 2125.8,421 L2125.8,421 Z M2141,462 L2140.99479,380 L2068,380 L2068,462 L2141,462 Z M2150,379.3 L2150,461.7 C2150,467.38045 2145.41533,472 2139.77778,472 L2068.22222,472 C2062.58467,472 2058,467.38045 2058,461.7 L2058,379.3 C2058,373.61955 2062.58467,369 2068.22222,369 L2139.77778,369 C2145.41533,369 2150,373.61955 2150,379.3 L2150,379.3 Z M2192.16667,409 L2212.83333,409 C2215.6905,409 2218,406.76 2218,404 C2218,401.24 2215.6905,399 2212.83333,399 L2192.16667,399 C2189.3095,399 2187,401.24 2187,404 C2187,406.76 2189.3095,409 2192.16667,409 L2192.16667,409 Z M2233.8,441 L2192.2,441 C2189.3244,441 2187,443.24 2187,446 C2187,448.76 2189.3244,451 2192.2,451 L2233.8,451 C2236.6756,451 2239,448.76 2239,446 C2239,443.24 2236.6756,441 2233.8,441 L2233.8,441 Z M2233.8,421 L2192.2,421 C2189.3244,421 2187,423.24 2187,426 C2187,428.76 2189.3244,431 2192.2,431 L2233.8,431 C2236.6756,431 2239,428.76 2239,426 C2239,423.24 2236.6756,421 2233.8,421 L2233.8,421 Z M2250,462 L2249.99479,380 L2177,380 L2177,462 L2250,462 Z M2259,379.3 L2259,461.7 C2259,467.38045 2254.41533,472 2248.77778,472 L2177.22222,472 C2171.58467,472 2167,467.38045 2167,461.7 L2167,379.3 C2167,373.61955 2171.58467,369 2177.22222,369 L2248.77778,369 C2254.41533,369 2259,373.61955 2259,379.3 L2259,379.3 Z M2121,260.192308 C2121,245.853885 2129.39583,233.249577 2142.3125,227.535692 C2141.88367,224.752923 2141.66667,221.9855 2141.66667,219.269231 C2141.66667,188.244423 2167.16417,163 2198.5,163 C2217.78717,163 2235.60183,172.565769 2246.147,188.582038 C2247.70217,190.945346 2247.0305,194.116885 2244.63833,195.661731 C2242.2565,197.201462 2239.04283,196.541577 2237.48767,194.168038 C2228.85933,181.057308 2214.28417,173.230769 2198.5,173.230769 C2172.85783,173.230769 2152,193.886692 2152,219.269231 C2152,222.645385 2152.4185,226.139192 2153.24,229.658577 C2153.84967,232.287885 2152.30483,234.932538 2149.70083,235.710077 C2138.887,238.943 2131.33333,249.004962 2131.33333,260.192308 C2131.33333,274.295423 2142.92217,285.769231 2157.16667,285.769231 L2260.5,285.769231 C2280.43817,285.769231 2296.66667,269.706923 2296.66667,249.961538 C2296.66667,230.216154 2280.43817,214.153846 2260.5,214.153846 C2252.11967,214.153846 2243.946,217.059385 2237.49283,222.333346 C2235.2815,224.133962 2232.03167,223.816808 2230.21817,221.637654 C2228.3995,219.463615 2228.71467,216.235808 2230.9105,214.440308 C2239.2185,207.657308 2249.72233,203.923077 2260.5,203.923077 C2286.14217,203.923077 2307,224.579 2307,249.961538 C2307,275.344077 2286.14217,296 2260.5,296 L2157.16667,296 C2137.2285,296 2121,279.937692 2121,260.192308 L2121,260.192308 Z" id="path-2"></path>
    </defs>
    <g id="Page-11" stroke="none" stroke-width="1" fill="none" fill-rule="evenodd">
        <g id="Technologies-V1-Copy" transform="translate(-72.000000, -5232.000000)">
            <g id="Group-26" transform="translate(-1986.000000, 5069.000000)">
                <g id="cloud-files">
                    <use fill="#93E1FF" xlink:href="#path-2"></use>
                    <use fill-opacity="0.6" fill="url(#linearGradient-1)" xlink:href="#path-2"></use>
                </g>
            </g>
        </g>
    </g>
</svg>